<?xml version="1.0" encoding="utf-8"?>
<!-- Generator: Adobe Illustrator 25.0.0, SVG Export Plug-In . SVG Version: 6.00 Build 0)  -->
<svg version="1.1" id="Layer_1" xmlns="http://www.w3.org/2000/svg" xmlns:xlink="http://www.w3.org/1999/xlink" x="0px" y="0px"
	 width="500px" height="343.7px" viewBox="0 0 500 343.7" style="enable-background:new 0 0 500 343.7;" xml:space="preserve">
<style type="text/css">
	.st0{fill:#FFFFFF;}
	.st1{fill:#D0CFCD;}
	.st2{fill:#D1CECA;}
	.st3{fill:#262F38;}
	.st4{clip-path:url(#SVGID_2_);}
	.st5{opacity:0.48;fill:#434E56;stroke:#434E56;stroke-width:1.8073;stroke-miterlimit:10;}
	.st6{opacity:0.48;fill:#434E56;stroke:#434E56;stroke-width:1.9651;stroke-miterlimit:10;}
	.st7{fill:#93D500;}
	.st8{fill:#DA0064;}
	.st9{fill:#407A1B;}
	.st10{fill:#96C11E;stroke:#262F38;stroke-width:1.3688;stroke-miterlimit:10;}
	.st11{fill:#434E56;}
	.st12{fill:#D3D0CD;}
	.st13{fill:#990046;}
	.st14{fill:#96C11E;}
	.st15{fill:none;stroke:#FFFFFF;stroke-width:2.4089;stroke-linecap:round;stroke-miterlimit:10;}
</style>
<path class="st0" d="M492,174c-3.8-9-9.9-16.4-17.5-21.5c5.1-8.8,8.9-18.9,7.9-30.3c-1.2-14.8-10.1-28.7-24.5-38
	c-12.4-8.1-27.9-12.6-43.5-12.6c-3.8,0-7.5,0.3-11.1,0.8c-3.3,0.5-6.8,1.3-10.4,2.3c-2.4-6.9-5.9-13-9.2-17.8
	C375.5,44.7,364.5,35,352,29.1c-10.5-5-22.3-7.6-34.3-7.6c-9.3,0-18.3,1.5-26.8,4.5c0-2.4,0-4.8-0.1-7.3c-0.2-4.6-1.9-8.3-4.8-10.9
	c-2.5-2.5-6-4-9.9-4h-1.2c-1.8-0.1-3.8-0.2-6-0.2c-2.5,0-5,0.1-7.4,0.2c-0.3,0-0.7,0-1,0H77.6c-2.2,0-4.5-0.1-6.7-0.1
	C63.1,3.5,55,3.4,47,3.4c-7.5,0-14.2,0.1-20.4,0.3h-4.3c-5.8,0-10.7,3.4-12.8,8.2C7,16.7,7.3,22.2,7.5,26c0.1,0.9,0.1,1.8,0.1,2.4
	l0,124.7c0,0.3,0,0.8-0.1,1.2c-0.2,2.9-0.5,7.2,1.6,11.3c1.2,2.4,3,4.1,4.9,5.4c2.1,1.5,4.6,2.4,7.4,2.6c2.2,0.3,4.2,0.3,5.4,0.3
	c2.4,0,4.7-0.2,6.6-0.3c0,0,0,0,0,0h3.2c-0.5,1.1-0.8,2.1-1,3.1c-1.9,4-2.2,8.2-2.3,10.7c-0.2,3.7-0.1,7.3,0,10.8l0,0.2
	c0.3,7.2,0.7,14.6,1.1,20.6c0.2,2.5,0.3,4.9,0.5,7.4c0.7,10.7,1.4,21.7,1.6,32.4c0.2,8,0,15.2-0.4,22.1c-0.2,3.7,1,7.1,3.4,9.7
	c1.3,1.3,2.8,2.4,4.5,3.1c0.7,0.5,1.4,0.9,2.1,1.3c9.8,4.8,20,8.1,30.2,9.8c-0.1,4-0.2,7.8-0.4,11.6c-0.2,3.7,1,7.1,3.4,9.7
	c1.3,1.3,2.8,2.4,4.5,3.1c0.7,0.5,1.4,0.9,2.1,1.3c14.9,7.3,30.8,11.2,45.9,11.2c0,0,0,0,0,0c11.3,0,21.9-2.1,31.5-6.3
	c8-3.5,14.3-8,18.8-13.3c0.6-0.7,1.1-1.5,1.6-2.4c6.1,1.2,12.2,1.8,18.1,1.8c0,0,0,0,0,0c11.3,0,21.9-2.1,31.5-6.3
	c8-3.5,14.3-8,18.8-13.3c1.2-1.5,2.1-3.2,2.5-5c0.4-1.3,0.5-2.6,0.5-4c0-1-0.1-2-0.1-3c2,0.2,4.1,0.3,6.2,0.3
	c8.8,0,17.2-1.7,24.9-4.9c5.4-2.3,9.8-5,13.5-8c7.6,9.9,17.4,16.6,29.2,19.9c5.3,1.5,10.9,2.2,16.4,2.2c20.9,0,40.2-10.4,51.6-28
	c3.7-5.7,6.5-11.8,8.3-18.1c6.8,2.3,14.2,3.6,21.9,3.6c10.1,0,20.2-2.2,29.3-6.3c13.6-6.1,25.5-17.2,32.6-30.5
	C497,204.8,498.1,188.5,492,174z"/>
<g>
	<g>
		<g>
			<path class="st0" d="M477.4,182.4c-3.3-9.5-11.4-13.9-19.4-17c-3.8-1.5-7.7-2.5-11.7-3.2c0,0,0,0,0,0c3.2-2.9,6-6.6,8.1-10.1
				c4.9-8.4,9.1-18.5,9.4-28.3c0.3-11.3-6.1-21.3-16-26.5c-4.2-2.2-8.8-3.9-13.4-5.1c-5.6-1.6-9.2-3.5-14.9-4
				c-2.2-0.2-4.1,0.4-5.6,1.5c-8.2-0.3-16.5,1.6-24.3,4.4c-2.8,1-6,2.4-9.1,4.2c-1.6-3.6-3.4-7.1-5.1-10.5
				c-3.2-6.4-6.5-12.8-10.6-18.6c-8.7-12.4-21-24.7-36.5-27.8c-15.5-3.1-33,0.3-46.8,8.1c-13.3,7.6-21.3,20.2-25,34.7
				c-1.4-0.4-3.1-1-3.9-1.3c-3.4-1.3-7.4-3.2-11.6-3.1c-0.6,0-1.1,0.1-1.7,0.1c-5.1-5.3-15.7-3.2-21.6,0.2c-7,4-13,10.5-16.4,17.7
				c-3.8,8.2-5.5,17.2-4.8,26.2c0.4,4.7,1.1,9.3,2.3,13.9c0.2,0.6,0.3,1.2,0.5,1.8c-0.9,0-1.7,0-2.6,0c-6,0.1-11.9,0.5-17.8,1.4
				c-10,1.6-19.6,5.7-27,12.8c-7.1,6.8-11.7,16.8-10.9,26.7c0.1,1.2,0.3,2.3,0.4,3.4c-0.3,1-0.5,2.1-0.4,3.2c0.3,3.7,0.5,5,1,7.7
				c0.5,2.6,1.3,4.9,2.4,7.3c1.9,4.3,4.5,8.2,7.8,11.5c7,7.1,16.7,11.2,26.4,13.1c9.5,1.9,19.5,3,29.2,2.6c0.2,0,0.4,0,0.6,0
				c2.2,7.5,6.3,14.7,10.9,20.7c7.3,9.6,17.6,16.9,29.6,19c12.1,2.1,23.9,0.4,34.8-5.3c3.9-2,9.1-5.4,13.6-9.5
				c3.1,2.1,6.3,4,8.9,5.8c5,3.6,9.6,7.7,14.6,11.4c10.6,7.8,23.4,11.8,36.3,7.6c11.9-3.9,21.8-12.8,27.6-23.8
				c3.1-5.9,5.5-12.3,6.7-18.8c0.5-2.4,0.9-4.9,1.1-7.4c1.2,0.8,2.4,1.5,3.6,2.1c7.2,3.9,15,6.3,23.1,7.1
				c15.5,1.5,30.9-4.2,42.4-14.4C472.9,213.9,482.5,197.4,477.4,182.4z"/>
			<g>
				<g>
					<path class="st1" d="M197.3,161.2c0.7,8.5,1,16.9,0.9,25.4c-0.1,7.8,12.1,7.9,12.2,0c0.1-8.5-0.2-17-0.9-25.4
						C208.8,153.4,196.6,153.4,197.3,161.2L197.3,161.2z"/>
				</g>
			</g>
			<g>
				<g>
					<path class="st1" d="M207,184.8c8,0.9,16.7,2.5,24.2,5.6c3.9,1.6,4.4,3.8,4.9,7.8c0.5,4.5,0.9,9.1,1.3,13.7
						c1.3,17.3,1.5,34.6,1.6,51.9c0,7.8,12.2,7.9,12.2,0c0-21-0.4-41.9-2.6-62.8c-1-9.5-2.5-17.4-12.1-21.5
						c-9.3-3.9-19.6-5.7-29.5-6.8C199.2,171.8,199.3,184,207,184.8L207,184.8z"/>
				</g>
			</g>
			<g>
				<g>
					<path class="st1" d="M205.6,170c25.3,0.5,50.5,0.7,75.8,0.5c3.4,0,6-2.8,6.1-6.1c0.5-12.4-0.3-24.9-0.6-37.3
						c-0.4-19.1-0.7-38.2-1.1-57.3c-0.1-4.9-0.4-9.9-0.2-14.8c0.3-7.8-11.9-7.8-12.2,0c-0.5,12.4,0.3,24.9,0.6,37.3
						c0.4,19.1,0.7,38.2,1.1,57.3c0.1,4.9,0.4,9.9,0.2,14.8c2-2,4.1-4.1,6.1-6.1c-25.3,0.2-50.5,0-75.8-0.5
						C197.8,157.7,197.8,169.8,205.6,170L205.6,170z"/>
				</g>
			</g>
			<g>
				<path class="st2" d="M211.2,235.7c0.6,4.8,3.1,8.2,5.7,12.2c2.6,3.9,5.5,7.3,9,10.4c7,6.1,15.2,10.8,24.3,13.1
					c8.3,2.2,17.9,2.7,26.1-0.1c8.7-3,15.3-8.3,20.9-15.4c1.6-2,1.8-4.4,0-6.4c-0.2-0.3-0.6-0.5-0.9-0.7c-1.7-1.1-4-0.6-5.4,0.7
					c-4.8,4.3-11.9,6.5-18.1,7.3c-6.6,0.8-13.1,1.1-19.6-0.8c-6.3-1.8-12.3-5.2-17.4-9.3c-2.9-2.4-5.9-4.9-8.6-7.5
					c-2.8-2.7-4.8-5.9-8.1-8C216.1,229.2,210.7,231.6,211.2,235.7L211.2,235.7z"/>
				<path class="st2" d="M334.9,281.8c3.5,0.6,6.2,2.1,9.8,1.8c3.3-0.3,6.7-1,9.9-2c7.4-2.3,13.7-6.3,19.3-11.6
					c5.7-5.4,9.8-12.7,12.7-19.8c1.4-3.4,2.6-6.9,3.5-10.4c1.2-4.7,0.8-8.3-0.2-13c-1-4.7-7.9-5.4-10.1-1.3c-1.6,3-3.3,5.6-4.2,8.9
					c-0.8,3.1-1.8,6.2-3,9.1c-2.4,5.7-5.7,10.9-9.6,15.8c-3.5,4.3-7.8,8.3-12.3,11.5c-2.5,1.7-5.1,3.1-7.8,4.3
					c-2.6,1.2-5.3,3.4-8.1,4C333.6,279.4,333.5,281.6,334.9,281.8L334.9,281.8z"/>
				<path class="st2" d="M402.1,234.8c4.2,3.9,8.3,6.3,14,7.1c6.1,0.9,12.5-0.5,18.5-1.7c12-2.4,22.7-7.2,28.9-18.3
					c6.4-11.3,12.3-23.4,10.3-36.7c-0.8-5.5-3.5-10.8-7.6-14.7c-4-3.8-9.4-4.2-13.7-7.1c-0.6,0.8-1.2,1.5-1.8,2.3
					c1.8,2.2,4.4,3.3,6.7,5c2.6,1.9,4.9,4,6.8,6.6c3.4,4.8,5.1,10.2,4.8,16.1c-0.3,5.9-2.1,11.6-5.2,16.6
					c-3.4,5.4-8.5,9.5-12.6,14.3c-2,2.3-0.9,7.4,2.9,6.9c8.9-1.1,15-6.6,19.9-13.9c4.8-7.2,7.3-16.2,6-24.8
					c-1.1-7.5-4.8-14.8-9.9-20.5c-4-4.5-12.3-11.3-18.8-8.8c-1.1,0.4-1.5,2-0.4,2.7c3.5,2,4,6.8,5,10.5c1,3.9,2.2,7.8,2.6,11.8
					c1,8.8-3.4,18.8-7.4,26.4c-4.4,8.3-11.7,10.2-20.2,12.8c-4.7,1.4-9.5,2.4-14.3,3.4c-4.5,0.9-9.2,2.2-13.8,1.7
					C401.9,232.6,401.3,234.1,402.1,234.8L402.1,234.8z"/>
				<path class="st2" d="M222.5,223.6c-2.6-0.3-4.7-1.1-7.4-1.3c-2.5-0.2-5-0.4-7.5-0.5c-5-0.2-9.9-0.6-14.9-1.3
					c-8.6-1.3-17.2-3.3-24.9-7.5c-14.5-8-25.2-21.9-23.4-39.1c0.2-1.6-2-1.8-2.7-0.7c-5.4,7.8-5.6,18.3-3.1,27.3
					c2.9,10.5,10.1,18.6,19.5,23.9c9.6,5.4,20.5,8.1,31.4,9.2c6,0.6,12.2,0.3,18.1-0.7c2.8-0.4,5.3-1.1,7.9-2.2
					c1.2-0.5,2.5-0.9,3.6-1.6c1.6-0.9,2.5-2.2,3.9-3.3C223.9,225,223.6,223.8,222.5,223.6L222.5,223.6z"/>
				<path class="st2" d="M317.5,41.7c5.5,2.8,11.7,3.9,17.2,7c5.3,3,10.7,7.6,14.3,12.5c8.1,11.2,10.8,25.2,18.6,36.6
					c5.3,7.6,15.8,1.1,12.2-7.1c-6.2-14.3-10.4-30-21.7-41.4c-5.6-5.7-12-9.1-19.5-11.6c-6.9-2.3-14.5-3.5-21.1,0
					C316,38.4,316,40.9,317.5,41.7L317.5,41.7z"/>
				<path class="st2" d="M211.1,83.8c-9.1,4.2-15.8,14.5-18.9,23.8c-1.8,5.3-2.2,11-1.8,16.6c0.3,5.8,0,13.2,2.7,18.4
					c2.4,4.7,9.1,3,10.5-1.4c1.6-4.7,0.1-10.6-0.1-15.5c-0.2-4.7-0.1-9.5,0.7-14.2c0.7-4.3,1.3-8.5,3.3-12.5c2-4.2,4.5-8.2,6.7-12.3
					C215.2,84.8,213,82.9,211.1,83.8L211.1,83.8z"/>
				<path class="st2" d="M424.2,90.3c3.3,3.2,7.9,4.6,11.7,6.9c4,2.4,7.7,5.7,10.2,9.6c2.6,4,4,8.5,5,13.2
					c1.1,4.8,2.1,10.3,0.6,15.2c-1.2,4-3.4,6.1-6.7,8.5c-3.8,2.9-6.2,6.9-5.3,11.8c1.7,9.7,13.9,11.2,15.8,20.4
					c1.4,6.7,11.6,3.9,10.3-2.8c-1-4.8-3.9-9-7.6-12.2c-1.8-1.5-3.8-2.7-5.5-4.3c-1.8-1.7-2.2-2-0.2-3.1
					c9.8-5.6,13.7-15.1,12.4-26.2c-1.2-10.6-4.9-21-12.4-28.7c-3.4-3.5-7.3-6.3-11.8-8.2c-4.5-1.9-10-4.2-14.9-4
					C423.9,86.7,422.9,89,424.2,90.3L424.2,90.3z"/>
			</g>
			<g>
				<path class="st3" d="M370.7,106.2c5.5-2.8,10.3-6.7,15.8-9.5c4.8-2.5,9.7-4.5,15-5.6c8.7-1.9,17.8-1.6,26.4,0.5
					c14.4,3.4,30.2,11.7,34.6,27c4.2,14.5-6.1,28-14.4,38.8c-2,2.6,0.8,5.7,3.4,5.9c12.8,1,23,12.3,25.1,24.5
					c2.4,13.7-4.5,27.7-14.4,36.9c-10.3,9.5-24.5,14.7-38.5,13.9c-14.1-0.8-27.3-8.2-37.1-18c-2-2-5.4,0.6-3.9,3
					c14.5,22.8,45.1,27.8,68.7,17.2c22.8-10.3,40.9-37.8,30.3-62.8c-5.2-12.4-16.5-21.5-30.1-22.6c1.1,2,2.3,3.9,3.4,5.9
					c8.4-11,17.5-23.8,16.3-38.3c-1-12.6-9.4-23.4-19.7-30.1c-13.5-8.8-31.4-12.5-47.3-10.2c-13.3,2-29.2,8.9-35.8,21.4
					C367.8,105.5,369.3,106.9,370.7,106.2L370.7,106.2z"/>
				<path class="st3" d="M225.1,77.6c-13.3-2.2-25.7,9-31.9,19.7c-7.9,13.6-7.2,30.9,0.3,44.4c1.5-1.9,3-3.8,4.4-5.8
					c-28.6-10-60.4,8.9-64.4,39.2c-3.8,28.9,19,54.9,46.3,60.8c16.6,3.6,35.3,1.4,50.3-6.8c3.4-1.9,1.1-7.9-2.7-6.4
					c-12.5,4.7-25,8-38.5,6.8c-12.6-1.1-24.8-6.3-33.7-15.3c-17.2-17.4-19.7-45.5-0.8-62.8c11.2-10.2,27.3-12.7,41.4-7.8
					c3.4,1.2,6-2.9,4.4-5.8c-6.5-11.7-6.3-25.3-0.1-37c2.6-4.9,6.1-9.4,10.5-12.8c4.4-3.4,9.8-5.4,14.7-7.9
					C226.4,79.5,226.3,77.8,225.1,77.6L225.1,77.6z"/>
				<path class="st3" d="M204.2,232.7c-0.5,4.9,2,10.8,4.1,15.1c2.3,4.8,5.5,9.2,9.2,13c7.4,7.9,17.1,13.6,27.6,16.5
					c11.8,3.2,25.1,2.9,36.4-2c9.4-4,20.4-12.7,21.5-23.6c0.3-3.5-4.2-3.7-5.8-1.6c-2.9,3.8-5,8-8.6,11.4c-3.7,3.5-8.3,6.1-13.2,7.7
					c-9.8,3.2-20.6,2.7-30.4-0.5c-8.5-2.8-16.5-7.9-22.6-14.5c-2.9-3.1-5.4-6.6-7.3-10.4c-2.1-4.1-2.8-8.7-4.6-12.8
					C209,227.6,204.5,229.7,204.2,232.7L204.2,232.7z"/>
				<path class="st3" d="M292.6,243.3c1,4.5,3.3,8.7,5.6,12.6c2.7,4.7,5.5,9.4,8.7,13.8c6.2,8.4,14.2,14.2,24.3,17
					c21.5,5.9,44.3-2.8,56.4-21.4c6.5-10,10.2-22.9,8.6-34.8c-0.6-4.8-8-5.1-7.7,0c0.6,12.5-2.3,24.6-10.3,34.4
					c-7.7,9.5-19,15.1-31.2,15.6c-11.3,0.4-23.5-3.4-31.1-12.1c-3.9-4.5-7-9.6-10.1-14.7c-2.6-4.4-5.1-9.3-9-12.7
					C294.8,239.3,292.1,240.9,292.6,243.3L292.6,243.3z"/>
				<path class="st3" d="M215.7,82.9c8.4-1.2,15.8-3.4,24.4-2.4c8.4,1,15.6,4.6,22.5,9.4c3.2,2.2,6.9-2.7,4.1-5.3
					c-7.1-6.5-16.6-9.9-26.1-10.9c-8.6-0.9-19.9,0.4-26.4,6.6C212.9,81.5,214.3,83.1,215.7,82.9L215.7,82.9z"/>
				<path class="st3" d="M258.8,81.6c2.4-4.7,3.9-9.9,6.6-14.5c2.8-4.7,6.4-8.7,10.6-12.3c8.7-7.4,19.5-12,30.7-13.7
					c21.7-3.2,43.6,5.4,57.1,22.7c3.6,4.6,6.6,9.9,8.8,15.3c2.3,5.7,3.5,11.7,5.5,17.4c1,2.8,6,3.6,6.6,0c1.7-11.9-3.7-24.3-10.2-34
					c-6.9-10.3-16.4-18.9-27.7-24.3c-23.3-11.1-52.7-8.1-73,8.1c-9.3,7.5-21,21.8-18,34.7C256.2,82.6,258.2,82.8,258.8,81.6
					L258.8,81.6z"/>
			</g>
		</g>
	</g>
	<g>
		<g>
			<path class="st3" d="M275.9,162H21.8c-1.8,0-3.3-1.2-3.3-2.7V17.7c0-1.5,1.5-2.7,3.3-2.7h253.8c1.8,0,3.3,1.2,3.3,2.6l0.4,141.7
				C279.3,160.8,277.8,162,275.9,162z"/>
			<g>
				<path class="st3" d="M275.9,161.5c-18.7-0.2-37.4-0.2-56.1-0.2c-36.9,0-73.9-0.1-110.8-0.1c-27.1,0-54.3,0-81.4,0
					c-1.7,0-4,0.4-5.7,0c-3.6-0.9-2.6-4-2.6-6.8c0-13.9,0-27.9,0-41.8c0-18.8,0-37.6,0-56.3c0-12-1-24.5,0-36.5
					c0.2-2.4,1.1-3.4,3.6-3.8c2.6-0.4,5.6,0,8.2,0c11.7,0,23.4,0,35.1,0c36.4,0,72.8,0,109.2,0c29.7,0,59.3,0,89,0
					c3.6,0,12.5-1.8,13.6,2.9c0.8,3.6,0,8.3,0,12c0,7.3,0,14.6,0.1,21.9c0.1,33.3,0.2,66.7,0.4,100c0,2.8,1.4,8-2.7,8.7
					c-0.9,0.1-0.5,1.5,0.4,1.3c4.4-0.7,3.9-3.8,3.9-7.2c0-5.5,0-11.1,0-16.6c0-18.3,0-36.6-0.1-54.8c0-17.3-0.1-34.7-0.1-52
					c0-4.3,0.1-8.7,0-13.1c-0.1-2.9-1.3-4.5-4.5-4.8c-6.9-0.5-14.1,0-21,0c-15,0-29.9,0-44.9,0c-38.6,0-77.3,0-115.9,0
					c-23.5,0-47.2-1-70.7,0c-2.7,0.1-4.8,0.9-5.1,3.9c-0.4,3.4,0,7.2,0,10.7c0,16.4,0,32.9,0,49.3c0,18.8,0,37.5,0,56.3
					c0,6.3,0,12.5,0,18.8c0,2.1-0.7,5.7,0.4,7.7c2.1,3.9,13.9,2,17.1,2c13.4,0,26.8,0,40.2,0c38.3,0,76.5,0,114.8-0.1
					c27.2,0,54.4,0.1,81.7-0.2c1.4,0,2.8,0,4.2,0C276.6,162.5,276.6,161.5,275.9,161.5z"/>
			</g>
		</g>
		<g>
			<defs>
				<path id="SVGID_1_" d="M272.9,159.8H24.3c-1.8,0-3.3-1.2-3.3-2.6V19.8c0-1.4,1.5-2.6,3.3-2.6h248.2c1.8,0,3.3,1.1,3.3,2.6
					l0.4,137.4C276.1,158.6,274.7,159.8,272.9,159.8z"/>
			</defs>
			<clipPath id="SVGID_2_">
				<use xlink:href="#SVGID_1_"  style="overflow:visible;"/>
			</clipPath>
			<g class="st4">
				
					<rect x="75.4" y="-69.9" transform="matrix(0.8409 0.5411 -0.5411 0.8409 52.7815 -41.5598)" class="st5" width="43.4" height="277.8"/>
				
					<rect x="139.3" y="-61.5" transform="matrix(0.8409 0.5411 -0.5411 0.8409 74.8236 -83.217)" class="st6" width="79.4" height="294.3"/>
			</g>
			<use xlink:href="#SVGID_1_"  style="overflow:visible;fill:none;stroke:#262F38;stroke-width:1.5688;stroke-miterlimit:10;"/>
		</g>
		<g>
			<path class="st7" d="M142,142.6H35c-2.6,0-4.7-2.1-4.7-4.7V43.4c0-2.6,2.1-4.7,4.7-4.7h107c2.6,0,4.7,2.1,4.7,4.7v94.5
				C146.7,140.5,144.6,142.6,142,142.6z"/>
			<path class="st8" d="M262.1,85.5H159.2c-2.6,0-4.7-2.1-4.7-4.7V43.1c0-2.6,2.1-4.7,4.7-4.7h102.9c2.6,0,4.7,2.1,4.7,4.7v37.7
				C266.8,83.4,264.7,85.5,262.1,85.5z"/>
			<path class="st8" d="M262.1,142.5H159.2c-2.6,0-4.7-2.1-4.7-4.7v-37.7c0-2.6,2.1-4.7,4.7-4.7h102.9c2.6,0,4.7,2.1,4.7,4.7v37.7
				C266.8,140.3,264.7,142.5,262.1,142.5z"/>
			<g>
				<g>
					<path class="st9" d="M74.9,127.9H64c-0.1,0-0.3-0.1-0.3-0.3v-50c0-0.1,0.1-0.3,0.3-0.3h10.9c0.1,0,0.3,0.1,0.3,0.3v50
						C75.2,127.8,75,127.9,74.9,127.9z"/>
					<path class="st9" d="M74.9,128.6H64c-0.5,0-0.9-0.4-0.9-0.9v-50c0-0.5,0.4-0.9,0.9-0.9h10.9c0.5,0,0.9,0.4,0.9,0.9v50
						C75.8,128.2,75.4,128.6,74.9,128.6z M64.4,127.2h10.1V78.1H64.4V127.2z"/>
				</g>
				<g>
					<path class="st9" d="M89.3,127.9H78.4c-0.1,0-0.3-0.1-0.3-0.3V84.9c0-0.1,0.1-0.3,0.3-0.3h10.9c0.1,0,0.3,0.1,0.3,0.3v42.7
						C89.6,127.8,89.4,127.9,89.3,127.9z"/>
					<path class="st9" d="M89.3,128.6H78.4c-0.5,0-0.9-0.4-0.9-0.9V84.9c0-0.5,0.4-0.9,0.9-0.9h10.9c0.5,0,0.9,0.4,0.9,0.9v42.7
						C90.3,128.2,89.8,128.6,89.3,128.6z M78.8,127.2h10.1V85.4H78.8V127.2z"/>
				</g>
				<g>
					<path class="st9" d="M60.5,128H49.6c-0.1,0-0.3-0.1-0.3-0.3v-22.3c0-0.1,0.1-0.3,0.3-0.3h10.9c0.1,0,0.3,0.1,0.3,0.3v22.3
						C60.8,127.9,60.6,128,60.5,128z"/>
					<path class="st9" d="M60.5,128.7H49.6c-0.5,0-0.9-0.4-0.9-0.9v-22.3c0-0.5,0.4-0.9,0.9-0.9h10.9c0.5,0,0.9,0.4,0.9,0.9v22.3
						C61.4,128.3,61,128.7,60.5,128.7z M50,127.3h10.1v-21.5H50V127.3z"/>
				</g>
				<g>
					<path class="st9" d="M103.7,128H92.8c-0.1,0-0.3-0.1-0.3-0.3v-22.3c0-0.1,0.1-0.3,0.3-0.3h10.9c0.1,0,0.3,0.1,0.3,0.3v22.3
						C104,127.9,103.9,128,103.7,128z"/>
					<path class="st9" d="M103.7,128.7H92.8c-0.5,0-0.9-0.4-0.9-0.9v-22.3c0-0.5,0.4-0.9,0.9-0.9h10.9c0.5,0,0.9,0.4,0.9,0.9v22.3
						C104.7,128.3,104.2,128.7,103.7,128.7z M93.2,127.3h10.1v-21.5H93.2V127.3z"/>
				</g>
				<polygon class="st3" points="111.5,131 43.4,131 43.4,67.3 45,67.3 45,129.4 111.5,129.4 				"/>
				<path class="st3" d="M42.2,74.2c0.9-2.5,1.8-5.1,2.7-7.6c-0.5,0-1,0-1.6,0c1.1,2.7,2.1,5.4,3,8.1c0.3,1,1.9,0.6,1.6-0.4
					c-0.9-2.7-1.9-5.5-3-8.1c-0.3-0.7-1.3-0.8-1.6,0c-0.9,2.5-1.8,5.1-2.7,7.6C40.3,74.8,41.8,75.2,42.2,74.2L42.2,74.2z"/>
				<path class="st3" d="M105.8,128.3c2.5,0.9,5.1,1.8,7.6,2.7c0-0.5,0-1,0-1.6c-2.7,1.1-5.4,2.1-8.1,3c-1,0.3-0.6,1.9,0.4,1.6
					c2.7-0.9,5.5-1.9,8.1-3c0.7-0.3,0.8-1.3,0-1.6c-2.5-0.9-5.1-1.8-7.6-2.7C105.2,126.4,104.8,127.9,105.8,128.3L105.8,128.3z"/>
				<g>
					<path class="st10" d="M73.6,126.8H62.7c-0.1,0-0.3-0.1-0.3-0.3v-50c0-0.1,0.1-0.3,0.3-0.3h10.9c0.1,0,0.3,0.1,0.3,0.3v50
						C73.9,126.7,73.8,126.8,73.6,126.8z"/>
					<path class="st3" d="M73.6,127.5H62.7c-0.5,0-0.9-0.4-0.9-0.9v-50c0-0.5,0.4-0.9,0.9-0.9h10.9c0.5,0,0.9,0.4,0.9,0.9v50
						C74.6,127.1,74.2,127.5,73.6,127.5z M63.1,126.1h10.1V77H63.1V126.1z"/>
				</g>
				<g>
					<path class="st8" d="M88.1,126.8H77.1c-0.1,0-0.3-0.1-0.3-0.3V83.9c0-0.1,0.1-0.3,0.3-0.3h10.9c0.1,0,0.3,0.1,0.3,0.3v42.7
						C88.3,126.7,88.2,126.8,88.1,126.8z"/>
					<path class="st3" d="M88.1,127.5H77.1c-0.5,0-0.9-0.4-0.9-0.9V83.9c0-0.5,0.4-0.9,0.9-0.9h10.9c0.5,0,0.9,0.4,0.9,0.9v42.7
						C89,127.1,88.6,127.5,88.1,127.5z M77.6,126.1h10.1V84.3H77.6V126.1z"/>
				</g>
				<g>
					<path class="st0" d="M59.2,126.9H48.3c-0.1,0-0.3-0.1-0.3-0.3v-22.3c0-0.1,0.1-0.3,0.3-0.3h10.9c0.1,0,0.3,0.1,0.3,0.3v22.3
						C59.5,126.8,59.4,126.9,59.2,126.9z"/>
					<path class="st3" d="M59.2,127.6H48.3c-0.5,0-0.9-0.4-0.9-0.9v-22.3c0-0.5,0.4-0.9,0.9-0.9h10.9c0.5,0,0.9,0.4,0.9,0.9v22.3
						C60.2,127.2,59.8,127.6,59.2,127.6z M48.7,126.2h10.1v-21.5H48.7V126.2z"/>
				</g>
				<g>
					<path class="st11" d="M102.5,126.9H91.5c-0.1,0-0.3-0.1-0.3-0.3v-22.3c0-0.1,0.1-0.3,0.3-0.3h10.9c0.1,0,0.3,0.1,0.3,0.3v22.3
						C102.7,126.8,102.6,126.9,102.5,126.9z"/>
					<path class="st3" d="M102.5,127.6H91.5c-0.5,0-0.9-0.4-0.9-0.9v-22.3c0-0.5,0.4-0.9,0.9-0.9h10.9c0.5,0,0.9,0.4,0.9,0.9v22.3
						C103.4,127.2,103,127.6,102.5,127.6z M92,126.2H102v-21.5H92V126.2z"/>
				</g>
				<path class="st12" d="M49,127c2.6,0,5.2,0,7.9,0c1.1,0,2.3-0.2,2.3-1.5c0.1-1.2-0.1-2.5-0.1-3.7c-0.1-5.5,0-11.1,0.1-16.6
					c0-1.4-2.1-1.4-2.2,0c0,5-0.1,9.9-0.1,14.9c0,1.2,0,2.4,0.1,3.6c0,0.2-0.1,1.5,0.1,1.6c-0.1-0.1,1.1-0.4,0-0.4
					c-0.3,0-0.6,0-0.9,0c-2.4,0-4.8,0-7.2,0C47.7,124.8,47.7,127,49,127L49,127z"/>
				<path class="st13" d="M78.1,127c2.8,0,5.6,0.1,8.4,0c1.3-0.1,1.9-0.8,1.8-2.1c-0.1-1.5-0.1-2.9-0.1-4.4c0-3,0-6,0-9.1
					c0-6.4,0-12.8,0-19.2c0-2.4,0-4.8,0-7.2c0-1.4-2.1-1.4-2.2,0c-0.1,10.2,0,20.3-0.1,30.5c0,1.6,0,3.2,0,4.8c0,0.8,0,1.6,0,2.4
					c0,0.3,0,0.7,0,1c0,0.3-0.1,1,0.1,1.2c0,0.1,0,0.1,0,0.2c0.6-0.3,0.7-0.5,0.2-0.4c-0.4-0.1-1,0-1.4,0c-0.8,0-1.5,0-2.3,0
					c-1.5,0-3.1,0-4.6,0C76.7,124.8,76.7,127,78.1,127L78.1,127z"/>
				<path class="st3" d="M92.6,127c2.6,0,5.2,0,7.9,0c1.1,0,2.3-0.2,2.3-1.5c0.1-1.2-0.1-2.5-0.1-3.7c-0.1-5.5,0-11.1,0.1-16.6
					c0-1.4-2.1-1.4-2.2,0c0,5-0.1,9.9-0.1,14.9c0,1.2,0,2.4,0.1,3.6c0,0.2-0.1,1.5,0.1,1.6c-0.1-0.1,1.1-0.4,0-0.4
					c-0.3,0-0.6,0-0.9,0c-2.4,0-4.8,0-7.2,0C91.2,124.8,91.2,127,92.6,127L92.6,127z"/>
				<path class="st9" d="M63.6,127c1.7,0,3.5,0,5.2,0c0.8,0,1.6,0,2.5,0c0.8,0,1.7,0.1,2.3-0.7c0.3-0.5,0.2-1.1,0.2-1.7
					c0-1-0.1-2-0.1-2.9c0-1.8,0-3.7,0-5.5c0-2.4,0-4.8,0-7.3c0-7.8,0-15.7,0-23.5c0-2.6,0-5.2,0-7.9c0-1.4-2.1-1.4-2.2,0
					c0,5.9,0,11.7,0,17.6c0,6.4,0,12.8,0,19.1c0,2.8-0.1,5.7,0,8.5c0,0.5,0,1,0,1.6c0,0.2,0,0.3,0,0.5c0,0.4-0.1,0.5,0.3,0.2
					c0.5-0.4,0-0.2-0.3-0.2c-0.3,0-0.6,0-0.9,0c-0.4,0-0.9,0-1.3,0c-2,0-3.9,0-5.9,0C62.2,124.8,62.2,127,63.6,127L63.6,127z"/>
				<path class="st3" d="M73.6,127.5H62.7c-0.5,0-0.9-0.4-0.9-0.9v-50c0-0.5,0.4-0.9,0.9-0.9h10.9c0.5,0,0.9,0.4,0.9,0.9v50
					C74.6,127.1,74.2,127.5,73.6,127.5z M63.1,126.1h10.1V77H63.1V126.1z"/>
				<path class="st3" d="M88.1,127.5H77.1c-0.5,0-0.9-0.4-0.9-0.9V83.9c0-0.5,0.4-0.9,0.9-0.9h10.9c0.5,0,0.9,0.4,0.9,0.9v42.7
					C89,127.1,88.6,127.5,88.1,127.5z M77.6,126.1h10.1V84.3H77.6V126.1z"/>
				<path class="st3" d="M59.2,127.6H48.3c-0.5,0-0.9-0.4-0.9-0.9v-22.3c0-0.5,0.4-0.9,0.9-0.9h10.9c0.5,0,0.9,0.4,0.9,0.9v22.3
					C60.2,127.2,59.8,127.6,59.2,127.6z M48.7,126.2h10.1v-21.5H48.7V126.2z"/>
				<path class="st3" d="M102.5,127.6H91.5c-0.5,0-0.9-0.4-0.9-0.9v-22.3c0-0.5,0.4-0.9,0.9-0.9h10.9c0.5,0,0.9,0.4,0.9,0.9v22.3
					C103.4,127.2,103,127.6,102.5,127.6z M92,126.2H102v-21.5H92V126.2z"/>
			</g>
			<g>
				<g>
					<circle class="st13" cx="169.5" cy="120.7" r="2.2"/>
					<path class="st13" d="M169.5,123.1c-1.3,0-2.4-1.1-2.4-2.4c0-1.3,1.1-2.4,2.4-2.4c1.3,0,2.4,1.1,2.4,2.4
						C171.9,122,170.8,123.1,169.5,123.1z M169.5,118.7c-1.1,0-2,0.9-2,2s0.9,2,2,2s2-0.9,2-2S170.6,118.7,169.5,118.7z"/>
				</g>
				<g>
					<circle class="st13" cx="174.2" cy="124.5" r="2.2"/>
					<path class="st13" d="M174.2,126.9c-1.3,0-2.4-1.1-2.4-2.4c0-1.3,1.1-2.4,2.4-2.4s2.4,1.1,2.4,2.4
						C176.6,125.8,175.5,126.9,174.2,126.9z M174.2,122.5c-1.1,0-2,0.9-2,2c0,1.1,0.9,2,2,2s2-0.9,2-2
						C176.2,123.4,175.3,122.5,174.2,122.5z"/>
				</g>
				<g>
					<circle class="st13" cx="181.8" cy="114.7" r="2.2"/>
					<path class="st13" d="M181.8,117.2c-1.3,0-2.4-1.1-2.4-2.4c0-1.3,1.1-2.4,2.4-2.4c1.3,0,2.4,1.1,2.4,2.4
						C184.2,116.1,183.2,117.2,181.8,117.2z M181.8,112.7c-1.1,0-2,0.9-2,2c0,1.1,0.9,2,2,2s2-0.9,2-2
						C183.8,113.6,182.9,112.7,181.8,112.7z"/>
				</g>
				<g>
					<circle class="st13" cx="186.9" cy="119.4" r="2.2"/>
					<path class="st13" d="M186.9,121.8c-1.3,0-2.4-1.1-2.4-2.4s1.1-2.4,2.4-2.4s2.4,1.1,2.4,2.4S188.3,121.8,186.9,121.8z
						 M186.9,117.3c-1.1,0-2,0.9-2,2s0.9,2,2,2s2-0.9,2-2S188,117.3,186.9,117.3z"/>
				</g>
				<g>
					<circle class="st13" cx="192.3" cy="109.2" r="2.2"/>
					<path class="st13" d="M192.3,111.6c-1.3,0-2.4-1.1-2.4-2.4s1.1-2.4,2.4-2.4c1.3,0,2.4,1.1,2.4,2.4S193.6,111.6,192.3,111.6z
						 M192.3,107.2c-1.1,0-2,0.9-2,2s0.9,2,2,2s2-0.9,2-2S193.4,107.2,192.3,107.2z"/>
				</g>
				<polygon class="st3" points="194.7,131.9 162.9,131.9 162.9,102.1 163.6,102.1 163.6,131.2 194.7,131.2 				"/>
				<path class="st3" d="M162.3,105.4c0.4-1.2,0.8-2.4,1.3-3.6c-0.2,0-0.5,0-0.7,0c0.5,1.3,1,2.5,1.4,3.8c0.2,0.5,0.9,0.3,0.7-0.2
					c-0.4-1.3-0.9-2.6-1.4-3.8c-0.1-0.3-0.6-0.4-0.7,0c-0.4,1.2-0.8,2.4-1.3,3.6C161.4,105.6,162.2,105.8,162.3,105.4L162.3,105.4z"
					/>
				<path class="st3" d="M192,130.6c1.2,0.4,2.4,0.8,3.6,1.3c0-0.2,0-0.5,0-0.7c-1.3,0.5-2.5,1-3.8,1.4c-0.5,0.2-0.3,0.9,0.2,0.7
					c1.3-0.4,2.6-0.9,3.8-1.4c0.3-0.1,0.4-0.6,0-0.7c-1.2-0.4-2.4-0.8-3.6-1.3C191.8,129.7,191.6,130.5,192,130.6L192,130.6z"/>
				<polygon class="st3" points="163.6,127.1 163,126.7 169.1,119.5 173.3,123.3 181.6,114 185.9,117.9 191.7,108.8 192.2,109.1 
					186,118.9 181.7,115 173.4,124.3 169.2,120.4 				"/>
				<g>
					<circle class="st14" cx="169.1" cy="120.2" r="2.2"/>
					<path class="st3" d="M169.1,122.6c-1.3,0-2.4-1.1-2.4-2.4c0-1.3,1.1-2.4,2.4-2.4c1.3,0,2.4,1.1,2.4,2.4
						C171.5,121.5,170.4,122.6,169.1,122.6z M169.1,118.2c-1.1,0-2,0.9-2,2s0.9,2,2,2s2-0.9,2-2S170.2,118.2,169.1,118.2z"/>
				</g>
				<g>
					<circle class="st14" cx="173.8" cy="124" r="2.2"/>
					<path class="st3" d="M173.8,126.4c-1.3,0-2.4-1.1-2.4-2.4s1.1-2.4,2.4-2.4c1.3,0,2.4,1.1,2.4,2.4S175.1,126.4,173.8,126.4z
						 M173.8,122c-1.1,0-2,0.9-2,2s0.9,2,2,2s2-0.9,2-2S174.9,122,173.8,122z"/>
				</g>
				<g>
					<circle class="st14" cx="181.4" cy="114.2" r="2.2"/>
					<path class="st3" d="M181.4,116.7c-1.3,0-2.4-1.1-2.4-2.4s1.1-2.4,2.4-2.4c1.3,0,2.4,1.1,2.4,2.4S182.7,116.7,181.4,116.7z
						 M181.4,112.2c-1.1,0-2,0.9-2,2s0.9,2,2,2s2-0.9,2-2S182.5,112.2,181.4,112.2z"/>
				</g>
				<g>
					<circle class="st14" cx="186.5" cy="118.9" r="2.2"/>
					<path class="st3" d="M186.5,121.3c-1.3,0-2.4-1.1-2.4-2.4c0-1.3,1.1-2.4,2.4-2.4s2.4,1.1,2.4,2.4
						C188.9,120.2,187.8,121.3,186.5,121.3z M186.5,116.8c-1.1,0-2,0.9-2,2s0.9,2,2,2s2-0.9,2-2S187.6,116.8,186.5,116.8z"/>
				</g>
				<g>
					<circle class="st14" cx="191.9" cy="108.7" r="2.2"/>
					<path class="st3" d="M191.9,111.1c-1.3,0-2.4-1.1-2.4-2.4s1.1-2.4,2.4-2.4c1.3,0,2.4,1.1,2.4,2.4S193.2,111.1,191.9,111.1z
						 M191.9,106.7c-1.1,0-2,0.9-2,2s0.9,2,2,2s2-0.9,2-2S193,106.7,191.9,106.7z"/>
				</g>
			</g>
			<g>
				<g>
					<g>
						<path class="st13" d="M195.6,63.5c-0.4,8.7-7.5,15.6-16.3,15.8c-9.3,0.1-16.9-7.5-16.8-16.8c0.1-8.8,7.1-15.9,15.8-16.3
							c0.3,0,0.6,0.2,0.6,0.6v15.8c0,0.1,0.1,0.3,0.3,0.3l15.7-0.1C195.2,62.7,195.6,63.1,195.6,63.5z"/>
						<path class="st13" d="M179,79.7c-4.5,0-8.8-1.8-12-5c-3.3-3.3-5.1-7.6-5-12.2c0.1-9,7.2-16.3,16.2-16.7c0.3,0,0.6,0.1,0.8,0.3
							c0.2,0.2,0.3,0.5,0.3,0.7v15.6l15.5-0.1c0,0,0,0,0,0c0.3,0,0.6,0.1,0.9,0.4c0.2,0.2,0.3,0.6,0.3,0.9l0,0
							c-0.4,8.9-7.7,16.1-16.7,16.2C179.2,79.7,179.1,79.7,179,79.7z M178.3,46.6C178.3,46.6,178.3,46.6,178.3,46.6
							c-8.5,0.4-15.2,7.4-15.3,15.9c-0.1,4.4,1.6,8.5,4.7,11.6c3.1,3.1,7.2,4.8,11.6,4.7c8.5-0.1,15.4-6.9,15.8-15.3
							c0-0.1,0-0.2-0.1-0.2c-0.1-0.1-0.1-0.1-0.2-0.1c0,0,0,0,0,0l-15.7,0.1c-0.2,0-0.4-0.1-0.5-0.2c-0.1-0.1-0.2-0.3-0.2-0.5V46.8
							C178.4,46.7,178.4,46.7,178.3,46.6C178.4,46.7,178.3,46.6,178.3,46.6z"/>
					</g>
					<g>
						<path class="st13" d="M181,59.4V44.9c0,0,0,0,0,0c0,0,0.1,0,0.1,0c3.9,0,7.4,1.5,10.1,4c0,0,0,0,0,0L181,59.4
							C181,59.4,181,59.4,181,59.4z"/>
						<path class="st13" d="M181,59.8c-0.1,0-0.1,0-0.2,0c-0.2-0.1-0.3-0.2-0.3-0.4V44.9c0-0.2,0.2-0.4,0.4-0.4c0,0,0.1,0,0.1,0
							c3.9,0,7.5,1.5,10.3,4.1c0.1,0.1,0.1,0.2,0.1,0.3c0,0.1,0,0.2-0.1,0.3l-10.1,10.4C181.3,59.8,181.2,59.8,181,59.8z
							 M181.4,45.3v13.2l9.3-9.5C188.1,46.7,184.8,45.4,181.4,45.3z"/>
					</g>
					<g>
						<path class="st13" d="M192.3,50.2c2.7,2.6,4.4,6.3,4.4,10.4c0,0,0,0.1-0.1,0.1h-14.5c0,0-0.1-0.1,0-0.1L192.3,50.2
							C192.3,50.2,192.3,50.2,192.3,50.2z"/>
						<path class="st13" d="M196.7,61h-14.5c-0.2,0-0.3-0.1-0.4-0.3c-0.1-0.2,0-0.4,0.1-0.5L192,49.9c0.2-0.2,0.5-0.2,0.6,0l0,0
							c2.9,2.8,4.5,6.6,4.6,10.7c0,0.1,0,0.2-0.1,0.3C196.9,61,196.8,61,196.7,61z M183,60.2h13.4c-0.1-3.6-1.5-7-4.1-9.5L183,60.2z
							 M192,50.5C192,50.5,192,50.5,192,50.5C192,50.5,192,50.5,192,50.5L192,50.5z"/>
					</g>
					<g>
						<path class="st14" d="M194.9,62.8c-0.4,8.7-7.5,15.6-16.3,15.8c-9.3,0.1-16.9-7.5-16.8-16.8c0.1-8.8,7.1-15.9,15.8-16.3
							c0.3,0,0.6,0.2,0.6,0.6v15.8c0,0.1,0.1,0.3,0.3,0.3l15.7-0.1C194.6,62,194.9,62.3,194.9,62.8z"/>
						<path class="st3" d="M178.4,79.1c-4.5,0-8.8-1.8-12-5c-3.3-3.3-5.1-7.7-5-12.3c0.1-9,7.3-16.4,16.3-16.8
							c0.3,0,0.6,0.1,0.8,0.3c0.2,0.2,0.3,0.5,0.3,0.8v15.5l15.4-0.1c0.3,0,0.7,0.1,0.9,0.4c0.2,0.3,0.4,0.6,0.4,0.9l0,0
							c-0.4,9-7.8,16.1-16.8,16.3C178.6,79.1,178.5,79.1,178.4,79.1z M177.6,46C177.6,46,177.6,46,177.6,46
							c-8.4,0.4-15.1,7.3-15.2,15.8c-0.1,4.3,1.6,8.4,4.7,11.5c3.1,3.1,7.2,4.8,11.5,4.7c8.4-0.1,15.3-6.8,15.7-15.3
							c0-0.1,0-0.1-0.1-0.1c0,0-0.1-0.1-0.1-0.1c0,0,0,0,0,0l-15.7,0.1c0,0,0,0,0,0c-0.2,0-0.4-0.1-0.6-0.2
							c-0.2-0.2-0.2-0.4-0.2-0.6L177.6,46C177.7,46,177.7,46,177.6,46C177.7,46,177.7,46,177.6,46z"/>
					</g>
					<g>
						<path class="st8" d="M180.4,58.7V44.2c0,0,0,0,0,0c0,0,0.1,0,0.1,0c3.9,0,7.4,1.5,10.1,4c0,0,0,0,0,0L180.4,58.7
							C180.4,58.7,180.4,58.7,180.4,58.7z"/>
						<path class="st3" d="M180.4,59.1c-0.1,0-0.1,0-0.2,0c-0.2-0.1-0.3-0.2-0.3-0.4V44.2c0-0.3,0.2-0.5,0.5-0.5
							c3.9,0,7.7,1.4,10.5,4.2c0.1,0.1,0.1,0.2,0.1,0.3c0,0.1,0,0.3-0.1,0.3L180.8,59C180.7,59.1,180.5,59.1,180.4,59.1z
							 M180.8,44.6v13l9.1-9.4C187.4,46,184.2,44.7,180.8,44.6z"/>
					</g>
					<g>
						<path class="st0" d="M191.7,49.5c2.7,2.6,4.4,6.3,4.4,10.4c0,0,0,0.1-0.1,0.1h-14.5c0,0-0.1-0.1,0-0.1L191.7,49.5
							C191.6,49.4,191.7,49.4,191.7,49.5z"/>
						<path class="st3" d="M196.1,60.4h-14.5c-0.2,0-0.4-0.1-0.5-0.3c-0.1-0.2,0-0.4,0.1-0.5l10.1-10.4c0.2-0.2,0.5-0.2,0.7,0l0,0
							c2.9,2.8,4.6,6.6,4.6,10.7c0,0.1-0.1,0.3-0.1,0.4C196.3,60.3,196.2,60.4,196.1,60.4z M182.5,59.5h13.2c-0.1-3.6-1.5-6.9-4-9.4
							L182.5,59.5z M191.4,49.8C191.4,49.8,191.4,49.8,191.4,49.8L191.4,49.8z"/>
					</g>
					<path class="st12" d="M182.5,60.1c1.7,0,3.5,0,5.2,0c1.7,0,3.5,0,5.2,0c1,0,2,0,2.9,0c0.4,0,0.7-0.3,0.7-0.7
						c0-0.4-0.3-0.7-0.7-0.7c-1.7,0-3.5,0-5.2,0c-1.7,0-3.5,0-5.2,0c-1,0-2,0-2.9,0c-0.4,0-0.7,0.3-0.7,0.7
						C181.8,59.8,182.1,60.1,182.5,60.1L182.5,60.1z"/>
					<path class="st13" d="M181.2,58.1c1.2-1.2,2.4-2.5,3.6-3.7c1.2-1.2,2.4-2.5,3.6-3.7c0.7-0.7,1.3-1.4,1.9-2.2
						c0.1-0.1,0.2-0.3,0.2-0.5c0-0.2-0.1-0.4-0.2-0.5c-0.3-0.2-0.7-0.3-1,0c-1.1,1.3-2.3,2.6-3.5,3.8c-1.2,1.2-2.4,2.5-3.7,3.7
						c-0.7,0.7-1.4,1.4-2,2.1c-0.2,0.3-0.3,0.7,0,1C180.5,58.3,180.9,58.4,181.2,58.1L181.2,58.1z"/>
					<path class="st9" d="M176.7,46.1c0,2.1,0,4.1,0,6.2c0,2.1,0,4.2,0.1,6.2c0,1.2,0,2.7,0,3.8c0,0.4,3.1,0.2,2.7,0.1
						c-1.4-0.3-1.3-1-1.4-6.6c0-2.1,0-4.2-0.1-6.2c0-1.2,0-2.3,0-3.5c0-0.4-0.3-0.7-0.7-0.7C177,45.4,176.7,45.7,176.7,46.1
						L176.7,46.1z"/>
					<g>
						<path class="st9" d="M189.9,71.2C189.9,71.2,189.9,71.2,189.9,71.2C189.9,71.2,189.9,71.3,189.9,71.2
							C189.9,71.3,189.9,71.3,189.9,71.2C189.9,71.2,189.9,71.2,189.9,71.2z"/>
						<path class="st9" d="M194.9,62.3c-0.1-0.1-0.2-0.3-0.4-0.3c-0.3-0.1-0.8,0.1-0.8,0.5c-0.2,1.3-0.6,2.6-1,3.9
							c-0.1,0.3-0.2,0.6-0.4,1c-0.3,0.8-0.7,1.5-1.1,2.2c-0.2,0.4-0.5,0.7-0.7,1.1c-0.1,0.2-0.3,0.4-0.4,0.5c0,0-0.1,0.1-0.1,0.1
							c0,0,0,0,0,0c0,0,0,0,0,0c0,0,0,0,0,0c0,0-0.1,0.1,0,0c-0.1,0.1-0.1,0.2-0.2,0.2c-0.5,0.7-1.1,1.3-1.7,1.8
							c-0.3,0.3-0.6,0.6-0.9,0.8c-0.1,0-0.1,0.1-0.2,0.1c0,0,0,0,0,0c0,0,0,0-0.1,0c0,0-0.1,0.1-0.1,0.1c-0.2,0.1-0.3,0.3-0.5,0.4
							c-0.8,0.5-1.6,1-2.4,1.3c-1,0.4-2,0.7-3.1,0.8c-0.7,0.1-1.4,0.1-2.1,0.2c-0.7,0-1.3,0-2,0c-0.3,0-0.6,0-0.9-0.1
							c-1.3-0.2-2.7-0.5-4-0.9c0,0-0.1,0-0.1,0c-0.6-0.3-1.2-0.5-1.8-0.8c-0.4-0.2-0.8-0.4-1.1-0.6c-0.2-0.1-0.3,0.1-0.1,0.2
							c0.8,0.5,1.7,0.9,2.6,1.3c-0.1,0.1-0.3,0.2-0.3,0.4c-0.1,0.4,0.1,0.7,0.5,0.8c0.9,0.3,1.8,0.5,2.7,0.7c1,0.2,1.9,0.3,2.9,0.4
							c1.1,0,2.1,0,3.2-0.1c1.1-0.1,2.1-0.3,3.1-0.6c2-0.7,3.8-1.9,5.4-3.3c1.6-1.4,2.9-3.1,3.9-4.9c1-1.9,1.7-3.9,2.2-6
							c0.1-0.3,0.1-0.5,0.2-0.8C195,62.6,195,62.4,194.9,62.3z"/>
					</g>
					<path class="st3" d="M178.4,79.1c-4.5,0-8.8-1.8-12-5c-3.3-3.3-5.1-7.7-5-12.3c0.1-9,7.3-16.4,16.3-16.8c0.3,0,0.6,0.1,0.8,0.3
						c0.2,0.2,0.3,0.5,0.3,0.8v15.5l15.4-0.1c0.3,0,0.7,0.1,0.9,0.4c0.2,0.3,0.4,0.6,0.4,0.9l0,0c-0.4,9-7.8,16.1-16.8,16.3
						C178.6,79.1,178.5,79.1,178.4,79.1z M177.6,46C177.6,46,177.6,46,177.6,46c-8.4,0.4-15.1,7.3-15.2,15.8
						c-0.1,4.3,1.6,8.4,4.7,11.5c3.1,3.1,7.2,4.8,11.5,4.7c8.4-0.1,15.3-6.8,15.7-15.3c0-0.1,0-0.1-0.1-0.1c0,0-0.1-0.1-0.1-0.1
						c0,0,0,0,0,0l-15.7,0.1c0,0,0,0,0,0c-0.2,0-0.4-0.1-0.6-0.2c-0.2-0.2-0.2-0.4-0.2-0.6L177.6,46C177.7,46,177.7,46,177.6,46
						C177.7,46,177.7,46,177.6,46z"/>
					<path class="st12" d="M191.2,50.3c0.2,0.2,0.4,0.5,0.6,0.7c0,0,0,0.1,0.1,0.1c0.1,0.1,0-0.1,0,0c0.1,0.1,0.1,0.1,0.2,0.2
						c0.1,0.1,0.2,0.3,0.3,0.4c0.4,0.5,0.7,1.1,1,1.7c0.2,0.3,0.3,0.6,0.4,0.9c0,0,0,0.1,0.1,0.1c0,0.1,0-0.1,0,0
						c0,0.1,0.1,0.2,0.1,0.2c0.1,0.2,0.1,0.3,0.2,0.5c0.2,0.6,0.4,1.2,0.5,1.9c0,0.1,0,0.2,0,0.3c0,0,0,0.1,0,0.1c0-0.2,0,0,0,0
						c0,0.2,0,0.4,0.1,0.5c0,0.4,0,0.7,0,1.1c0,0.3,0.3,0.6,0.5,0.5c0.3,0,0.5-0.2,0.5-0.5c0.1-1.4-0.2-2.7-0.6-4
						c-0.4-1.3-1.1-2.6-1.8-3.7c-0.4-0.6-0.9-1.3-1.4-1.8c-0.2-0.2-0.6-0.2-0.8,0C191,49.8,191,50.1,191.2,50.3L191.2,50.3z"/>
					<path class="st3" d="M180.4,59.1c-0.1,0-0.1,0-0.2,0c-0.2-0.1-0.3-0.2-0.3-0.4V44.2c0-0.3,0.2-0.5,0.5-0.5
						c3.9,0,7.7,1.4,10.5,4.2c0.1,0.1,0.1,0.2,0.1,0.3c0,0.1,0,0.3-0.1,0.3L180.8,59C180.7,59.1,180.5,59.1,180.4,59.1z M180.8,44.6
						v13l9.1-9.4C187.4,46,184.2,44.7,180.8,44.6z"/>
					<path class="st3" d="M196.1,60.4h-14.5c-0.2,0-0.4-0.1-0.5-0.3c-0.1-0.2,0-0.4,0.1-0.5l10.1-10.4c0.2-0.2,0.5-0.2,0.7,0l0,0
						c2.9,2.8,4.6,6.6,4.6,10.7c0,0.1-0.1,0.3-0.1,0.4C196.3,60.3,196.2,60.4,196.1,60.4z M182.5,59.5h13.2c-0.1-3.6-1.5-6.9-4-9.4
						L182.5,59.5z M191.4,49.8C191.4,49.8,191.4,49.8,191.4,49.8L191.4,49.8z"/>
				</g>
			</g>
			<g>
				<path class="st15" d="M204.7,49.7c3,0,3,3.4,6.1,3.4c3,0,3-3.4,6.1-3.4c3,0,3,3.4,6.1,3.4c3,0,3-3.4,6.1-3.4c3,0,3,3.4,6.1,3.4
					c3,0,3-3.4,6.1-3.4c3,0,3,3.4,6.1,3.4c3,0,3-3.4,6.1-3.4c3,0,3,3.4,6.1,3.4"/>
			</g>
			<g>
				<path class="st15" d="M203.4,59.1c3,0,3,3.4,6.1,3.4c3,0,3-3.4,6.1-3.4c3,0,3,3.4,6.1,3.4c3,0,3-3.4,6.1-3.4c3,0,3,3.4,6.1,3.4
					c3,0,3-3.4,6.1-3.4c3,0,3,3.4,6.1,3.4c3,0,3-3.4,6.1-3.4c3,0,3,3.4,6.1,3.4"/>
			</g>
			<g>
				<path class="st15" d="M203.4,68.6c3,0,3,3.4,6.1,3.4c3,0,3-3.4,6.1-3.4c3,0,3,3.4,6.1,3.4c3,0,3-3.4,6.1-3.4c3,0,3,3.4,6.1,3.4
					c3,0,3-3.4,6.1-3.4c3,0,3,3.4,6.1,3.4c3,0,3-3.4,6.1-3.4c3,0,3,3.4,6.1,3.4"/>
			</g>
			<g>
				<path class="st15" d="M204.7,107.5c3,0,3,3.4,6.1,3.4c3,0,3-3.4,6.1-3.4c3,0,3,3.4,6.1,3.4c3,0,3-3.4,6.1-3.4c3,0,3,3.4,6.1,3.4
					c3,0,3-3.4,6.1-3.4c3,0,3,3.4,6.1,3.4c3,0,3-3.4,6.1-3.4c3,0,3,3.4,6.1,3.4"/>
			</g>
			<g>
				<path class="st15" d="M203.4,116.9c3,0,3,3.4,6.1,3.4c3,0,3-3.4,6.1-3.4c3,0,3,3.4,6.1,3.4c3,0,3-3.4,6.1-3.4c3,0,3,3.4,6.1,3.4
					c3,0,3-3.4,6.1-3.4c3,0,3,3.4,6.1,3.4c3,0,3-3.4,6.1-3.4c3,0,3,3.4,6.1,3.4"/>
			</g>
			<g>
				<path class="st15" d="M203.4,126.4c3,0,3,3.4,6.1,3.4c3,0,3-3.4,6.1-3.4c3,0,3,3.4,6.1,3.4c3,0,3-3.4,6.1-3.4c3,0,3,3.4,6.1,3.4
					c3,0,3-3.4,6.1-3.4c3,0,3,3.4,6.1,3.4c3,0,3-3.4,6.1-3.4c3,0,3,3.4,6.1,3.4"/>
			</g>
			<g>
				<path class="st15" d="M81.3,51.7c3,0,3,3.4,6.1,3.4c3,0,3-3.4,6.1-3.4c3,0,3,3.4,6.1,3.4c3,0,3-3.4,6.1-3.4c3,0,3,3.4,6.1,3.4
					c3,0,3-3.4,6.1-3.4c3,0,3,3.4,6.1,3.4c3,0,3-3.4,6.1-3.4c3,0,3,3.4,6.1,3.4"/>
			</g>
			<g>
				<path class="st15" d="M80,61.1c3,0,3,3.4,6.1,3.4c3,0,3-3.4,6.1-3.4c3,0,3,3.4,6.1,3.4c3,0,3-3.4,6.1-3.4c3,0,3,3.4,6.1,3.4
					c3,0,3-3.4,6.1-3.4c3,0,3,3.4,6.1,3.4c3,0,3-3.4,6.1-3.4c3,0,3,3.4,6.1,3.4"/>
			</g>
			<g>
				<path class="st15" d="M80,70.6c3,0,3,3.4,6.1,3.4c3,0,3-3.4,6.1-3.4c3,0,3,3.4,6.1,3.4c3,0,3-3.4,6.1-3.4c3,0,3,3.4,6.1,3.4
					c3,0,3-3.4,6.1-3.4c3,0,3,3.4,6.1,3.4c3,0,3-3.4,6.1-3.4c3,0,3,3.4,6.1,3.4"/>
			</g>
		</g>
		<g>
			<defs>
				<path id="SVGID_3_" d="M275.9,163H21.8c-1.8,0-3.3-1.2-3.3-2.7V16.7c0-1.5,1.5-2.7,3.3-2.7h253.8c1.8,0,3.3,1.2,3.3,2.7
					l0.4,143.6C279.3,161.8,277.8,163,275.9,163z"/>
			</defs>
			<clipPath id="SVGID_4_">
				<use xlink:href="#SVGID_3_"  style="overflow:visible;"/>
			</clipPath>
		</g>
	</g>
	<g>
		<path class="st0" d="M194.6,168.7c0.5-0.5,0.9-1,1.4-1.4c0.2-0.2,1.7-1.3,0.8-0.7c-0.9,0.6,0.8-0.5,0.9-0.6c0.6-0.3,1.2-0.7,1.7-1
			c2.3-1.2,3.7-3.9,3.7-6.4c0-2.8-1.5-4.9-3.7-6.4c-0.4-0.3-0.8-0.6-1.3-0.9c-0.3-0.2-0.6-0.4-0.9-0.6c-0.3-0.2-0.7-0.7,0,0
			c1.2,1.2-1.2-0.9-1.2-0.9c-0.4-0.2-1.1-0.5-1.4-0.6c-2.1-0.9-0.4-0.2,0,0c-0.8-0.3-1.6-0.7-2.4-1c-2.2-0.9-4.4-1.6-6.6-2.2
			c-5-1.3-10.1-1.9-15.2-2.4c-9.5-0.9-19.4-1.5-29-0.2c-6.3,0.8-12.5,2.3-18,5.8c-3.2,2-4.9,5.4-4.4,9.2c0.2,1.7,0.8,3,1.8,4.4
			c1.3,1.7,2.8,2.5,4.8,3.3c5.6,2.3,11.8,2.8,17.7,3.3c5.8,0.5,11.6,1,17.4,1.4c5.8,0.4,11.7,0.6,17.5,0.6c6.4,0,12.7-0.7,19-1.7
			c-2.9-2.2-5.8-4.5-8.8-6.7c0-0.1,0.2-1.2,0.1-0.4c-0.1,0.4-0.2,0.8-0.2,1.1c-0.1,0.6-0.2,1.1-0.4,1.7c-0.3,1.3-0.5,2.7-0.7,4
			c-0.5,3.1-1,6.3-1.4,9.4c-0.6,5.2-1,10.5-1.3,15.7c-0.5,10.6-0.2,21.3,0.3,31.9c0.1,2.9,0.3,5.9,0.5,8.8c0.2,3,0.8,6.1,0.6,9.1
			c0.1-0.8,0.2-1.5,0.3-2.3c-0.1,0.7-0.1,0.7,0.2-0.1c0.4-1.1,1.2-2,2.3-2.7c-0.4,0.2-0.8,0.6-1.3,0.8c-0.8,0.5-1.6,0.9-2.4,1.4
			c-0.8,0.4-1.8,0.7-2.5,1.2c1.8-1.2,1.1-0.4,0.3-0.1c-0.5,0.2-0.9,0.3-1.4,0.5c-3.7,1.4-7.5,2.3-11.3,2.8c0.8-0.1,1.6-0.2,2.4-0.3
			c-6.7,0.9-13.4,0.6-20.1-0.3c0.8,0.1,1.6,0.2,2.4,0.3c-3.7-0.5-7.3-1.2-10.9-1.9c-3.6-0.8-7.2-1.8-10.8-2.4
			c-2.3-0.4-4.6-0.4-6.7,0.9c-1.8,1.1-3.5,3.1-4,5.2c-1,4.5,1.4,9.5,6.1,10.7c2.8,0.7,5.6,1.3,8.5,1.9c0.8,0.1,1.5,0.3,2.3,0.4
			c2.5,0.3,2.9,0.4,1.2,0.2c0.4,0.1,0.8,0.2,1.1,0.3c1.3,0.3,2.6,0.6,4,0.8c6.2,1.2,12.4,2,18.7,2.4c-1.4-5-2.7-10-4.1-15
			c-0.4,0.3-0.8,0.5-1.2,0.7c-0.2,0.1-1.6,0.9-0.3,0.2c1.2-0.7,0,0-0.3,0c-0.4,0.1-0.7,0.2-1.1,0.3c-1.1,0.3,2.2-0.1,0.5-0.1
			c-0.5,0-0.9,0.1-1.4,0.1c-0.9,0-1.7,0-2.6-0.1c-0.8-0.1-1.3-0.5,0.5,0.1c-0.4-0.1-1-0.2-1.4-0.2c-0.8-0.2-1.7-0.4-2.5-0.6
			c-2-0.5-4-1.1-6-1.8c-3.8-1.3-7.5-2.8-11.1-4.3c-0.4-0.2-0.9-0.4-1.3-0.5c-1.1-0.5,1.6,1,0.4,0.2c0.3,0.3,0.7,0.5,1,0.8
			c1.2,4.5,1.9,5.8,1.9,3.9c0.1-0.3,0.1-0.7,0.1-1c0.2-2.2,0.4-4.4,0.5-6.5c1.2-16.8,1.2-33.8,0.6-50.6c-0.4-9.5-1-19.1-1.5-28.6
			c-5.3,0.7-10.6,1.4-16,2.2c3.7,9.9,6,20.3,7.6,30.8c0.2,1.3,0.4,2.6,0.6,3.8c0.2,1.1-0.2-1.6-0.1-0.5c0,0.3,0.1,0.6,0.1,0.8
			c0.1,0.7,0.2,1.5,0.3,2.2c0.3,2.7,0.6,5.3,0.9,8c0.6,5.3,1.1,10.5,1.7,15.8c0.8,6.6,1.6,13.2,2.8,19.8c0.6,3.3,4.5,6.1,7.8,6
			c3.9-0.2,6.4-2.5,7.8-6c2-5.1,1.3-11.2,1.2-16.6c-0.1-5.4-0.3-10.7-0.5-16.1c-0.4-10.7-0.7-21.4-0.4-32.2c0.1-6.1,0.4-12.3,1-18.4
			c-4.9,1.3-9.7,2.6-14.6,3.9c0.2,0.3,1.1,1.8,0.5,0.7c-0.6-1.2,0,0.5,0.1,0.9c0.3,1.3-0.1-0.5-0.1-0.7c0,0.3,0.1,0.7,0.1,0.9
			c0.1,0.8,0.2,1.6,0.3,2.4c0.3,2.9,0.6,5.8,0.9,8.7c0.6,5.9,1.3,11.8,1.9,17.7c1.3,11.9,2.5,23.8,3.8,35.7
			c0.7,6.7,1.4,13.4,2.1,20.1c0.2,2.2,0.7,4,2.3,5.6c1.4,1.4,3.6,2.4,5.6,2.3c4.1-0.2,8.1-3.5,7.9-7.9c-0.9-20.2-1.8-40.4-2.1-60.5
			c0-2.8-0.1-5.6,0-8.4c0-0.6,0-1.2,0.1-1.8c0-0.3,0.1-0.5,0.1-0.8c0.1-1-0.3,1.4-0.1,0.5c0.2-0.6,0.3-1.1,0.4-1.7
			c0.1-0.2,0.4-1,0,0c-0.5,1.1,0.2-0.3,0.3-0.4c-4.5-0.6-9.1-1.2-13.6-1.8c1.7,10.2,3.3,20.4,4.8,30.6c0.4,2.6,0.7,5.1,1.1,7.7
			c0,0.3,0.2,1.4,0-0.2c0,0.3,0.1,0.6,0.1,0.9c0.1,0.6,0.2,1.2,0.2,1.8c0.2,1.3,0.3,2.6,0.5,3.8c0.7,5.2,1.3,10.5,2,15.7
			c0.7,5.8,1.4,11.7,2,17.5c0.2,2,0.7,3.7,2.2,5.2c1.3,1.3,3.4,2.2,5.2,2.2c4.1-0.2,7.3-3.2,7.4-7.4c0.5-22-1.2-44-2.1-66
			c-0.1-2.9-0.2-5.7-0.2-8.6c0-0.7,0-1.4,0-2.1c0-0.3,0-0.5,0-0.8c0-0.7,0.5-1.3-0.1,0.1c0.2-0.5,0.2-1.2,0.3-1.8
			c0.1-0.5,1-2.8,0.2-0.9c-4.2,0-8.5,0-12.7,0c0.1,0.2,0.2,0.5,0.4,0.7c0.4,0.7-0.2-0.5-0.2-0.5c-0.1,0.1,0.6,1.5,0.7,1.8
			c0.4,1.2,0.7,2.4,1,3.7c0.3,1.2,0.5,2.3,0.6,3.5c0.1,0.5,0.2,1.1,0.2,1.6c0.1,0.4,0,1.3,0-0.3c0,0.4,0.1,0.7,0.1,1.1
			c0.7,5.4,1.4,10.7,2,16.1c1.3,10.6,2.6,21.2,3.9,31.9c0.7,6.1,1.4,12.1,2.2,18.2c0.2,2,0.7,3.7,2.1,5.2c1.3,1.3,3.4,2.2,5.2,2.1
			c4.1-0.2,7.2-3.2,7.3-7.3c0.5-19.7-2-39.4-1.5-59.1c0.1-2.7,0.2-5.5,0.4-8.2c0.1-1.4,0.2-2.7,0.4-4.1c0-0.3,0.1-0.6,0.1-0.9
			c0.1-0.8,0.1-0.5,0,0.1c0.2-0.7,0.2-1.5,0.3-2.2c0-0.3,0.2-1.8,0-0.2c-3.4,1.4-6.9,2.8-10.3,4.2c0.2,0.1,0.5,0.2,0.7,0.4
			c-0.9-0.7-1.1-0.9-0.6-0.4c-1.3-1.4-0.5-0.7-0.2-0.2c0.3,0.6,0.2,0.5-0.2-0.6c0.1,0.3,0.2,0.5,0.3,0.8c0.1,0.4,0.2,0.8,0.3,1.2
			c0.1,0.3,0.1,0.5,0.1,0.8c0-0.3-0.1-0.7-0.1-1c0,1,0.2,2.3,0.4,3.2c-0.3-1.5,0,0.4,0,0.6c0.1,0.8,0.1,1.6,0.2,2.4
			c0.5,5.4,0.9,10.8,1.4,16.2c0.9,11,1.8,22,2.8,33c4.5,0,9.1,0,13.6,0c-2.1-24.4-3.8-48.7-1.3-73.1c-4.4,0.6-8.8,1.2-13.2,1.8
			c3,11,5.3,22.2,7.1,33.5c0.5,2.8,0.9,5.6,1.3,8.4c0.1,0.7,0.2,1.4,0.3,2c0,0.2,0.1,1.5,0.1,0.5c-0.1-0.9,0,0.1,0,0.2
			c0.2,1.4,0.4,2.9,0.5,4.3c0.7,5.7,1.3,11.4,1.7,17.2c0.5,6.3,0.8,12.6,1,18.9c0.2,3.8,3.3,7.5,7.4,7.4c3.9-0.2,7.5-3.2,7.4-7.4
			c-1-23.3-4.3-46.8-9.3-69.6c-1.4-6.4-2.9-12.7-4.5-19.1c-0.8-3.3-4.2-5.2-7.4-4.8c-3.6,0.5-5.4,3.2-5.8,6.6
			c-3.1,24.2-0.9,48.9,1.2,73.1c0.3,3.5,2.9,7,6.8,6.8c3.4-0.2,7.1-3,6.8-6.8c-1-11.8-2-23.6-3-35.4c-0.5-5.8-1-11.6-1.5-17.4
			c-0.4-6-1.1-12.6-7.1-15.8c-3.6-1.9-9.5-0.5-10.3,4.2c-3.5,20.2-1.8,40.7-1.1,61.1c0.2,5.7,0.3,11.4,0.2,17.1c4.9,0,9.8,0,14.7,0
			c-2.6-21.9-5.3-43.9-8.1-65.8c-0.8-6.7-1.8-13.1-4.8-19.2c-2.3-4.6-10.5-5-12.7,0c-1.4,3.2-2.2,6.2-2.5,9.7c-0.2,2.5-0.1,5,0,7.6
			c0.2,5.7,0.4,11.4,0.7,17.1c0.5,11.3,1.1,22.6,1.4,33.9c0.2,6.4,0.2,12.8,0.1,19.2c4.9,0,9.9,0,14.8,0
			c-2.4-21.4-5.2-42.8-8.4-64.1c-0.1-0.7-0.2-1.4-0.3-2.1c0-0.3-0.1-0.6-0.1-0.9c0-0.2-0.3-1.9-0.1-0.8c0.3,1.5-0.2-1.7-0.2-1.6
			c-0.1-0.4-0.1-0.8-0.2-1.2c-0.1-0.7-0.2-1.4-0.3-2.1c-0.4-3.1-0.9-6.1-1.4-9.2c-0.5-2.8-3.6-5-6.2-5.3c-2.9-0.4-5.9,1-7.4,3.5
			c-2.9,4.8-2.9,10.4-3,15.8c0,5.2,0,10.4,0,15.6c0.1,10.5,0.4,21,0.7,31.5c0.2,5.9,0.4,11.8,0.6,17.7c5.3,0,10.6,0,15.8,0
			c-2.5-24.3-5.3-48.6-7.9-72.9c-0.4-3.4-0.7-6.8-1.1-10.2c-0.4-3.8-0.6-8-3-11.2c-2-2.7-5.3-4.7-8.8-3.6c-3.5,1.1-5.4,4-5.7,7.5
			c-2,21.1-1.1,42.3-0.6,63.4c0.1,3,0.1,6,0.2,8.9c0,1.4,0,2.7-0.1,4.1c0,0.3-0.1,1.2,0,0c0.2-1.4-0.1,0.4-0.1,0.5
			c-0.2,0.7-0.4,1.4-0.7,2c5.2,0,10.4,0,15.6,0c-0.5-2.6-0.9-5.3-1.2-8c-0.1-0.6-0.3-1.3-0.3-1.9c0,0,0.2,1.7,0.1,0.8
			c0-0.4-0.1-0.7-0.1-1.1c-0.2-1.4-0.3-2.8-0.5-4.1c-0.6-5.3-1.2-10.5-1.8-15.8c-1.2-11.1-2.5-22.2-5-33.1c-1.3-5.9-3-11.8-5.1-17.5
			c-1.4-3.8-4.7-6.4-8.9-5.8c-3.8,0.5-7.3,3.9-7,8c0.9,18.2,1.8,36.4,1.7,54.6c0,9-0.3,18.1-1,27.1c-0.2,2-0.5,4-0.4,6
			c0.1,2.5,1,4.7,2.6,6.5c1.5,1.7,3.2,2.3,5.2,3.2c3.9,1.7,7.9,3.3,11.9,4.7c9.1,3.2,21,6.1,29.6,0.1c2.8-2,4.9-5.5,3.7-9.1
			c-1.1-3.5-4.1-5.7-7.8-5.9c-2.9-0.2-5.7-0.5-8.6-0.8c-2-0.2,1.8,0.3-0.2,0c-0.8-0.1-1.5-0.2-2.3-0.3c-1.3-0.2-2.7-0.4-4-0.7
			c-1.3-0.2-2.7-0.7-4-0.8c-0.9-0.2-0.8-0.1,0.3,0.3c-0.8-0.4-1.6-0.7-2.5-1c-0.5-0.2-1.1-0.3-1.7-0.5c-2.8-0.9-5.5-1.8-8.2-2.8
			c-1.5,5.6-3.1,11.2-4.6,16.8c5.7,1.7,11.8,2.9,17.7,3.9c6.4,1.1,12.8,1.9,19.3,1.8c5.9-0.1,11.9-0.8,17.5-2.4
			c5.9-1.7,12.4-4.6,16.9-8.8c3.8-3.6,3.6-8.5,3.3-13.3c-0.3-4.1-0.5-8.2-1-12.2c0.1,0.8,0.2,1.5,0.3,2.3c-1-10.9-1.8-21.8-2.1-32.8
			c-0.1-5.4-0.1-10.9,0.2-16.3c0.1-2.7,0.3-5.4,0.6-8.1c0.1-1.3,0.2-2.5,0.4-3.8c0.1-0.7,0.1-1.4,0.2-2c-0.4,2.2,0.6-1.9-0.3,0
			c1-2.3,1.4-4.7,0-7c-1.2-2.1-3.5-3.4-6-3.4c-14.7,0-29.3-1.4-43.9-3.3c0.8,0.1,1.5,0.2,2.3,0.3c-7.6-1-15.6-1.6-22.8-4.6
			c0.7,0.3,1.5,0.6,2.2,0.9c-0.2-0.1-0.3-0.1-0.5-0.2c0,5.3,0,10.6,0,16c1.2-0.7,2.3-1.3,3.6-1.8c-0.7,0.3-1.5,0.6-2.2,0.9
			c2.8-1.1,5.8-1.8,8.8-2.3c-0.8,0.1-1.7,0.2-2.5,0.3c3.2-0.4,6.5-0.5,9.7-0.6c3.7,0,7.4-0.2,11.1-0.3c6.8-0.1,13.6-0.3,20.4,0.6
			c-0.7-0.1-1.5-0.2-2.2-0.3c2.4,0.3,4.8,0.8,7.1,1.4c0.5,0.1,1,0.3,1.5,0.4c0.3,0.1,0.7,0.2,1,0.3c-1.6-0.7-1.3-0.5,1,0.4
			c0.7,0.1,1.4,0.2,2.1,0.3c-1.3-0.2-1.5-0.2-0.6,0.1c0.4,0.2,2.6,1.1,0.6,0.2c-0.5-3.9-1-7.8-1.5-11.7c-2.5,2-4.6,4.6-6.3,7.4
			c-1.7,2.8-0.9,6.5,1.7,8.5C188.4,171.2,192.3,171.1,194.6,168.7L194.6,168.7z"/>
		<path class="st12" d="M138.7,147.3c-2.5-1.2-4.4-1.2-7.1-0.7c-0.3,0-2.2,0.4-0.3,0.1c-0.7,0.1-1.5,0.2-2.2,0.2
			c-2.4,0.2-4.3,1-5.8,2.9c-1.3,1.7-2.1,4.2-1.3,6.4c1.5,4.1,4.5,6.8,8.7,7.9c2.9,0.8,6.1,0.9,9.1,1.2c6.2,0.5,12.4,0.7,18.6,0.5
			c6.1-0.1,12.2-0.2,18.4-0.7c3.1-0.2,6.1-0.5,9.2-0.8c1.6-0.1,3.2-0.3,4.7-0.5c0.8-0.1,1.6-0.1,2.4-0.2c1.9-0.2,3.5-0.7,5.2-1.6
			c3-1.5,4.7-5.8,3.6-9c-1.1-3.4-4-5.8-7.7-5.8c-0.6,0-1.1-0.1-1.7-0.1c-1.7-0.1,1.3,0.3-0.3-0.1c-1.2-0.3-2.5-0.5-3.7-0.8
			c-2.3-0.4-4.6-0.8-6.9-1.2c-5.2-0.8-10.4-1.4-15.6-1.8c-4.6-0.3-9.3-0.5-13.9-0.4c-2.3,0-4.6,0.1-7,0.3c-3,0.3-6.1,0.4-9.1,1.2
			c-3.9,1-6.3,4.9-5.7,8.8c0.5,4,3.8,6.8,7.9,6.9c2.3,0.1,4.6-0.3,6.9-0.4c2.3-0.2,4.6-0.3,7-0.4c4.5-0.2,9.1-0.3,13.6-0.1
			c4.5,0.1,9.1,0.5,13.6,1c0.3,0,2.3,0.2,0.3,0c0.6,0.1,1.2,0.2,1.7,0.2c1.1,0.2,2.3,0.4,3.4,0.6c1.1,0.2,2.1,0.4,3.1,0.6
			c0.6,0.1,1.1,0.2,1.7,0.4c0.5,0.1,2.4,1,0.5,0.2c2-4.8,4.1-9.7,6.1-14.5c-1.3-0.3-2.6-0.6-3.9-0.5c-0.7,0-1.4,0.2-2.1,0.2
			c-1.5,0.2-3,0.3-4.4,0.5c-2.8,0.3-5.5,0.6-8.3,0.9c-5.6,0.6-11.2,1.2-16.9,1.6c-5.6,0.4-11.3,0.3-16.9,0.1
			c-2.8-0.1-5.5-0.3-8.3-0.6c-0.3,0-0.7-0.1-1-0.1c1.3,0.2,1.6,0.2,0.8,0.1c-0.4-0.1-0.8-0.2-1.2-0.3c-0.7-0.3-0.5-0.2,0.7,0.3
			c-0.2-0.1-0.5-0.2-0.7-0.4c1,0.8,1.2,1,0.7,0.4c0.7,1.1,0.9,1.3,0.5,0.6c-1.5,3.6-2.9,7.2-4.4,10.8c3.6-1.1,7.9-2.1,9.9-5.6
			C142.4,153,141.7,148.8,138.7,147.3L138.7,147.3z"/>
		<path class="st3" d="M205,154.9c-2.6-5.3-8-8.4-13.2-10.4c-6.3-2.5-13.3-3.4-20-3.8c-13.9-0.8-28,0.6-41.4,4.1
			c-4.7,1.3-14.4,4.2-13.1,10.9c0.5,2.8,3.2,5,5.4,6.6c2.2,1.6,4.7,2.8,7.3,3.7c5.3,1.8,10.9,2.3,16.5,2.6
			c7.2,0.3,14.4,0.2,21.6-0.2c8-0.5,15.9-1.5,23.8-2.6c3.4-0.5,7.1-0.7,10-2.6c1.4-0.9,2.7-2.2,3.5-3.7c0.9-1.8,0.8-3.3-0.2-5
			c-0.8-1.3-2.9-1.1-3.2,0.4c-0.6,2.3-1.8,4.2-4,5.1c-2.6,1-5.6,1.3-8.4,1.8c-6.2,1-12.5,1.4-18.8,1.8c-6.3,0.4-12.6,0.5-18.9,0.3
			c-5.2-0.1-10.4-0.1-15.5-1c-4.6-0.8-9.2-2.4-12.8-5.6c-0.6-0.5-1.8-1.4-1.8-2.4c0-1.1,1.7-2,2.5-2.5c2.4-1.4,5.1-2.1,7.8-2.8
			c11.8-2.9,24-4,36.1-3.6c6.7,0.2,13.6,0.7,20.1,2.5c5.6,1.5,11,3.6,14.8,8.2C203.9,157.9,205.6,156.3,205,154.9L205,154.9z"/>
		<path class="st3" d="M202.3,155.7c-1.4,2.8-1.3,6.1-1.5,9.2c-0.2,3.1-0.2,6.2-0.3,9.4c-0.1,6.3-0.2,12.7-0.2,19
			c0,12.6,0.1,25.1,0.5,37.7c0.2,7.1,0.4,14.3,0.7,21.4c0.1,3.1,4.9,3.1,4.8,0c-0.8-25.2-0.7-50.5-0.4-75.7c0-3.5,0.2-7,0.1-10.6
			c0-3.4,0.2-7.2-1.2-10.4C204.3,154.7,202.7,154.8,202.3,155.7L202.3,155.7z"/>
		<path class="st3" d="M203,250.9c-4.2,2.9-8.4,5.8-13.1,7.8c-4.6,2-9.6,3.3-14.5,4.2c-10.6,1.9-21.8,1.2-32.2-1.2
			c-6.3-1.4-12.6-3.5-18.4-6.4c-3.1-1.5-5.9,3.1-2.7,4.7c20.9,10.3,46.7,14.2,68.6,4.6c5.5-2.4,11-5.8,14.9-10.4
			C207.1,252.6,205.2,249.4,203,250.9L203,250.9z"/>
		<path class="st3" d="M201.8,218.4c-4.2,2.9-8.4,5.8-13.1,7.8c-4.6,2-9.6,3.3-14.5,4.2c-10.6,1.9-21.8,1.2-32.2-1.2
			c-6.3-1.4-12.6-3.5-18.4-6.4c-3.1-1.5-5.9,3.1-2.7,4.7c20.9,10.3,46.7,14.2,68.6,4.6c5.5-2.4,11-5.8,14.9-10.4
			C205.9,220.1,204,216.9,201.8,218.4L201.8,218.4z"/>
		<path class="st3" d="M201.2,185.9c-4.2,2.9-8.4,5.8-13.1,7.8c-4.6,2-9.6,3.3-14.5,4.2c-10.6,1.9-21.8,1.2-32.2-1.2
			c-6.3-1.4-12.6-3.5-18.4-6.4c-3.1-1.5-5.9,3.1-2.7,4.7c20.9,10.3,46.7,14.2,68.6,4.6c5.5-2.4,11-5.8,14.9-10.4
			C205.3,187.5,203.4,184.4,201.2,185.9L201.2,185.9z"/>
		<path class="st3" d="M117.8,153.7c-2.3,2-2.7,5.9-2.8,8.8c-0.2,3.3-0.1,6.7,0,10c0.2,6.8,0.7,13.6,1.1,20.3
			c0.9,13.4,1.9,26.9,2.1,40.3c0.2,7.7,0.1,15.3-0.4,23c-0.2,3.5,5.3,3.5,5.5,0c1.7-26.7-1.2-53.4-2.4-80c-0.2-3.8-0.4-7.5-0.5-11.3
			c-0.1-1.7-0.1-3.4-0.1-5.1c0-1.7,0.2-3.7-0.4-5.3C119.7,153.3,118.6,153.1,117.8,153.7L117.8,153.7z"/>
	</g>
	<g>
		<path class="st0" d="M232.5,209.2c0.5-0.5,0.9-1,1.4-1.4c0.2-0.2,1.7-1.3,0.8-0.7c-0.9,0.6,0.8-0.5,0.9-0.6c0.6-0.3,1.2-0.7,1.7-1
			c2.3-1.2,3.7-3.9,3.7-6.4c0-2.8-1.5-4.9-3.7-6.4c-0.4-0.3-0.8-0.6-1.3-0.9c-0.3-0.2-0.6-0.4-0.9-0.6c-0.3-0.2-0.7-0.7,0,0
			c1.2,1.2-1.2-0.9-1.2-0.9c-0.4-0.2-1.1-0.5-1.4-0.6c-2.1-0.9-0.4-0.2,0,0c-0.8-0.3-1.6-0.7-2.4-1c-2.2-0.9-4.4-1.6-6.6-2.2
			c-5-1.3-10.1-1.9-15.2-2.4c-9.5-0.9-19.4-1.5-29-0.2c-6.3,0.8-12.5,2.3-18,5.8c-3.2,2-4.9,5.4-4.4,9.2c0.2,1.7,0.8,3,1.8,4.4
			c1.3,1.7,2.8,2.5,4.8,3.3c5.6,2.3,11.8,2.8,17.7,3.3c5.8,0.5,11.6,1,17.4,1.4c5.8,0.4,11.7,0.6,17.5,0.6c6.4,0,12.7-0.7,19-1.7
			c-2.9-2.2-5.8-4.5-8.8-6.7c0-0.1,0.2-1.2,0.1-0.4c-0.1,0.4-0.2,0.8-0.2,1.1c-0.1,0.6-0.2,1.1-0.4,1.7c-0.3,1.3-0.5,2.7-0.7,4
			c-0.5,3.1-1,6.3-1.4,9.4c-0.6,5.2-1,10.5-1.3,15.7c-0.5,10.6-0.2,21.3,0.3,31.9c0.1,2.9,0.3,5.9,0.5,8.8c0.2,3,0.8,6.1,0.6,9.1
			c0.1-0.8,0.2-1.5,0.3-2.3c-0.1,0.7-0.1,0.7,0.2-0.1c0.4-1.1,1.2-2,2.3-2.7c-0.4,0.2-0.8,0.6-1.3,0.8c-0.8,0.5-1.6,0.9-2.4,1.4
			c-0.8,0.4-1.8,0.7-2.5,1.2c1.8-1.2,1.1-0.4,0.3-0.1c-0.5,0.2-0.9,0.3-1.4,0.5c-3.7,1.4-7.5,2.3-11.3,2.8c0.8-0.1,1.6-0.2,2.4-0.3
			c-6.7,0.9-13.4,0.6-20.1-0.3c0.8,0.1,1.6,0.2,2.4,0.3c-3.7-0.5-7.3-1.2-10.9-1.9c-3.6-0.8-7.2-1.8-10.8-2.4
			c-2.3-0.4-4.6-0.4-6.7,0.9c-1.8,1.1-3.5,3.1-4,5.2c-1,4.5,1.4,9.5,6.1,10.7c2.8,0.7,5.6,1.3,8.5,1.9c0.8,0.1,1.5,0.3,2.3,0.4
			c2.5,0.3,2.9,0.4,1.2,0.2c0.4,0.1,0.8,0.2,1.1,0.3c1.3,0.3,2.6,0.6,4,0.8c6.2,1.2,12.4,2,18.7,2.4c-1.4-5-2.7-10-4.1-15
			c-0.4,0.3-0.8,0.5-1.2,0.7c-0.2,0.1-1.6,0.9-0.3,0.2c1.2-0.7,0,0-0.3,0c-0.4,0.1-0.7,0.2-1.1,0.3c-1.1,0.3,2.2-0.1,0.5-0.1
			c-0.5,0-0.9,0.1-1.4,0.1c-0.9,0-1.7,0-2.6-0.1c-0.8-0.1-1.3-0.5,0.5,0.1c-0.4-0.1-1-0.2-1.4-0.2c-0.8-0.2-1.7-0.4-2.5-0.6
			c-2-0.5-4-1.1-6-1.8c-3.8-1.3-7.5-2.8-11.1-4.3c-0.4-0.2-0.9-0.4-1.3-0.5c-1.1-0.5,1.6,1,0.4,0.2c0.3,0.3,0.7,0.5,1,0.8
			c1.2,4.5,1.9,5.8,1.9,3.9c0.1-0.3,0.1-0.7,0.1-1c0.2-2.2,0.4-4.4,0.5-6.5c1.2-16.8,1.2-33.8,0.6-50.6c-0.4-9.5-1-19.1-1.5-28.6
			c-5.3,0.7-10.6,1.4-16,2.2c3.7,9.9,6,20.3,7.6,30.8c0.2,1.3,0.4,2.6,0.6,3.8c0.2,1.1-0.2-1.6-0.1-0.5c0,0.3,0.1,0.6,0.1,0.8
			c0.1,0.7,0.2,1.5,0.3,2.2c0.3,2.7,0.6,5.3,0.9,8c0.6,5.3,1.1,10.5,1.7,15.8c0.8,6.6,1.6,13.2,2.8,19.8c0.6,3.3,4.5,6.1,7.8,6
			c3.9-0.2,6.4-2.5,7.8-6c2-5.1,1.3-11.2,1.2-16.6c-0.1-5.4-0.3-10.7-0.5-16.1c-0.4-10.7-0.7-21.4-0.4-32.2c0.1-6.1,0.4-12.3,1-18.4
			c-4.9,1.3-9.7,2.6-14.6,3.9c0.2,0.3,1.1,1.8,0.5,0.7c-0.6-1.2,0,0.5,0.1,0.9c0.3,1.3-0.1-0.5-0.1-0.7c0,0.3,0.1,0.7,0.1,0.9
			c0.1,0.8,0.2,1.6,0.3,2.4c0.3,2.9,0.6,5.8,0.9,8.7c0.6,5.9,1.3,11.8,1.9,17.7c1.3,11.9,2.5,23.8,3.8,35.7
			c0.7,6.7,1.4,13.4,2.1,20.1c0.2,2.2,0.7,4,2.3,5.6c1.4,1.4,3.6,2.4,5.6,2.3c4.1-0.2,8.1-3.5,7.9-7.9c-0.9-20.2-1.8-40.4-2.1-60.5
			c0-2.8-0.1-5.6,0-8.4c0-0.6,0-1.2,0.1-1.8c0-0.3,0.1-0.5,0.1-0.8c0.1-1-0.3,1.4-0.1,0.5c0.2-0.6,0.3-1.1,0.4-1.7
			c0.1-0.2,0.4-1,0,0c-0.5,1.1,0.2-0.3,0.3-0.4c-4.5-0.6-9.1-1.2-13.6-1.8c1.7,10.2,3.3,20.4,4.8,30.6c0.4,2.6,0.7,5.1,1.1,7.7
			c0,0.3,0.2,1.4,0-0.2c0,0.3,0.1,0.6,0.1,0.9c0.1,0.6,0.2,1.2,0.2,1.8c0.2,1.3,0.3,2.6,0.5,3.8c0.7,5.2,1.3,10.5,2,15.7
			c0.7,5.8,1.4,11.7,2,17.5c0.2,2,0.7,3.7,2.2,5.2c1.3,1.3,3.4,2.2,5.2,2.2c4.1-0.2,7.3-3.2,7.4-7.4c0.5-22-1.2-44-2.1-66
			c-0.1-2.9-0.2-5.7-0.2-8.6c0-0.7,0-1.4,0-2.1c0-0.3,0-0.5,0-0.8c0-0.7,0.5-1.3-0.1,0.1c0.2-0.5,0.2-1.2,0.3-1.8
			c0.1-0.5,1-2.8,0.2-0.9c-4.2,0-8.5,0-12.7,0c0.1,0.2,0.2,0.5,0.4,0.7c0.4,0.7-0.2-0.5-0.2-0.5c-0.1,0.1,0.6,1.5,0.7,1.8
			c0.4,1.2,0.7,2.4,1,3.7c0.3,1.2,0.5,2.3,0.6,3.5c0.1,0.5,0.2,1.1,0.2,1.6c0.1,0.4,0,1.3,0-0.3c0,0.4,0.1,0.7,0.1,1.1
			c0.7,5.4,1.4,10.7,2,16.1c1.3,10.6,2.6,21.2,3.9,31.9c0.7,6.1,1.4,12.1,2.2,18.2c0.2,2,0.7,3.7,2.1,5.2c1.3,1.3,3.4,2.2,5.2,2.1
			c4.1-0.2,7.2-3.2,7.3-7.3c0.5-19.7-2-39.4-1.5-59.1c0.1-2.7,0.2-5.5,0.4-8.2c0.1-1.4,0.2-2.7,0.4-4.1c0-0.3,0.1-0.6,0.1-0.9
			c0.1-0.8,0.1-0.5,0,0.1c0.2-0.7,0.2-1.5,0.3-2.2c0-0.3,0.2-1.8,0-0.2c-3.4,1.4-6.9,2.8-10.3,4.2c0.2,0.1,0.5,0.2,0.7,0.4
			c-0.9-0.7-1.1-0.9-0.6-0.4c-1.3-1.4-0.5-0.7-0.2-0.2c0.3,0.6,0.2,0.5-0.2-0.6c0.1,0.3,0.2,0.5,0.3,0.8c0.1,0.4,0.2,0.8,0.3,1.2
			c0.1,0.3,0.1,0.5,0.1,0.8c0-0.3-0.1-0.7-0.1-1c0,1,0.2,2.3,0.4,3.2c-0.3-1.5,0,0.4,0,0.6c0.1,0.8,0.1,1.6,0.2,2.4
			c0.5,5.4,0.9,10.8,1.4,16.2c0.9,11,1.8,22,2.8,33c4.5,0,9.1,0,13.6,0c-2.1-24.4-3.8-48.7-1.3-73.1c-4.4,0.6-8.8,1.2-13.2,1.8
			c3,11,5.3,22.2,7.1,33.5c0.5,2.8,0.9,5.6,1.3,8.4c0.1,0.7,0.2,1.4,0.3,2c0,0.2,0.1,1.5,0.1,0.5c-0.1-0.9,0,0.1,0,0.2
			c0.2,1.4,0.4,2.9,0.5,4.3c0.7,5.7,1.3,11.4,1.7,17.2c0.5,6.3,0.8,12.6,1,18.9c0.2,3.8,3.3,7.5,7.4,7.4c3.9-0.2,7.5-3.2,7.4-7.4
			c-1-23.3-4.3-46.8-9.3-69.6c-1.4-6.4-2.9-12.7-4.5-19.1c-0.8-3.3-4.2-5.2-7.4-4.8c-3.6,0.5-5.4,3.2-5.8,6.6
			c-3.1,24.2-0.9,48.9,1.2,73.1c0.3,3.5,2.9,7,6.8,6.8c3.4-0.2,7.1-3,6.8-6.8c-1-11.8-2-23.6-3-35.4c-0.5-5.8-1-11.6-1.5-17.4
			c-0.4-6-1.1-12.6-7.1-15.8c-3.6-1.9-9.5-0.5-10.3,4.2c-3.5,20.2-1.8,40.7-1.1,61.1c0.2,5.7,0.3,11.4,0.2,17.1c4.9,0,9.8,0,14.7,0
			c-2.6-21.9-5.3-43.9-8.1-65.8c-0.8-6.7-1.8-13.1-4.8-19.2c-2.3-4.6-10.5-5-12.7,0c-1.4,3.2-2.2,6.2-2.5,9.7c-0.2,2.5-0.1,5,0,7.6
			c0.2,5.7,0.4,11.4,0.7,17.1c0.5,11.3,1.1,22.6,1.4,33.9c0.2,6.4,0.2,12.8,0.1,19.2c4.9,0,9.9,0,14.8,0
			c-2.4-21.4-5.2-42.8-8.4-64.1c-0.1-0.7-0.2-1.4-0.3-2.1c0-0.3-0.1-0.6-0.1-0.9c0-0.2-0.3-1.9-0.1-0.8c0.3,1.5-0.2-1.7-0.2-1.6
			c-0.1-0.4-0.1-0.8-0.2-1.2c-0.1-0.7-0.2-1.4-0.3-2.1c-0.4-3.1-0.9-6.1-1.4-9.2c-0.5-2.8-3.6-5-6.2-5.3c-2.9-0.4-5.9,1-7.4,3.5
			c-2.9,4.8-2.9,10.4-3,15.8c0,5.2,0,10.4,0,15.6c0.1,10.5,0.4,21,0.7,31.5c0.2,5.9,0.4,11.8,0.6,17.7c5.3,0,10.6,0,15.8,0
			c-2.5-24.3-5.3-48.6-7.9-72.9c-0.4-3.4-0.7-6.8-1.1-10.2c-0.4-3.8-0.6-8-3-11.2c-2-2.7-5.3-4.7-8.8-3.6c-3.5,1.1-5.4,4-5.7,7.5
			c-2,21.1-1.1,42.3-0.6,63.4c0.1,3,0.1,6,0.2,8.9c0,1.4,0,2.7-0.1,4.1c0,0.3-0.1,1.2,0,0c0.2-1.4-0.1,0.4-0.1,0.5
			c-0.2,0.7-0.4,1.4-0.7,2c5.2,0,10.4,0,15.6,0c-0.5-2.6-0.9-5.3-1.2-8c-0.1-0.6-0.3-1.3-0.3-1.9c0,0,0.2,1.7,0.1,0.8
			c0-0.4-0.1-0.7-0.1-1.1c-0.2-1.4-0.3-2.8-0.5-4.1c-0.6-5.3-1.2-10.5-1.8-15.8c-1.2-11.1-2.5-22.2-5-33.1c-1.3-5.9-3-11.8-5.1-17.5
			c-1.4-3.8-4.7-6.4-8.9-5.8c-3.8,0.5-7.3,3.9-7,8c0.9,18.2,1.8,36.4,1.7,54.6c0,9-0.3,18.1-1,27.1c-0.2,2-0.5,4-0.4,6
			c0.1,2.5,1,4.7,2.6,6.5c1.5,1.7,3.2,2.3,5.2,3.2c3.9,1.7,7.9,3.3,11.9,4.7c9.1,3.2,21,6.1,29.6,0.1c2.8-2,4.9-5.5,3.7-9.1
			c-1.1-3.5-4.1-5.7-7.8-5.9c-2.9-0.2-5.7-0.5-8.6-0.8c-2-0.2,1.8,0.3-0.2,0c-0.8-0.1-1.5-0.2-2.3-0.3c-1.3-0.2-2.7-0.4-4-0.7
			c-1.3-0.2-2.7-0.7-4-0.8c-0.9-0.2-0.8-0.1,0.3,0.3c-0.8-0.4-1.6-0.7-2.5-1c-0.5-0.2-1.1-0.3-1.7-0.5c-2.8-0.9-5.5-1.8-8.2-2.8
			c-1.5,5.6-3.1,11.2-4.6,16.8c5.7,1.7,11.8,2.9,17.7,3.9c6.4,1.1,12.8,1.9,19.3,1.8c5.9-0.1,11.9-0.8,17.5-2.4
			c5.9-1.7,12.4-4.6,16.9-8.8c3.8-3.6,3.6-8.5,3.3-13.3c-0.3-4.1-0.5-8.2-1-12.2c0.1,0.8,0.2,1.5,0.3,2.3c-1-10.9-1.8-21.8-2.1-32.8
			c-0.1-5.4-0.1-10.9,0.2-16.3c0.1-2.7,0.3-5.4,0.6-8.1c0.1-1.3,0.2-2.5,0.4-3.8c0.1-0.7,0.1-1.4,0.2-2c-0.4,2.2,0.6-1.9-0.3,0
			c1-2.3,1.4-4.7,0-7c-1.2-2.1-3.5-3.4-6-3.4c-14.7,0-29.3-1.4-43.9-3.3c0.8,0.1,1.5,0.2,2.3,0.3c-7.6-1-15.6-1.6-22.8-4.6
			c0.7,0.3,1.5,0.6,2.2,0.9c-0.2-0.1-0.3-0.1-0.5-0.2c0,5.3,0,10.6,0,16c1.2-0.7,2.3-1.3,3.6-1.8c-0.7,0.3-1.5,0.6-2.2,0.9
			c2.8-1.1,5.8-1.8,8.8-2.3c-0.8,0.1-1.7,0.2-2.5,0.3c3.2-0.4,6.5-0.5,9.7-0.6c3.7,0,7.4-0.2,11.1-0.3c6.8-0.1,13.6-0.3,20.4,0.6
			c-0.7-0.1-1.5-0.2-2.2-0.3c2.4,0.3,4.8,0.8,7.1,1.4c0.5,0.1,1,0.3,1.5,0.4c0.3,0.1,0.7,0.2,1,0.3c-1.6-0.7-1.3-0.5,1,0.4
			c0.7,0.1,1.4,0.2,2.1,0.3c-1.3-0.2-1.5-0.2-0.6,0.1c0.4,0.2,2.6,1.1,0.6,0.2c-0.5-3.9-1-7.8-1.5-11.7c-2.5,2-4.6,4.6-6.3,7.4
			c-1.7,2.8-0.9,6.5,1.7,8.5C226.3,211.7,230.3,211.7,232.5,209.2L232.5,209.2z"/>
		<path class="st12" d="M176.6,187.8c-2.5-1.2-4.4-1.2-7.1-0.7c-0.3,0-2.2,0.4-0.3,0.1c-0.7,0.1-1.5,0.2-2.2,0.2
			c-2.4,0.2-4.3,1-5.8,2.9c-1.3,1.7-2.1,4.2-1.3,6.4c1.5,4.1,4.5,6.8,8.7,7.9c2.9,0.8,6.1,0.9,9.1,1.2c6.2,0.5,12.4,0.7,18.6,0.5
			c6.1-0.1,12.2-0.2,18.4-0.7c3.1-0.2,6.1-0.5,9.2-0.8c1.6-0.1,3.2-0.3,4.7-0.5c0.8-0.1,1.6-0.1,2.4-0.2c1.9-0.2,3.5-0.7,5.2-1.6
			c3-1.5,4.7-5.8,3.6-9c-1.1-3.4-4-5.8-7.7-5.8c-0.6,0-1.1-0.1-1.7-0.1c-1.7-0.1,1.3,0.3-0.3-0.1c-1.2-0.3-2.5-0.5-3.7-0.8
			c-2.3-0.4-4.6-0.8-6.9-1.2c-5.2-0.8-10.4-1.4-15.6-1.8c-4.6-0.3-9.3-0.5-13.9-0.4c-2.3,0-4.6,0.1-7,0.3c-3,0.3-6.1,0.4-9.1,1.2
			c-3.9,1-6.3,4.9-5.7,8.8c0.5,4,3.8,6.8,7.9,6.9c2.3,0.1,4.6-0.3,6.9-0.4c2.3-0.2,4.6-0.3,7-0.4c4.5-0.2,9.1-0.3,13.6-0.1
			c4.5,0.1,9.1,0.5,13.6,1c0.3,0,2.3,0.2,0.3,0c0.6,0.1,1.2,0.2,1.7,0.2c1.1,0.2,2.3,0.4,3.4,0.6c1.1,0.2,2.1,0.4,3.1,0.6
			c0.6,0.1,1.1,0.2,1.7,0.4c0.5,0.1,2.4,1,0.5,0.2c2-4.8,4.1-9.7,6.1-14.5c-1.3-0.3-2.6-0.6-3.9-0.5c-0.7,0-1.4,0.2-2.1,0.2
			c-1.5,0.2-3,0.3-4.4,0.5c-2.8,0.3-5.5,0.6-8.3,0.9c-5.6,0.6-11.2,1.2-16.9,1.6c-5.6,0.4-11.3,0.3-16.9,0.1
			c-2.8-0.1-5.5-0.3-8.3-0.6c-0.3,0-0.7-0.1-1-0.1c1.3,0.2,1.6,0.2,0.8,0.1c-0.4-0.1-0.8-0.2-1.2-0.3c-0.7-0.3-0.5-0.2,0.7,0.3
			c-0.2-0.1-0.5-0.2-0.7-0.4c1,0.8,1.2,1,0.7,0.4c0.7,1.1,0.9,1.3,0.5,0.6c-1.5,3.6-2.9,7.2-4.4,10.8c3.6-1.1,7.9-2.1,9.9-5.6
			C180.3,193.5,179.6,189.3,176.6,187.8L176.6,187.8z"/>
		<path class="st3" d="M242.9,195.5c-2.6-5.3-8-8.4-13.2-10.4c-6.3-2.5-13.3-3.4-20-3.8c-13.9-0.8-28,0.6-41.4,4.1
			c-4.7,1.3-14.4,4.2-13.1,10.9c0.5,2.8,3.2,5,5.4,6.6c2.2,1.6,4.7,2.8,7.3,3.7c5.3,1.8,10.9,2.3,16.5,2.6
			c7.2,0.3,14.4,0.2,21.6-0.2c8-0.5,15.9-1.5,23.8-2.6c3.4-0.5,7.1-0.7,10-2.6c1.4-0.9,2.7-2.2,3.5-3.7c0.9-1.8,0.8-3.3-0.2-5
			c-0.8-1.3-2.9-1.1-3.2,0.4c-0.6,2.3-1.8,4.2-4,5.1c-2.6,1-5.6,1.3-8.4,1.8c-6.2,1-12.5,1.4-18.8,1.8c-6.3,0.4-12.6,0.5-18.9,0.3
			c-5.2-0.1-10.4-0.1-15.5-1c-4.6-0.8-9.2-2.4-12.8-5.6c-0.6-0.5-1.8-1.4-1.8-2.4c0-1.1,1.7-2,2.5-2.5c2.4-1.4,5.1-2.1,7.8-2.8
			c11.8-2.9,24-4,36.1-3.6c6.7,0.2,13.6,0.7,20.1,2.5c5.6,1.5,11,3.6,14.8,8.2C241.8,198.4,243.6,196.8,242.9,195.5L242.9,195.5z"/>
		<path class="st3" d="M240.2,196.2c-1.4,2.8-1.3,6.1-1.5,9.2c-0.2,3.1-0.2,6.2-0.3,9.4c-0.1,6.3-0.2,12.7-0.2,19
			c0,12.6,0.1,25.1,0.5,37.7c0.2,7.1,0.4,14.3,0.7,21.4c0.1,3.1,4.9,3.1,4.8,0c-0.8-25.2-0.7-50.5-0.4-75.7c0-3.5,0.2-7,0.1-10.6
			c0-3.4,0.2-7.2-1.2-10.4C242.3,195.2,240.6,195.3,240.2,196.2L240.2,196.2z"/>
		<path class="st3" d="M241,291.5c-4.2,2.9-8.4,5.8-13.1,7.8c-4.6,2-9.6,3.3-14.5,4.2c-10.6,1.9-21.8,1.2-32.2-1.2
			c-6.3-1.4-12.6-3.5-18.4-6.4c-3.1-1.5-5.9,3.1-2.7,4.7c20.9,10.3,46.7,14.2,68.6,4.6c5.5-2.4,11-5.8,14.9-10.4
			C245,293.1,243.1,290,241,291.5L241,291.5z"/>
		<path class="st3" d="M239.8,258.9c-4.2,2.9-8.4,5.8-13.1,7.8c-4.6,2-9.6,3.3-14.5,4.2c-10.6,1.9-21.8,1.2-32.2-1.2
			c-6.3-1.4-12.6-3.5-18.4-6.4c-3.1-1.5-5.9,3.1-2.7,4.7c20.9,10.3,46.7,14.2,68.6,4.6c5.5-2.4,11-5.8,14.9-10.4
			C243.8,260.6,241.9,257.4,239.8,258.9L239.8,258.9z"/>
		<path class="st3" d="M239.2,226.4c-4.2,2.9-8.4,5.8-13.1,7.8c-4.6,2-9.6,3.3-14.5,4.2c-10.6,1.9-21.8,1.2-32.2-1.2
			c-6.3-1.4-12.6-3.5-18.4-6.4c-3.1-1.5-5.9,3.1-2.7,4.7c20.9,10.3,46.7,14.2,68.6,4.6c5.5-2.4,11-5.8,14.9-10.4
			C243.2,228.1,241.3,224.9,239.2,226.4L239.2,226.4z"/>
		<path class="st3" d="M155.7,194.3c-2.3,2-2.7,5.9-2.8,8.8c-0.2,3.3-0.1,6.7,0,10c0.2,6.8,0.7,13.6,1.1,20.3
			c0.9,13.4,1.9,26.9,2.1,40.3c0.2,7.7,0.1,15.3-0.4,23c-0.2,3.5,5.3,3.5,5.5,0c1.7-26.7-1.2-53.4-2.4-80c-0.2-3.8-0.4-7.5-0.5-11.3
			c-0.1-1.7-0.1-3.4-0.1-5.1c0-1.7,0.2-3.7-0.4-5.3C157.6,193.9,156.5,193.6,155.7,194.3L155.7,194.3z"/>
	</g>
	<g>
		<path class="st0" d="M122.7,194.1c0.5-0.5,0.9-1,1.4-1.4c0.2-0.2,1.7-1.3,0.8-0.7c-0.9,0.6,0.8-0.5,0.9-0.6c0.6-0.3,1.2-0.7,1.7-1
			c2.3-1.2,3.7-3.9,3.7-6.4c0-2.8-1.5-4.9-3.7-6.4c-0.4-0.3-0.8-0.6-1.3-0.9c-0.3-0.2-0.6-0.4-0.9-0.6c-0.3-0.2-0.7-0.7,0,0
			c1.2,1.2-1.2-0.9-1.2-0.9c-0.4-0.2-1.1-0.5-1.4-0.6c-2.1-0.9-0.4-0.2,0,0c-0.8-0.3-1.6-0.7-2.4-1c-2.2-0.9-4.4-1.6-6.6-2.2
			c-5-1.3-10.1-1.9-15.2-2.4c-9.5-0.9-19.4-1.5-29-0.2c-6.3,0.8-12.5,2.3-18,5.8c-3.2,2-4.9,5.4-4.4,9.2c0.2,1.7,0.8,3,1.8,4.4
			c1.3,1.7,2.8,2.5,4.8,3.3c5.6,2.3,11.8,2.8,17.7,3.3c5.8,0.5,11.6,1,17.4,1.4c5.8,0.4,11.7,0.6,17.5,0.6c6.4,0,12.7-0.7,19-1.7
			c-2.9-2.2-5.8-4.5-8.8-6.7c0-0.1,0.2-1.2,0.1-0.4c-0.1,0.4-0.2,0.8-0.2,1.1c-0.1,0.6-0.2,1.1-0.4,1.7c-0.3,1.3-0.5,2.7-0.7,4
			c-0.5,3.1-1,6.3-1.4,9.4c-0.6,5.2-1,10.5-1.3,15.7c-0.5,10.6-0.2,21.3,0.3,31.9c0.1,2.9,0.3,5.9,0.5,8.8c0.2,3,0.8,6.1,0.6,9.1
			c0.1-0.8,0.2-1.5,0.3-2.3c-0.1,0.7-0.1,0.7,0.2-0.1c0.4-1.1,1.2-2,2.3-2.7c-0.4,0.2-0.8,0.6-1.3,0.8c-0.8,0.5-1.6,0.9-2.4,1.4
			c-0.8,0.4-1.8,0.7-2.5,1.2c1.8-1.2,1.1-0.4,0.3-0.1c-0.5,0.2-0.9,0.3-1.4,0.5c-3.7,1.4-7.5,2.3-11.3,2.8c0.8-0.1,1.6-0.2,2.4-0.3
			c-6.7,0.9-13.4,0.6-20.1-0.3c0.8,0.1,1.6,0.2,2.4,0.3c-3.7-0.5-7.3-1.2-10.9-1.9c-3.6-0.8-7.2-1.8-10.8-2.4
			c-2.3-0.4-4.6-0.4-6.7,0.9c-1.8,1.1-3.5,3.1-4,5.2c-1,4.5,1.4,9.5,6.1,10.7c2.8,0.7,5.6,1.3,8.5,1.9c0.8,0.1,1.5,0.3,2.3,0.4
			c2.5,0.3,2.9,0.4,1.2,0.2c0.4,0.1,0.8,0.2,1.1,0.3c1.3,0.3,2.6,0.6,4,0.8c6.2,1.2,12.4,2,18.7,2.4c-1.4-5-2.7-10-4.1-15
			c-0.4,0.3-0.8,0.5-1.2,0.7c-0.2,0.1-1.6,0.9-0.3,0.2c1.2-0.7,0,0-0.3,0c-0.4,0.1-0.7,0.2-1.1,0.3c-1.1,0.3,2.2-0.1,0.5-0.1
			c-0.5,0-0.9,0.1-1.4,0.1c-0.9,0-1.7,0-2.6-0.1c-0.8-0.1-1.3-0.5,0.5,0.1c-0.4-0.1-1-0.2-1.4-0.2c-0.8-0.2-1.7-0.4-2.5-0.6
			c-2-0.5-4-1.1-6-1.8c-3.8-1.3-7.5-2.8-11.1-4.3c-0.4-0.2-0.9-0.4-1.3-0.5c-1.1-0.5,1.6,1,0.4,0.2c0.3,0.3,0.7,0.5,1,0.8
			c1.2,4.5,1.9,5.8,1.9,3.9c0.1-0.3,0.1-0.7,0.1-1c0.2-2.2,0.4-4.4,0.5-6.5c1.2-16.8,1.2-33.8,0.6-50.6c-0.4-9.5-1-19.1-1.5-28.6
			c-5.3,0.7-10.6,1.4-16,2.2c3.7,9.9,6,20.3,7.6,30.8c0.2,1.3,0.4,2.6,0.6,3.8c0.2,1.1-0.2-1.6-0.1-0.5c0,0.3,0.1,0.6,0.1,0.8
			c0.1,0.7,0.2,1.5,0.3,2.2c0.3,2.7,0.6,5.3,0.9,8c0.6,5.3,1.1,10.5,1.7,15.8c0.8,6.6,1.6,13.2,2.8,19.8c0.6,3.3,4.5,6.1,7.8,6
			c3.9-0.2,6.4-2.5,7.8-6c2-5.1,1.3-11.2,1.2-16.6c-0.1-5.4-0.3-10.7-0.5-16.1c-0.4-10.7-0.7-21.4-0.4-32.2c0.1-6.1,0.4-12.3,1-18.4
			c-4.9,1.3-9.7,2.6-14.6,3.9c0.2,0.3,1.1,1.8,0.5,0.7c-0.6-1.2,0,0.5,0.1,0.9c0.3,1.3-0.1-0.5-0.1-0.7c0,0.3,0.1,0.7,0.1,0.9
			c0.1,0.8,0.2,1.6,0.3,2.4c0.3,2.9,0.6,5.8,0.9,8.7c0.6,5.9,1.3,11.8,1.9,17.7c1.3,11.9,2.5,23.8,3.8,35.7
			c0.7,6.7,1.4,13.4,2.1,20.1c0.2,2.2,0.7,4,2.3,5.6c1.4,1.4,3.6,2.4,5.6,2.3c4.1-0.2,8.1-3.5,7.9-7.9c-0.9-20.2-1.8-40.4-2.1-60.5
			c0-2.8-0.1-5.6,0-8.4c0-0.6,0-1.2,0.1-1.8c0-0.3,0.1-0.5,0.1-0.8c0.1-1-0.3,1.4-0.1,0.5c0.2-0.6,0.3-1.1,0.4-1.7
			c0.1-0.2,0.4-1,0,0c-0.5,1.1,0.2-0.3,0.3-0.4c-4.5-0.6-9.1-1.2-13.6-1.8c1.7,10.2,3.3,20.4,4.8,30.6c0.4,2.6,0.7,5.1,1.1,7.7
			c0,0.3,0.2,1.4,0-0.2c0,0.3,0.1,0.6,0.1,0.9c0.1,0.6,0.2,1.2,0.2,1.8c0.2,1.3,0.3,2.6,0.5,3.8c0.7,5.2,1.3,10.5,2,15.7
			c0.7,5.8,1.4,11.7,2,17.5c0.2,2,0.7,3.7,2.2,5.2c1.3,1.3,3.4,2.2,5.2,2.2c4.1-0.2,7.3-3.2,7.4-7.4c0.5-22-1.2-44-2.1-66
			c-0.1-2.9-0.2-5.7-0.2-8.6c0-0.7,0-1.4,0-2.1c0-0.3,0-0.5,0-0.8c0-0.7,0.5-1.3-0.1,0.1c0.2-0.5,0.2-1.2,0.3-1.8
			c0.1-0.5,1-2.8,0.2-0.9c-4.2,0-8.5,0-12.7,0c0.1,0.2,0.2,0.5,0.4,0.7c0.4,0.7-0.2-0.5-0.2-0.5c-0.1,0.1,0.6,1.5,0.7,1.8
			c0.4,1.2,0.7,2.4,1,3.7c0.3,1.2,0.5,2.3,0.6,3.5c0.1,0.5,0.2,1.1,0.2,1.6c0.1,0.4,0,1.3,0-0.3c0,0.4,0.1,0.7,0.1,1.1
			c0.7,5.4,1.4,10.7,2,16.1c1.3,10.6,2.6,21.2,3.9,31.9c0.7,6.1,1.4,12.1,2.2,18.2c0.2,2,0.7,3.7,2.1,5.2c1.3,1.3,3.4,2.2,5.2,2.1
			c4.1-0.2,7.2-3.2,7.3-7.3c0.5-19.7-2-39.4-1.5-59.1c0.1-2.7,0.2-5.5,0.4-8.2c0.1-1.4,0.2-2.7,0.4-4.1c0-0.3,0.1-0.6,0.1-0.9
			c0.1-0.8,0.1-0.5,0,0.1c0.2-0.7,0.2-1.5,0.3-2.2c0-0.3,0.2-1.8,0-0.2c-3.4,1.4-6.9,2.8-10.3,4.2c0.2,0.1,0.5,0.2,0.7,0.4
			c-0.9-0.7-1.1-0.9-0.6-0.4c-1.3-1.4-0.5-0.7-0.2-0.2c0.3,0.6,0.2,0.5-0.2-0.6c0.1,0.3,0.2,0.5,0.3,0.8c0.1,0.4,0.2,0.8,0.3,1.2
			c0.1,0.3,0.1,0.5,0.1,0.8c0-0.3-0.1-0.7-0.1-1c0,1,0.2,2.3,0.4,3.2c-0.3-1.5,0,0.4,0,0.6c0.1,0.8,0.1,1.6,0.2,2.4
			c0.5,5.4,0.9,10.8,1.4,16.2c0.9,11,1.8,22,2.8,33c4.5,0,9.1,0,13.6,0c-2.1-24.4-3.8-48.7-1.3-73.1c-4.4,0.6-8.8,1.2-13.2,1.8
			c3,11,5.3,22.2,7.1,33.5c0.5,2.8,0.9,5.6,1.3,8.4c0.1,0.7,0.2,1.4,0.3,2c0,0.2,0.1,1.5,0.1,0.5c-0.1-0.9,0,0.1,0,0.2
			c0.2,1.4,0.4,2.9,0.5,4.3c0.7,5.7,1.3,11.4,1.7,17.2c0.5,6.3,0.8,12.6,1,18.9c0.2,3.8,3.3,7.5,7.4,7.4c3.9-0.2,7.5-3.2,7.4-7.4
			c-1-23.3-4.3-46.8-9.3-69.6c-1.4-6.4-2.9-12.7-4.5-19.1c-0.8-3.3-4.2-5.2-7.4-4.8c-3.6,0.5-5.4,3.2-5.8,6.6
			c-3.1,24.2-0.9,48.9,1.2,73.1c0.3,3.5,2.9,7,6.8,6.8c3.4-0.2,7.1-3,6.8-6.8c-1-11.8-2-23.6-3-35.4c-0.5-5.8-1-11.6-1.5-17.4
			c-0.4-6-1.1-12.6-7.1-15.8c-3.6-1.9-9.5-0.5-10.3,4.2c-3.5,20.2-1.8,40.7-1.1,61.1c0.2,5.7,0.3,11.4,0.2,17.1c4.9,0,9.8,0,14.7,0
			c-2.6-21.9-5.3-43.9-8.1-65.8c-0.8-6.7-1.8-13.1-4.8-19.2c-2.3-4.6-10.5-5-12.7,0c-1.4,3.2-2.2,6.2-2.5,9.7c-0.2,2.5-0.1,5,0,7.6
			c0.2,5.7,0.4,11.4,0.7,17.1c0.5,11.3,1.1,22.6,1.4,33.9c0.2,6.4,0.2,12.8,0.1,19.2c4.9,0,9.9,0,14.8,0
			c-2.4-21.4-5.2-42.8-8.4-64.1c-0.1-0.7-0.2-1.4-0.3-2.1c0-0.3-0.1-0.6-0.1-0.9c0-0.2-0.3-1.9-0.1-0.8c0.3,1.5-0.2-1.7-0.2-1.6
			c-0.1-0.4-0.1-0.8-0.2-1.2c-0.1-0.7-0.2-1.4-0.3-2.1c-0.4-3.1-0.9-6.1-1.4-9.2c-0.5-2.8-3.6-5-6.2-5.3c-2.9-0.4-5.9,1-7.4,3.5
			c-2.9,4.8-2.9,10.4-3,15.8c0,5.2,0,10.4,0,15.6c0.1,10.5,0.4,21,0.7,31.5c0.2,5.9,0.4,11.8,0.6,17.7c5.3,0,10.6,0,15.8,0
			c-2.5-24.3-5.3-48.6-7.9-72.9c-0.4-3.4-0.7-6.8-1.1-10.2c-0.4-3.8-0.6-8-3-11.2c-2-2.7-5.3-4.7-8.8-3.6c-3.5,1.1-5.4,4-5.7,7.5
			c-2,21.1-1.1,42.3-0.6,63.4c0.1,3,0.1,6,0.2,8.9c0,1.4,0,2.7-0.1,4.1c0,0.3-0.1,1.2,0,0c0.2-1.4-0.1,0.4-0.1,0.5
			c-0.2,0.7-0.4,1.4-0.7,2c5.2,0,10.4,0,15.6,0c-0.5-2.6-0.9-5.3-1.2-8c-0.1-0.6-0.3-1.3-0.3-1.9c0,0,0.2,1.7,0.1,0.8
			c0-0.4-0.1-0.7-0.1-1.1c-0.2-1.4-0.3-2.8-0.5-4.1c-0.6-5.3-1.2-10.5-1.8-15.8c-1.2-11.1-2.5-22.2-5-33.1c-1.3-5.9-3-11.8-5.1-17.5
			c-1.4-3.8-4.7-6.4-8.9-5.8c-3.8,0.5-7.3,3.9-7,8c0.9,18.2,1.8,36.4,1.7,54.6c0,9-0.3,18.1-1,27.1c-0.2,2-0.5,4-0.4,6
			c0.1,2.5,1,4.7,2.6,6.5c1.5,1.7,3.2,2.3,5.2,3.2c3.9,1.7,7.9,3.3,11.9,4.7c9.1,3.2,21,6.1,29.6,0.1c2.8-2,4.9-5.5,3.7-9.1
			c-1.1-3.5-4.1-5.7-7.8-5.9c-2.9-0.2-5.7-0.5-8.6-0.8c-2-0.2,1.8,0.3-0.2,0c-0.8-0.1-1.5-0.2-2.3-0.3c-1.3-0.2-2.7-0.4-4-0.7
			c-1.3-0.2-2.7-0.7-4-0.8c-0.9-0.2-0.8-0.1,0.3,0.3c-0.8-0.4-1.6-0.7-2.5-1c-0.5-0.2-1.1-0.3-1.7-0.5c-2.8-0.9-5.5-1.8-8.2-2.8
			c-1.5,5.6-3.1,11.2-4.6,16.8c5.7,1.7,11.8,2.9,17.7,3.9c6.4,1.1,12.8,1.9,19.3,1.8c5.9-0.1,11.9-0.8,17.5-2.4
			c5.9-1.7,12.4-4.6,16.9-8.8c3.8-3.6,3.6-8.5,3.3-13.3c-0.3-4.1-0.5-8.2-1-12.2c0.1,0.8,0.2,1.5,0.3,2.3c-1-10.9-1.8-21.8-2.1-32.8
			c-0.1-5.4-0.1-10.9,0.2-16.3c0.1-2.7,0.3-5.4,0.6-8.1c0.1-1.3,0.2-2.5,0.4-3.8c0.1-0.7,0.1-1.4,0.2-2c-0.4,2.2,0.6-1.9-0.3,0
			c1-2.3,1.4-4.7,0-7c-1.2-2.1-3.5-3.4-6-3.4c-14.7,0-29.3-1.4-43.9-3.3c0.8,0.1,1.5,0.2,2.3,0.3c-7.6-1-15.6-1.6-22.8-4.6
			c0.7,0.3,1.5,0.6,2.2,0.9c-0.2-0.1-0.3-0.1-0.5-0.2c0,5.3,0,10.6,0,16c1.2-0.7,2.3-1.3,3.6-1.8c-0.7,0.3-1.5,0.6-2.2,0.9
			c2.8-1.1,5.8-1.8,8.8-2.3c-0.8,0.1-1.7,0.2-2.5,0.3c3.2-0.4,6.5-0.5,9.7-0.6c3.7,0,7.4-0.2,11.1-0.3c6.8-0.1,13.6-0.3,20.4,0.6
			c-0.7-0.1-1.5-0.2-2.2-0.3c2.4,0.3,4.8,0.8,7.1,1.4c0.5,0.1,1,0.3,1.5,0.4c0.3,0.1,0.7,0.2,1,0.3c-1.6-0.7-1.3-0.5,1,0.4
			c0.7,0.1,1.4,0.2,2.1,0.3c-1.3-0.2-1.5-0.2-0.6,0.1c0.4,0.2,2.6,1.1,0.6,0.2c-0.5-3.9-1-7.8-1.5-11.7c-2.5,2-4.6,4.6-6.3,7.4
			c-1.7,2.8-0.9,6.5,1.7,8.5C116.6,196.5,120.5,196.5,122.7,194.1L122.7,194.1z"/>
		<path class="st12" d="M66.8,172.7c-2.5-1.2-4.4-1.2-7.1-0.7c-0.3,0-2.2,0.4-0.3,0.1c-0.7,0.1-1.5,0.2-2.2,0.2
			c-2.4,0.2-4.3,1-5.8,2.9c-1.3,1.7-2.1,4.2-1.3,6.4c1.5,4.1,4.5,6.8,8.7,7.9c2.9,0.8,6.1,0.9,9.1,1.2c6.2,0.5,12.4,0.7,18.6,0.5
			c6.1-0.1,12.2-0.2,18.4-0.7c3.1-0.2,6.1-0.5,9.2-0.8c1.6-0.1,3.2-0.3,4.7-0.5c0.8-0.1,1.6-0.1,2.4-0.2c1.9-0.2,3.5-0.7,5.2-1.6
			c3-1.5,4.7-5.8,3.6-9c-1.1-3.4-4-5.8-7.7-5.8c-0.6,0-1.1-0.1-1.7-0.1c-1.7-0.1,1.3,0.3-0.3-0.1c-1.2-0.3-2.5-0.5-3.7-0.8
			c-2.3-0.4-4.6-0.8-6.9-1.2c-5.2-0.8-10.4-1.4-15.6-1.8c-4.6-0.3-9.3-0.5-13.9-0.4c-2.3,0-4.6,0.1-7,0.3c-3,0.3-6.1,0.4-9.1,1.2
			c-3.9,1-6.3,4.9-5.7,8.8c0.5,4,3.8,6.8,7.9,6.9c2.3,0.1,4.6-0.3,6.9-0.4c2.3-0.2,4.6-0.3,7-0.4c4.5-0.2,9.1-0.3,13.6-0.1
			c4.5,0.1,9.1,0.5,13.6,1c0.3,0,2.3,0.2,0.3,0c0.6,0.1,1.2,0.2,1.7,0.2c1.1,0.2,2.3,0.4,3.4,0.6c1.1,0.2,2.1,0.4,3.1,0.6
			c0.6,0.1,1.1,0.2,1.7,0.4c0.5,0.1,2.4,1,0.5,0.2c2-4.8,4.1-9.7,6.1-14.5c-1.3-0.3-2.6-0.6-3.9-0.5c-0.7,0-1.4,0.2-2.1,0.2
			c-1.5,0.2-3,0.3-4.4,0.5c-2.8,0.3-5.5,0.6-8.3,0.9c-5.6,0.6-11.2,1.2-16.9,1.6c-5.6,0.4-11.3,0.3-16.9,0.1
			c-2.8-0.1-5.5-0.3-8.3-0.6c-0.3,0-0.7-0.1-1-0.1c1.3,0.2,1.6,0.2,0.8,0.1c-0.4-0.1-0.8-0.2-1.2-0.3c-0.7-0.3-0.5-0.2,0.7,0.3
			c-0.2-0.1-0.5-0.2-0.7-0.4c1,0.8,1.2,1,0.7,0.4c0.7,1.1,0.9,1.3,0.5,0.6c-1.5,3.6-2.9,7.2-4.4,10.8c3.6-1.1,7.9-2.1,9.9-5.6
			C70.6,178.4,69.8,174.2,66.8,172.7L66.8,172.7z"/>
		<path class="st3" d="M133.1,180.3c-2.6-5.3-8-8.4-13.2-10.4c-6.3-2.5-13.3-3.4-20-3.8c-13.9-0.8-28,0.6-41.4,4.1
			c-4.7,1.3-14.4,4.2-13.1,10.9c0.5,2.8,3.2,5,5.4,6.6c2.2,1.6,4.7,2.8,7.3,3.7c5.3,1.8,10.9,2.3,16.5,2.6
			c7.2,0.3,14.4,0.2,21.6-0.2c8-0.5,15.9-1.5,23.8-2.6c3.4-0.5,7.1-0.7,10-2.6c1.4-0.9,2.7-2.2,3.5-3.7c0.9-1.8,0.8-3.3-0.2-5
			c-0.8-1.3-2.9-1.1-3.2,0.4c-0.6,2.3-1.8,4.2-4,5.1c-2.6,1-5.6,1.3-8.4,1.8c-6.2,1-12.5,1.4-18.8,1.8c-6.3,0.4-12.6,0.5-18.9,0.3
			c-5.2-0.1-10.4-0.1-15.5-1c-4.6-0.8-9.2-2.4-12.8-5.6c-0.6-0.5-1.8-1.4-1.8-2.4c0-1.1,1.7-2,2.5-2.5c2.4-1.4,5.1-2.1,7.8-2.8
			c11.8-2.9,24-4,36.1-3.6c6.7,0.2,13.6,0.7,20.1,2.5c5.6,1.5,11,3.6,14.8,8.2C132,183.3,133.8,181.6,133.1,180.3L133.1,180.3z"/>
		<path class="st3" d="M130.4,181c-1.4,2.8-1.3,6.1-1.5,9.2c-0.2,3.1-0.2,6.2-0.3,9.4c-0.1,6.3-0.2,12.7-0.2,19
			c0,12.6,0.1,25.1,0.5,37.7c0.2,7.1,0.4,14.3,0.7,21.4c0.1,3.1,4.9,3.1,4.8,0c-0.8-25.2-0.7-50.5-0.4-75.7c0-3.5,0.2-7,0.1-10.6
			c0-3.4,0.2-7.2-1.2-10.4C132.5,180,130.9,180.1,130.4,181L130.4,181z"/>
		<path class="st3" d="M131.2,276.3c-4.2,2.9-8.4,5.8-13.1,7.8c-4.6,2-9.6,3.3-14.5,4.2c-10.6,1.9-21.8,1.2-32.2-1.2
			c-6.3-1.4-12.6-3.5-18.4-6.4c-3.1-1.5-5.9,3.1-2.7,4.7c20.9,10.3,46.7,14.2,68.6,4.6c5.5-2.4,11-5.8,14.9-10.4
			C135.2,277.9,133.3,274.8,131.2,276.3L131.2,276.3z"/>
		<path class="st3" d="M130,243.8c-4.2,2.9-8.4,5.8-13.1,7.8c-4.6,2-9.6,3.3-14.5,4.2c-10.6,1.9-21.8,1.2-32.2-1.2
			c-6.3-1.4-12.6-3.5-18.4-6.4c-3.1-1.5-5.9,3.1-2.7,4.7c20.9,10.3,46.7,14.2,68.6,4.6c5.5-2.4,11-5.8,14.9-10.4
			C134,245.4,132.1,242.3,130,243.8L130,243.8z"/>
		<path class="st3" d="M129.4,211.3c-4.2,2.9-8.4,5.8-13.1,7.8c-4.6,2-9.6,3.3-14.5,4.2c-10.6,1.9-21.8,1.2-32.2-1.2
			c-6.3-1.4-12.6-3.5-18.4-6.4c-3.1-1.5-5.9,3.1-2.7,4.7c20.9,10.3,46.7,14.2,68.6,4.6c5.5-2.4,11-5.8,14.9-10.4
			C133.4,212.9,131.5,209.8,129.4,211.3L129.4,211.3z"/>
		<path class="st3" d="M46,179.1c-2.3,2-2.7,5.9-2.8,8.8c-0.2,3.3-0.1,6.7,0,10c0.2,6.8,0.7,13.6,1.1,20.3
			c0.9,13.4,1.9,26.9,2.1,40.3c0.2,7.7,0.1,15.3-0.4,23c-0.2,3.5,5.3,3.5,5.5,0c1.7-26.7-1.2-53.4-2.4-80c-0.2-3.8-0.4-7.5-0.5-11.3
			c-0.1-1.7-0.1-3.4-0.1-5.1c0-1.7,0.2-3.7-0.4-5.3C47.9,178.7,46.7,178.4,46,179.1L46,179.1z"/>
	</g>
	<g>
		<path class="st0" d="M162.6,229.5c0.5-0.5,0.9-1,1.4-1.4c0.2-0.2,1.7-1.3,0.8-0.7c-0.9,0.6,0.8-0.5,0.9-0.6c0.6-0.3,1.2-0.7,1.7-1
			c2.3-1.2,3.7-3.9,3.7-6.4c0-2.8-1.5-4.9-3.7-6.4c-0.4-0.3-0.8-0.6-1.3-0.9c-0.3-0.2-0.6-0.4-0.9-0.6c-0.3-0.2-0.7-0.7,0,0
			c1.2,1.2-1.2-0.9-1.2-0.9c-0.4-0.2-1.1-0.5-1.4-0.6c-2.1-0.9-0.4-0.2,0,0c-0.8-0.3-1.6-0.7-2.4-1c-2.2-0.9-4.4-1.6-6.6-2.2
			c-5-1.3-10.1-1.9-15.2-2.4c-9.5-0.9-19.4-1.5-29-0.2c-6.3,0.8-12.5,2.3-18,5.8c-3.2,2-4.9,5.4-4.4,9.2c0.2,1.7,0.8,3,1.8,4.4
			c1.3,1.7,2.8,2.5,4.8,3.3c5.6,2.3,11.8,2.8,17.7,3.3c5.8,0.5,11.6,1,17.4,1.4c5.8,0.4,11.7,0.6,17.5,0.6c6.4,0,12.7-0.7,19-1.7
			c-2.9-2.2-5.8-4.5-8.8-6.7c0-0.1,0.2-1.2,0.1-0.4c-0.1,0.4-0.2,0.8-0.2,1.1c-0.1,0.6-0.2,1.1-0.4,1.7c-0.3,1.3-0.5,2.7-0.7,4
			c-0.5,3.1-1,6.3-1.4,9.4c-0.6,5.2-1,10.5-1.3,15.7c-0.5,10.6-0.2,21.3,0.3,31.9c0.1,2.9,0.3,5.9,0.5,8.8c0.2,3,0.8,6.1,0.6,9.1
			c0.1-0.8,0.2-1.5,0.3-2.3c-0.1,0.7-0.1,0.7,0.2-0.1c0.4-1.1,1.2-2,2.3-2.7c-0.4,0.2-0.8,0.6-1.3,0.8c-0.8,0.5-1.6,0.9-2.4,1.4
			c-0.8,0.4-1.8,0.7-2.5,1.2c1.8-1.2,1.1-0.4,0.3-0.1c-0.5,0.2-0.9,0.3-1.4,0.5c-3.7,1.4-7.5,2.3-11.3,2.8c0.8-0.1,1.6-0.2,2.4-0.3
			c-6.7,0.9-13.4,0.6-20.1-0.3c0.8,0.1,1.6,0.2,2.4,0.3c-3.7-0.5-7.3-1.2-10.9-1.9c-3.6-0.8-7.2-1.8-10.8-2.4
			c-2.3-0.4-4.6-0.4-6.7,0.9c-1.8,1.1-3.5,3.1-4,5.2c-1,4.5,1.4,9.5,6.1,10.7c2.8,0.7,5.6,1.3,8.5,1.9c0.8,0.1,1.5,0.3,2.3,0.4
			c2.5,0.3,2.9,0.4,1.2,0.2c0.4,0.1,0.8,0.2,1.1,0.3c1.3,0.3,2.6,0.6,4,0.8c6.2,1.2,12.4,2,18.7,2.4c-1.4-5-2.7-10-4.1-15
			c-0.4,0.3-0.8,0.5-1.2,0.7c-0.2,0.1-1.6,0.9-0.3,0.2c1.2-0.7,0,0-0.3,0c-0.4,0.1-0.7,0.2-1.1,0.3c-1.1,0.3,2.2-0.1,0.5-0.1
			c-0.5,0-0.9,0.1-1.4,0.1c-0.9,0-1.7,0-2.6-0.1c-0.8-0.1-1.3-0.5,0.5,0.1c-0.4-0.1-1-0.2-1.4-0.2c-0.8-0.2-1.7-0.4-2.5-0.6
			c-2-0.5-4-1.1-6-1.8c-3.8-1.3-7.5-2.8-11.1-4.3c-0.4-0.2-0.9-0.4-1.3-0.5c-1.1-0.5,1.6,1,0.4,0.2c0.3,0.3,0.7,0.5,1,0.8
			c1.2,4.5,1.9,5.8,1.9,3.9c0.1-0.3,0.1-0.7,0.1-1c0.2-2.2,0.4-4.4,0.5-6.5c1.2-16.8,1.2-33.8,0.6-50.6c-0.4-9.5-1-19.1-1.5-28.6
			c-5.3,0.7-10.6,1.4-16,2.2c3.7,9.9,6,20.3,7.6,30.8c0.2,1.3,0.4,2.6,0.6,3.8c0.2,1.1-0.2-1.6-0.1-0.5c0,0.3,0.1,0.6,0.1,0.8
			c0.1,0.7,0.2,1.5,0.3,2.2c0.3,2.7,0.6,5.3,0.9,8c0.6,5.3,1.1,10.5,1.7,15.8c0.8,6.6,1.6,13.2,2.8,19.8c0.6,3.3,4.5,6.1,7.8,6
			c3.9-0.2,6.4-2.5,7.8-6c2-5.1,1.3-11.2,1.2-16.6c-0.1-5.4-0.3-10.7-0.5-16.1c-0.4-10.7-0.7-21.4-0.4-32.2c0.1-6.1,0.4-12.3,1-18.4
			c-4.9,1.3-9.7,2.6-14.6,3.9c0.2,0.3,1.1,1.8,0.5,0.7c-0.6-1.2,0,0.5,0.1,0.9c0.3,1.3-0.1-0.5-0.1-0.7c0,0.3,0.1,0.7,0.1,0.9
			c0.1,0.8,0.2,1.6,0.3,2.4c0.3,2.9,0.6,5.8,0.9,8.7c0.6,5.9,1.3,11.8,1.9,17.7c1.3,11.9,2.5,23.8,3.8,35.7
			c0.7,6.7,1.4,13.4,2.1,20.1c0.2,2.2,0.7,4,2.3,5.6c1.4,1.4,3.6,2.4,5.6,2.3c4.1-0.2,8.1-3.5,7.9-7.9c-0.9-20.2-1.8-40.4-2.1-60.5
			c0-2.8-0.1-5.6,0-8.4c0-0.6,0-1.2,0.1-1.8c0-0.3,0.1-0.5,0.1-0.8c0.1-1-0.3,1.4-0.1,0.5c0.2-0.6,0.3-1.1,0.4-1.7
			c0.1-0.2,0.4-1,0,0c-0.5,1.1,0.2-0.3,0.3-0.4c-4.5-0.6-9.1-1.2-13.6-1.8c1.7,10.2,3.3,20.4,4.8,30.6c0.4,2.6,0.7,5.1,1.1,7.7
			c0,0.3,0.2,1.4,0-0.2c0,0.3,0.1,0.6,0.1,0.9c0.1,0.6,0.2,1.2,0.2,1.8c0.2,1.3,0.3,2.6,0.5,3.8c0.7,5.2,1.3,10.5,2,15.7
			c0.7,5.8,1.4,11.7,2,17.5c0.2,2,0.7,3.7,2.2,5.2c1.3,1.3,3.4,2.2,5.2,2.2c4.1-0.2,7.3-3.2,7.4-7.4c0.5-22-1.2-44-2.1-66
			c-0.1-2.9-0.2-5.7-0.2-8.6c0-0.7,0-1.4,0-2.1c0-0.3,0-0.5,0-0.8c0-0.7,0.5-1.3-0.1,0.1c0.2-0.5,0.2-1.2,0.3-1.8
			c0.1-0.5,1-2.8,0.2-0.9c-4.2,0-8.5,0-12.7,0c0.1,0.2,0.2,0.5,0.4,0.7c0.4,0.7-0.2-0.5-0.2-0.5c-0.1,0.1,0.6,1.5,0.7,1.8
			c0.4,1.2,0.7,2.4,1,3.7c0.3,1.2,0.5,2.3,0.6,3.5c0.1,0.5,0.2,1.1,0.2,1.6c0.1,0.4,0,1.3,0-0.3c0,0.4,0.1,0.7,0.1,1.1
			c0.7,5.4,1.4,10.7,2,16.1c1.3,10.6,2.6,21.2,3.9,31.9c0.7,6.1,1.4,12.1,2.2,18.2c0.2,2,0.7,3.7,2.1,5.2c1.3,1.3,3.4,2.2,5.2,2.1
			c4.1-0.2,7.2-3.2,7.3-7.3c0.5-19.7-2-39.4-1.5-59.1c0.1-2.7,0.2-5.5,0.4-8.2c0.1-1.4,0.2-2.7,0.4-4.1c0-0.3,0.1-0.6,0.1-0.9
			c0.1-0.8,0.1-0.5,0,0.1c0.2-0.7,0.2-1.5,0.3-2.2c0-0.3,0.2-1.8,0-0.2c-3.4,1.4-6.9,2.8-10.3,4.2c0.2,0.1,0.5,0.2,0.7,0.4
			c-0.9-0.7-1.1-0.9-0.6-0.4c-1.3-1.4-0.5-0.7-0.2-0.2c0.3,0.6,0.2,0.5-0.2-0.6c0.1,0.3,0.2,0.5,0.3,0.8c0.1,0.4,0.2,0.8,0.3,1.2
			c0.1,0.3,0.1,0.5,0.1,0.8c0-0.3-0.1-0.7-0.1-1c0,1,0.2,2.3,0.4,3.2c-0.3-1.5,0,0.4,0,0.6c0.1,0.8,0.1,1.6,0.2,2.4
			c0.5,5.4,0.9,10.8,1.4,16.2c0.9,11,1.8,22,2.8,33c4.5,0,9.1,0,13.6,0c-2.1-24.4-3.8-48.7-1.3-73.1c-4.4,0.6-8.8,1.2-13.2,1.8
			c3,11,5.3,22.2,7.1,33.5c0.5,2.8,0.9,5.6,1.3,8.4c0.1,0.7,0.2,1.4,0.3,2c0,0.2,0.1,1.5,0.1,0.5c-0.1-0.9,0,0.1,0,0.2
			c0.2,1.4,0.4,2.9,0.5,4.3c0.7,5.7,1.3,11.4,1.7,17.2c0.5,6.3,0.8,12.6,1,18.9c0.2,3.8,3.3,7.5,7.4,7.4c3.9-0.2,7.5-3.2,7.4-7.4
			c-1-23.3-4.3-46.8-9.3-69.6c-1.4-6.4-2.9-12.7-4.5-19.1c-0.8-3.3-4.2-5.2-7.4-4.8c-3.6,0.5-5.4,3.2-5.8,6.6
			c-3.1,24.2-0.9,48.9,1.2,73.1c0.3,3.5,2.9,7,6.8,6.8c3.4-0.2,7.1-3,6.8-6.8c-1-11.8-2-23.6-3-35.4c-0.5-5.8-1-11.6-1.5-17.4
			c-0.4-6-1.1-12.6-7.1-15.8c-3.6-1.9-9.5-0.5-10.3,4.2c-3.5,20.2-1.8,40.7-1.1,61.1c0.2,5.7,0.3,11.4,0.2,17.1c4.9,0,9.8,0,14.7,0
			c-2.6-21.9-5.3-43.9-8.1-65.8c-0.8-6.7-1.8-13.1-4.8-19.2c-2.3-4.6-10.5-5-12.7,0c-1.4,3.2-2.2,6.2-2.5,9.7c-0.2,2.5-0.1,5,0,7.6
			c0.2,5.7,0.4,11.4,0.7,17.1c0.5,11.3,1.1,22.6,1.4,33.9c0.2,6.4,0.2,12.8,0.1,19.2c4.9,0,9.9,0,14.8,0
			c-2.4-21.4-5.2-42.8-8.4-64.1c-0.1-0.7-0.2-1.4-0.3-2.1c0-0.3-0.1-0.6-0.1-0.9c0-0.2-0.3-1.9-0.1-0.8c0.3,1.5-0.2-1.7-0.2-1.6
			c-0.1-0.4-0.1-0.8-0.2-1.2c-0.1-0.7-0.2-1.4-0.3-2.1c-0.4-3.1-0.9-6.1-1.4-9.2c-0.5-2.8-3.6-5-6.2-5.3c-2.9-0.4-5.9,1-7.4,3.5
			c-2.9,4.8-2.9,10.4-3,15.8c0,5.2,0,10.4,0,15.6c0.1,10.5,0.4,21,0.7,31.5c0.2,5.9,0.4,11.8,0.6,17.7c5.3,0,10.6,0,15.8,0
			c-2.5-24.3-5.3-48.6-7.9-72.9c-0.4-3.4-0.7-6.8-1.1-10.2c-0.4-3.8-0.6-8-3-11.2c-2-2.7-5.3-4.7-8.8-3.6c-3.5,1.1-5.4,4-5.7,7.5
			c-2,21.1-1.1,42.3-0.6,63.4c0.1,3,0.1,6,0.2,8.9c0,1.4,0,2.7-0.1,4.1c0,0.3-0.1,1.2,0,0c0.2-1.4-0.1,0.4-0.1,0.5
			c-0.2,0.7-0.4,1.4-0.7,2c5.2,0,10.4,0,15.6,0c-0.5-2.6-0.9-5.3-1.2-8c-0.1-0.6-0.3-1.3-0.3-1.9c0,0,0.2,1.7,0.1,0.8
			c0-0.4-0.1-0.7-0.1-1.1c-0.2-1.4-0.3-2.8-0.5-4.1c-0.6-5.3-1.2-10.5-1.8-15.8c-1.2-11.1-2.5-22.2-5-33.1c-1.3-5.9-3-11.8-5.1-17.5
			c-1.4-3.8-4.7-6.4-8.9-5.8c-3.8,0.5-7.3,3.9-7,8c0.9,18.2,1.8,36.4,1.7,54.6c0,9-0.3,18.1-1,27.1c-0.2,2-0.5,4-0.4,6
			c0.1,2.5,1,4.7,2.6,6.5c1.5,1.7,3.2,2.3,5.2,3.2c3.9,1.7,7.9,3.3,11.9,4.7c9.1,3.2,21,6.1,29.6,0.1c2.8-2,4.9-5.5,3.7-9.1
			c-1.1-3.5-4.1-5.7-7.8-5.9c-2.9-0.2-5.7-0.5-8.6-0.8c-2-0.2,1.8,0.3-0.2,0c-0.8-0.1-1.5-0.2-2.3-0.3c-1.3-0.2-2.7-0.4-4-0.7
			c-1.3-0.2-2.7-0.7-4-0.8c-0.9-0.2-0.8-0.1,0.3,0.3c-0.8-0.4-1.6-0.7-2.5-1c-0.5-0.2-1.1-0.3-1.7-0.5c-2.8-0.9-5.5-1.8-8.2-2.8
			c-1.5,5.6-3.1,11.2-4.6,16.8c5.7,1.7,11.8,2.9,17.7,3.9c6.4,1.1,12.8,1.9,19.3,1.8c5.9-0.1,11.9-0.8,17.5-2.4
			c5.9-1.7,12.4-4.6,16.9-8.8c3.8-3.6,3.6-8.5,3.3-13.3c-0.3-4.1-0.5-8.2-1-12.2c0.1,0.8,0.2,1.5,0.3,2.3c-1-10.9-1.8-21.8-2.1-32.8
			c-0.1-5.4-0.1-10.9,0.2-16.3c0.1-2.7,0.3-5.4,0.6-8.1c0.1-1.3,0.2-2.5,0.4-3.8c0.1-0.7,0.1-1.4,0.2-2c-0.4,2.2,0.6-1.9-0.3,0
			c1-2.3,1.4-4.7,0-7c-1.2-2.1-3.5-3.4-6-3.4c-14.7,0-29.3-1.4-43.9-3.3c0.8,0.1,1.5,0.2,2.3,0.3c-7.6-1-15.6-1.6-22.8-4.6
			c0.7,0.3,1.5,0.6,2.2,0.9c-0.2-0.1-0.3-0.1-0.5-0.2c0,5.3,0,10.6,0,16c1.2-0.7,2.3-1.3,3.6-1.8c-0.7,0.3-1.5,0.6-2.2,0.9
			c2.8-1.1,5.8-1.8,8.8-2.3c-0.8,0.1-1.7,0.2-2.5,0.3c3.2-0.4,6.5-0.5,9.7-0.6c3.7,0,7.4-0.2,11.1-0.3c6.8-0.1,13.6-0.3,20.4,0.6
			c-0.7-0.1-1.5-0.2-2.2-0.3c2.4,0.3,4.8,0.8,7.1,1.4c0.5,0.1,1,0.3,1.5,0.4c0.3,0.1,0.7,0.2,1,0.3c-1.6-0.7-1.3-0.5,1,0.4
			c0.7,0.1,1.4,0.2,2.1,0.3c-1.3-0.2-1.5-0.2-0.6,0.1c0.4,0.2,2.6,1.1,0.6,0.2c-0.5-3.9-1-7.8-1.5-11.7c-2.5,2-4.6,4.6-6.3,7.4
			c-1.7,2.8-0.9,6.5,1.7,8.5C156.4,232,160.3,231.9,162.6,229.5L162.6,229.5z"/>
		<path class="st12" d="M106.6,208.1c-2.5-1.2-4.4-1.2-7.1-0.7c-0.3,0-2.2,0.4-0.3,0.1c-0.7,0.1-1.5,0.2-2.2,0.2
			c-2.4,0.2-4.3,1-5.8,2.9c-1.3,1.7-2.1,4.2-1.3,6.4c1.5,4.1,4.5,6.8,8.7,7.9c2.9,0.8,6.1,0.9,9.1,1.2c6.2,0.5,12.4,0.7,18.6,0.5
			c6.1-0.1,12.2-0.2,18.4-0.7c3.1-0.2,6.1-0.5,9.2-0.8c1.6-0.1,3.2-0.3,4.7-0.5c0.8-0.1,1.6-0.1,2.4-0.2c1.9-0.2,3.5-0.7,5.2-1.6
			c3-1.5,4.7-5.8,3.6-9c-1.1-3.4-4-5.8-7.7-5.8c-0.6,0-1.1-0.1-1.7-0.1c-1.7-0.1,1.3,0.3-0.3-0.1c-1.2-0.3-2.5-0.5-3.7-0.8
			c-2.3-0.4-4.6-0.8-6.9-1.2c-5.2-0.8-10.4-1.4-15.6-1.8c-4.6-0.3-9.3-0.5-13.9-0.4c-2.3,0-4.6,0.1-7,0.3c-3,0.3-6.1,0.4-9.1,1.2
			c-3.9,1-6.3,4.9-5.7,8.8c0.5,4,3.8,6.8,7.9,6.9c2.3,0.1,4.6-0.3,6.9-0.4c2.3-0.2,4.6-0.3,7-0.4c4.5-0.2,9.1-0.3,13.6-0.1
			c4.5,0.1,9.1,0.5,13.6,1c0.3,0,2.3,0.2,0.3,0c0.6,0.1,1.2,0.2,1.7,0.2c1.1,0.2,2.3,0.4,3.4,0.6c1.1,0.2,2.1,0.4,3.1,0.6
			c0.6,0.1,1.1,0.2,1.7,0.4c0.5,0.1,2.4,1,0.5,0.2c2-4.8,4.1-9.7,6.1-14.5c-1.3-0.3-2.6-0.6-3.9-0.5c-0.7,0-1.4,0.2-2.1,0.2
			c-1.5,0.2-3,0.3-4.4,0.5c-2.8,0.3-5.5,0.6-8.3,0.9c-5.6,0.6-11.2,1.2-16.9,1.6c-5.6,0.4-11.3,0.3-16.9,0.1
			c-2.8-0.1-5.5-0.3-8.3-0.6c-0.3,0-0.7-0.1-1-0.1c1.3,0.2,1.6,0.2,0.8,0.1c-0.4-0.1-0.8-0.2-1.2-0.3c-0.7-0.3-0.5-0.2,0.7,0.3
			c-0.2-0.1-0.5-0.2-0.7-0.4c1,0.8,1.2,1,0.7,0.4c0.7,1.1,0.9,1.3,0.5,0.6c-1.5,3.6-2.9,7.2-4.4,10.8c3.6-1.1,7.9-2.1,9.9-5.6
			C110.4,213.8,109.6,209.6,106.6,208.1L106.6,208.1z"/>
		<path class="st3" d="M173,215.7c-2.6-5.3-8-8.4-13.2-10.4c-6.3-2.5-13.3-3.4-20-3.8c-13.9-0.8-28,0.6-41.4,4.1
			c-4.7,1.3-14.4,4.2-13.1,10.9c0.5,2.8,3.2,5,5.4,6.6c2.2,1.6,4.7,2.8,7.3,3.7c5.3,1.8,10.9,2.3,16.5,2.6
			c7.2,0.3,14.4,0.2,21.6-0.2c8-0.5,15.9-1.5,23.8-2.6c3.4-0.5,7.1-0.7,10-2.6c1.4-0.9,2.7-2.2,3.5-3.7c0.9-1.8,0.8-3.3-0.2-5
			c-0.8-1.3-2.9-1.1-3.2,0.4c-0.6,2.3-1.8,4.2-4,5.1c-2.6,1-5.6,1.3-8.4,1.8c-6.2,1-12.5,1.4-18.8,1.8c-6.3,0.4-12.6,0.5-18.9,0.3
			c-5.2-0.1-10.4-0.1-15.5-1c-4.6-0.8-9.2-2.4-12.8-5.6c-0.6-0.5-1.8-1.4-1.8-2.4c0-1.1,1.7-2,2.5-2.5c2.4-1.4,5.1-2.1,7.8-2.8
			c11.8-2.9,24-4,36.1-3.6c6.7,0.2,13.6,0.7,20.1,2.5c5.6,1.5,11,3.6,14.8,8.2C171.8,218.7,173.6,217.1,173,215.7L173,215.7z"/>
		<path class="st3" d="M170.2,216.5c-1.4,2.8-1.3,6.1-1.5,9.2c-0.2,3.1-0.2,6.2-0.3,9.4c-0.1,6.3-0.2,12.7-0.2,19
			c0,12.6,0.1,25.1,0.5,37.7c0.2,7.1,0.4,14.3,0.7,21.4c0.1,3.1,4.9,3.1,4.8,0c-0.8-25.2-0.7-50.5-0.4-75.7c0-3.5,0.2-7,0.1-10.6
			c0-3.4,0.2-7.2-1.2-10.4C172.3,215.5,170.7,215.6,170.2,216.5L170.2,216.5z"/>
		<path class="st3" d="M171,311.7c-4.2,2.9-8.4,5.8-13.1,7.8c-4.6,2-9.6,3.3-14.5,4.2c-10.6,1.9-21.8,1.2-32.2-1.2
			c-6.3-1.4-12.6-3.5-18.4-6.4c-3.1-1.5-5.9,3.1-2.7,4.7c20.9,10.3,46.7,14.2,68.6,4.6c5.5-2.4,11-5.8,14.9-10.4
			C175,313.4,173.1,310.2,171,311.7L171,311.7z"/>
		<path class="st3" d="M169.8,279.2c-4.2,2.9-8.4,5.8-13.1,7.8c-4.6,2-9.6,3.3-14.5,4.2c-10.6,1.9-21.8,1.2-32.2-1.2
			c-6.3-1.4-12.6-3.5-18.4-6.4c-3.1-1.5-5.9,3.1-2.7,4.7c20.9,10.3,46.7,14.2,68.6,4.6c5.5-2.4,11-5.8,14.9-10.4
			C173.8,280.8,171.9,277.7,169.8,279.2L169.8,279.2z"/>
		<path class="st3" d="M169.2,246.7c-4.2,2.9-8.4,5.8-13.1,7.8c-4.6,2-9.6,3.3-14.5,4.2c-10.6,1.9-21.8,1.2-32.2-1.2
			c-6.3-1.4-12.6-3.5-18.4-6.4c-3.1-1.5-5.9,3.1-2.7,4.7c20.9,10.3,46.7,14.2,68.6,4.6c5.5-2.4,11-5.8,14.9-10.4
			C173.2,248.3,171.3,245.2,169.2,246.7L169.2,246.7z"/>
		<path class="st3" d="M85.8,214.5c-2.3,2-2.7,5.9-2.8,8.8c-0.2,3.3-0.1,6.7,0,10c0.2,6.8,0.7,13.6,1.1,20.3
			c0.9,13.4,1.9,26.9,2.1,40.3c0.2,7.7,0.1,15.3-0.4,23c-0.2,3.5,5.3,3.5,5.5,0c1.7-26.7-1.2-53.4-2.4-80c-0.2-3.8-0.4-7.5-0.5-11.3
			c-0.1-1.7-0.1-3.4-0.1-5.1c0-1.7,0.2-3.7-0.4-5.3C87.7,214.1,86.5,213.9,85.8,214.5L85.8,214.5z"/>
	</g>
</g>
</svg>
