<?xml version="1.0" encoding="utf-8"?>
<!-- Generator: Adobe Illustrator 24.0.3, SVG Export Plug-In . SVG Version: 6.00 Build 0)  -->
<svg version="1.1" id="Layer_1" xmlns="http://www.w3.org/2000/svg" xmlns:xlink="http://www.w3.org/1999/xlink" x="0px" y="0px"
	 viewBox="0 0 500 500" style="enable-background:new 0 0 500 500;" xml:space="preserve">
<style type="text/css">
	.st0{fill:#FFFFFF;}
	.st1{fill:#93D500;}
	.st2{fill:#DBD8D5;}
	.st3{fill:#4A8B2C;}
	.st4{fill:#323E48;}
</style>
<path class="st0" d="M436.5,413.26c-10.96-35.43-30.2-65.83-55.64-87.91c-12.25-10.64-25.52-18.33-38.36-25.77
	c-2.31-1.34-4.62-2.68-6.93-4.04c-7.83-4.61-12.93-8.29-17.03-12.29c-0.26-0.26-0.52-0.54-0.78-0.81
	c5.9-5.32,11.3-11.38,16.08-18.09c0.3-0.41,0.62-0.86,0.96-1.32c2.02-2.79,4.73-6.53,7.03-10.94c1.78,0.24,3.53,0.42,5.24,0.57
	c1.1,0.1,2.21,0.14,3.28,0.14c0,0,0,0,0,0c10.39,0,19.64-4.56,26.06-12.83c10.07-12.99,12.72-29.57,14.65-41.68
	c1.12-7.02,1.93-14.09,2.41-20.99c0.06-0.8,0.12-1.62,0.18-2.46c0.47-6.13,1.06-13.76-0.45-21.38c-1.53-7.75-6.09-14.14-12.84-18
	c-2.43-1.38-4.82-2.28-7.16-2.93c-0.7-23.47-3.79-45.39-15-67.02c-13.31-25.67-37.07-44.44-66.91-52.86
	c-12.92-3.65-26.79-5.49-41.2-5.49c-16.64,0-33.71,2.55-49.38,7.36c-26.3,8.08-49.58,24.97-65.55,47.54
	c-9.18,12.98-15.97,28.16-20.17,45.12c-2.6,10.49-5.86,23.67-6.3,37.33c-2.26,1.25-4.44,2.65-6.38,4.19
	c-12.62,10.04-9.61,24.39-8.62,29.11l0.16,0.77c2.45,12.13,6.43,24.71,12.17,38.48c2.3,5.51,4.85,11.03,7.59,16.4
	c2.71,5.32,7.25,14.22,17.6,19.17c5.09,2.44,10.89,3.67,17.24,3.67c0,0,0,0,0,0c2.02,0,4.07-0.14,6.11-0.38
	c7.3,13.28,17.11,25,28.56,34.22c-3.48,3.51-8.7,7.09-16.22,11.27c-14.06,7.83-30.47,17.48-45.55,29.63
	c-15.46,12.46-28.14,26.43-37.68,41.51c-4.8,7.59-8.9,15.76-12.17,24.28l-0.61,1.56c-2.35,6.01-5.52,14.14-5.7,23
	c-1.74,6.47-0.5,13.41,3.58,18.96c15.45,21.01,41.26,30.8,62.03,36.98c21.62,6.44,45.43,11.01,70.76,13.59
	c13.42,1.37,26.82,2.06,39.84,2.06c38.35,0,74.85-5.95,108.51-17.68c23.23-8.1,47.64-18.97,74.62-33.24
	c4.9-2.59,8.54-6.55,10.63-11.2C437.85,425.49,438.36,419.26,436.5,413.26z"/>
<g>
	<path class="st0" d="M407.69,409.16c-0.12-0.21-0.25-0.42-0.37-0.64c-0.03-0.92-0.11-1.88-0.25-2.88c-0.41-2.89-3.03-6.11-5.93-7.8
		c-0.96-1.85-1.85-3.74-2.59-5.7c-2.72-7.27-5.9-13.62-10.41-19.92c-9.1-12.73-19.24-23.53-31.82-32.86
		c-12.11-8.98-26.15-14.33-38.91-22.18c-9.49-5.83-18.04-13.22-25.36-21.86c-1.72-6.93-2.03-15.37-2.16-22.4
		c0-0.26-0.03-0.51-0.05-0.77c12.43-7.32,22.19-21.24,29.71-32.72c1.59-2.43,2.17-5.26,1.93-8.05c8.95-17.14,8.06-37.02,8.32-56.07
		c0.14-10.4,0.19-20.8,0.16-31.2c-0.03-10.68,0.02-21.39-2.47-31.85c-4.38-18.38-16.99-33.23-32.32-43.68
		c-15.14-10.32-35.16-17.33-53.6-16.42c-19.58,0.97-41.51,8.93-55.08,23.54c-7.26,7.82-11.72,17.15-15.65,26.95
		c-3.6,8.99-6.99,18.16-9.81,27.43c-6.31,20.7-7.62,41.47-1.4,62.36c3.3,11.09,7.68,21.89,11.93,32.65
		c4.23,10.7,8.36,21.78,14.14,31.76c5.53,9.55,13.24,17.27,22.65,23.01c1.75,1.07,3.54,1.99,5.36,2.8c-0.31,1.63-0.6,3.27-0.93,4.92
		c-0.29,1.45-0.63,2.89-1.06,4.31c-0.16,0.52-1.19,3.11-0.8,2.32c-1.1,2.27-3.2,5.74-3.84,6.63c-2.32,3.21-8.62,8.96-11.24,10.83
		c-5.5,3.93-11.42,7.18-17.46,10.19c-12.78,6.37-26.15,11.78-37.72,20.3c-12.2,8.99-21.76,20.03-30.01,32.7
		c-9.68,14.87-17.37,30.82-22.78,47.71c-1.89,5.9,2.96,11.73,8.52,12.58c0.61,0.61,1.27,1.18,1.96,1.72
		c15.82,12.17,35.47,16.56,54.59,20.64c22.34,4.78,44.84,9.52,67.73,10.45c10.8,0.44,21.49-0.2,32.25-1.12
		c11.41-0.98,22.78-0.25,34.18-0.93c21.47-1.28,42.01-10.85,61.73-18.72c11.69-4.67,23.3-9.53,34.83-14.56
		c5.65-2.47,11.41-4.86,15.84-8.23C406.21,423.72,412.16,416.89,407.69,409.16z"/>
	<path class="st1" d="M368.25,163.22c-1.68-4.82-6.02-7.15-10.81-7.92c-2.76-0.45-5.61-0.54-8.32-0.17
		c0.02-3.41-0.24-6.76-0.45-9.58c-0.62-8.26-1.33-16.36-1.5-24.64c-0.32-15.62-5.2-32.92-12.73-46.57
		c-14.91-27.02-46.29-41.08-75.94-42.94c-9.83-0.62-19.86-0.03-29.55,1.73c-7.11,1.3-16.46,2.7-22.43,7.57
		c-26.49,6.68-49.63,27.73-58.27,53.69c-4.19,7.99-7.39,16.46-9.43,25.27c-0.25,1.08-0.48,2.16-0.71,3.25
		c-4.06,12.36-5.88,25.35-7.15,38.38c-1.98,0.34-3.9,1.12-5.6,2.24c-1.36,0.35-2.75,0.64-4.15,0.87c-4.69,0.77-6.5,6.96-4.33,10.64
		c0.32,0.55,0.64,1.1,0.96,1.65c-0.64,6.96,2.25,14.18,5.11,20.65c4.72,10.66,11.23,20.33,16.23,30.8c1.75,3.66,6.08,4.48,9.59,3.26
		c3.4,3.58,10.1,3.1,12.93-1.46c2.64-4.24,1.92-8.46,0.54-13.01c-1.4-4.6-2.5-9.31-3.54-14c-2.17-9.85-3.78-19.83-4.65-29.87
		c-1.58-18.13-3.31-38.64,4.95-55.5c0.78-1.58,1.05-3.14,0.96-4.59c0.21-0.52,0.43-1.03,0.65-1.55c0.18-0.34,0.34-0.69,0.46-1.06
		c2.05-4.69,4.4-9.25,7.12-13.63c11.61-18.7,27.41-33.94,48.12-42.02c1.05-0.41,1.93-0.94,2.67-1.55c2.67-0.37,5.35-0.89,7.96-1.21
		c7.46-0.92,15.02-1.5,22.54-1.38c13.11,0.21,26.45,2.85,38.34,8.52c10.67,5.09,20.4,12.33,27.23,22.08
		c8.12,11.58,11.86,24.18,14.63,37.92c1.55,7.7,3.38,14.97,4.23,22.82c0.49,4.52,0.99,9.06,1.33,13.59
		c0.28,3.79-0.17,7.84,0.7,11.55c-0.67,3.2-0.71,6.63-1.14,9.8c-0.64,4.71-1.56,9.36-2.43,14.03c-1.4,7.5-2.26,15.9-5.91,22.72
		c-3.21,3.18-6.26,6.47-9.02,10.16c-3.7,2.4-7.59,4.5-11.59,6.35c-6.91,3.19-14.26,5.66-21.51,7.94c-3.3,1.04-7.74,1.62-11.52,3.02
		c-1.22-2.27-3.17-3.86-6.12-3.72c-3.55,0.17-7.56,2.23-10.99,3.13c-4.06,1.07-8.13,1.97-12.27,2.67
		c-8.47,1.42-7.44,6.38-5.61,13.51c0.55,2.14,2.9,3.39,4.99,2.83c2.45-0.65,5.18-1.23,7.9-1.91c0.9,1.45,2.68,2.34,4.68,1.96
		c4.51-0.87,9.1-1.76,13.49-3.12c2.93-0.91,5.01-2.09,5.45-5.37c0.05-0.41,0.09-0.84,0.11-1.29c13.92-3.01,27.23-5.69,40.13-12.5
		c5.28-2.79,11.02-6.28,16.05-10.5c2.45,1.02,5.26,1.05,7.59-0.4c5.98,2.19,12.87,2.16,18.12-1.65c6.98-5.07,7.61-13.95,8.8-21.79
		c1.43-9.45,2.4-19,3.3-28.51C368.85,170.62,369.53,166.91,368.25,163.22z M351.29,172.16c-0.13,0.06-0.22,0.09-0.25,0.02
		C351.03,172.15,351.13,172.14,351.29,172.16z"/>
	<path class="st2" d="M373.38,382.36c-9.63-12.84-19.07-25.81-28.83-38.55c-1.61,1.61-3.22,3.22-4.83,4.83
		c11.42,7,21.75,15.46,30.51,25.62c4.4,5.11,8.28,10.59,11.8,16.33c3.46,5.64,6,11.66,9.16,17.44c2.18-1.68,4.35-3.36,6.53-5.04
		c-8.63-9.08-15.89-19.67-23.9-29.31c-1.61,1.61-3.21,3.21-4.82,4.82c13.14,10.53,21.35,25.55,24.09,42.07
		c2.46-1.04,4.93-2.08,7.39-3.12c-6.81-9.42-13.85-18.68-20.55-28.19c-2.62-3.72-8.47-0.48-6.19,3.62
		c5.64,10.19,9.42,21.1,11.31,32.59c2.69-0.74,5.38-1.48,8.07-2.22c-3.27-8-6.41-16.11-8.56-24.5c-0.9-3.53-7.06-2.92-6.55,0.89
		c0.98,7.3,0.42,14.22-1.3,21.36c-1.1,4.54,5.84,8.01,7.92,3.34c1.14-2.57,2.54-4.41,4.93-5.92c-1.77-1.77-3.53-3.53-5.3-5.3
		c-1.51,2.94-3.74,5.1-6.26,7.2c-3.79,3.14,1.17,9.56,5.28,6.84c2.09-1.39,4.08-2.28,6.53-2.88c5.44-1.34,3.13-9.75-2.32-8.4
		c-3.12,0.77-5.92,1.98-8.61,3.76c1.76,2.28,3.52,4.56,5.28,6.84c3.14-2.6,5.11-5.76,6.79-9.45c1.6-3.5-1.68-7.14-5.3-5.3
		c-3.69,1.88-6.48,4.64-8.5,8.24c2.64,1.11,5.28,2.23,7.92,3.34c1.62-8.21,1.3-16.41-0.5-24.55c-2.14,0.59-4.29,1.18-6.43,1.77
		c2.14,8.38,4.16,16.74,6.92,24.95c1.72,5.12,9.15,3.06,8.07-2.22c-2.47-12.03-6.88-23.44-13.18-33.99
		c-2.06,1.21-4.13,2.41-6.19,3.62c6.74,9.44,13.13,19.12,19.75,28.65c2.67,3.84,8.19,1.44,7.39-3.12
		c-3.13-17.82-13.01-33.5-27.07-44.74c-3.44-2.75-7.6,1.38-4.82,4.82c7.65,9.46,16.08,18.96,22.19,29.52c2.33,4.02,9,1.37,7.6-3.2
		c-4.03-13.18-13.18-25.65-22.25-35.81c-9.47-10.61-20.75-19.7-33.26-26.47c-3.63-1.97-6.85,2.53-4.27,5.54
		c10.45,12.23,21.19,24.18,31.76,36.29C371.98,385.79,374.52,383.89,373.38,382.36L373.38,382.36z"/>
	<path class="st2" d="M236.87,260.71c-0.34-2.54,0.68-5.48-0.59-7.79c-0.77-1.4-2.8-1.96-4.17-1.09c-3.93,2.5-2.37,8.68,0.61,11.3
		C234.71,264.87,237.2,263.12,236.87,260.71L236.87,260.71z"/>
	<g>
		<path class="st2" d="M211.88,285.42c-0.13,5.67,8.97,10.53,13.39,12.64c6.69,3.2,14.16,5.08,21.58,5.32
			c15.05,0.5,29.35-5.37,40.25-15.61c-3.07-1.79-6.14-3.57-9.21-5.36c-3.42,12.08-16.75,15.84-27.93,16.46
			c-13.19,0.73-23.67-3.3-34.95-9.62c-4.6-2.58-10.02,3.82-5.81,7.53c11.97,10.57,29.57,13.9,45.06,12.24
			c14.84-1.6,29.63-8.39,34.26-23.68c1.68-5.54-5.29-8.85-9.21-5.36c-9.07,8.06-21.08,12.6-33.24,12.26
			c-5.83-0.16-11.43-1.41-16.86-3.52c-3.01-1.17-5.94-2.49-8.75-4.09c-2.45-1.4-3.73-2.41-6.57-1.84
			C212.7,283.04,211.91,284.28,211.88,285.42L211.88,285.42z"/>
		<path class="st2" d="M271.41,299.21c19.88,19.68,39.23,40.59,54.65,64.01c15.36,23.35,26.67,48.97,32.83,76.26
			c1.26,5.58,9.48,4.1,9.68-1.31c0.54-14.87-3.75-29.36-9.17-43.07c-5.3-13.4-11.59-26.41-18.91-38.82
			C333.3,344.12,325,332.59,316,321.72c-9.32-11.26-19.55-21.82-27-34.48c-3.24-5.51-10.81-0.68-8.37,4.89
			c2.4,5.48,5.19,10.74,8.22,15.89c2.09-2.09,4.18-4.18,6.28-6.28c-4.61-2.41-8.35-5.52-11.61-9.58c-1.78,2.31-3.56,4.61-5.34,6.92
			c23.37,17.57,45.1,37.38,65.74,58.07c2.03-2.03,4.05-4.05,6.08-6.08c-13.56-11.84-27.64-23.09-40.9-35.27c0,1.68,0,3.36,0,5.03
			c2.8-2.21,14.8,8.36,17.07,10.09c6.05,4.63,12.15,9.22,18.13,13.95c11.12,8.8,21.86,18.17,31.17,28.9
			c8.9,10.26,16.59,21.49,21.66,34.14c0.97,2.41,3.3,6.55,2.64,9.23c-0.81,3.29-7.14,3.75-9.77,4.44
			c-8.01,2.1-15.99,4.31-24.08,6.09c-1.87,0.41-3.06,2.64-2.52,4.43c1.26,4.14,5.19,6.51,9.51,5.83c4.99-0.79,7.7-5.21,9.64-9.43
			c1.71-3.73-2.87-8.14-6.07-4.68c-0.98,1.05-2.3,1.82-3.25,2.84c0.85,1.17,1.03,1.18,0.53,0.03c-0.27-0.84-0.54-1.67-0.81-2.51
			c-1.01-3.06-2.06-6.11-3.16-9.14c-2.22-6.11-4.64-12.14-7.21-18.1c-5.34-12.39-11.52-24.38-18.4-35.99
			c-1.83,1.83-3.66,3.66-5.49,5.49c19.49,15.01,27.8,39.73,31.64,63.14c2.6-0.72,5.2-1.43,7.81-2.15
			c-2.13-12.15-7.33-23.47-13.62-34.01c-3.18-5.33-6.64-10.5-10.15-15.62c-1.83-2.68-3.69-5.34-5.52-8.02
			c-1.15-1.68-5.84-6.85-4.99-8.87c-1.79,0.73-3.58,1.46-5.37,2.19c24.05,12.93,30.35,41.72,35.51,66.26c0.72,3.42,6.61,3.65,7.15,0
			c2.3-15.61-3.47-30.06-11.65-43.11c-9.08-14.49-20.15-27.7-31.26-40.65c-1.41,1.83-2.83,3.67-4.24,5.5
			c27.38,15.44,41.34,44.74,49.42,73.89c1.39,5.01,9.25,2.87,7.81-2.15c-8.87-31-24.29-61.79-53.69-77.79
			c-3.56-1.94-6.87,2.53-4.24,5.5c10.14,11.46,19.68,23.76,28.07,36.56c7.77,11.86,14.83,25.67,12.65,40.28c2.38,0,4.77,0,7.15,0
			c-5.57-26.76-13.13-56.37-38.97-70.6c-1.57-0.87-4.2-0.54-5.01,1.31c-2.56,5.92,2.05,10.69,5.24,15.45
			c3.91,5.84,7.91,11.63,11.65,17.58c7.53,11.96,13.8,24.43,16.27,38.46c0.91,5.14,8.65,2.94,7.81-2.15
			c-4.27-25.82-14.09-51.5-35.39-67.92c-3.32-2.55-7.4,2.28-5.49,5.49c8.79,14.83,16.5,30.31,22.78,46.37
			c1.49,3.82,2.91,7.67,4.26,11.55c1.06,3.06,1.67,6.98,3.66,9.62c4.11,5.42,10.72,0.41,14-3.26c-2.02-1.56-4.05-3.12-6.07-4.68
			c-0.16,0.37-4.41,8.72-5.53,5.59c-0.84,1.48-1.68,2.95-2.52,4.43c9.84-2.68,19.86-4.61,29.76-7.06
			c7.38-1.83,11.41-6.55,10.02-14.43c-2.76-15.6-13.08-30.85-23.03-42.74c-11.34-13.56-25.32-24.8-39.38-35.4
			c-7.47-5.63-14.99-11.39-22.93-16.35c-5.45-3.4-12.42-7.74-18.22-2.83c-1.39,1.18-1.37,3.86,0,5.03
			c13.66,11.69,26.5,24.29,39.86,36.31c4.09,3.68,9.97-2.09,6.08-6.08c-20.73-21.25-43.16-40.57-66.47-58.92
			c-3.51-2.76-10.26,0.99-6.92,5.34c3.86,5.02,8.33,9.09,13.9,12.16c4.02,2.22,8.54-2.23,6.28-6.28c-2.72-4.86-5.13-9.86-7.28-14.99
			c-2.95,1.24-5.9,2.49-8.86,3.73c6.72,11.8,15.74,21.9,24.53,32.17c9.18,10.73,17.53,22.06,24.97,34.06
			c7.22,11.66,13.68,23.75,19.13,36.34c6,13.86,10.57,28.2,9.44,43.47c3.23-0.44,6.45-0.87,9.68-1.31
			c-10.47-56.48-47-107.99-91.88-142.74C272.96,291.36,268.01,295.84,271.41,299.21L271.41,299.21z"/>
		<path class="st2" d="M229.78,289.87c17.39,7.04,38.89,0.91,53.66-9.59c7.72-5.49,13.99-12.16,19.29-19.98
			c2.79-4.13,6.63-5.43,10.67-8.03c3.34-2.15,7.1-5.27,5.8-9.64c-0.56-1.9-2.36-2.73-4.23-2.4c-3.12,0.56-6.27,3.89-9.25,5.3
			c-3.44,1.63-6.74,3.31-9.35,6.15c-2.95,3.21-5.16,7.03-8.08,10.27c-2.9,3.22-6.11,6.2-9.62,8.76
			c-14.5,10.56-30.94,13.76-48.41,15.62C228.2,286.55,227.87,289.1,229.78,289.87L229.78,289.87z"/>
		<path class="st2" d="M234.27,251.66c-2.29-1.57-4.85-0.94-6.65,1.18c-2.14,2.52-1.83,6.1-0.42,8.91c4.23,8.45,13.14,10.1,21.8,9.4
			c5.17-0.42,10.33-1.26,15.48-1.92c4.97-0.64,10.27-0.88,15.11-2.19c2.89-0.78,8.06-3.39,7.87-7.13c0.36-0.87,0.28-0.99-0.27-0.36
			c-0.78,0.55-0.56,0.61,0.68,0.17c1.03,0.13,2.49-0.36,3.52-0.51c2.93-0.42,5.87-0.82,8.8-1.3c-1.58-2.72-3.16-5.44-4.75-8.15
			c-5.44,4.63-10.99,9.17-16.32,13.92c2.48,1.03,4.96,2.05,7.44,3.08c-0.25-2.1-0.41-4.2-0.59-6.3c-2.7,0-5.4,0-8.1,0
			c0.37,3.81-0.21,7.55-1.97,10.97c-1.48,2.87-3.56,4.89-3.82,8.24c-0.18,2.27,2.15,3.32,4.01,3.05
			c8.59-1.25,10.37-15.51,9.88-22.26c-0.37-5.14-8.13-5.27-8.1,0c0.01,2.1,0.04,4.2-0.03,6.3c-0.1,3.07,3.87,5.74,6.55,3.76
			c6.08-4.49,11.97-9.24,17.94-13.86c4.34-3.36-0.63-8.79-4.75-8.15c-4.92,0.76-12.49,0.69-16.53,3.9c-2.22,1.77-2,4.36-4.7,5.35
			c-2.72,0.99-6.67,0.9-9.52,1.33c-6.81,1.03-13.66,2.39-20.51,3.03c-3.15,0.29-6.07,0.12-9.09-0.84c-2.09-0.66-8.85-5.14-3.42-6.15
			C235.56,254.82,235.5,252.51,234.27,251.66L234.27,251.66z"/>
		<path class="st2" d="M221.51,54.64c6.33,1.96,13.7,1.45,20.27,2.41c7.16,1.05,14.18,2.5,21.09,4.67
			c12.87,4.05,27.04,10.28,34.82,21.83c8.14,12.1,11.9,27.04,14.45,41.22c2.71,15.04,3.94,30.37,5.41,45.56
			c0.8,8.28,2.01,16.64,2.35,24.94c0.33,7.82,0.87,15.04-2.71,22.31c-0.65,1.32,0.91,2.57,2.03,1.57c10.82-9.65,10-25.98,9.33-39.24
			c-0.88-17.42-2.1-34.85-4.57-52.12c-2.32-16.25-6.28-32.91-14.71-47.18c-8.11-13.73-21.61-21.33-36.4-26.23
			c-8.52-2.82-17.34-4.49-26.3-5.11c-7.75-0.54-18.38-0.71-25.34,3.25C220.35,53.03,220.58,54.35,221.51,54.64L221.51,54.64z"/>
		<path class="st2" d="M331.3,202.29c3.62-11.9,2.06-25.9,1.42-38.16c-0.67-12.84-1.91-25.63-3.6-38.38
			c-1.57-11.84-3.01-23.84-8.33-34.69c-4.15-8.46-11.71-19.16-21.51-21.17c-3.2-0.66-6.39,2.7-4.46,5.8
			c2.5,4.01,6.02,6.84,9.08,10.38c3.13,3.61,5.82,7.69,7.8,12.05c4.71,10.37,5.95,22.55,7.66,33.7c1.79,11.66,3.17,23.39,4.22,35.13
			c1.03,11.53,0.52,24.23,3.98,35.34C328.14,204.12,330.74,204.14,331.3,202.29L331.3,202.29z"/>
	</g>
	<g>
		<path class="st3" d="M163.53,226.76c0.9-4.75-0.76-8.79-2.22-13.28c-1.77-5.45-3.63-10.89-5.24-16.39
			c-2.96-10.16-3.86-20.29-3.23-30.84c1.19-19.95,3.44-41.1,9.72-60.14c11.29-34.23,44.12-58.31,80.41-56.94
			c12.15,0.46,24.39,2.48,36.05,5.97c5.57,1.67,10.77,4.34,15.45,7.79c4.29,3.16,7.47,7.47,11.96,10.36
			c1.41,0.91,2.9-0.84,2.19-2.19c-4.34-8.23-13.51-16.49-21.99-20.3c-9.87-4.44-21.43-6.22-32.02-8.09
			c-20.21-3.57-39.05-0.48-57.58,8.17c-17,7.93-31.27,22.71-39.45,39.47c-9.84,20.17-12.43,42.61-14.63,64.67
			c-1.31,13.1-1.85,26.17,1.57,39.01c1.67,6.27,3.88,12.45,6.32,18.45c2.28,5.62,4.04,12.07,9.14,15.73
			C161.19,229.07,163.26,228.2,163.53,226.76L163.53,226.76z"/>
		<path class="st3" d="M128.79,211.68c-1.1,5.16,3.82,9.1,8.13,10.85c6.84,2.77,14.06,1.39,21.01-0.23
			c-1.73-2.97-3.46-5.95-5.19-8.92c-4.85,4.01-10.37,6.44-16.51,7.7c-4.62,0.94-4.09,7.59,0,8.83c8.38,2.53,16.54,2.05,24.3-2.09
			c5.46-2.91,0.67-10.64-4.77-8.17c-5.38,2.44-11.42,3.08-17.09,1.42c-0.41,3-0.81,6-1.22,8.99c7.95-1.03,15.23-3.57,21.76-8.31
			c4.63-3.36,2.09-11.53-4.11-9.76c-4.58,1.31-9.59,2.87-14.4,1.91c-3.34-0.66-5.72-3.17-8.93-3.94
			C130.56,209.7,129.07,210.37,128.79,211.68L128.79,211.68z"/>
		<path class="st3" d="M337.95,228.31c1.76-1.82,3.15-3.89,4.79-5.82c-1.42,0.38-2.84,0.75-4.26,1.13
			c5.48,1.03,11.06,1.69,16.62,2.07c-1.14-2.75-2.28-5.51-3.42-8.26c-2.61,2.76-5.79,3.35-9.19,1.54c-1.12,2.65-2.24,5.31-3.36,7.96
			c5.1,1.47,10.13,1.43,15.11-0.46c4.66-1.77,4.11-8.64-1.2-8.87c-0.62-0.03-1.24-0.05-1.86-0.08c0,2.75,0,5.5,0,8.25
			c4.77-0.23,7.48-3.42,9.02-7.73c2.3-6.43,3.34-13.63,4.56-20.33c1.2-6.57,2.18-13.18,2.98-19.82c0.74-6.2,2.92-14.85,0.66-20.77
			c-1.26-3.3-6.46-4.95-8.33-1.09c-2.14,4.42-1.67,9.58-2.03,14.42c-0.42,5.58-0.94,11.16-1.66,16.71
			c-0.7,5.43-1.58,10.83-2.6,16.21c-0.46,2.45-0.96,4.89-1.49,7.33c-0.23,1.06-0.73,6.5-2.21,6.96c-3.15,0.98-4.33,5.9-0.98,7.54
			c0.55,0.27,1.11,0.54,1.66,0.81c0.36-2.75,0.72-5.5,1.08-8.25c-3.52,1.45-6.69,1.84-10.4,0.77c-4.68-1.35-7.77,5.61-3.36,7.96
			c6.83,3.64,14.46,2.53,20.43-2.21c3.7-2.94,0.19-7.83-3.42-8.26c-5.12-0.61-10.3-0.98-15.46-0.98c-2.11,0-3.48,1.4-4.22,3.21
			c-0.95,2.35-2.13,4.5-2.93,6.9C331.45,228.26,335.74,230.59,337.95,228.31L337.95,228.31z"/>
		<path class="st3" d="M318.48,56.49c3.44,3.07,5.56,8.3,7.67,12.36c2.34,4.5,4.7,8.98,6.63,13.68c3.74,9.1,6.9,18.46,8.83,28.12
			c1.95,9.81,2.35,20.03,1.76,29.98c-0.27,4.59-1.29,16.72,6.75,14.9c2.48-0.56,2.65-4.74,0-5.18c-2.3-0.38-0.8-24.83-1.07-27.94
			c-0.74-8.65-2.11-17.33-4.34-25.72c-2.26-8.49-5.56-16.48-9.72-24.21c-1.94-3.61-4.12-7.1-6.66-10.31
			c-2.51-3.17-5.54-4.78-8.98-6.79C318.66,54.97,317.86,55.94,318.48,56.49L318.48,56.49z"/>
		<path class="st3" d="M237.66,259.91c4.85,1.45,10.59,0.21,15.55-0.22c4.74-0.41,9.73-0.46,14.35-1.68
			c4.44-1.17,7.43-4.86,11.84-5.84c4.76-1.06,9.39-2.38,13.98-4.02c8.71-3.12,16.9-7.45,24.86-12.15c3.99-2.36,7.86-4.91,11.6-7.65
			c3.4-2.49,7.96-5.14,9.97-8.89c0.74-1.39-0.52-3.54-2.23-2.9c-3.91,1.47-6.96,4.96-10.28,7.45c-3.5,2.61-7.13,5.04-10.86,7.31
			c-8.19,4.98-17.1,8.68-26.15,11.8c-4.07,1.41-8.29,2.38-12.33,3.87c-3.8,1.4-7.31,3.99-11.21,5.01
			c-9.34,2.45-20.85-0.21-29.57,4.37C235.67,257.17,236.13,259.45,237.66,259.91L237.66,259.91z"/>
	</g>
	<g>
		<path class="st4" d="M276.98,239.74c-0.53-1.49-1.05-2.99-1.58-4.48c-0.48-1.37-1.73-2.13-3.18-1.81
			c-10.25,2.27-20.49,4.57-30.66,7.18c-2.7,0.69-7.59,0.87-8.92,3.75c-1.26,2.71,0.53,7.62,0.94,10.35
			c0.43,2.84,0.43,6.43,3.09,8.18c2.8,1.84,7,0.9,10.11,0.69c9.88-0.66,19.74-2.51,29.4-4.64c1.4-0.31,2.18-1.67,2.28-2.99
			c0.04-0.5,0.07-1,0.11-1.5c0.29-3.99-5.78-3.9-6.17,0c-0.05,0.5-0.1,1-0.15,1.5c0.76-1,1.52-2,2.28-2.99
			c-7.11,1.37-14.24,2.68-21.39,3.8c-3.27,0.52-6.51,1.11-9.77,1.69c-2.54,0.45-3.66,1.01-4.7-1.63c-0.58-1.47-0.57-3.48-0.84-5.05
			c-0.2-1.15-0.95-3.03-0.72-4.2c-1.3-0.86-0.93-1.23,1.12-1.11c0.63-0.12,1.25-0.25,1.88-0.37c3.75-0.75,7.47-1.58,11.2-2.41
			c7.46-1.65,14.87-3.46,22.28-5.27c-1.06-0.6-2.12-1.2-3.18-1.81c0.56,1.48,1.12,2.97,1.68,4.45
			C273.23,244.1,278.08,242.85,276.98,239.74L276.98,239.74z"/>
		<path class="st4" d="M274.85,244.28c18.41-4.91,39.09-10.36,51.73-25.76c8.24-10.03,11.41-21.11,11.89-33.77
			c0.52-13.65-0.4-27.39-1.61-40.98c-1.11-12.46-2.42-25.04-5.06-37.28c-6.75-31.3-36.36-53.83-67.14-58.24
			c-10.97-1.57-22.02-1.25-33.02-0.16c-9.93,0.98-19.68,2.61-28.8,6.81c-16.5,7.6-29.38,21.92-37.13,38.16
			c-9.98,20.93-13.28,44.96-13.78,67.96c-0.52,23.76,2.68,47.99,12.72,69.7c1.55,3.36,7.45,0.94,6.05-2.55
			c-7.39-18.39-11-37.75-11.37-57.54c-0.36-19.34,1.08-39.42,6.75-58c5.2-17.05,14.57-33.42,28.94-44.35
			c15.57-11.85,35.97-13.56,54.94-13.28c31.23,0.46,64.59,18.11,73.23,50.16c2.58,9.56,3.78,19.61,4.96,29.42
			c1.55,12.81,2.67,25.69,3.02,38.59c0.32,11.87,0.53,23.43-5.38,34.09c-10.67,19.25-32.54,26.02-52.13,32.65
			C270.91,240.84,272.01,245.04,274.85,244.28L274.85,244.28z"/>
		<path class="st4" d="M273.1,252.67c0.09,0.18,0.18,0.35,0.27,0.53c0.34,0.65,1.23,1.22,1.99,1.14
			c21.74-2.26,44.78-8.94,61.15-24.15c2.72-2.53-0.94-7.53-4.05-5.25c-17.3,12.64-36.6,21-57.71,24.89
			c-0.74,0.14-1.45,0.89-1.61,1.61C273.05,251.86,272.89,252.26,273.1,252.67L273.1,252.67z"/>
		<path class="st4" d="M332.29,228.87c4.25,3.26,11.23,4.07,16.44,4.52c5.14,0.45,9.2-1.16,12.37-5.26
			c7-9.04,9.09-21.91,10.84-32.88c1.02-6.38,1.77-12.82,2.21-19.27c0.41-5.93,1.21-12.88,0.05-18.75c-0.98-4.97-5.06-5.98-9.47-6.73
			c-4.64-0.79-11.95-3.81-15.71,0.03c-0.85,0.87-0.99,2.19-0.42,3.24c1.92,3.52,5.53,3.23,9.13,3.62c2.27,0.24,4.55,0.48,6.82,0.73
			c3.31,0.37,2.49,2.07,2.46,5c-0.12,10.07-0.75,20.2-2.22,30.17c-1.33,9.03-2.86,18.6-7.04,26.82c-0.89,1.75-1.88,3.81-3.42,5.07
			c-2.17,1.78-4.78,1.24-7.35,1.03c-4.45-0.36-9.2-1.89-13.65-1.29C331.21,225.21,330.55,227.53,332.29,228.87L332.29,228.87z"/>
		<path class="st4" d="M167.75,226.52c-4.13,0.4-7.95,1.59-12.05,2.23c-3.78,0.59-9.67,1.88-13.28,0.05
			c-3.62-1.83-5.48-7.32-7.15-10.72c-1.98-4.04-3.85-8.14-5.6-12.29c-3.45-8.16-6.44-16.55-8.99-25.03
			c-0.59-1.95-1.14-3.91-1.7-5.86c-0.93-3.21-2.59-5.15,0.82-7.65c3.67-2.68,8.86-3.32,12.65-6.06c2.21-1.6,0.94-5.11-1.89-4.48
			c-5.02,1.11-12.14,3.94-16.19,7.16c-3.55,2.83-2.31,7.04-1.53,10.91c2.41,11.95,6.37,23.62,11.06,34.86
			c2.13,5.11,4.46,10.13,6.97,15.05c2.11,4.13,4.35,8.42,8.72,10.51c8.53,4.09,22.68,0.58,29.62-5.19
			C170.51,228.92,169.48,226.35,167.75,226.52L167.75,226.52z"/>
		<path class="st4" d="M134.14,158.23c0.87-6.46,1.03-12.99,1.98-19.45c0.98-6.64,2.39-13.22,4.02-19.72
			c2.97-11.85,6.61-23.64,12.6-34.34c10.62-18.96,27.85-34.16,48.06-42.21c42.36-16.87,104.45-11.85,130.71,30.03
			c14.77,23.55,16.69,53.68,15.39,80.78c-0.22,4.53,7.02,4.56,7.06,0c0.24-27.18-0.14-54.13-12.97-78.88
			c-11.27-21.74-31.63-36.55-54.98-43.14c-25.39-7.16-54.5-5.99-79.64,1.74c-22.42,6.89-41.89,21.08-55.43,40.22
			c-8.15,11.53-13.79,24.92-17.18,38.6c-3.62,14.63-7.75,32.04-4.74,47.06C129.66,162.07,133.79,160.86,134.14,158.23L134.14,158.23
			z"/>
		<path class="st4" d="M162.8,224.78c7.33,28.27,28.71,54.4,56.79,63.89c28.2,9.52,60.14,0.27,82.51-18.25
			c6.07-5.03,11.4-10.87,15.97-17.29c3.57-5.01,10.48-13.66,8.81-20.14c-0.34-1.31-1.96-1.97-3.11-1.27
			c-3.09,1.88-4.04,5.25-5.71,8.31c-1.92,3.53-4.1,6.94-6.53,10.15c-5.07,6.72-11.26,12.79-18.02,17.8
			c-14.1,10.45-31.4,17.03-49.06,17.05c-17.7,0.02-34.15-7.03-47.1-18.96c-13.26-12.2-21.55-27.55-30.08-43.18
			C165.94,220.42,162.11,222.12,162.8,224.78L162.8,224.78z"/>
		<path class="st4" d="M207.93,282.59c-2.68,17.74-17.03,27.64-31.6,35.76c-14.93,8.32-29.49,17.04-42.83,27.79
			c-12.96,10.45-24.55,22.69-33.47,36.79c-4.17,6.6-7.66,13.6-10.47,20.88c-2.59,6.72-6.76,16.23-4.21,23.39
			c0.94,2.65,4.03,2.88,5.64,0.74c2.49-3.34,2.89-7.26,3.95-11.19c1.09-4.07,2.44-8.08,4.04-11.97c3.07-7.45,7.08-14.55,11.63-21.19
			c9.72-14.19,22.5-26.23,36.35-36.34c13.99-10.21,29.53-17.55,43.96-26.99c12.36-8.08,24.62-21,22.49-36.93
			C213.04,280.57,208.45,279.15,207.93,282.59L207.93,282.59z"/>
		<path class="st4" d="M284.98,279.6c1.51,15.55,14.76,27.23,26.83,35.8c14.29,10.15,30.54,17.22,44.35,28.11
			c24.99,19.72,43.31,47.7,52.68,78c1.8,5.83,10.99,3.34,9.17-2.53c-9.34-30.18-25.85-58.19-49.84-79.01
			c-12.93-11.23-27.75-19.11-42.42-27.74c-7.39-4.35-14.55-9.1-20.72-15.1c-5.76-5.61-10.16-12.39-14.66-18.98
			C288.92,276,284.68,276.49,284.98,279.6L284.98,279.6z"/>
		<path class="st4" d="M84.37,428.91c11.87,16.15,33.39,24.37,51.96,29.89c21.85,6.51,44.52,10.57,67.19,12.88
			c47.31,4.82,94.99,1.05,140.02-14.64c24.81-8.65,48.74-19.8,71.95-32.08c5.29-2.8,0.61-10.77-4.69-8.02
			c-39.48,20.5-81.79,38.7-126.3,44.17c-45.03,5.54-91.5,1.83-135.35-9.58c-10.68-2.78-21.35-6.05-31.44-10.54
			c-10.23-4.55-19.18-10.89-28.56-16.87C86.33,422.34,82.26,426.05,84.37,428.91L84.37,428.91z"/>
	</g>
</g>
</svg>
