<?xml version="1.0" encoding="utf-8"?>
<!-- Generator: Adobe Illustrator 24.2.3, SVG Export Plug-In . SVG Version: 6.00 Build 0)  -->
<svg version="1.1" id="Layer_1" xmlns="http://www.w3.org/2000/svg" xmlns:xlink="http://www.w3.org/1999/xlink" x="0px" y="0px"
	 viewBox="0 0 500 500" style="enable-background:new 0 0 500 500;" xml:space="preserve">
<style type="text/css">
	.st0{fill:#FFFFFF;}
	.st1{fill:#D3D0CD;}
	.st2{fill:#407A1B;}
	.st3{fill:#262F38;}
	.st4{fill:#96C11E;}
	.st5{fill:#9B0046;}
	.st6{fill:#D4005B;}
	.st7{fill:#00667C;}
	.st8{fill:#009FD1;}
</style>
<path class="st0" d="M448.6,297.5c-0.1-0.3-0.2-0.5-0.3-0.8c0.6-6.8,1-13.5,1.4-21.4c1.5-29.3,1.3-59.6-0.7-92.6
	c-0.3-5.1-4.6-9.3-9.6-9.3c-0.1,0-0.2,0-0.2,0c-4.8-1.8-9.5-3.6-14.3-5.4l-49.7-18.7c-0.2-13.4-0.8-27.1-1.8-41.4
	c0.9,0.3,1.9,0.5,2.9,0.5c0,0,21.9-0.4,21.9-0.4c2.5,0,4.9-1.1,6.7-3c1.7-1.8,2.6-4.1,2.5-6.5c-0.2-5-4.3-9-9.2-9
	c0,0-4.2,0.1-8.9,0.2c2.1-0.9,4.2-1.9,6.3-2.9c2.2-1.1,3.9-3.2,4.6-5.7c0.7-2.6,0.3-5.3-1-7.4c-1.7-2.7-4.7-4.3-7.8-4.3
	c-1.5,0-2.9,0.3-4.3,1c-2.7,1.3-5.4,2.6-8.1,3.7c-0.1,0-1.3,0.5-1.7,0.7c-0.2,0.1-0.3,0.1-0.5,0.2l5.5-9.7c1.2-2.2,1.6-4.8,0.8-7.3
	c-0.7-2.4-2.3-4.3-4.4-5.5c-1.4-0.7-2.9-1.1-4.5-1.1c-3.3,0-6.4,1.8-8,4.6l-10.1,17.5c-1.2,2.1-1.5,4.5-0.9,6.9l-59.3-20.2
	c-1.3-0.7-2.7-1.1-4.2-1.1c-1,0-2.1,0.2-3.1,0.6c-5.6,2.1-10.3,3.9-14.8,5.7c-11.4,4.5-20.5,8.5-28.8,12.7
	c-5.2,2.6-9.8,5.1-14.1,7.5c-2.2,1.2-4.4,2.6-6.6,3.9c-0.6,0.3-1.1,0.7-1.6,1c-0.4,0-0.7-0.1-1.1-0.1c-2.5,0-4.8,1-6.5,2.8
	c-1.7,1.8-2.5,4.1-2.4,6.6c0.3,5.4,0.6,10.7,0.9,16l-4.7-1.6c-1.3-0.7-2.7-1.1-4.2-1.1c-1,0-2.1,0.2-3.1,0.6
	c-5.6,2.1-10.3,3.9-14.8,5.7c-11.4,4.5-20.5,8.5-28.8,12.7c-5.2,2.6-9.8,5.1-14.1,7.5c-2.2,1.2-4.4,2.6-6.6,3.9
	c-0.6,0.3-1.1,0.7-1.6,1c-0.4,0-0.7-0.1-1.1-0.1c-2.5,0-4.8,1-6.5,2.8c-1.7,1.8-2.5,4.1-2.4,6.6c0.4,7.1,0.8,14.1,1.1,20.9
	c-1.8,0.8-3.5,1.5-5.3,2.3c-2.5,1.1-5,2.2-7.3,3.3c0.3-1.9,0-4-0.9-5.9L103,152.7c-1.5-3.2-4.9-5.2-8.6-5.2c-1.8,0-3.6,0.5-5,1.4
	c-4.2,2.7-5.7,7.9-3.5,12.5l5.2,11c-2.5-2.2-5-4.4-7.5-6.5c-0.7-0.6-2.9-2.4-6.3-2.4c-2.6,0-5.2,1.1-7,3c-1.8,2-2.8,4.8-2.6,7.5
	c0.2,2.5,1.3,4.8,3.2,6.3c3.8,3.1,7.4,6.4,11,9.8l-14.2-1.3c-0.3,0-0.5,0-0.8,0c-2.4,0-4.9,1.1-6.6,2.9c-1.8,1.9-2.8,4.4-2.7,6.9
	c0.2,5,3.9,8.8,9,9.3l22.1,2.1c0.3,0,0.5,0,0.8,0c0,0,0,0,0,0c1,0,2-0.2,2.9-0.5c0.1,3.9,0.2,7.9,0.2,11.7c0.1,10.9,0.2,22.5,0,36.2
	c-3.7,1.5-7.2,3-10.6,4.5c-7.4,3.2-13.7,6.2-19.8,9.4c0,0-0.1,0-0.1,0c-2.6,0-5,1.1-6.8,2.9c-1.8,1.8-2.7,4.2-2.6,6.8
	c0.3,8.4,0.5,16.8,0.6,25.1c0.2,13,0.2,27.1,0,44.5c-0.1,8.6-0.3,17.4-0.6,25.9c-0.1,2.5-0.1,5-0.2,7.5c-0.1,0-0.1,0.1-0.2,0.1
	c-9.6,5-13.3,11.2-10.9,18.6c1.3,3.9,4.2,6.3,6.3,8.1l0.2,0.2c1.7,1.4,3.5,2.8,5.8,4.4c3.1,2.2,6.5,4.3,10.9,6.8
	c5.5,3.2,11.2,6.3,16.7,9.3c2.3,1.3,4.6,2.5,7,3.8l39.5,21.7l0.5,0.3c1.4,0.8,3.6,2,6.5,2.1l0.5,0c0.7,0,2.1,0,3.5-0.8
	c2.1-0.8,4.1-1.7,6-2.6c1-0.4,1.9-0.9,2.8-1.3l90.7-40l23.6,13l0.5,0.3c1.4,0.8,3.6,2,6.5,2.1l0.5,0c0.7,0,2.1,0,3.5-0.8
	c2.1-0.8,4-1.7,6-2.6c1-0.4,1.9-0.9,2.9-1.3l94.2-41.5c4.2-1.8,6.6-5.4,6.7-9.7c0.1-4.6-3.2-8.9-7.8-10L374,364c0,0,0,0,0,0
	c-0.1-0.1-0.1-0.3-0.2-0.4c0.6-6.7,0.9-13.5,1.3-19.9l68.8-30.3c4.2-1.8,6.6-5.4,6.7-9.7C450.7,301.4,449.9,299.3,448.6,297.5z"/>
<g>
	<g>
		<g>
			<path class="st1" d="M126.8,284.9c-2.7,1.6-36.2,18.5-38.9,20.1c-1.8,1-3.8,2.7-3.3,4.7c0.2,0.8,0.9,1.5,1.5,2.1
				c7,6.2,15.3,10.8,23.4,15.3c19.5,10.7,39,21.5,58.4,32.2l103.3-45.5l-77.2-19.6L126.8,284.9z"/>
			<path class="st1" d="M129.1,288.6c-4.2,2.5-8.7,4.6-13.1,6.8c-6.4,3.3-12.9,6.6-19.3,9.9c-2,1-3.9,2-5.9,3
				c-0.2,0.1-0.4,0.2-0.6,0.3c-0.4,0.2-0.8,0.5-1.2,0.8c0.8-0.6-0.1,0.1-0.2,0.2c-0.6,0.5,0.2-0.6-0.1,0.2c0.2-0.5,0.3-1,0.1-1.5
				c0,0.1-0.3-0.7-0.4-0.6c0,0,1.7,1.5,1.8,1.6c1.2,1,2.5,2,3.8,3c1.1,0.9-0.7-0.4,0.5,0.4c0.2,0.2,0.5,0.3,0.7,0.5
				c0.7,0.5,1.3,0.9,2,1.4c1.4,0.9,2.8,1.8,4.3,2.7c2.8,1.7,5.6,3.2,8.4,4.8c6.1,3.4,12.2,6.7,18.3,10.1c14,7.7,28,15.4,42,23.1
				c-1.1-0.1-2.2-0.2-3.4-0.3c3.4-1.5,6.8-3,10.3-4.5c8.2-3.6,16.4-7.2,24.7-10.9c9.9-4.4,19.9-8.8,29.8-13.1
				c8.6-3.8,17.2-7.6,25.8-11.4c4.2-1.8,8.3-3.9,12.5-5.5c0.1,0,0.1-0.1,0.2-0.1c0.1,2.8,0.2,5.6,0.2,8.4c-7.7-2-15.4-3.9-23-5.9
				c-13.3-3.4-26.5-6.7-39.8-10.1c-4.1-1-8.2-2.1-12.4-3.1c-1.3-0.3-2.5-0.6-3.9-0.8c-11.4-1.6-22.8-3.1-34.2-4.7
				c-10.2-1.4-20.5-2.8-30.7-4.2c-0.2,0-0.4,0-0.5-0.1c-2.3-0.3-3.8-3.2-3.2-5.3c0.7-2.5,2.8-3.5,5.3-3.2c8.7,1.2,17.4,2.4,26.1,3.6
				c12.4,1.7,24.7,3.4,37.1,5c1.6,0.2,3.2,0.3,4.7,0.7c3.3,0.8,6.7,1.7,10,2.5c12.9,3.3,25.8,6.6,38.7,9.9c9.1,2.3,18.3,4.5,27.4,7
				c0.2,0,0.3,0.1,0.5,0.1c1.8,0.5,3.3,2.2,3.3,4.1c0,2.1-1.2,3.5-3.1,4.3c-2.5,1.1-4.9,2.2-7.4,3.3c-6.2,2.7-12.4,5.4-18.5,8.2
				c-8.1,3.6-16.2,7.1-24.3,10.7c-8.2,3.6-16.4,7.2-24.6,10.8c-6.5,2.8-12.9,5.7-19.4,8.5c-3,1.3-5.9,2.8-9,4
				c-0.5,0.2,0,0.3-1.3,0.2c-1.6,0-2.8-0.9-4.1-1.6c-1.1-0.6-2.1-1.2-3.2-1.8c-4.1-2.2-8.1-4.5-12.2-6.7c-8-4.4-16.1-8.9-24.1-13.3
				c-7.9-4.3-15.8-8.6-23.6-13c-3.6-2-7.1-4.2-10.4-6.5c-1.9-1.3-3.7-2.7-5.4-4.1c-1.9-1.5-3.9-3.1-4.7-5.5
				c-1.9-5.8,3.6-9.1,7.9-11.4c3.5-1.8,7.1-3.7,10.7-5.5c7.7-3.9,15.5-7.8,23.1-11.8c0.7-0.4,1.5-0.8,2.2-1.2c2-1.2,4.8-0.7,6,1.4
				C131.6,284.6,131.2,287.4,129.1,288.6z"/>
		</g>
		<g>
			<g>
				<g>
					<path class="st2" d="M249,234.2l21.3-41.1l-83.8-31.6c0,0-58.8,20.1-84.5,34.9l1.5,57.3L249,234.2z"/>
					<path class="st3" d="M246.4,232.8c2.4-4.6,4.8-9.2,7.2-13.8c3.8-7.4,7.7-14.8,11.5-22.2c0.9-1.7,1.8-3.4,2.6-5.1
						c0.6,1.4,1.2,2.8,1.9,4.3c-2.8-1-5.6-2.1-8.3-3.1c-6.7-2.5-13.3-5-20-7.5c-8.1-3-16.1-6.1-24.2-9.1c-7-2.6-14-5.3-20.9-7.9
						c-2.3-0.9-4.6-1.7-6.9-2.6c-1.1-0.4-2.2-0.7-3.3-1.2c0,0-0.1,0-0.1-0.1c0.5,0,1,0,1.6,0c-7.2,2.4-14.3,5-21.4,7.7
						c-14.2,5.2-28.2,10.7-42,16.9c-2.1,0.9-3.4,1.5-5.4,2.4c-1.8,0.8-3.6,1.7-5.4,2.6c-3.2,1.6-6.4,3.2-9.6,5
						c0.5-0.9,0.9-1.7,1.4-2.6c0.2,6.5,0.4,13,0.5,19.4c0.3,10.3,0.6,20.5,0.8,30.8c0.1,2.4,0.1,4.7,0.2,7.1c-1-0.9-2-1.9-3-2.8
						c4.9-0.7,9.7-1.3,14.6-2c11.6-1.6,23.1-3.1,34.7-4.7c14-1.9,28-3.8,42-5.6c12.1-1.6,24.2-3.3,36.3-4.9c4-0.5,8-1.1,12-1.6
						c1.9-0.3,3.8-0.6,5.7-0.8c0.1,0,0.2,0,0.3,0c1.6-0.2,3,1.4,3,2.8c0,1.7-1.3,2.8-2.8,3c-4.9,0.7-9.7,1.3-14.6,2
						c-11.6,1.6-23.1,3.1-34.7,4.7c-14,1.9-28,3.8-42,5.6c-12.1,1.6-24.2,3.3-36.3,4.9c-4,0.5-8,1.1-12,1.6
						c-1.9,0.3-3.8,0.6-5.7,0.8c-0.1,0-0.2,0-0.3,0c-1.6,0.2-3-1.4-3-2.8c-0.2-6.5-0.4-13-0.5-19.4c-0.3-10.3-0.6-20.5-0.8-30.8
						c-0.1-2.4-0.1-4.7-0.2-7.1c0-1,0.5-2.1,1.4-2.6c7.5-4.3,15.5-8,23.5-11.5c8.8-3.8,17.6-7.4,26.6-10.9
						c7.6-2.9,15.3-5.8,22.9-8.6c3.9-1.4,7.9-2.9,11.9-4.2c2-0.6,4,0.6,5.8,1.3c4.6,1.7,9.2,3.5,13.7,5.2c13.3,5,26.7,10,40,15.1
						c8.6,3.2,17.2,6.5,25.8,9.7c0.1,0,0.3,0.1,0.4,0.1c1.8,0.7,2.8,2.4,1.9,4.3c-2.4,4.6-4.8,9.2-7.2,13.8
						c-3.8,7.4-7.7,14.8-11.5,22.2c-0.9,1.7-1.8,3.4-2.6,5.1C249.8,238.9,244.7,236.1,246.4,232.8z"/>
				</g>
				<g>
					<path class="st4" d="M270.6,310.7c2.3-39.1,2.1-78.4-0.4-117.5l-100.1,41.1c0.2,39.5,1.1,79,2.6,118.5L270.6,310.7z"/>
					<path class="st3" d="M268.4,310.8c0.3-15.3,0.7-30.6,0.7-45.9c0-15.3-0.4-30.6-1.1-45.9c-0.4-8.5-0.8-17.1-1.4-25.6
						c1.6,1.1,3.2,2.3,4.8,3.4c-3.3,1.4-6.6,2.8-9.9,4.1c-8,3.3-15.9,6.6-23.9,9.9c-9.6,4-19.3,7.9-28.9,11.9
						c-8.3,3.4-16.7,6.9-25,10.3c-4,1.7-8,3.5-12.1,5c-0.1,0-0.1,0-0.2,0.1c0.9-1.3,1.8-2.6,2.8-3.8c0.2,30.9,0.7,61.8,1.6,92.6
						c0.3,8.6,0.5,17.2,0.9,25.8c-1.6-1.2-3.3-2.4-4.9-3.5c3.2-1.4,6.5-2.8,9.7-4.2c7.8-3.3,15.6-6.7,23.4-10
						c9.4-4,18.9-8,28.3-12.1c8.2-3.5,16.3-6.9,24.5-10.5c3.9-1.7,7.9-3.6,11.9-5c0.1,0,0.1,0,0.2-0.1c1.7-0.7,3.9,0.7,4.4,2.3
						c0.6,2-0.6,3.6-2.3,4.4c-0.1,0-0.1,0-0.2,0.1c-0.3,0.2-0.7,0.1,0.6-0.3c-0.4,0.1-0.7,0.3-1.1,0.5c-0.6,0.3-1.3,0.6-1.9,0.9
						c-2.4,1.1-4.7,2.1-7.1,3.1c-7.8,3.3-15.6,6.7-23.4,10.1c-9.4,4.1-18.8,8.2-28.3,12.2c-8.1,3.5-16.3,7.1-24.4,10.6
						c-3.9,1.7-7.9,3.7-11.9,5.1c-0.1,0-0.1,0-0.2,0.1c-2.3,1-4.8-1.3-4.9-3.5c-1.2-30.9-2-61.7-2.5-92.6
						c-0.1-8.6-0.2-17.2-0.2-25.8c0-1.9,1.1-3.2,2.8-3.8c3.3-1.4,6.6-2.7,10-4.1c8-3.3,15.9-6.5,23.9-9.8
						c9.6-3.9,19.3-7.9,28.9-11.8c8.3-3.4,16.7-6.8,25-10.2c4-1.6,8.1-3.5,12.2-4.9c0.1,0,0.1,0,0.2-0.1c2.3-0.9,4.7,1.2,4.8,3.4
						c1.8,30.6,2.3,61.3,0.7,91.9c-0.4,8.6-0.9,17.1-1.7,25.6c-0.1,1.2-0.9,2.3-2.2,2.3C269.5,313,268.3,312,268.4,310.8z"/>
				</g>
				<g>
					<path class="st2" d="M100,310.3c2.1-38.1,2.6-76.3,1.5-114.5l68.7,38.5c0.2,39.5,1.1,79,2.6,118.5L100,310.3z"/>
					<path class="st3" d="M97.6,310.4c0.3-14.9,0.8-29.7,1-44.6c0.2-14.9,0.2-29.8,0-44.6c-0.1-8.4-0.3-16.8-0.6-25.2
						c-0.1-2.6,2.8-4.4,5.1-3.1c7.8,4.3,15.5,8.6,23.3,12.9c12.4,6.9,24.7,13.8,37,20.7c2.8,1.6,5.6,3.2,8.4,4.7
						c1.1,0.6,1.8,1.8,1.8,3c0.2,30.9,0.7,61.8,1.7,92.6c0.3,8.6,0.6,17.2,0.9,25.8c0.1,2.6-2.9,4.5-5.2,3.2
						c-2.4-1.4-4.8-2.8-7.2-4.2c-5.8-3.4-11.6-6.7-17.3-10.1c-7-4.1-14-8.2-21-12.3c-6.1-3.6-12.2-7.1-18.2-10.7
						c-2.9-1.7-5.9-3.4-8.8-5.1c0,0-0.1,0-0.1-0.1c-1.6-1-2.3-3.1-1.4-4.8c0.9-1.6,3.1-2.4,4.8-1.4c2.4,1.4,4.8,2.8,7.2,4.2
						c5.8,3.4,11.6,6.7,17.3,10.1c7,4.1,14,8.2,21,12.3c6.1,3.6,12.2,7.1,18.2,10.7c2.9,1.7,6,3.3,8.8,5.1c0,0,0.1,0,0.1,0.1
						c-1.7,1.1-3.5,2.1-5.2,3.2c-1.2-30.9-2-61.7-2.4-92.6c-0.1-8.6-0.2-17.2-0.2-25.8c0.6,1,1.2,2,1.8,3c-7.7-4.3-15.5-8.7-23.2-13
						c-12.3-6.9-24.7-13.8-37-20.8c-2.8-1.6-5.6-3.2-8.4-4.8c1.7-1,3.4-2.1,5.1-3.1c0.7,29.8,0.5,59.5-0.9,89.3
						c-0.4,8.4-0.9,16.8-1.6,25.2c-0.1,1.3-0.9,2.4-2.3,2.5C98.8,312.7,97.5,311.7,97.6,310.4z"/>
				</g>
				<path class="st3" d="M225.8,318.1l-0.4-14.6c0-1.1,0.8-2,1.9-2c1.1,0,2,0.8,2,1.9l0.4,14.6c0,1.1-0.8,2-1.9,2
					C226.7,320.1,225.8,319.2,225.8,318.1z M225,288.9l-0.4-14.6c0-1.1,0.8-2,1.9-2c1.1,0,2,0.8,2,1.9l0.4,14.6c0,1.1-0.8,2-1.9,2
					C225.9,290.8,225,289.9,225,288.9z M224.2,259.6l-0.4-14.6c0-1.1,0.8-2,1.9-2s2,0.8,2,1.9l0.4,14.6c0,1.1-0.8,2-1.9,2
					C225.1,261.5,224.2,260.7,224.2,259.6z M223.4,230.3l-0.4-14.6c0-1.1,0.8-2,1.9-2s2,0.8,2,1.9l0.4,14.6c0,1.1-0.8,2-1.9,2
					C224.3,232.3,223.4,231.4,223.4,230.3z"/>
			</g>
		</g>
	</g>
	<g>
		<g>
			<path class="st1" d="M295.8,274.9c-2.7,1.6-36.2,18.5-38.9,20.1c-1.8,1-3.8,2.7-3.3,4.7c0.2,0.8,0.9,1.5,1.5,2.1
				c7,6.2,15.3,10.8,23.4,15.3c19.5,10.7,39,21.5,58.4,32.2l103.3-45.5l-77.2-19.6L295.8,274.9z"/>
			<path class="st1" d="M298.1,278.6c-4.2,2.5-8.7,4.6-13.1,6.8c-6.4,3.3-12.9,6.6-19.3,9.9c-2,1-3.9,2-5.9,3
				c-0.2,0.1-0.4,0.2-0.6,0.3c-0.4,0.2-0.8,0.5-1.2,0.8c0.8-0.6-0.1,0.1-0.2,0.2c-0.6,0.5,0.2-0.6-0.1,0.2c0.2-0.5,0.3-1,0.1-1.5
				c0,0.1-0.3-0.7-0.4-0.6c0,0,1.7,1.5,1.8,1.6c1.2,1,2.5,2,3.8,3c1.1,0.9-0.7-0.4,0.5,0.4c0.2,0.2,0.5,0.3,0.7,0.5
				c0.7,0.5,1.3,0.9,2,1.4c1.4,0.9,2.8,1.8,4.3,2.7c2.8,1.7,5.6,3.2,8.4,4.8c6.1,3.4,12.2,6.7,18.3,10.1c14,7.7,28,15.4,42,23.1
				c-1.1-0.1-2.2-0.2-3.4-0.3c3.4-1.5,6.8-3,10.3-4.5c8.2-3.6,16.4-7.2,24.7-10.9c9.9-4.4,19.9-8.8,29.8-13.1
				c8.6-3.8,17.2-7.6,25.8-11.4c4.2-1.8,8.3-3.9,12.5-5.5c0.1,0,0.1-0.1,0.2-0.1c0.1,2.8,0.2,5.6,0.2,8.4c-7.7-2-15.4-3.9-23-5.9
				c-13.3-3.4-26.5-6.7-39.8-10.1c-4.1-1-8.2-2.1-12.4-3.1c-1.3-0.3-2.5-0.6-3.9-0.8c-11.4-1.6-22.8-3.1-34.2-4.7
				c-10.2-1.4-20.5-2.8-30.7-4.2c-0.2,0-0.4,0-0.5-0.1c-2.3-0.3-3.8-3.2-3.2-5.3c0.7-2.5,2.8-3.5,5.3-3.2c8.7,1.2,17.4,2.4,26.1,3.6
				c12.4,1.7,24.7,3.4,37.1,5c1.6,0.2,3.2,0.3,4.7,0.7c3.3,0.8,6.7,1.7,10,2.5c12.9,3.3,25.8,6.6,38.7,9.9c9.1,2.3,18.3,4.5,27.4,7
				c0.2,0,0.3,0.1,0.5,0.1c1.8,0.5,3.3,2.2,3.3,4.1c0,2.1-1.2,3.5-3.1,4.3c-2.5,1.1-4.9,2.2-7.4,3.3c-6.2,2.7-12.4,5.4-18.5,8.2
				c-8.1,3.6-16.2,7.1-24.3,10.7c-8.2,3.6-16.4,7.2-24.6,10.8c-6.5,2.8-12.9,5.7-19.4,8.5c-3,1.3-5.9,2.8-9,4
				c-0.5,0.2,0,0.3-1.3,0.2c-1.6,0-2.8-0.9-4.1-1.6c-1.1-0.6-2.1-1.2-3.2-1.8c-4.1-2.2-8.1-4.5-12.2-6.7c-8-4.4-16.1-8.9-24.1-13.3
				c-7.9-4.3-15.8-8.6-23.6-13c-3.6-2-7.1-4.2-10.4-6.5c-1.9-1.3-3.7-2.7-5.4-4.1c-1.9-1.5-3.9-3.1-4.7-5.5
				c-1.9-5.8,3.6-9.1,7.9-11.4c3.5-1.8,7.1-3.7,10.7-5.5c7.7-3.9,15.5-7.8,23.1-11.8c0.7-0.4,1.5-0.8,2.2-1.2c2-1.2,4.8-0.7,6,1.4
				C300.6,274.6,300.2,277.4,298.1,278.6z"/>
		</g>
		<g>
			<g>
				<g>
					<path class="st5" d="M418,224.2l21.3-41.1l-83.8-31.6c0,0-58.8,20.1-84.5,34.9l1.5,57.3L418,224.2z"/>
					<path class="st3" d="M415.4,222.8c2.4-4.6,4.8-9.2,7.2-13.8c3.8-7.4,7.7-14.8,11.5-22.2c0.9-1.7,1.8-3.4,2.6-5.1
						c0.6,1.4,1.2,2.8,1.9,4.3c-2.8-1-5.6-2.1-8.3-3.1c-6.7-2.5-13.3-5-20-7.5c-8.1-3-16.1-6.1-24.2-9.1c-7-2.6-14-5.3-20.9-7.9
						c-2.3-0.9-4.6-1.7-6.9-2.6c-1.1-0.4-2.2-0.7-3.3-1.2c0,0-0.1,0-0.1-0.1c0.5,0,1,0,1.6,0c-7.2,2.4-14.3,5-21.4,7.7
						c-14.2,5.2-28.2,10.7-42,16.9c-2.1,0.9-3.4,1.5-5.4,2.4c-1.8,0.8-3.6,1.7-5.4,2.6c-3.2,1.6-6.4,3.2-9.6,5
						c0.5-0.9,0.9-1.7,1.4-2.6c0.2,6.5,0.4,13,0.5,19.4c0.3,10.3,0.6,20.5,0.8,30.8c0.1,2.4,0.1,4.7,0.2,7.1c-1-0.9-2-1.9-3-2.8
						c4.9-0.7,9.7-1.3,14.6-2c11.6-1.6,23.1-3.1,34.7-4.7c14-1.9,28-3.8,42-5.6c12.1-1.6,24.2-3.3,36.3-4.9c4-0.5,8-1.1,12-1.6
						c1.9-0.3,3.8-0.6,5.7-0.8c0.1,0,0.2,0,0.3,0c1.6-0.2,3,1.4,3,2.8c0,1.7-1.3,2.8-2.8,3c-4.9,0.7-9.7,1.3-14.6,2
						c-11.6,1.6-23.1,3.1-34.7,4.7c-14,1.9-28,3.8-42,5.6c-12.1,1.6-24.2,3.3-36.3,4.9c-4,0.5-8,1.1-12,1.6
						c-1.9,0.3-3.8,0.6-5.7,0.8c-0.1,0-0.2,0-0.3,0c-1.6,0.2-3-1.4-3-2.8c-0.2-6.5-0.4-13-0.5-19.4c-0.3-10.3-0.6-20.5-0.8-30.8
						c-0.1-2.4-0.1-4.7-0.2-7.1c0-1,0.5-2.1,1.4-2.6c7.5-4.3,15.5-8,23.5-11.5c8.8-3.8,17.6-7.4,26.6-10.9
						c7.6-2.9,15.3-5.8,22.9-8.6c3.9-1.4,7.9-2.9,11.9-4.2c2-0.6,4,0.6,5.8,1.3c4.6,1.7,9.2,3.5,13.7,5.2c13.3,5,26.7,10,40,15.1
						c8.6,3.2,17.2,6.5,25.8,9.7c0.1,0,0.3,0.1,0.4,0.1c1.8,0.7,2.8,2.4,1.9,4.3c-2.4,4.6-4.8,9.2-7.2,13.8
						c-3.8,7.4-7.7,14.8-11.5,22.2c-0.9,1.7-1.8,3.4-2.6,5.1C418.8,228.9,413.7,226.1,415.4,222.8z"/>
				</g>
				<g>
					<path class="st6" d="M439.6,300.7c2.3-39.1,2.1-78.4-0.4-117.5l-100.1,41.1c0.2,39.5,1.1,79,2.6,118.5L439.6,300.7z"/>
					<path class="st3" d="M437.4,300.8c0.3-15.3,0.7-30.6,0.7-45.9c0-15.3-0.4-30.6-1.1-45.9c-0.4-8.5-0.8-17.1-1.4-25.6
						c1.6,1.1,3.2,2.3,4.8,3.4c-3.3,1.4-6.6,2.8-9.9,4.1c-8,3.3-15.9,6.6-23.9,9.9c-9.6,4-19.3,7.9-28.9,11.9
						c-8.3,3.4-16.7,6.9-25,10.3c-4,1.7-8,3.5-12.1,5c-0.1,0-0.1,0-0.2,0.1c0.9-1.3,1.8-2.6,2.8-3.8c0.2,30.9,0.7,61.8,1.6,92.6
						c0.3,8.6,0.5,17.2,0.9,25.8c-1.6-1.2-3.3-2.4-4.9-3.5c3.2-1.4,6.5-2.8,9.7-4.2c7.8-3.3,15.6-6.7,23.4-10
						c9.4-4,18.9-8,28.3-12.1c8.2-3.5,16.3-6.9,24.5-10.5c3.9-1.7,7.9-3.6,11.9-5c0.1,0,0.1,0,0.2-0.1c1.7-0.7,3.9,0.7,4.4,2.3
						c0.6,2-0.6,3.6-2.3,4.4c-0.1,0-0.1,0-0.2,0.1c-0.3,0.2-0.7,0.1,0.6-0.3c-0.4,0.1-0.7,0.3-1.1,0.5c-0.6,0.3-1.3,0.6-1.9,0.9
						c-2.4,1.1-4.7,2.1-7.1,3.1c-7.8,3.3-15.6,6.7-23.4,10.1c-9.4,4.1-18.8,8.2-28.3,12.2c-8.1,3.5-16.3,7.1-24.4,10.6
						c-3.9,1.7-7.9,3.7-11.9,5.1c-0.1,0-0.1,0-0.2,0.1c-2.3,1-4.8-1.3-4.9-3.5c-1.2-30.9-2-61.7-2.5-92.6
						c-0.1-8.6-0.2-17.2-0.2-25.8c0-1.9,1.1-3.2,2.8-3.8c3.3-1.4,6.6-2.7,10-4.1c8-3.3,15.9-6.5,23.9-9.8
						c9.6-3.9,19.3-7.9,28.9-11.8c8.3-3.4,16.7-6.8,25-10.2c4-1.6,8.1-3.5,12.2-4.9c0.1,0,0.1,0,0.2-0.1c2.3-0.9,4.7,1.2,4.8,3.4
						c1.8,30.6,2.3,61.3,0.7,91.9c-0.4,8.6-0.9,17.1-1.7,25.6c-0.1,1.2-0.9,2.3-2.2,2.3C438.5,303,437.3,302,437.4,300.8z"/>
				</g>
				<g>
					<path class="st5" d="M269,300.3c2.1-38.1,2.6-76.3,1.5-114.5l68.7,38.5c0.2,39.5,1.1,79,2.6,118.5L269,300.3z"/>
					<path class="st3" d="M266.6,300.4c0.3-14.9,0.8-29.7,1-44.6c0.2-14.9,0.2-29.8,0-44.6c-0.1-8.4-0.3-16.8-0.6-25.2
						c-0.1-2.6,2.8-4.4,5.1-3.1c7.8,4.3,15.5,8.6,23.3,12.9c12.4,6.9,24.7,13.8,37,20.7c2.8,1.6,5.6,3.2,8.4,4.7
						c1.1,0.6,1.8,1.8,1.8,3c0.2,30.9,0.7,61.8,1.7,92.6c0.3,8.6,0.6,17.2,0.9,25.8c0.1,2.6-2.9,4.5-5.2,3.2
						c-2.4-1.4-4.8-2.8-7.2-4.2c-5.8-3.4-11.6-6.7-17.3-10.1c-7-4.1-14-8.2-21-12.3c-6.1-3.6-12.2-7.1-18.2-10.7
						c-2.9-1.7-5.9-3.4-8.8-5.1c0,0-0.1,0-0.1-0.1c-1.6-1-2.3-3.1-1.4-4.8c0.9-1.6,3.1-2.4,4.8-1.4c2.4,1.4,4.8,2.8,7.2,4.2
						c5.8,3.4,11.6,6.7,17.3,10.1c7,4.1,14,8.2,21,12.3c6.1,3.6,12.2,7.1,18.2,10.7c2.9,1.7,6,3.3,8.8,5.1c0,0,0.1,0,0.1,0.1
						c-1.7,1.1-3.5,2.1-5.2,3.2c-1.2-30.9-2-61.7-2.4-92.6c-0.1-8.6-0.2-17.2-0.2-25.8c0.6,1,1.2,2,1.8,3c-7.7-4.3-15.5-8.7-23.2-13
						c-12.3-6.9-24.7-13.8-37-20.8c-2.8-1.6-5.6-3.2-8.4-4.8c1.7-1,3.4-2.1,5.1-3.1c0.7,29.8,0.5,59.5-0.9,89.3
						c-0.4,8.4-0.9,16.8-1.6,25.2c-0.1,1.3-0.9,2.4-2.3,2.5C267.8,302.7,266.5,301.7,266.6,300.4z"/>
				</g>
				<path class="st3" d="M394.8,308.1l-0.4-14.6c0-1.1,0.8-2,1.9-2c1.1,0,2,0.8,2,1.9l0.4,14.6c0,1.1-0.8,2-1.9,2
					C395.7,310.1,394.8,309.2,394.8,308.1z M394,278.9l-0.4-14.6c0-1.1,0.8-2,1.9-2c1.1,0,2,0.8,2,1.9l0.4,14.6c0,1.1-0.8,2-1.9,2
					C394.9,280.8,394,279.9,394,278.9z M393.2,249.6l-0.4-14.6c0-1.1,0.8-2,1.9-2s2,0.8,2,1.9l0.4,14.6c0,1.1-0.8,2-1.9,2
					S393.2,250.7,393.2,249.6z M392.4,220.3l-0.4-14.6c0-1.1,0.8-2,1.9-2s2,0.8,2,1.9l0.4,14.6c0,1.1-0.8,2-1.9,2
					S392.4,221.4,392.4,220.3z"/>
			</g>
		</g>
	</g>
	<g>
		<g>
			<path class="st1" d="M227.3,345.4c-2.7,1.6-36.2,18.5-38.9,20.1c-1.8,1-3.8,2.7-3.3,4.7c0.2,0.8,0.9,1.5,1.5,2.1
				c7,6.2,15.3,10.8,23.4,15.3c19.5,10.7,39,21.5,58.4,32.2l103.3-45.5l-77.2-19.6L227.3,345.4z"/>
			<path class="st1" d="M229.6,349.1c-4.2,2.5-8.7,4.6-13.1,6.8c-6.4,3.3-12.9,6.6-19.3,9.9c-2,1-3.9,2-5.9,3
				c-0.2,0.1-0.4,0.2-0.6,0.3c-0.4,0.2-0.8,0.5-1.2,0.8c0.8-0.6-0.1,0.1-0.2,0.2c-0.6,0.5,0.2-0.6-0.1,0.2c0.2-0.5,0.3-1,0.1-1.5
				c0,0.1-0.3-0.7-0.4-0.6c0,0,1.7,1.5,1.8,1.6c1.2,1,2.5,2,3.8,3c1.1,0.9-0.7-0.4,0.5,0.4c0.2,0.2,0.5,0.3,0.7,0.5
				c0.7,0.5,1.3,0.9,2,1.4c1.4,0.9,2.8,1.8,4.3,2.7c2.8,1.7,5.6,3.2,8.4,4.8c6.1,3.4,12.2,6.7,18.3,10.1c14,7.7,28,15.4,42,23.1
				c-1.1-0.1-2.2-0.2-3.4-0.3c3.4-1.5,6.8-3,10.3-4.5c8.2-3.6,16.4-7.2,24.7-10.9c9.9-4.4,19.9-8.8,29.8-13.1
				c8.6-3.8,17.2-7.6,25.8-11.4c4.2-1.8,8.3-3.9,12.5-5.5c0.1,0,0.1-0.1,0.2-0.1c0.1,2.8,0.2,5.6,0.2,8.4c-7.7-2-15.4-3.9-23-5.9
				c-13.3-3.4-26.5-6.7-39.8-10.1c-4.1-1-8.2-2.1-12.4-3.1c-1.3-0.3-2.5-0.6-3.9-0.8c-11.4-1.6-22.8-3.1-34.2-4.7
				c-10.2-1.4-20.5-2.8-30.7-4.2c-0.2,0-0.4,0-0.5-0.1c-2.3-0.3-3.8-3.2-3.2-5.3c0.7-2.5,2.8-3.5,5.3-3.2c8.7,1.2,17.4,2.4,26.1,3.6
				c12.4,1.7,24.7,3.4,37.1,5c1.6,0.2,3.2,0.3,4.7,0.7c3.3,0.8,6.7,1.7,10,2.5c12.9,3.3,25.8,6.6,38.7,9.9c9.1,2.3,18.3,4.5,27.4,7
				c0.2,0,0.3,0.1,0.5,0.1c1.8,0.5,3.3,2.2,3.3,4.1c0,2.1-1.2,3.5-3.1,4.3c-2.5,1.1-4.9,2.2-7.4,3.3c-6.2,2.7-12.4,5.4-18.5,8.2
				c-8.1,3.6-16.2,7.1-24.3,10.7c-8.2,3.6-16.4,7.2-24.6,10.8c-6.5,2.8-12.9,5.7-19.4,8.5c-3,1.3-5.9,2.8-9,4
				c-0.5,0.2,0,0.3-1.3,0.2c-1.6,0-2.8-0.9-4.1-1.6c-1.1-0.6-2.1-1.2-3.2-1.8c-4.1-2.2-8.1-4.5-12.2-6.7c-8-4.4-16.1-8.9-24.1-13.3
				c-7.9-4.3-15.8-8.6-23.6-13c-3.6-2-7.1-4.2-10.4-6.5c-1.9-1.3-3.7-2.7-5.4-4.1c-1.9-1.5-3.9-3.1-4.7-5.5
				c-1.9-5.8,3.6-9.1,7.9-11.4c3.5-1.8,7.1-3.7,10.7-5.5c7.7-3.9,15.5-7.8,23.1-11.8c0.7-0.4,1.5-0.8,2.2-1.2c2-1.2,4.8-0.7,6,1.4
				C232.2,345.1,231.7,347.8,229.6,349.1z"/>
		</g>
		<g>
			<g>
				<g>
					<path class="st2" d="M343.6,291l21.3-41.1l-83.8-31.6c0,0-58.8,20.1-84.5,34.9l1.5,57.3L343.6,291z"/>
					<path class="st3" d="M341,289.6c2.4-4.6,4.8-9.2,7.2-13.8c3.8-7.4,7.7-14.8,11.5-22.2c0.9-1.7,1.8-3.4,2.6-5.1
						c0.6,1.4,1.2,2.8,1.9,4.3c-2.8-1-5.6-2.1-8.3-3.1c-6.7-2.5-13.3-5-20-7.5c-8.1-3-16.1-6.1-24.2-9.1c-7-2.6-14-5.3-20.9-7.9
						c-2.3-0.9-4.6-1.7-6.9-2.6c-1.1-0.4-2.2-0.7-3.3-1.2c0,0-0.1,0-0.1-0.1c0.5,0,1,0,1.6,0c-7.2,2.4-14.3,5-21.4,7.7
						c-14.2,5.2-28.2,10.7-42,16.9c-2.1,0.9-3.4,1.5-5.4,2.4c-1.8,0.8-3.6,1.7-5.4,2.6c-3.2,1.6-6.4,3.2-9.6,5
						c0.5-0.9,0.9-1.7,1.4-2.6c0.2,6.5,0.4,13,0.5,19.4c0.3,10.3,0.6,20.5,0.8,30.8c0.1,2.4,0.1,4.7,0.2,7.1c-1-0.9-2-1.9-3-2.8
						c4.9-0.7,9.7-1.3,14.6-2c11.6-1.6,23.1-3.1,34.7-4.7c14-1.9,28-3.8,42-5.6c12.1-1.6,24.2-3.3,36.3-4.9c4-0.5,8-1.1,12-1.6
						c1.9-0.3,3.8-0.6,5.7-0.8c0.1,0,0.2,0,0.3,0c1.6-0.2,3,1.4,3,2.8c0,1.7-1.3,2.8-2.8,3c-4.9,0.7-9.7,1.3-14.6,2
						c-11.6,1.6-23.1,3.1-34.7,4.7c-14,1.9-28,3.8-42,5.6c-12.1,1.6-24.2,3.3-36.3,4.9c-4,0.5-8,1.1-12,1.6
						c-1.9,0.3-3.8,0.6-5.7,0.8c-0.1,0-0.2,0-0.3,0c-1.6,0.2-3-1.4-3-2.8c-0.2-6.5-0.4-13-0.5-19.4c-0.3-10.3-0.6-20.5-0.8-30.8
						c-0.1-2.4-0.1-4.7-0.2-7.1c0-1,0.5-2.1,1.4-2.6c7.5-4.3,15.5-8,23.5-11.5c8.8-3.8,17.6-7.4,26.6-10.9
						c7.6-2.9,15.3-5.8,22.9-8.6c3.9-1.4,7.9-2.9,11.9-4.2c2-0.6,4,0.6,5.8,1.3c4.6,1.7,9.2,3.5,13.7,5.2c13.3,5,26.7,10,40,15.1
						c8.6,3.2,17.2,6.5,25.8,9.7c0.1,0,0.3,0.1,0.4,0.1c1.8,0.7,2.8,2.4,1.9,4.3c-2.4,4.6-4.8,9.2-7.2,13.8
						c-3.8,7.4-7.7,14.8-11.5,22.2c-0.9,1.7-1.8,3.4-2.6,5.1C344.4,295.7,339.3,292.9,341,289.6z"/>
				</g>
				<g>
					<path class="st4" d="M365.2,367.5c2.3-39.1,2.1-78.4-0.4-117.5l-100.1,41.1c0.2,39.5,1.1,79,2.6,118.5L365.2,367.5z"/>
					<path class="st3" d="M362.9,367.6c0.3-15.3,0.7-30.6,0.7-45.9c0-15.3-0.4-30.6-1.1-45.9c-0.4-8.5-0.8-17.1-1.4-25.6
						c1.6,1.1,3.2,2.3,4.8,3.4c-3.3,1.4-6.6,2.8-9.9,4.1c-8,3.3-15.9,6.6-23.9,9.9c-9.6,4-19.3,7.9-28.9,11.9
						c-8.3,3.4-16.7,6.9-25,10.3c-4,1.7-8,3.5-12.1,5c-0.1,0-0.1,0-0.2,0.1c0.9-1.3,1.8-2.6,2.8-3.8c0.2,30.9,0.7,61.8,1.6,92.6
						c0.3,8.6,0.5,17.2,0.9,25.8c-1.6-1.2-3.3-2.4-4.9-3.5c3.2-1.4,6.5-2.8,9.7-4.2c7.8-3.3,15.6-6.7,23.4-10
						c9.4-4,18.9-8,28.3-12.1c8.2-3.5,16.3-6.9,24.5-10.5c3.9-1.7,7.9-3.6,11.9-5c0.1,0,0.1,0,0.2-0.1c1.7-0.7,3.9,0.7,4.4,2.3
						c0.6,2-0.6,3.6-2.3,4.4c-0.1,0-0.1,0-0.2,0.1c-0.3,0.2-0.7,0.1,0.6-0.3c-0.4,0.1-0.7,0.3-1.1,0.5c-0.6,0.3-1.3,0.6-1.9,0.9
						c-2.4,1.1-4.7,2.1-7.1,3.1c-7.8,3.3-15.6,6.7-23.4,10.1c-9.4,4.1-18.8,8.2-28.3,12.2c-8.1,3.5-16.3,7.1-24.4,10.6
						c-3.9,1.7-7.9,3.7-11.9,5.1c-0.1,0-0.1,0-0.2,0.1c-2.3,1-4.8-1.3-4.9-3.5c-1.2-30.9-2-61.7-2.5-92.6
						c-0.1-8.6-0.2-17.2-0.2-25.8c0-1.9,1.1-3.2,2.8-3.8c3.3-1.4,6.6-2.7,10-4.1c8-3.3,15.9-6.5,23.9-9.8
						c9.6-3.9,19.3-7.9,28.9-11.8c8.3-3.4,16.7-6.8,25-10.2c4-1.6,8.1-3.5,12.2-4.9c0.1,0,0.1,0,0.2-0.1c2.3-0.9,4.7,1.2,4.8,3.4
						c1.8,30.6,2.3,61.3,0.7,91.9c-0.4,8.6-0.9,17.1-1.7,25.6c-0.1,1.2-0.9,2.3-2.2,2.3C364.1,369.8,362.9,368.8,362.9,367.6z"/>
				</g>
				<g>
					<path class="st2" d="M194.6,367.1c2.1-38.1,2.6-76.3,1.5-114.5l68.7,38.5c0.2,39.5,1.1,79,2.6,118.5L194.6,367.1z"/>
					<path class="st3" d="M192.2,367.2c0.3-14.9,0.8-29.7,1-44.6c0.2-14.9,0.2-29.8,0-44.6c-0.1-8.4-0.3-16.8-0.6-25.2
						c-0.1-2.6,2.8-4.4,5.1-3.1c7.8,4.3,15.5,8.6,23.3,12.9c12.4,6.9,24.7,13.8,37,20.7c2.8,1.6,5.6,3.2,8.4,4.7
						c1.1,0.6,1.8,1.8,1.8,3c0.2,30.9,0.7,61.8,1.7,92.6c0.3,8.6,0.6,17.2,0.9,25.8c0.1,2.6-2.9,4.5-5.2,3.2
						c-2.4-1.4-4.8-2.8-7.2-4.2c-5.8-3.4-11.6-6.7-17.3-10.1c-7-4.1-14-8.2-21-12.3c-6.1-3.6-12.2-7.1-18.2-10.7
						c-2.9-1.7-5.9-3.4-8.8-5.1c0,0-0.1,0-0.1-0.1c-1.6-1-2.3-3.1-1.4-4.8c0.9-1.6,3.1-2.4,4.8-1.4c2.4,1.4,4.8,2.8,7.2,4.2
						c5.8,3.4,11.6,6.7,17.3,10.1c7,4.1,14,8.2,21,12.3c6.1,3.6,12.2,7.1,18.2,10.7c2.9,1.7,6,3.3,8.8,5.1c0,0,0.1,0,0.1,0.1
						c-1.7,1.1-3.5,2.1-5.2,3.2c-1.2-30.9-2-61.7-2.4-92.6c-0.1-8.6-0.2-17.2-0.2-25.8c0.6,1,1.2,2,1.8,3c-7.7-4.3-15.5-8.7-23.2-13
						c-12.3-6.9-24.7-13.8-37-20.8c-2.8-1.6-5.6-3.2-8.4-4.8c1.7-1,3.4-2.1,5.1-3.1c0.7,29.8,0.5,59.5-0.9,89.3
						c-0.4,8.4-0.9,16.8-1.6,25.2c-0.1,1.3-0.9,2.4-2.3,2.5C193.4,369.6,192.1,368.5,192.2,367.2z"/>
				</g>
				<path class="st3" d="M320.3,375l-0.4-14.6c0-1.1,0.8-2,1.9-2c1.1,0,2,0.8,2,1.9l0.4,14.6c0,1.1-0.8,2-1.9,2
					C321.3,376.9,320.4,376,320.3,375z M319.5,345.7l-0.4-14.6c0-1.1,0.8-2,1.9-2s2,0.8,2,1.9l0.4,14.6c0,1.1-0.8,2-1.9,2
					C320.5,347.6,319.6,346.8,319.5,345.7z M318.8,316.4l-0.4-14.6c0-1.1,0.8-2,1.9-2c1.1,0,2,0.8,2,1.9l0.4,14.6c0,1.1-0.8,2-1.9,2
					C319.7,318.4,318.8,317.5,318.8,316.4z M318,287.2l-0.4-14.6c0-1.1,0.8-2,1.9-2c1.1,0,2,0.8,2,1.9l0.4,14.6c0,1.1-0.8,2-1.9,2
					C318.9,289.1,318,288.2,318,287.2z"/>
			</g>
		</g>
	</g>
	<g>
		<g>
			<path class="st1" d="M93.3,374.7c-2.7,1.6-36.2,18.5-38.9,20.1c-1.8,1-3.8,2.7-3.3,4.7c0.2,0.8,0.9,1.5,1.5,2.1
				c7,6.2,15.3,10.8,23.4,15.3c19.5,10.7,39,21.5,58.4,32.2l103.3-45.5l-77.2-19.6L93.3,374.7z"/>
			<path class="st1" d="M95.6,378.4c-4.2,2.5-8.7,4.6-13.1,6.8c-6.4,3.3-12.9,6.6-19.3,9.9c-2,1-3.9,2-5.9,3
				c-0.2,0.1-0.4,0.2-0.6,0.3c-0.4,0.2-0.8,0.5-1.2,0.8c0.8-0.6-0.1,0.1-0.2,0.2c-0.6,0.5,0.2-0.6-0.1,0.2c0.2-0.5,0.3-1,0.1-1.5
				c0,0.1-0.3-0.7-0.4-0.6c0,0,1.7,1.5,1.8,1.6c1.2,1,2.5,2,3.8,3c1.1,0.9-0.7-0.4,0.5,0.4c0.2,0.2,0.5,0.3,0.7,0.5
				c0.7,0.5,1.3,0.9,2,1.4c1.4,0.9,2.8,1.8,4.3,2.7c2.8,1.7,5.6,3.2,8.4,4.8c6.1,3.4,12.2,6.7,18.3,10.1c14,7.7,28,15.4,42,23.1
				c-1.1-0.1-2.2-0.2-3.4-0.3c3.4-1.5,6.8-3,10.3-4.5c8.2-3.6,16.4-7.2,24.7-10.9c9.9-4.4,19.9-8.8,29.8-13.1
				c8.6-3.8,17.2-7.6,25.8-11.4c4.2-1.8,8.3-3.9,12.5-5.5c0.1,0,0.1-0.1,0.2-0.1c0.1,2.8,0.2,5.6,0.2,8.4c-7.7-2-15.4-3.9-23-5.9
				c-13.3-3.4-26.5-6.7-39.8-10.1c-4.1-1-8.2-2.1-12.4-3.1c-1.3-0.3-2.5-0.6-3.9-0.8c-11.4-1.6-22.8-3.1-34.2-4.7
				c-10.2-1.4-20.5-2.8-30.7-4.2c-0.2,0-0.4,0-0.5-0.1c-2.3-0.3-3.8-3.2-3.2-5.3c0.7-2.5,2.8-3.5,5.3-3.2c8.7,1.2,17.4,2.4,26.1,3.6
				c12.4,1.7,24.7,3.4,37.1,5c1.6,0.2,3.2,0.3,4.7,0.7c3.3,0.8,6.7,1.7,10,2.5c12.9,3.3,25.8,6.6,38.7,9.9c9.1,2.3,18.3,4.5,27.4,7
				c0.2,0,0.3,0.1,0.5,0.1c1.8,0.5,3.3,2.2,3.3,4.1c0,2.1-1.2,3.5-3.1,4.3c-2.5,1.1-4.9,2.2-7.4,3.3c-6.2,2.7-12.4,5.4-18.5,8.2
				c-8.1,3.6-16.2,7.1-24.3,10.7c-8.2,3.6-16.4,7.2-24.6,10.8c-6.5,2.8-12.9,5.7-19.4,8.5c-3,1.3-5.9,2.8-9,4
				c-0.5,0.2,0,0.3-1.3,0.2c-1.6,0-2.8-0.9-4.1-1.6c-1.1-0.6-2.1-1.2-3.2-1.8c-4.1-2.2-8.1-4.5-12.2-6.7c-8-4.4-16.1-8.9-24.1-13.3
				c-7.9-4.3-15.8-8.6-23.6-13c-3.6-2-7.1-4.2-10.4-6.5c-1.9-1.3-3.7-2.7-5.4-4.1c-1.9-1.5-3.9-3.1-4.7-5.5
				c-1.9-5.8,3.6-9.1,7.9-11.4c3.5-1.8,7.1-3.7,10.7-5.5c7.7-3.9,15.5-7.8,23.1-11.8c0.7-0.4,1.5-0.8,2.2-1.2c2-1.2,4.8-0.7,6,1.4
				C98.2,374.4,97.7,377.2,95.6,378.4z"/>
		</g>
		<g>
			<g>
				<g>
					<path class="st7" d="M209.6,319.1l21.3-41.1l-83.8-31.6c0,0-58.8,20.1-84.5,34.9l1.5,57.3L209.6,319.1z"/>
					<path class="st3" d="M207,317.7c2.4-4.6,4.8-9.2,7.2-13.8c3.8-7.4,7.7-14.8,11.5-22.2c0.9-1.7,1.8-3.4,2.6-5.1
						c0.6,1.4,1.2,2.8,1.9,4.3c-2.8-1-5.6-2.1-8.3-3.1c-6.7-2.5-13.3-5-20-7.5c-8.1-3-16.1-6.1-24.2-9.1c-7-2.6-14-5.3-20.9-7.9
						c-2.3-0.9-4.6-1.7-6.9-2.6c-1.1-0.4-2.2-0.7-3.3-1.2c0,0-0.1,0-0.1-0.1c0.5,0,1,0,1.6,0c-7.2,2.4-14.3,5-21.4,7.7
						c-14.2,5.2-28.2,10.7-42,16.9c-2.1,0.9-3.4,1.5-5.4,2.4c-1.8,0.8-3.6,1.7-5.4,2.6c-3.2,1.6-6.4,3.2-9.6,5
						c0.5-0.9,0.9-1.7,1.4-2.6c0.2,6.5,0.4,13,0.5,19.4c0.3,10.3,0.6,20.5,0.8,30.8c0.1,2.4,0.1,4.7,0.2,7.1c-1-0.9-2-1.9-3-2.8
						c4.9-0.7,9.7-1.3,14.6-2c11.6-1.6,23.1-3.1,34.7-4.7c14-1.9,28-3.8,42-5.6c12.1-1.6,24.2-3.3,36.3-4.9c4-0.5,8-1.1,12-1.6
						c1.9-0.3,3.8-0.6,5.7-0.8c0.1,0,0.2,0,0.3,0c1.6-0.2,3,1.4,3,2.8c0,1.7-1.3,2.8-2.8,3c-4.9,0.7-9.7,1.3-14.6,2
						c-11.6,1.6-23.1,3.1-34.7,4.7c-14,1.9-28,3.8-42,5.6c-12.1,1.6-24.2,3.3-36.3,4.9c-4,0.5-8,1.1-12,1.6
						c-1.9,0.3-3.8,0.6-5.7,0.8c-0.1,0-0.2,0-0.3,0c-1.6,0.2-3-1.4-3-2.8c-0.2-6.5-0.4-13-0.5-19.4c-0.3-10.3-0.6-20.5-0.8-30.8
						c-0.1-2.4-0.1-4.7-0.2-7.1c0-1,0.5-2.1,1.4-2.6c7.5-4.3,15.5-8,23.5-11.5c8.8-3.8,17.6-7.4,26.6-10.9
						c7.6-2.9,15.3-5.8,22.9-8.6c3.9-1.4,7.9-2.9,11.9-4.2c2-0.6,4,0.6,5.8,1.3c4.6,1.7,9.2,3.5,13.7,5.2c13.3,5,26.7,10,40,15.1
						c8.6,3.2,17.2,6.5,25.8,9.7c0.1,0,0.3,0.1,0.4,0.1c1.8,0.7,2.8,2.4,1.9,4.3c-2.4,4.6-4.8,9.2-7.2,13.8
						c-3.8,7.4-7.7,14.8-11.5,22.2c-0.9,1.7-1.8,3.4-2.6,5.1C210.4,323.9,205.3,321.1,207,317.7z"/>
				</g>
				<g>
					<path class="st8" d="M231.2,395.7c2.3-39.1,2.1-78.4-0.4-117.5l-100.1,41.1c0.2,39.5,1.1,79,2.6,118.5L231.2,395.7z"/>
					<path class="st3" d="M228.9,395.7c0.3-15.3,0.7-30.6,0.7-45.9c0-15.3-0.4-30.6-1.1-45.9c-0.4-8.5-0.8-17.1-1.4-25.6
						c1.6,1.1,3.2,2.3,4.8,3.4c-3.3,1.4-6.6,2.8-9.9,4.1c-8,3.3-15.9,6.6-23.9,9.9c-9.6,4-19.3,7.9-28.9,11.9
						c-8.3,3.4-16.7,6.9-25,10.3c-4,1.7-8,3.5-12.1,5c-0.1,0-0.1,0-0.2,0.1c0.9-1.3,1.8-2.6,2.8-3.8c0.2,30.9,0.7,61.8,1.6,92.6
						c0.3,8.6,0.5,17.2,0.9,25.8c-1.6-1.2-3.3-2.4-4.9-3.5c3.2-1.4,6.5-2.8,9.7-4.2c7.8-3.3,15.6-6.7,23.4-10
						c9.4-4,18.9-8,28.3-12.1c8.2-3.5,16.3-6.9,24.5-10.5c3.9-1.7,7.9-3.6,11.9-5c0.1,0,0.1,0,0.2-0.1c1.7-0.7,3.9,0.7,4.4,2.3
						c0.6,2-0.6,3.6-2.3,4.4c-0.1,0-0.1,0-0.2,0.1c-0.3,0.2-0.7,0.1,0.6-0.3c-0.4,0.1-0.7,0.3-1.1,0.5c-0.6,0.3-1.3,0.6-1.9,0.9
						c-2.4,1.1-4.7,2.1-7.1,3.1c-7.8,3.3-15.6,6.7-23.4,10.1c-9.4,4.1-18.8,8.2-28.3,12.2c-8.1,3.5-16.3,7.1-24.4,10.6
						c-3.9,1.7-7.9,3.7-11.9,5.1c-0.1,0-0.1,0-0.2,0.1c-2.3,1-4.8-1.3-4.9-3.5c-1.2-30.9-2-61.7-2.5-92.6
						c-0.1-8.6-0.2-17.2-0.2-25.8c0-1.9,1.1-3.2,2.8-3.8c3.3-1.4,6.6-2.7,10-4.1c8-3.3,15.9-6.5,23.9-9.8
						c9.6-3.9,19.3-7.9,28.9-11.8c8.3-3.4,16.7-6.8,25-10.2c4-1.6,8.1-3.5,12.2-4.9c0.1,0,0.1,0,0.2-0.1c2.3-0.9,4.7,1.2,4.8,3.4
						c1.8,30.6,2.3,61.3,0.7,91.9c-0.4,8.6-0.9,17.1-1.7,25.6c-0.1,1.2-0.9,2.3-2.2,2.3C230.1,398,228.9,397,228.9,395.7z"/>
				</g>
				<g>
					<path class="st7" d="M60.5,395.3c2.1-38.1,2.6-76.3,1.5-114.5l68.7,38.5c0.2,39.5,1.1,79,2.6,118.5L60.5,395.3z"/>
					<path class="st3" d="M58.1,395.3c0.3-14.9,0.8-29.7,1-44.6c0.2-14.9,0.2-29.8,0-44.6c-0.1-8.4-0.3-16.8-0.6-25.2
						c-0.1-2.6,2.8-4.4,5.1-3.1c7.8,4.3,15.5,8.6,23.3,12.9c12.4,6.9,24.7,13.8,37,20.7c2.8,1.6,5.6,3.2,8.4,4.7
						c1.1,0.6,1.8,1.8,1.8,3c0.2,30.9,0.7,61.8,1.7,92.6c0.3,8.6,0.6,17.2,0.9,25.8c0.1,2.6-2.9,4.5-5.2,3.2
						c-2.4-1.4-4.8-2.8-7.2-4.2c-5.8-3.4-11.6-6.7-17.3-10.1c-7-4.1-14-8.2-21-12.3c-6.1-3.6-12.2-7.1-18.2-10.7
						c-2.9-1.7-5.9-3.4-8.8-5.1c0,0-0.1,0-0.1-0.1c-1.6-1-2.3-3.1-1.4-4.8c0.9-1.6,3.1-2.4,4.8-1.4c2.4,1.4,4.8,2.8,7.2,4.2
						c5.8,3.4,11.6,6.7,17.3,10.1c7,4.1,14,8.2,21,12.3c6.1,3.6,12.2,7.1,18.2,10.7c2.9,1.7,6,3.3,8.8,5.1c0,0,0.1,0,0.1,0.1
						c-1.7,1.1-3.5,2.1-5.2,3.2c-1.2-30.9-2-61.7-2.4-92.6c-0.1-8.6-0.2-17.2-0.2-25.8c0.6,1,1.2,2,1.8,3c-7.7-4.3-15.5-8.7-23.2-13
						c-12.3-6.9-24.7-13.8-37-20.8c-2.8-1.6-5.6-3.2-8.4-4.8c1.7-1,3.4-2.1,5.1-3.1c0.7,29.8,0.5,59.5-0.9,89.3
						c-0.4,8.4-0.9,16.8-1.6,25.2c-0.1,1.3-0.9,2.4-2.3,2.5C59.4,397.7,58.1,396.6,58.1,395.3z"/>
				</g>
				<path class="st3" d="M186.3,403.1l-0.4-14.6c0-1.1,0.8-2,1.9-2c1.1,0,2,0.8,2,1.9l0.4,14.6c0,1.1-0.8,2-1.9,2
					C187.3,405,186.4,404.2,186.3,403.1z M185.5,373.8l-0.4-14.6c0-1.1,0.8-2,1.9-2c1.1,0,2,0.8,2,1.9l0.4,14.6c0,1.1-0.8,2-1.9,2
					C186.5,375.8,185.6,374.9,185.5,373.8z M184.7,344.6l-0.4-14.6c0-1.1,0.8-2,1.9-2c1.1,0,2,0.8,2,1.9l0.4,14.6c0,1.1-0.8,2-1.9,2
					C185.7,346.5,184.8,345.7,184.7,344.6z M184,315.3l-0.4-14.6c0-1.1,0.8-2,1.9-2c1.1,0,2,0.8,2,1.9l0.4,14.6c0,1.1-0.8,2-1.9,2
					C184.9,317.2,184,316.4,184,315.3z"/>
			</g>
		</g>
	</g>
	<g>
		<g>
			<g>
				<g>
					<path class="st8" d="M296.2,141.6c-1.4-24.5-2.9-48.9-4.3-73.4L363,92.5l-16.8,35L296.2,141.6z"/>
					<path class="st3" d="M293.2,141.7c-1.1-19-2.2-38-3.3-57.1c-0.3-5.4-0.6-10.9-1-16.3c-0.1-1.7,1.7-3.7,3.6-3.1
						c2.4,0.8,4.7,1.6,7.1,2.4c5.7,1.9,11.3,3.9,17,5.8c6.8,2.3,13.7,4.7,20.5,7c5.9,2,11.8,4,17.8,6.1c2.9,1,5.8,2,8.7,3
						c0,0,0.1,0,0.1,0c1.8,0.6,2.9,2.4,2,4.3c-2.5,5.1-4.9,10.3-7.4,15.4c-3,6.3-6.1,12.6-9.1,18.9c-0.5,1-0.9,1.8-2.1,2.2
						c-0.4,0.2-0.9,0.3-1.4,0.4c-2.6,0.7-5.1,1.4-7.7,2.2c-8.1,2.3-16.2,4.6-24.3,6.8c-5.4,1.5-10.9,3.1-16.3,4.6
						c-0.1,0-0.2,0-0.3,0.1c-1.5,0.4-3.2-0.3-3.8-1.9c-0.5-1.5,0.3-3.3,1.9-3.8c5.7-1.6,11.3-3.2,17-4.8c8.9-2.5,17.9-5,26.8-7.6
						c2.1-0.6,4.1-1.2,6.2-1.8c-0.6,0.5-1.1,1-1.7,1.5c1.9-3.9,3.8-7.9,5.7-11.8c3-6.3,6.1-12.6,9.1-18.9c0.7-1.4,1.4-2.9,2.1-4.3
						c0.7,1.4,1.4,2.8,2,4.3c-2.4-0.8-4.7-1.6-7.1-2.4c-5.7-1.9-11.3-3.9-17-5.8c-6.8-2.3-13.7-4.7-20.5-7c-5.9-2-11.8-4-17.8-6.1
						c-2.9-1-5.9-1.8-8.7-3c0,0-0.1,0-0.1,0c1.2-1,2.4-2.1,3.6-3.1c1.1,19,2.2,38,3.3,57.1c0.3,5.4,0.6,10.9,1,16.3
						c0.1,1.6-1.2,3.1-2.8,3.1C294.7,144.6,293.3,143.3,293.2,141.7z"/>
				</g>
				<g>
					<path class="st7" d="M222,99.7c21.2-13.1,49.2-24.1,69.7-31.7l2.7,49.3c-1.6,1-69.5,30.4-69.5,30.4L222,99.7z"/>
					<path class="st3" d="M221.3,99c0.9-0.8,1.8-1.6,2.7-2.3c1.1-0.8,2.2-1.5,3.4-2.2c2.1-1.3,4.3-2.6,6.5-3.8
						c4.6-2.6,9.2-5,13.9-7.4c9.2-4.6,18.7-8.7,28.3-12.5c4.9-1.9,9.8-3.8,14.7-5.7c1.8-0.7,3.8,0.8,3.9,2.6
						c0.3,5.6,0.6,11.2,1,16.7c0.5,8.8,1,17.6,1.5,26.5c0.1,2,0.2,4.1,0.3,6.1c0.1,1.1-0.5,2.2-1.4,2.7c-0.9,0.6-1.9,0.9-2.9,1.4
						c-1.7,0.8-3.5,1.6-5.2,2.3c-5.6,2.5-11.1,4.9-16.7,7.4c-6.6,2.9-13.2,5.8-19.9,8.7c-5.7,2.5-11.4,5-17.1,7.5
						c-2.8,1.2-5.5,2.6-8.3,3.6c0,0-0.1,0-0.1,0.1c-2,0.9-4.2-0.9-4.3-2.9c-0.3-5.4-0.6-10.8-0.9-16.3c-0.5-8.6-0.9-17.2-1.3-25.8
						c-0.1-2-0.2-4-0.3-5.9c-0.1-1.6,1.2-3.1,2.8-3.2c1.6-0.1,3.1,1.2,3.2,2.8c0.3,5.4,0.7,10.8,1.1,16.3c0.6,8.6,1.1,17.2,1.6,25.8
						c0.1,2,0.2,4,0.3,5.9c-1.4-1-2.9-1.9-4.3-2.9c2.3-1,4.5-1.9,6.8-2.9c5.4-2.3,10.8-4.7,16.2-7c6.6-2.9,13.3-5.7,19.9-8.6
						c5.8-2.5,11.6-5,17.4-7.6c2-0.9,4-1.7,6-2.6c0.7-0.3,1.3-0.6,2-0.9c0.2-0.1,0.4-0.2,0.7-0.3c0.1,0,0.2-0.1,0.3-0.1
						c0.5-0.2-0.3,0.2-0.5,0.2c0.1,0,0.2-0.1,0.2-0.1c-0.5,0.9-0.9,1.8-1.4,2.7c-0.3-5.6-0.6-11.2-0.9-16.7
						c-0.5-8.8-0.9-17.6-1.4-26.5c-0.1-2-0.2-4.1-0.3-6.1c1.3,0.9,2.6,1.7,3.9,2.6C283.7,74,274.8,77.5,266,81
						c-9.6,3.8-19.2,7.9-28.6,12.3c-2.5,1.2-5.1,2.5-7.6,3.8c-1.2,0.6-2.4,1.3-3.7,1.9c-1.3,0.6-2.6,1.1-3.9,1.7
						C221.4,101,220.5,99.7,221.3,99z"/>
				</g>
				<g>
					<path class="st7" d="M255.2,130c5.9-2.3,28.8-12.3,34.7-14.6c0.8-0.3,1.6-0.6,2.5-0.6c0.9,0,1.7,0.5,2.5,0.9
						c3.1,1.7,6.2,3.3,9.4,5l24,15.1l-45.8,32.6l-31.2-33.2L255.2,130z"/>
					<path class="st3" d="M254.8,128.8c11.1-4.6,21.8-9.9,32.9-14.5c1.5-0.6,3-1.4,4.6-1.4c1.3,0,2.4,0.5,3.5,1.1
						c1.3,0.7,2.7,1.4,4,2.1c2.2,1.1,4.4,2.2,6.5,3.5c4.1,2.6,8.2,5.1,12.3,7.7c3.5,2.2,7.1,4.4,10.6,6.6c1.3,0.8,1.6,2.7,0.2,3.6
						c-5.2,3.7-10.3,7.3-15.5,11c-8.2,5.9-16.4,11.7-24.7,17.6c-1.9,1.4-3.8,2.7-5.7,4.1c-0.7,0.5-2,0.5-2.6-0.2
						c-3.5-3.8-7.1-7.5-10.6-11.3c-5.6-5.9-11.2-11.9-16.8-17.8c-1.3-1.4-2.6-2.7-3.9-4.1c-0.9-0.9-1-2.1-0.2-3.1
						c0.7-0.9,1.3-1.7,2-2.6c0.5-0.6,0.9-1.2,1.5-1.7c0.2-0.2,0.3-0.3,0.5-0.5c0.2-0.1,0.7-0.7,0.3-0.3c-0.3,0.2-0.2,0.1-0.1,0.1
						c1.6-2,4.6,0.6,3,2.7c0,0-0.1,0.1-0.1,0.1c0.2-0.3,0.3-0.6,0.5-0.9c-0.7,2.3-2.8,4.2-4.2,6.1c-0.1-1-0.1-2.1-0.2-3.1
						c3.5,3.8,7.1,7.5,10.6,11.3c5.6,6,11.2,11.9,16.8,17.9c1.3,1.4,2.6,2.7,3.8,4.1c-0.9-0.1-1.8-0.1-2.6-0.2
						c5.2-3.7,10.3-7.3,15.5-11c8.2-5.8,16.5-11.7,24.7-17.5c1.9-1.3,3.8-2.7,5.7-4c0.1,1.2,0.1,2.4,0.2,3.6
						c-7.2-4.5-14.4-9.1-21.6-13.7c-1-0.6-2-1.3-3-1.9c-2.5-1.3-5-2.7-7.6-4c-0.9-0.5-1.9-1.3-3-1.3c-0.8,0-1.5,0.4-2.2,0.7
						c-5.5,2.2-10.9,4.5-16.3,6.7c-6,2.4-11.9,4.9-18,7.1C254,131.9,253.2,129.4,254.8,128.8z"/>
				</g>
				<g>
					<path class="st8" d="M366.3,191.1c0.9-32.8-0.3-65.7-3.4-98.5l-82.8,37.1c1.2,33.1,3,66.2,5.3,99.2L366.3,191.1z"/>
					<path class="st3" d="M364.4,191.2c-0.1-12.8-0.2-25.7-0.6-38.5c-0.4-12.8-1.2-25.7-2.1-38.5c-0.5-7.1-1.1-14.3-1.9-21.4
						c1.4,0.9,2.7,1.8,4.1,2.8c-2.7,1.2-5.5,2.5-8.2,3.7c-6.6,3-13.2,5.9-19.8,8.9c-8,3.6-15.9,7.2-23.9,10.7
						c-6.9,3.1-13.8,6.2-20.7,9.3c-3.3,1.5-6.6,3.2-10.1,4.5c0,0-0.1,0-0.1,0.1c0.7-1.1,1.5-2.2,2.2-3.3c1,25.9,2.2,51.8,3.8,77.6
						c0.4,7.2,0.9,14.4,1.4,21.6c-1.4-0.9-2.8-1.9-4.2-2.8c2.7-1.2,5.4-2.5,8-3.7c6.4-3,12.9-6,19.3-9c7.8-3.6,15.6-7.2,23.4-10.9
						c6.7-3.1,13.5-6.3,20.2-9.4c3.3-1.5,6.5-3.3,9.9-4.5c0,0,0.1,0,0.1-0.1c1.4-0.7,3.2,0.5,3.7,1.8c0.6,1.6-0.4,3-1.8,3.7
						c0,0-0.1,0-0.1,0.1c-0.3,0.1-0.6,0.1,0.5-0.2c-0.3,0.1-0.6,0.3-0.9,0.4c-0.5,0.3-1.1,0.5-1.6,0.8c-1.9,1-3.9,1.9-5.9,2.8
						c-6.4,3-12.9,6-19.3,9.1c-7.8,3.7-15.6,7.3-23.4,11c-6.7,3.2-13.5,6.3-20.2,9.5c-3.3,1.5-6.5,3.3-9.8,4.6c0,0-0.1,0-0.1,0.1
						c-1.9,0.9-4.1-1-4.2-2.8c-1.8-25.8-3.3-51.7-4.5-77.6c-0.3-7.2-0.6-14.4-0.9-21.7c-0.1-1.6,0.9-2.7,2.2-3.3
						c2.7-1.2,5.5-2.4,8.2-3.7c6.6-2.9,13.2-5.9,19.8-8.8c8-3.6,16-7.1,23.9-10.7c6.9-3.1,13.8-6.2,20.7-9.2
						c3.3-1.5,6.7-3.1,10.1-4.5c0,0,0.1,0,0.1-0.1c1.9-0.9,3.9,0.9,4.1,2.8c2.3,25.6,3.5,51.3,3,77c-0.1,7.2-0.3,14.4-0.8,21.5
						c-0.1,1-0.7,1.9-1.8,2C365.4,193,364.4,192.2,364.4,191.2z"/>
				</g>
				<g>
					<path class="st7" d="M223.3,195.2c0.7-32,0.2-64-1.7-96l58.6,30.5c1.2,33.1,3,66.2,5.3,99.2L223.3,195.2z"/>
					<path class="st3" d="M221.2,195.3c-0.2-12.5-0.1-24.9-0.3-37.4c-0.2-12.5-0.6-25-1.1-37.4c-0.3-7-0.7-14.1-1.1-21.1
						c-0.1-2.2,2.2-3.7,4.2-2.7c6.6,3.4,13.2,6.8,19.8,10.2c10.5,5.4,21,10.9,31.5,16.4c2.4,1.2,4.8,2.5,7.2,3.7
						c0.9,0.5,1.6,1.4,1.6,2.5c0.9,25.9,2.2,51.8,3.8,77.6c0.5,7.2,0.9,14.4,1.4,21.6c0.2,2.2-2.3,3.9-4.3,2.8
						c-2.1-1.1-4.1-2.2-6.2-3.3c-4.9-2.7-9.9-5.4-14.8-8c-6-3.2-11.9-6.5-17.9-9.7c-5.2-2.8-10.4-5.6-15.6-8.4
						c-2.5-1.4-5.1-2.7-7.5-4.1c0,0-0.1,0-0.1-0.1c-1.4-0.8-2-2.5-1.3-4c0.7-1.4,2.6-2.1,4-1.3c2.1,1.1,4.1,2.2,6.2,3.3
						c4.9,2.7,9.9,5.4,14.8,8c6,3.2,11.9,6.5,17.9,9.7c5.2,2.8,10.4,5.6,15.6,8.4c2.5,1.4,5.1,2.6,7.5,4.1c0,0,0.1,0,0.1,0.1
						c-1.4,0.9-2.9,1.9-4.3,2.8c-1.8-25.8-3.3-51.7-4.4-77.6c-0.3-7.2-0.6-14.4-0.9-21.7c0.5,0.8,1.1,1.6,1.6,2.5
						c-6.6-3.4-13.2-6.9-19.8-10.3c-10.5-5.5-21-11-31.5-16.5c-2.4-1.3-4.8-2.5-7.2-3.8c1.4-0.9,2.8-1.8,4.2-2.7
						c1.4,24.9,2,49.9,1.6,74.9c-0.1,7.1-0.3,14.1-0.7,21.2c-0.1,1.1-0.7,2.1-1.9,2.1C222.3,197.3,221.3,196.4,221.2,195.3z"/>
				</g>
				<path class="st3" d="M328.9,198.5l-0.7-12.3c-0.1-0.9,0.6-1.7,1.5-1.7c0.9-0.1,1.7,0.6,1.7,1.5l0.7,12.3
					c0.1,0.9-0.6,1.7-1.5,1.7C329.7,200.1,328.9,199.4,328.9,198.5z M327.5,174l-0.7-12.3c-0.1-0.9,0.6-1.7,1.5-1.7
					c0.9-0.1,1.7,0.6,1.7,1.5l0.7,12.3c0.1,0.9-0.6,1.7-1.5,1.7C328.3,175.6,327.5,174.9,327.5,174z M326,149.5l-0.7-12.3
					c-0.1-0.9,0.6-1.7,1.5-1.7c0.9-0.1,1.7,0.6,1.7,1.5l0.7,12.3c0.1,0.9-0.6,1.7-1.5,1.7C326.9,151,326.1,150.4,326,149.5z
					 M324.6,124.9l-0.7-12.3c-0.1-0.9,0.6-1.7,1.5-1.7c0.9-0.1,1.7,0.6,1.7,1.5l0.7,12.3c0.1,0.9-0.6,1.7-1.5,1.7
					C325.4,126.5,324.6,125.8,324.6,124.9z"/>
			</g>
		</g>
	</g>
	<g>
		<g>
			<g>
				<g>
					<path class="st6" d="M209.2,195.6c-1.4-24.5-2.9-48.9-4.3-73.4l71.1,24.3l-16.8,35L209.2,195.6z"/>
					<path class="st3" d="M206.2,195.7c-1.1-19-2.2-38-3.3-57.1c-0.3-5.4-0.6-10.9-1-16.3c-0.1-1.7,1.7-3.7,3.6-3.1
						c2.4,0.8,4.7,1.6,7.1,2.4c5.7,1.9,11.3,3.9,17,5.8c6.8,2.3,13.7,4.7,20.5,7c5.9,2,11.8,4,17.8,6.1c2.9,1,5.8,2,8.7,3
						c0,0,0.1,0,0.1,0c1.8,0.6,2.9,2.4,2,4.3c-2.5,5.1-4.9,10.3-7.4,15.4c-3,6.3-6.1,12.6-9.1,18.9c-0.5,1-0.9,1.8-2.1,2.2
						c-0.4,0.2-0.9,0.3-1.4,0.4c-2.6,0.7-5.1,1.4-7.7,2.2c-8.1,2.3-16.2,4.6-24.3,6.8c-5.4,1.5-10.9,3.1-16.3,4.6
						c-0.1,0-0.2,0-0.3,0.1c-1.5,0.4-3.2-0.3-3.8-1.9c-0.5-1.5,0.3-3.3,1.9-3.8c5.7-1.6,11.3-3.2,17-4.8c8.9-2.5,17.9-5,26.8-7.6
						c2.1-0.6,4.1-1.2,6.2-1.8c-0.6,0.5-1.1,1-1.7,1.5c1.9-3.9,3.8-7.9,5.7-11.8c3-6.3,6.1-12.6,9.1-18.9c0.7-1.4,1.4-2.9,2.1-4.3
						c0.7,1.4,1.4,2.8,2,4.3c-2.4-0.8-4.7-1.6-7.1-2.4c-5.7-1.9-11.3-3.9-17-5.8c-6.8-2.3-13.7-4.7-20.5-7c-5.9-2-11.8-4-17.8-6.1
						c-2.9-1-5.9-1.8-8.7-3c0,0-0.1,0-0.1,0c1.2-1,2.4-2.1,3.6-3.1c1.1,19,2.2,38,3.3,57.1c0.3,5.4,0.6,10.9,1,16.3
						c0.1,1.6-1.2,3.1-2.8,3.1C207.7,198.6,206.3,197.3,206.2,195.7z"/>
				</g>
				<g>
					<path class="st5" d="M135,153.7c21.2-13.1,49.2-24.1,69.7-31.7l2.7,49.3c-1.6,1-69.5,30.4-69.5,30.4L135,153.7z"/>
					<path class="st3" d="M134.3,153c0.9-0.8,1.8-1.6,2.7-2.3c1.1-0.8,2.2-1.5,3.4-2.2c2.1-1.3,4.3-2.6,6.5-3.8
						c4.6-2.6,9.2-5,13.9-7.4c9.2-4.6,18.7-8.7,28.3-12.5c4.9-1.9,9.8-3.8,14.7-5.7c1.8-0.7,3.8,0.8,3.9,2.6
						c0.3,5.6,0.6,11.2,1,16.7c0.5,8.8,1,17.6,1.5,26.5c0.1,2,0.2,4.1,0.3,6.1c0.1,1.1-0.5,2.2-1.4,2.7c-0.9,0.6-1.9,0.9-2.9,1.4
						c-1.7,0.8-3.5,1.6-5.2,2.3c-5.6,2.5-11.1,4.9-16.7,7.4c-6.6,2.9-13.2,5.8-19.9,8.7c-5.7,2.5-11.4,5-17.1,7.5
						c-2.8,1.2-5.5,2.6-8.3,3.6c0,0-0.1,0-0.1,0.1c-2,0.9-4.2-0.9-4.3-2.9c-0.3-5.4-0.6-10.8-0.9-16.3c-0.5-8.6-0.9-17.2-1.3-25.8
						c-0.1-2-0.2-4-0.3-5.9c-0.1-1.6,1.2-3.1,2.8-3.2c1.6-0.1,3.1,1.2,3.2,2.8c0.3,5.4,0.7,10.8,1.1,16.3c0.6,8.6,1.1,17.2,1.6,25.8
						c0.1,2,0.2,4,0.3,5.9c-1.4-1-2.9-1.9-4.3-2.9c2.3-1,4.5-1.9,6.8-2.9c5.4-2.3,10.8-4.7,16.2-7c6.6-2.9,13.3-5.7,19.9-8.6
						c5.8-2.5,11.6-5,17.4-7.6c2-0.9,4-1.7,6-2.6c0.7-0.3,1.3-0.6,2-0.9c0.2-0.1,0.4-0.2,0.7-0.3c0.1,0,0.2-0.1,0.3-0.1
						c0.5-0.2-0.3,0.2-0.5,0.2c0.1,0,0.2-0.1,0.2-0.1c-0.5,0.9-0.9,1.8-1.4,2.7c-0.3-5.6-0.6-11.2-0.9-16.7
						c-0.5-8.8-0.9-17.6-1.4-26.5c-0.1-2-0.2-4.1-0.3-6.1c1.3,0.9,2.6,1.7,3.9,2.6c-8.9,3.3-17.8,6.8-26.6,10.3
						c-9.6,3.8-19.2,7.9-28.6,12.3c-2.5,1.2-5.1,2.5-7.6,3.8c-1.2,0.6-2.4,1.3-3.7,1.9c-1.3,0.6-2.6,1.1-3.9,1.7
						C134.4,155,133.5,153.7,134.3,153z"/>
				</g>
				<g>
					<path class="st5" d="M168.2,184c5.9-2.3,28.8-12.3,34.7-14.6c0.8-0.3,1.6-0.6,2.5-0.6c0.9,0,1.7,0.5,2.5,0.9
						c3.1,1.7,6.2,3.3,9.4,5l24,15.1l-45.8,32.6l-31.2-33.2L168.2,184z"/>
					<path class="st3" d="M167.8,182.8c11.1-4.6,21.8-9.9,32.9-14.5c1.5-0.6,3-1.4,4.6-1.4c1.3,0,2.4,0.5,3.5,1.1
						c1.3,0.7,2.7,1.4,4,2.1c2.2,1.1,4.4,2.2,6.5,3.5c4.1,2.6,8.2,5.1,12.3,7.7c3.5,2.2,7.1,4.4,10.6,6.6c1.3,0.8,1.6,2.7,0.2,3.6
						c-5.2,3.7-10.3,7.3-15.5,11c-8.2,5.9-16.4,11.7-24.7,17.6c-1.9,1.4-3.8,2.7-5.7,4.1c-0.7,0.5-2,0.5-2.6-0.2
						c-3.5-3.8-7.1-7.5-10.6-11.3c-5.6-5.9-11.2-11.9-16.8-17.8c-1.3-1.4-2.6-2.7-3.9-4.1c-0.9-0.9-1-2.1-0.2-3.1
						c0.7-0.9,1.3-1.7,2-2.6c0.5-0.6,0.9-1.2,1.5-1.7c0.2-0.2,0.3-0.3,0.5-0.5c0.2-0.1,0.7-0.7,0.3-0.3c-0.3,0.2-0.2,0.1-0.1,0.1
						c1.6-2,4.6,0.6,3,2.7c0,0-0.1,0.1-0.1,0.1c0.2-0.3,0.3-0.6,0.5-0.9c-0.7,2.3-2.8,4.2-4.2,6.1c-0.1-1-0.1-2.1-0.2-3.1
						c3.5,3.8,7.1,7.5,10.6,11.3c5.6,6,11.2,11.9,16.8,17.9c1.3,1.4,2.6,2.7,3.8,4.1c-0.9-0.1-1.8-0.1-2.6-0.2
						c5.2-3.7,10.3-7.3,15.5-11c8.2-5.8,16.5-11.7,24.7-17.5c1.9-1.3,3.8-2.7,5.7-4c0.1,1.2,0.1,2.4,0.2,3.6
						c-7.2-4.5-14.4-9.1-21.6-13.7c-1-0.6-2-1.3-3-1.9c-2.5-1.3-5-2.7-7.6-4c-0.9-0.5-1.9-1.3-3-1.3c-0.8,0-1.5,0.4-2.2,0.7
						c-5.5,2.2-10.9,4.5-16.3,6.7c-6,2.4-11.9,4.9-18,7.1C167,185.9,166.2,183.4,167.8,182.8z"/>
				</g>
				<g>
					<path class="st6" d="M279.3,245.1c0.9-32.8-0.3-65.7-3.4-98.5l-82.8,37.1c1.2,33.1,3,66.2,5.3,99.2L279.3,245.1z"/>
					<path class="st3" d="M277.4,245.2c-0.1-12.8-0.2-25.7-0.6-38.5c-0.4-12.8-1.2-25.7-2.1-38.5c-0.5-7.1-1.1-14.3-1.9-21.4
						c1.4,0.9,2.7,1.8,4.1,2.8c-2.7,1.2-5.5,2.5-8.2,3.7c-6.6,3-13.2,5.9-19.8,8.9c-8,3.6-15.9,7.2-23.9,10.7
						c-6.9,3.1-13.8,6.2-20.7,9.3c-3.3,1.5-6.6,3.2-10.1,4.5c0,0-0.1,0-0.1,0.1c0.7-1.1,1.5-2.2,2.2-3.3c1,25.9,2.2,51.8,3.8,77.6
						c0.4,7.2,0.9,14.4,1.4,21.6c-1.4-0.9-2.8-1.9-4.2-2.8c2.7-1.2,5.4-2.5,8-3.7c6.4-3,12.9-6,19.3-9c7.8-3.6,15.6-7.2,23.4-10.9
						c6.7-3.1,13.5-6.3,20.2-9.4c3.3-1.5,6.5-3.3,9.9-4.5c0,0,0.1,0,0.1-0.1c1.4-0.7,3.2,0.5,3.7,1.8c0.6,1.6-0.4,3-1.8,3.7
						c0,0-0.1,0-0.1,0.1c-0.3,0.1-0.6,0.1,0.5-0.2c-0.3,0.1-0.6,0.3-0.9,0.4c-0.5,0.3-1.1,0.5-1.6,0.8c-1.9,1-3.9,1.9-5.9,2.8
						c-6.4,3-12.9,6-19.3,9.1c-7.8,3.7-15.6,7.3-23.4,11c-6.7,3.2-13.5,6.3-20.2,9.5c-3.3,1.5-6.5,3.3-9.8,4.6c0,0-0.1,0-0.1,0.1
						c-1.9,0.9-4.1-1-4.2-2.8c-1.8-25.8-3.3-51.7-4.5-77.6c-0.3-7.2-0.6-14.4-0.9-21.7c-0.1-1.6,0.9-2.7,2.2-3.3
						c2.7-1.2,5.5-2.4,8.2-3.7c6.6-2.9,13.2-5.9,19.8-8.8c8-3.6,16-7.1,23.9-10.7c6.9-3.1,13.8-6.2,20.7-9.2
						c3.3-1.5,6.7-3.1,10.1-4.5c0,0,0.1,0,0.1-0.1c1.9-0.9,3.9,0.9,4.1,2.8c2.3,25.6,3.5,51.3,3,77c-0.1,7.2-0.3,14.4-0.8,21.5
						c-0.1,1-0.7,1.9-1.8,2C278.4,247,277.4,246.2,277.4,245.2z"/>
				</g>
				<g>
					<path class="st5" d="M136.3,249.2c0.7-32,0.2-64-1.7-96l58.6,30.5c1.2,33.1,3,66.2,5.3,99.2L136.3,249.2z"/>
					<path class="st3" d="M134.2,249.3c-0.2-12.5-0.1-24.9-0.3-37.4c-0.2-12.5-0.6-25-1.1-37.4c-0.3-7-0.7-14.1-1.1-21.1
						c-0.1-2.2,2.2-3.7,4.2-2.7c6.6,3.4,13.2,6.8,19.8,10.2c10.5,5.4,21,10.9,31.5,16.4c2.4,1.2,4.8,2.5,7.2,3.7
						c0.9,0.5,1.6,1.4,1.6,2.5c0.9,25.9,2.2,51.8,3.8,77.6c0.5,7.2,0.9,14.4,1.4,21.6c0.2,2.2-2.3,3.9-4.3,2.8
						c-2.1-1.1-4.1-2.2-6.2-3.3c-4.9-2.7-9.9-5.4-14.8-8c-6-3.2-11.9-6.5-17.9-9.7c-5.2-2.8-10.4-5.6-15.6-8.4
						c-2.5-1.4-5.1-2.7-7.5-4.1c0,0-0.1,0-0.1-0.1c-1.4-0.8-2-2.5-1.3-4c0.7-1.4,2.6-2.1,4-1.3c2.1,1.1,4.1,2.2,6.2,3.3
						c4.9,2.7,9.9,5.4,14.8,8c6,3.2,11.9,6.5,17.9,9.7c5.2,2.8,10.4,5.6,15.6,8.4c2.5,1.4,5.1,2.6,7.5,4.1c0,0,0.1,0,0.1,0.1
						c-1.4,0.9-2.9,1.9-4.3,2.8c-1.8-25.8-3.3-51.7-4.4-77.6c-0.3-7.2-0.6-14.4-0.9-21.7c0.5,0.8,1.1,1.6,1.6,2.5
						c-6.6-3.4-13.2-6.9-19.8-10.3c-10.5-5.5-21-11-31.5-16.5c-2.4-1.3-4.8-2.5-7.2-3.8c1.4-0.9,2.8-1.8,4.2-2.7
						c1.4,24.9,2,49.9,1.6,74.9c-0.1,7.1-0.3,14.1-0.7,21.2c-0.1,1.1-0.7,2.1-1.9,2.1C135.3,251.3,134.3,250.4,134.2,249.3z"/>
				</g>
				<path class="st3" d="M241.9,252.5l-0.7-12.3c-0.1-0.9,0.6-1.7,1.5-1.7s1.7,0.6,1.7,1.5l0.7,12.3c0.1,0.9-0.6,1.7-1.5,1.7
					S241.9,253.4,241.9,252.5z M240.5,228l-0.7-12.3c-0.1-0.9,0.6-1.7,1.5-1.7s1.7,0.6,1.7,1.5l0.7,12.3c0.1,0.9-0.6,1.7-1.5,1.7
					S240.5,228.9,240.5,228z M239,203.5l-0.7-12.3c-0.1-0.9,0.6-1.7,1.5-1.7c0.9-0.1,1.7,0.6,1.7,1.5l0.7,12.3
					c0.1,0.9-0.6,1.7-1.5,1.7C239.9,205,239.1,204.4,239,203.5z M237.6,178.9l-0.7-12.3c-0.1-0.9,0.6-1.7,1.5-1.7
					c0.9-0.1,1.7,0.6,1.7,1.5l0.7,12.3c0.1,0.9-0.6,1.7-1.5,1.7C238.4,180.5,237.6,179.8,237.6,178.9z"/>
			</g>
		</g>
	</g>
	<path class="st4" d="M367,79.8c3.4-5.8,6.7-11.7,10.1-17.5c0.8-1.5,0.4-3.6-1.2-4.5c-1.6-0.8-3.6-0.4-4.5,1.2
		c-3.4,5.8-6.7,11.7-10.1,17.5c-0.8,1.5-0.4,3.6,1.2,4.5C364,81.8,366,81.3,367,79.8L367,79.8z"/>
	<path class="st4" d="M374.7,89c6.2-2.2,12.3-4.8,18.2-7.7c1.5-0.8,2.1-3.1,1.2-4.5c-1-1.6-2.8-2-4.5-1.2c-2.8,1.4-5.6,2.7-8.4,3.9
		c0.5-0.2-0.3,0.1-0.4,0.2c-0.4,0.2-0.8,0.3-1.2,0.5c-0.7,0.3-1.4,0.6-2.2,0.9c-1.4,0.6-2.9,1.1-4.3,1.6c-1.6,0.6-2.9,2.2-2.3,4
		C371.1,88.3,372.9,89.7,374.7,89L374.7,89z"/>
	<path class="st4" d="M376.3,102.4c7.2-0.1,14.5-0.3,21.7-0.4c1.7,0,3.3-1.5,3.3-3.3c-0.1-1.7-1.4-3.3-3.3-3.3
		c-7.2,0.1-14.5,0.3-21.7,0.4c-1.7,0-3.3,1.5-3.3,3.3C373.1,100.9,374.5,102.5,376.3,102.4L376.3,102.4z"/>
	<path class="st4" d="M89.3,196.8c-7.4-0.7-14.7-1.4-22.1-2.1c-1.9-0.2-3.7,1.8-3.6,3.6c0.1,2.1,1.6,3.4,3.6,3.6
		c7.4,0.7,14.7,1.4,22.1,2.1c1.9,0.2,3.7-1.8,3.6-3.6C92.8,198.3,91.3,197,89.3,196.8L89.3,196.8z"/>
	<path class="st4" d="M95.2,184.7c-4.8-5-10-9.7-15.3-14.1c-0.8-0.6-1.5-1.1-2.5-1.1c-0.9,0-1.9,0.4-2.5,1.1c-1.2,1.3-1.5,3.8,0,5.1
		c5.4,4.4,10.5,9.1,15.3,14.1c1.3,1.3,3.8,1.4,5.1,0C96.5,188.3,96.6,186.1,95.2,184.7L95.2,184.7z"/>
	<path class="st4" d="M107.9,176.9c-3.4-7.2-6.8-14.4-10.3-21.5c-0.8-1.7-3.4-2.3-4.9-1.3c-1.7,1.1-2.2,3.1-1.3,4.9
		c3.4,7.2,6.8,14.4,10.3,21.5c0.8,1.7,3.4,2.3,4.9,1.3C108.4,180.6,108.8,178.7,107.9,176.9L107.9,176.9z"/>
</g>
</svg>
