<?xml version="1.0" encoding="utf-8"?>
<!-- Generator: Adobe Illustrator 23.0.3, SVG Export Plug-In . SVG Version: 6.00 Build 0)  -->
<svg version="1.1" id="Layer_1" xmlns="http://www.w3.org/2000/svg" xmlns:xlink="http://www.w3.org/1999/xlink" x="0px" y="0px"
	 viewBox="0 0 500 500" style="enable-background:new 0 0 500 500;" xml:space="preserve">
<style type="text/css">
	.st0{fill:#FFFFFF;}
	.st1{fill:#D3D0CD;}
	.st2{fill:#92BB00;}
	.st3{fill:#427B21;}
	.st4{fill:#2B3139;}
</style>
<path class="st0" d="M495.35,206.17c-1.33-21.25-9.55-42.71-16.56-59.03c-4.59-10.7-9.33-19.81-14.49-27.86
	c-2.8-4.37-5.78-8.68-8.87-12.8c-0.34-0.45-0.68-0.96-1.05-1.49c-2.6-3.76-6.53-9.45-13.32-12.27c-2.6-1.08-5.4-1.62-8.32-1.62
	c-8.11,0-15.19,4.18-20.35,7.23c-1.07,0.63-2.17,1.28-2.78,1.58c-1.42,0.7-2.89,1.41-4.38,2.12c-9.15,4.38-19.52,9.35-27.35,17.86
	c-1.44,1.55-2.53,3.33-3.28,5.22c-3.8,0.95-7.43,1.82-10.87,2.31c-6.18,0.88-12.82,1.3-20.3,1.3c-3.14,0-6.39-0.07-9.91-0.23
	c-8.75-0.38-17.41-1.27-26.57-2.21l-6.13-0.63c-3.9-0.41-8.33-0.87-13.04-0.87c-5.24,0-9.87,0.63-14.01,1.86
	c-11.88,1.24-22.96,6.88-30.59,10.78c-1.3,0.66-2.58,1.34-3.85,2.03c-0.85-0.03-1.7-0.06-2.55-0.06c-12.92,0-24.53,2.82-35.76,5.55
	c-7.91,1.92-15.37,3.73-22.89,4.46c-1.79,0.17-3.53,0.26-5.19,0.26c-6.49,0-12.09-1.33-17.12-4.07c-2.49-1.35-5.07-3.09-7.8-4.92
	c-1.06-0.71-2.16-1.45-3.29-2.19c-1.55-8.73-6.69-16.03-9.69-20.29c-6.7-9.5-13.92-16.52-22.07-21.47c-0.43-0.26-0.87-0.5-1.31-0.72
	c-3.25-2.19-7.14-3.46-11.2-3.46c-4.66,0-9.21,1.7-12.81,4.78c-26.37,22.51-45.94,51.85-61.61,92.35
	c-3.07,7.94-6.83,16.38-11.84,26.55c-0.34,0.68-1.09,1.95-1.82,3.17c-4.29,7.18-10.77,18.03-6.31,29.47
	c4.09,10.46,15.05,15.82,22.31,19.37c0.61,0.3,1.18,0.58,1.68,0.83c8.99,4.54,17.29,7.28,25.82,8.49c1.82,0.57,3.74,0.88,5.69,0.88
	c0,0,0,0,0,0c4.64,0,8.93-1.69,12.25-4.68c5.82,3.91,11.37,8.31,16.7,13.07c-4.01,8.5-4.66,17.79-1.81,27.18
	c3.2,10.57,10.67,18.56,20.36,22.48c0.01,1.57,0.14,3.18,0.43,4.83c2.52,14.2,13.45,24.85,27.87,28.11
	c0.59,3.56,1.73,7.18,3.57,10.85c5.35,10.62,15.82,17.24,28.36,18.09c2.19,6.06,6.06,10.17,9.14,12.66
	c6.45,5.21,14.66,8.08,23.12,8.08c0,0,0,0,0,0c8.6,0,16.92-2.92,23.53-8c7.41,2.64,16.09,4.99,24.38,4.99c0,0,0,0,0,0
	c9.55,0,17.44-3.08,23.07-8.72c3.6,0.68,6.92,1.02,10.05,1.02c8.03,0,15-2.17,20.71-6.44c4.34-3.25,7.37-7.31,9.52-11.66
	c4.26,1.77,9.66,3.32,15.49,3.32c6.1,0,11.77-1.74,16.38-5.03c7.59-5.41,11.17-13.91,12.77-22.05c0.26-0.03,0.52-0.05,0.78-0.09
	c7.22-1.07,14.58-3.89,22.52-8.62c0.41-0.25,0.85-0.5,1.3-0.77c5.12-3,12.86-7.52,16.9-15.13c4.39-8.27,3.1-17.24,2.25-23.19
	c-0.08-0.56-0.16-1.11-0.23-1.64c-0.53-3.98-1.25-7.69-2.15-11.17c7.33-6.93,14.39-14.88,21.05-23.69
	c7.19-9.55,13.67-19.76,19.28-30.37c0.35-0.67,0.78-1.43,1.23-2.23c0.29,0.01,0.57,0.04,0.86,0.04c0.37,0,0.74-0.02,1.11-0.05
	c0.08,0,0.17-0.01,0.25-0.01c0.1-0.01,0.2-0.02,0.31-0.03c2.23-0.17,4.38-0.72,6.38-1.62c9.82-3.43,18.89-7.82,26.96-13.09
	c0.54-0.35,1.1-0.7,1.65-1.06C484.35,229.71,496.34,222.09,495.35,206.17z"/>
<g>
	<g>
		<path class="st0" d="M232.54,186.71c14.04-11.88,32.34-18.62,50.73-18.68c11.04-0.04,21.95,2.24,32.92,3.5
			c23.13,2.66,46.78,0.76,69.19-5.58c2.58-0.73,5.39-1.51,7.88-0.51c1.55,0.62,2.77,1.86,3.88,3.1
			c10.9,12.17,17.06,28.46,16.95,44.79c-0.02,2.59-0.19,5.21-0.9,7.71c-1.22,4.24-3.92,7.88-6.57,11.42
			c-15.39,20.55-30.79,41.1-46.17,61.65c-1,1.34-2.05,2.81-2.07,4.48c-0.02,1.7,1.01,3.2,1.93,4.63c3.86,5.97,6.37,13.9,2.78,20.03
			c-4.14,7.1-13.79,7.99-21.23,11.49c-6.1,2.87-11.12,7.96-13.92,14.1c-2.33,5.11-4.06,11.79-9.54,13.08
			c-6.34,1.48-11.62-5.91-18.14-6.11c-12.28-0.37-14.4,22.51-26.68,22.71c-6.43,0.1-13.45-6.5-18.33-2.32
			c-0.8,0.69-1.38,1.6-2.13,2.36c-3.67,3.74-9.89,2.75-14.81,0.98c-14.88-5.33-27.77-15.15-39.11-26.16
			c-19.58-19.02-35.55-42.72-41-69.46c-5.46-26.75,0.87-56.68,20.21-75.94c6.24-6.21,13.62-11.18,21.25-15.56
			c34.3-19.64,75.77-27.67,114.3-18.87"/>
		<path class="st0" d="M233.28,189.41c2.97-0.8,6.04-1.14,8.93-2.1c3.47-1.15,6.97-2.15,10.45-3.23c6.2-1.93,12.83-3.27,19.29-3.95
			c15.32-1.59,30.91,2.53,46.06,4.28c16.44,1.89,32.89,1.06,49.21-1.45c3.63-0.56,7.24-1.23,10.84-2.01
			c1.38-0.3,12.25-2.39,12.27-3.11c0.01-0.39-3.14-0.62-3.07-1.19c-0.07,0.55,2.57,2.89,2.97,3.42c1.95,2.56,3.64,5.47,5.13,8.33
			c5.12,9.84,9.13,24.46,3.08,33.56c-8.88,13.36-19.37,25.81-28.87,38.74c-4.94,6.71-9.88,13.43-14.81,20.15
			c-5.07,6.89-10.96,13.7-8.02,22.9c1.16,3.62,3.75,6.34,5.12,9.81c0.22,0.55,0.64,2.05,0.76,2.91c-0.14-1.07,0.01,2.24-0.1,0.75
			c-0.02-0.23,0.43-0.3,0.48-0.49c-0.04,0.15-1.69,1.63-0.31,0.56c-0.98,0.77-2.18,1.35-3.29,1.88c1.16-0.55-1.61,0.61-2.01,0.76
			c-1.47,0.53-2.96,1.03-4.44,1.57c-6.82,2.52-13.15,5.84-18.14,11.27c-2.43,2.65-4.73,5.66-6.36,8.87
			c-0.85,1.69-1.55,3.48-2.28,5.22c-0.24,0.58-0.46,1.17-0.71,1.74c-0.81,1.9,0.59-1.14-0.31,0.71c-0.42,0.87-1.23,2.46-1.27,2.43
			c-0.64-0.64,4.37-1.08,4.1-1c-0.96,0.29-0.76-0.17-1.66-0.65c-1.31-0.7-2.54-1.51-3.86-2.21c-5.98-3.17-12.53-4.82-19.1-2.59
			c-5.88,1.99-9.94,6.32-13.5,11.21c-1.17,1.62-2.23,3.31-3.3,4.99c-0.63,0.99-1.26,1.98-1.91,2.95c-0.27,0.41-0.56,0.8-0.84,1.22
			c-0.96,1.39,1.21-1.27,0.06-0.1c-0.3,0.3-2.19,2.28-1.07,1.3c1.32-1.16-1.4,1.75-0.34,0.27c1.09-1.52-0.95,0.99,0.44-0.17
			c0.29-0.25,0.84-0.1,1.17,0.03c-1.48-0.57-3.08-0.9-4.57-1.45c-7.23-2.68-14.87-3.66-21.31,1.5c-0.87,0.7-2.87,2.92-3.15,3.1
			c1.12-0.76,0.7-0.35,0.48-0.72c-0.13-0.22-5.61-1.62-7.27-2.35c-6.23-2.71-12.15-6.42-17.6-10.45
			c-10.64-7.89-20.29-17.86-28.45-28.27c-16-20.44-26.13-45.31-23.86-71.24c1-11.44,5.08-23.2,11.69-33.01
			c7.24-10.74,18.59-18.02,29.9-24.08c24.64-13.19,53.01-20.02,80.98-18.18c6.74,0.44,13.35,1.5,19.94,3
			c6.17,1.41,12.7-1.89,14.43-8.2c1.61-5.85-1.97-13.09-8.2-14.43c-32.28-6.97-66.34-4.08-97.12,7.83
			c-15.56,6.02-30.61,13.67-43.63,24.19c-12.07,9.76-20.62,22.77-25.95,37.27c-10.85,29.56-5.34,62.47,9.35,89.65
			c7.47,13.81,17.37,26.46,28.37,37.62c11.1,11.25,23.8,21.78,38.28,28.36c7.85,3.57,16.07,6.75,24.84,5.05
			c3.21-0.63,8.93-2.87,10.67-6c1.33-2.4-2.72,1.48-3.01,0.27c0.08,0.31,4.69,1.65,5.09,1.8c6.72,2.42,14.14,2.7,20.42-1.16
			c5.11-3.13,8.62-8.04,11.8-13c1.26-1.96,2.47-3.95,3.83-5.85c0.78-1.09-0.27,0.37-0.36,0.48c0.36-0.38,0.96-0.92,1.24-1.34
			c0.63-0.98,0.16-0.45,0.15-0.23c-0.62,0.45-0.67,0.5-0.15,0.16c0.75-0.44,0.44-0.36-0.91,0.24c0.17,0.02,1.85-0.41,0.1-0.19
			c-1.97,0.27,0.24-0.01,0.21,0.05c-0.26,0.53-0.95-0.41,0.46,0.34c-0.24-0.13-1.15-0.46,0.05,0.17c3.28,1.71,6.36,3.8,9.95,4.86
			c8.93,2.64,17.53-1.14,22.65-8.63c3.2-4.68,4.4-10.84,8.14-14.73c4.25-4.43,8.64-4.93,14.79-7.23
			c8.01-2.99,15.12-7.44,18.62-15.59c3.75-8.73,1.95-17.98-2.02-26.27c-0.29-0.62-1.71-4.22-2.55-4.48c1.81,0.56-3.18,8.83,0.16,5.6
			c0.49-0.48,0.93-1.25,1.34-1.79c2.91-3.85,5.85-7.67,8.77-11.5c11.1-14.55,22.13-29.16,33.07-43.82
			c5.28-7.08,10.97-13.97,12.49-22.93c1.46-8.58,0.58-17.6-1.31-26.05c-1.82-8.17-5.12-16.27-9.46-23.41
			c-4.32-7.13-10.35-16.24-18.76-18.8c-8.87-2.7-18.48,1.76-27.16,3.53c-8.21,1.68-16.48,2.66-24.85,3.02
			c-17.68,0.78-34.66-2.26-52.19-3.64c-16.58-1.31-34.28,3.22-48.05,12.49c-6.55,4.41-10.86,9.74-14.26,16.75
			C229.09,187.43,230.8,190.07,233.28,189.41L233.28,189.41z"/>
	</g>
	<g>
		<path class="st0" d="M173.18,206.5c-5.49-0.54-10.04,2.27-12.66,7c-2,3.63-1.16,9.34,2.95,11.27c10.28,4.84,20.79,6.01,31.82,3.05
			c-1.73-6.26-3.46-12.54-5.18-18.8c-6.09,1.69-12.56,2.99-18.8,4c-8.68,1.38-8.65,13.55-2.3,17.56c8.06,5.1,15.37,1.35,23.2-2.11
			c9.68-4.29,19.47-8.17,29.05-12.68c19.54-9.21,39.2-18.18,58.47-27.94c10.94-5.54,2.77-20.3-7.79-18.49
			c-17.4,2.96-33.62,9.84-49.42,17.49c-14.95,7.25-33.27,20.33-50.49,18.96c1.53,5.65,3.06,11.31,4.59,16.96
			c21.08-13.36,42.82-25.58,64.85-37.29c10.71-5.69,21.39-11.54,32.27-16.91c11.22-5.54,20.93-1.95,32.62,0.01
			c24.31,4.08,48.85,4.1,73.1-0.43c1.5-0.28,16.83-3.09,16.79-3.91c-0.03-0.54-2.4-2.26-2.62-0.75c-0.11,0.71,1.25,2.78,1.54,3.44
			c1.34,3.03,2.63,6.09,3.9,9.15c4.25,10.22,10.01,21.45,10.8,32.64c0.83,11.9-6.8,21.89-14.39,30.25
			c-8.46,9.33-17.36,18.25-23.59,29.29c-4.96,8.79,5.38,20.66,14.51,14.51c10.47-7.07,19.08-15.38,26.78-25.39
			c7.17-9.33-8.3-20.91-16.19-12.5c-13.82,14.74-27.75,29.36-41.73,43.94c4.77,0,9.54,0,14.31,0c-16.63-18.31-32.11-38.5-50.49-55.1
			c-8.42-7.61-18.21-13.28-27-20.4c-4.26-3.46-8.22-7.26-12.2-11.03c-2.16-2.04-4.31-4.08-6.46-6.13c-1.44-1.35-2.88-2.72-4.31-4.07
			c-2.35-2.88-2.83-2.74-1.46,0.43c-1.03,2.48-2.05,4.97-3.08,7.44c2.19-2.8,8.69-4.48,11.93-5.94c4.54-2.05,9.07-4.08,13.6-6.17
			c9.87-4.55,3.98-18.31-5.11-18.9c-0.8,0.07-1.4-0.27-1.79-0.99c-1.21,4.6-2.41,9.22-3.62,13.82c8.86-4.58,17.82-5.42,27.61-4.29
			c-1.7-6.27-3.4-12.55-5.09-18.82c-15,7.95-26.72,19.11-36.81,32.63c-5.21,6.99,5.01,16.81,11.97,11.97
			c13.05-9.08,26.19-18.13,41.75-22.22c-2.17-5.15-4.34-10.3-6.52-15.45c-12.56,8.44-23.7,18.44-33.29,30.15
			c-5.39,6.59,1.91,19.08,10,12.96c15.43-11.68,32.27-21.16,50.43-27.9c-2.11-5.01-4.22-10.01-6.33-15.02
			c-16.48,10.86-31.32,23.77-44.14,38.78c-6.78,7.94,3.82,18.9,11.57,11.57c12.18-11.5,26.72-19.83,41.67-27.18
			c7.15-3.51,14.43-7.35,21.95-10c4.17-1.47,7.97-2.19,12.35-1.32c2.32,0.46,4.58,1.2,6.82,1.92c0.9,0.28,1.81,0.59,2.7,0.91
			c2.32,1.02,1.94,0.37-1.12-1.93c0.57-0.18,5.51,22.71,5.85,24.78c1.49,8.94,0.8,14.14-3.98,21.81
			c-9.43,15.19-21.68,28.29-33.76,41.37c4.93,0,9.86,0,14.78,0c-9.99-8.63-19.67-17.59-29.09-26.85
			c-4.03-3.97-8.02-7.97-11.94-12.06c-2.61-2.72-5.19-5.47-7.75-8.24c-0.64-0.7-1.28-1.39-1.9-2.08c-2.67-3.6-2.88-2.61-0.62,2.98
			c0.8,0.1,5.64-3.85,6.27-4.27c2.62-1.74,5.26-3.42,7.97-5.02c5.02-2.96,10.14-5.75,15.34-8.37c11.3-5.67,22.99-10.32,35.02-14.2
			c-2.51-5.96-5.03-11.92-7.54-17.89c-22.04,11.33-49.04,24.89-58.58,49.3c-3.68,9.42,9.41,14.91,15.77,9.18
			c15.67-14.16,33.67-25.18,53.5-32.46c-2.93-5.04-5.86-10.06-8.79-15.1c-10.67,8.39-21.33,16.78-31.88,25.33
			c-9.38,7.61-19.35,15.03-24.57,26.26c-4.16,8.95,6.33,18.23,14.09,10.87c17.76-16.87,38.18-30.57,60.65-40.38
			c-3.61-4.68-7.22-9.36-10.83-14.04c-18.7,14.75-35.5,31.83-49.34,51.23c-6.1,8.55,7.66,19.18,14.6,11.26
			c14.11-16.11,30.93-29.21,50.43-38.17c-3.41-4.42-6.82-8.84-10.23-13.25c-14.98,14.77-28.76,30.75-40.97,47.9
			c-5.68,7.98,7.12,17.86,13.61,10.49c12.77-14.48,27.23-26.98,43.54-37.32c9.02-5.72,0.76-20.06-8.4-14.38
			c-17.59,10.89-33.52,24.09-47.39,39.46c4.54,3.49,9.07,7,13.61,10.49c11.55-15.86,24.1-30.79,37.95-44.71
			c7.09-7.12-1.85-17.2-10.23-13.25c-20.73,9.74-39.4,22.82-55.04,39.6c4.87,3.75,9.73,7.51,14.6,11.26
			c13.51-17.75,28.62-33.88,45.93-47.97c8.45-6.88-2.33-17.91-10.83-14.04c-23.76,10.82-45.33,25.17-64.31,43.13
			c4.69,3.62,9.39,7.24,14.09,10.87c4.92-10.53,15.25-17.32,24.07-24.41c9.82-7.9,19.74-15.68,29.66-23.45
			c7.07-5.54-0.59-18.09-8.79-15.1c-22.86,8.35-43.68,20.55-62.04,36.54c5.25,3.06,10.51,6.12,15.77,9.18
			c3.61-8.77,12.16-14.65,19.8-19.64c9.85-6.44,20.03-12.35,30.46-17.79c9.76-5.08,3.04-21.35-7.54-17.89
			c-14.43,4.73-28.52,10.56-41.99,17.57c-6.76,3.52-13.33,7.39-19.81,11.41c-5.95,3.69-13.03,7.44-16.16,14.02
			c-6.16,12.97,11.57,26.35,19.31,34.56c11.32,12.02,23.31,23.33,35.75,34.18c4.14,3.61,10.71,4.36,14.78,0
			c14.8-15.85,31.37-32.48,41.14-52.11c5.19-10.44,4.04-20.29,1.73-31.35c-1.93-9.23-3.73-23.08-9.98-30.48
			c-5.89-6.98-20.37-7.9-28.82-7.37c-10.32,0.66-19.36,5.34-28.53,9.72c-19.61,9.37-38.46,19.9-54.38,34.88
			c3.86,3.86,7.72,7.72,11.57,11.57c11.94-13.95,25.5-26.08,40.86-36.17c7.34-4.82,2.87-18.42-6.33-15.02
			c-19.54,7.22-37.76,16.93-54.39,29.5c3.34,4.32,6.67,8.64,10,12.96c8.71-10.61,18.66-19.68,30.15-27.21
			c7.91-5.19,3.02-17.84-6.52-15.45c-17.04,4.26-31.71,13.66-46.08,23.41c3.99,3.99,7.98,7.98,11.97,11.97
			c8.2-10.72,19.72-18.52,31.9-24.02c7.55-3.41,6-17.22-2.41-18.46c-14.25-2.1-27.64,0.15-40.5,6.69
			c-4.65,2.37-6.54,9.48-3.62,13.82c4.69,6.99,10.83,10.52,19.24,11.06c-0.9-6.64-1.8-13.27-2.7-19.92
			c-8.18,3.4-16.37,6.81-24.48,10.37c-7.12,3.11-13.17,8.87-10.83,17.47c2.02,7.41,10.42,13.15,15.68,18.2
			c6,5.76,11.98,11.49,18.56,16.57c12.69,9.8,24.99,18.76,36.14,30.43c12.81,13.43,25.41,27.07,37.92,40.78
			c3.62,3.97,10.67,3.83,14.31,0c13.93-14.63,27.91-29.2,42-43.67c-4.86-4.86-9.72-9.72-14.58-14.58
			c-6.13,7.68-13.04,14.22-21.28,19.57c4.84,4.84,9.67,9.67,14.51,14.51c12.32-20.91,35.99-34.06,40.57-59.54
			c2.41-13.44-1.68-26.22-6.6-38.59c-2.43-6.14-4.97-12.22-7.56-18.29c-2.31-5.4-4.23-11.74-8.63-15.88
			c-9.8-9.21-27.16-0.73-38.6,0.85c-13.7,1.89-27.72,2.36-41.52,1.45c-13.58-0.88-26.89-5.29-40.44-5.61
			c-13.83-0.32-25.35,7.41-36.95,13.93c-28.14,15.81-56.18,31.86-83.05,49.78c-7.6,5.07-4.57,16.45,4.59,16.96
			c17.81,1,35.23-10.35,50.95-17.44c16.48-7.44,33.54-14.96,51.64-17.34c-1.7-6.28-3.41-12.58-5.1-18.86
			c-15.89,7.29-31.5,15.16-47.18,22.88c-7.36,3.63-14.84,7.1-22.12,10.91c-4.08,2.14-8.07,4.48-12.1,6.71
			c-1.77,0.98-3.52,2.12-5.39,2.91c-2.1,0.88-3.57,0.35-2.06,1.71c-2.27,5.47-4.53,10.94-6.79,16.4c7.75,0.07,14.26-1.15,21.42-4.07
			c11.43-4.66,6.54-23.46-5.18-18.8c-6.97,2.78-13.14,3.07-20.29,0.69c1.91,3.38,3.84,6.75,5.75,10.13c-0.8,0.77-1.6,1.53-2.4,2.29
			C183.43,221.96,183.04,207.48,173.18,206.5L173.18,206.5z"/>
		<path class="st1" d="M158.3,217.51c13.46,32.21,53.01,2.77,71.5-7.22c33.4-18.03,68.01-4.92,91.23,22.66
			c2.24-2.91,4.49-5.81,6.72-8.72c-11.51-6.62-23.35-12.56-35.58-17.75c-11.69-4.96-23.89-10.44-36.87-9.09
			c-5.44,0.56-6.97,6.66-2.68,9.9c13.99,10.55,27.98,21.12,41.98,31.67c1.73-2.96,3.47-5.93,5.19-8.88
			c-8.61-6.25-16.57-13.15-24.04-20.73c-1.6,2.76-3.21,5.52-4.81,8.27c17.3,4.08,33.64,10.26,49.34,18.58
			c1.3-3.07,2.59-6.16,3.89-9.23c-7.46-3.1-14.95-6.12-22.43-9.16c-5.3-2.16-8.9,6.6-3.89,9.22c8.79,4.59,16.87,9.97,24.41,16.42
			c5.02,4.28,12.01-2.45,7.32-7.32c-5.29-5.5-9.65-11.4-13.14-18.19c-1.92,2.5-3.85,5-5.76,7.5c13.53,2.89,20.87,16.43,30.09,25.5
			c9.81,9.67,22.31,17.17,36.22,18.54c29.2,2.89,46.36-24.94,56.12-48.19c1.93-4.6-5.3-7.16-7.77-3.28
			c-14.7,23.1-33.63,42.67-55.48,59.11c2.13,2.76,4.26,5.52,6.39,8.28c7.4-5.85,15.05-11.34,22.92-16.53
			c-2.27-2.27-4.53-4.53-6.79-6.79c-4.21,6.62-9,12.61-14.44,18.26c-3.75,3.89,1.14,10.84,5.94,7.7
			c9.03-5.9,16.89-12.84,23.63-21.28c3.69-4.62-2.27-11.07-6.67-6.67c-11.53,11.55-24.97,20.92-39.34,28.62
			c1.66,2.85,3.33,5.69,4.99,8.53c5.48-3.46,10.97-6.88,16.45-10.32c-2.34-2.34-4.66-4.66-7-7c-3.68,5.2-8.03,9.81-13.28,13.47
			c-1.04,0.74-2.11,1.43-3.21,2.07c0.29-1.06,0.01-1.92-0.84-2.59c-1.62-1.41-2.85-3.69-4.18-5.37
			c-7.07-8.88-14.61-17.43-22.65-25.44c-7.73-7.69-15.92-14.92-24.43-21.72c-8.27-6.61-18.12-12.92-21.19-23.63
			c-2.52,1.93-5.05,3.88-7.56,5.81c15.9,7.13,29.34,19.81,41.97,31.58c13.03,12.14,25.11,25.22,36.35,39.02
			c2.59-2.59,5.18-5.18,7.77-7.77c-6.19-6.23-12.04-12.81-17.26-19.88c-4.19-5.66-13.16-15.15-10.4-22.51
			c-2.83,0.75-5.66,1.49-8.49,2.25c15.07,13,29.97,26.18,44.92,39.32c2.06-2.67,4.11-5.33,6.17-8c-9.2-6.49-18.47-12.88-27.7-19.31
			c-3.92-2.73-9.8,2.85-6.78,6.78c6.41,8.34,13.17,16.28,20.83,23.51c2.02-2.62,4.03-5.23,6.06-7.85
			c-10.14-7.39-18.89-16.29-26.14-26.52c-2.19,2.19-4.39,4.39-6.58,6.58c11.89,7.51,24.26,13.65,37.52,18.32
			c0.47-3.48,0.94-6.97,1.41-10.45c-0.39-0.2-0.78-0.39-1.17-0.6c-1.26,3.03-2.51,6.08-3.77,9.11c13.84,1.09,24.93-7.75,34.1-17.11
			c5.26-5.38,10.15-11.11,14.73-17.09c3.86-5.04,8.82-10.64,10.93-16.72c1.99-5.72-0.2-10.24-2.71-15.37
			c-3.69-7.53-7.46-15.03-11.18-22.54c-7.3-14.73-14.27-29.74-23.54-43.36c-3.62-5.32-11.99-0.62-8.73,5.09
			c9.46,16.6,16.89,34.9,21.15,53.56c4.73,20.78-1.87,37.04-12.93,54.38c-3.51,5.51,4.17,10.77,8.7,6.71
			c15.92-14.26,25.33-33.5,27.51-54.69c0.64-6.2-9.78-7.64-10.95-1.48c-0.82,4.36-1.62,8.73-2.41,13.1
			c3.61,0.49,7.23,0.98,10.84,1.46c-0.06-3.44-0.44-6.66-1.09-10.02c-1.34-6.92-11.78-3.97-10.54,2.91c0.51,2.35,0.71,4.72,0.6,7.12
			c0.03,6.03,9.61,7.75,10.84,1.46c0.85-4.36,1.7-8.71,2.52-13.08c-3.65-0.49-7.29-0.99-10.95-1.48
			c-1.86,18.26-10.59,34.64-24.2,46.86c2.9,2.24,5.8,4.48,8.7,6.71c11.38-17.88,18.42-35.87,14.54-57.3
			c-3.89-21.47-13.58-42.11-23.6-61.33c-2.91,1.7-5.81,3.4-8.73,5.09c6.4,10.2,11.05,21.36,16.45,32.11
			c5.64,11.23,12.92,22.6,17.29,34.37c2.55,6.88-0.35,10.16-4.4,15.87c-3.95,5.58-8.24,10.88-12.83,15.93
			c-7.92,8.73-17.32,19.06-30.13,18.14c-4.66-0.33-6.98,6.04-3.77,9.11c2.64,2.52,5.07,3.5,8.71,3.69c6.16,0.31,7-8.73,1.41-10.45
			c-12.56-3.86-24.45-9.24-35.5-16.35c-3.93-2.53-9.34,2.61-6.58,6.58c8.17,11.75,17.92,21.75,29.39,30.29
			c4.6,3.43,10.07-3.99,6.06-7.85c-6.95-6.7-13.53-13.72-19.34-21.45c-2.26,2.26-4.52,4.52-6.78,6.78
			c9.18,6.53,18.34,13.09,27.57,19.55c4.71,3.3,10.52-4.2,6.17-8c-15-13.08-30.05-26.09-44.93-39.31c-3.04-2.71-7.08-1.38-8.49,2.24
			c-3.7,9.47,2.77,18.45,7.88,26.01c6.47,9.58,13.77,18.54,21.8,26.86c5,5.17,12.24-2.42,7.77-7.77
			c-11.98-14.37-24.92-27.9-38.85-40.39c-12.65-11.34-26.48-24.17-42.06-31.33c-3.91-1.8-8.85,1.18-7.56,5.81
			c3.42,12.29,13.04,19.84,22.57,27.53c11.67,9.4,22.65,19.66,32.92,30.58c4.98,5.29,9.77,10.76,14.36,16.39
			c3.05,3.74,6.43,10.77,11.63,12.01c5.15,1.24,10.18-3.3,13.84-6.22c5.23-4.18,9.5-9.12,13.24-14.65c2.86-4.22-2.8-9.76-7-7
			c-5.42,3.54-10.84,7.09-16.28,10.62c-5.31,3.46-0.62,11.63,4.99,8.53c15.09-8.34,28.47-18.7,41.01-30.48
			c-2.22-2.22-4.45-4.45-6.67-6.67c-6.42,7.51-13.65,14.06-21.91,19.49c1.98,2.56,3.96,5.13,5.94,7.7
			c5.98-6.24,11.29-12.99,16.08-20.18c2.76-4.15-2.68-9.39-6.79-6.79c-8.34,5.26-16.43,10.87-24.3,16.83
			c-5.3,4.02-0.25,13.12,5.32,9.1c23.55-16.97,42.79-38.94,57.51-63.92c-2.59-1.09-5.18-2.19-7.77-3.28
			c-4.44,11.07-12.64,22.27-21.57,30.11c-10.85,9.52-24.33,11.13-37.48,5.19c-20.02-9.04-30.09-34.8-52.46-38.75
			c-4.28-0.76-8.08,3.38-5.76,7.5c4.12,7.36,8.9,14.16,14.65,20.35c2.44-2.44,4.88-4.88,7.32-7.32c-8.3-6.84-17.12-12.8-26.64-17.82
			c-1.3,3.07-2.59,6.15-3.89,9.22c7.47,3.06,14.93,6.16,22.43,9.17c5.3,2.13,8.94-6.64,3.89-9.23
			c-16.47-8.43-33.85-14.92-51.8-19.41c-4.81-1.2-8.27,4.68-4.81,8.27c7.97,8.3,16.58,15.8,25.84,22.63
			c5.37,3.96,10.37-4.94,5.19-8.88c-13.94-10.65-27.87-21.3-41.81-31.95c-0.89,3.3-1.79,6.6-2.68,9.9
			c12.53-1.22,24.71,4.79,35.87,9.8c10.62,4.76,20.92,10.14,30.96,16c5.72,3.34,10.6-4.04,6.72-8.72
			c-18.83-22.68-48.01-39.92-78.44-33.95c-14.56,2.86-27.43,11.03-39.96,18.54c-11.63,6.98-35.33,21.78-45.49,4.99
			C162.92,211.31,156.64,213.56,158.3,217.51L158.3,217.51z"/>
		<g>
			<path class="st1" d="M364.88,314.13c2.49,6.17,12.81,3.11,13.62-2.84c0.23-1.64-0.13-3.48-1.77-4.34
				c-2.17-1.12-4.53-0.76-6.33,0.88c-0.74,0.67-1.28,1.43-1.68,2.34c0.03-0.08-0.34,1.07-0.31,0.76c-0.06,0.69-0.52,0.14,0.53-0.12
				c-2.99,0.72-3.69,5.28-0.88,6.72c2.84,1.46,6.19,1.88,8.86-0.22c2.67-2.09,3.57-5.38,2.86-8.62c-0.44-2.02-3.04-3.61-5.04-2.86
				c-1,0.38-1.85,0.72-2.52,1.58c-2.42,3.05-0.19,7.06,3.73,6.4c-0.04,0.02-0.08,0.04-0.11,0.06c-1.32-1-2.63-2-3.95-3
				c-0.11-0.58,0.27,0.05-0.12,0.17c-0.02,0.01,0.07-0.25,0.1-0.27c0.21-0.2-0.56,0.47-0.26,0.21c-0.39,0.34-0.76-0.23,0.15,0.21
				c-0.29,2.24-0.59,4.49-0.88,6.72c1.53-0.42,2.71-1.36,3.51-2.73c0.28-0.48,0.84-1.32,0.81-1.85c-0.04-0.67,0.53-0.21-0.44,0.07
				c-0.64,0-1.28,0-1.91,0c-0.09-0.05-0.18-0.09-0.26-0.14c-0.45-0.45-0.89-0.89-1.34-1.34c0.07,0.1,0.15,0.19,0.22,0.28
				c0-1.3,0-2.58,0-3.88c-0.16,0.24-0.27,0.49-0.41,0.74c-0.61,1.04,0.2-0.12-0.25,0.4c-0.04,0.04-0.68,0.49-0.62,0.47
				c-0.49,0.2-1.09,0.35-1.61,0.46c0.49-0.11-0.84,0.08-0.74,0.06c-0.29,0-0.58,0.08-0.83,0.23c-0.44,0.19-0.53,0.23-0.25,0.1
				C365.54,311.28,364.29,312.65,364.88,314.13L364.88,314.13z"/>
			<path class="st1" d="M287.41,307.88c6.76,10.45,17.46,19.17,26.31,27.78c3.73,3.63,13.34,10.14,13.81,15.19
				c0.54,5.88-4.47,10.05-7.14,14.5c-1.84,3.06,0.51,7.27,4.12,7.19c7.25-0.18,10.9-6.75,13.2-12.94c2.86-7.63,3.3-13.96-2.47-20.11
				c-7.17-7.65-15.37-14.66-23.13-21.7c-5.85-5.32-12.69-13.45-20.88-14.89C288.55,302.41,285.65,305.18,287.41,307.88
				L287.41,307.88z"/>
			<path class="st1" d="M347.72,345.42c8.94,3.1,18.73-0.74,25.56-6.75c8.29-7.3,8.96-16.58,5.69-26.61
				c-2.12-6.49-12.26-3.8-10.3,2.84c2.2,7.43,2.55,12.75-3.81,17.99c-5.05,4.16-10.79,6.9-17.14,8.34
				C345.5,341.73,345.81,344.77,347.72,345.42L347.72,345.42z"/>
			<path class="st1" d="M262.36,333.94c5.26,9.38,14.2,15.71,20.25,24.42c6.85,9.86-0.19,23.67-12.99,20.96
				c-5.09-1.08-7.08,6.12-2.14,7.78c7.05,2.39,15.51,2.77,21.7-2c6.6-5.09,10.53-16.34,8.49-24.32c-1.48-5.81-10.14-3.34-8.93,2.46
				c1.03,4.96-2.13,13.4-6.55,16.04c-3.85,2.3-8.59,1.41-12.57,0.04c-0.72,2.59-1.43,5.18-2.14,7.78
				c13.83,5.22,29.2-3.24,29.86-18.8c0.34-8.1-3.72-14.84-9.27-20.4c-6.44-6.45-14.11-13.23-22.24-17.41
				C263.6,329.33,261.07,331.66,262.36,333.94L262.36,333.94z"/>
			<path class="st1" d="M226.91,364.95c2.21,6.78,8.49,12.74,13.12,18.03c4.13,4.73,8.9,11.32,15.89,10.95
				c-0.45-3.32-0.89-6.64-1.34-9.95c-4.06,0.84-8.16,1.16-12.3,0.81c-1.74-0.15-9.82-0.73-10.85-2.37c0.17,1.27,0.33,2.53,0.5,3.79
				c0.89-3,2.99-5.94,4.49-8.69c-2.87-0.37-5.74-0.75-8.61-1.13c0.8,3.25,1.5,6.53,2.23,9.79c0.98,4.42,8.19,4.55,9.07,0
				c0.44-2.28,0.64-4.28,0.4-6.61c-2.22,1.28-4.44,2.55-6.67,3.82c0.27,0.2,0.55,0.4,0.82,0.6c-0.67-0.87-1.34-1.75-2.01-2.62
				c1.15,3.6,2.2,7.94,7.07,7.33c2.53-0.31,5.61-2.69,4.36-5.72c-0.15-0.35-0.29-0.72-0.44-1.07c-0.92-2.24-2.91-3.12-5.15-2.1
				c0.1-0.06,0.2-0.11,0.29-0.17c1.08,0.45,2.16,0.89,3.24,1.34c-1.27-1.21-1.34-3.28-2.81-4.56c-2.83-2.45-7.53-0.89-7.56,3.13
				c0.12,1.42-0.09,2.79-0.62,4.1c3.02,0,6.05,0,9.07,0c-0.76-3.26-1.54-6.52-2.22-9.8c-0.84-4.07-6.65-4.46-8.61-1.13
				c-4.13,7-10.08,14.79,0.29,18.98c9.1,3.67,19.17,3.91,28.69,1.99c4.98-1,4.67-8.58,0-9.77c-5-1.27-9.62-7.27-13.28-10.78
				c-4.05-3.87-7.76-8.92-12.71-11.6C229.1,360.42,226.08,362.39,226.91,364.95L226.91,364.95z"/>
			<path class="st1" d="M214.22,344.34c0.02-0.16,0.04-0.31,0.06-0.47c-0.36,0.64-0.73,1.27-1.09,1.9c1.96-1.42,8.34,1.63,9.91,2.91
				c2.57,2.11,1.86,6.17,1.72,9.16c-0.32,6.89,10.31,6.84,10.69,0c0.41-7.26-4.76-15.39-10.32-19.8
				c-4.81-3.82-17.93-5.95-19.53,2.49c-0.23,1.19-0.11,2.77,0.95,3.59c1.95,1.52,3.43,1.97,5.92,1.54c2.37-0.4,4.07-1.03,6.14,0.55
				c3.12,2.41,6.41,7.69,6.15,11.63c3.56,0,7.13,0,10.69,0c0.42-7.47-1.23-15.04-8.5-18.58c-4.63-2.26-16.35-4.32-17.59,3.31
				c-0.18,1.12,0.1,2.51,1.25,3.06c0.11,0.05,0.21,0.1,0.31,0.15c0.9,0.43,1.92,0.38,2.67-0.34
				C213.99,345.09,214.16,344.83,214.22,344.34L214.22,344.34z"/>
			<path class="st1" d="M193.83,307c1.26,0.77,2.69,0.47,4.08,0.58c4.39,0.35,8.91,1.33,12.09,4.61c6.37,6.57,2.67,14.29,1.52,21.93
				c-0.79,5.25,6.39,9.5,9.33,3.94c5.3-10.05,5.69-23.19-2.22-31.95c-5.52-6.11-19.87-11.97-25.77-3.28
				c-0.83,1.23-0.36,2.77,0.49,3.8C193.49,306.78,193.64,306.9,193.83,307L193.83,307z"/>
			<path class="st1" d="M172.45,279.58c6.56-0.86,16.07-3.73,21.75,1.34c7.14,6.37-1.67,13.5,0.34,20.45
				c0.66,2.29,2.86,3.28,5.08,2.89c6.23-1.11,8.15-9.4,8.32-14.91c0.19-5.76-2.12-11.54-6.54-15.3c-7.13-6.06-25.65-6.36-30.33,3.15
				C170.61,278.13,171.15,279.76,172.45,279.58L172.45,279.58z"/>
			<path class="st1" d="M160.98,264.09c0.64,3.69,5.61,3.49,8.13,5.1c2,1.28,1.62,3.15,1.35,5.01c-0.32,2.36,0.36,4.66,2.76,5.63
				c2.16,0.86,4.76,0.16,5.96-1.95c2.9-5.12,0.22-11.97-4.49-15.03c-2.47-1.61-5.64-2.01-8.54-2.01
				C164.3,260.83,160.51,261.35,160.98,264.09L160.98,264.09z"/>
			<path class="st1" d="M70.96,245.89c6.5,5.77,14.46,9.91,21.36,15.2c7.72,5.91,14.19,13.06,21.66,19.18
				c4.53,3.71,12.96-1.24,8.86-6.84c-5.75-7.87-13.73-14.14-21.54-19.91c-7.77-5.75-16.95-12.07-26.52-14.22
				C71.2,238.49,67.84,243.12,70.96,245.89L70.96,245.89z"/>
			<path class="st1" d="M76.17,240.93c6.37,6.37,15.91,10.76,23.05,16.36c7.58,5.95,13.97,13.6,21.75,19.13
				c4.11,2.93,9.17-2.72,6.73-6.73c-4.84-7.98-13.56-14.49-20.96-20.01c-8.22-6.13-17-10.08-26.08-14.59
				C77.01,233.29,73.06,237.82,76.17,240.93L76.17,240.93z"/>
			<path class="st1" d="M177.5,242.04c12.29,8.22,26.69,7.45,39.85,1.74c13.25-5.76,22.97-15.11,34.32-23.68
				c5.73-4.33,0.83-13.64-5.79-9.91c-16.64,9.37-34.33,17.63-52.87,22.37c0.82,2.99,1.65,5.98,2.47,8.97
				c20.08-6.49,37.44-17.76,56.66-26.07c6.21-2.69,0.74-12.83-5.44-9.32c-17.24,9.82-35.11,19.4-53.7,26.42
				c-5.5,2.07-3.39,10.69,2.47,8.97c19.54-5.72,37.52-13.47,56.19-21.44c-1.93-3.3-3.86-6.61-5.79-9.91
				c-8.93,6.18-16.48,13.95-25.99,19.31c-13.05,7.35-25.06,9.94-39.88,6.59C176.36,235.26,174.42,239.98,177.5,242.04L177.5,242.04z
				"/>
		</g>
		<path class="st2" d="M411.94,129.03c-3.35-1.12-6.54-1.47-9.56-3.42c-1.15,4.23-2.29,8.46-3.44,12.69
			c11.66,1.18,43.13-2.37,39.58-19.6c-0.59-2.87-3.21-5.11-5.91-5.91c-0.37-0.11-0.76-0.22-1.13-0.33
			c1.23,4.63,2.44,9.27,3.67,13.89c0.18-0.17,0.34-0.33,0.52-0.5c-3.32,0.43-6.65,0.85-9.96,1.29c-3.88-2.46-0.28,5.76,0.27,7.6
			c1.11,3.65,2.12,7.33,3.28,10.98c2.45,7.76,5.34,15.37,7.78,23.14c4.72,15.04,9.13,30.25,12.32,45.69
			c1.02-3.86,2.04-7.73,3.06-11.58c-2.68,2.6-4.63,4.45-8.2,5.75c4.27,2.42,8.55,4.85,12.82,7.28c-4.92-15.78-8.3-31.35-15.1-46.57
			c-6.73-15.09-15.39-28.84-25.8-41.66c-0.75,5.83-1.5,11.65-2.25,17.48c1.23-0.66,3.42-1.6,4.4-1.2c-1.95-1.5-3.91-3-5.87-4.51
			c1.27,1.81,0.84,6.29,1.1,8.5c0.39,3.46,0.72,6.69,1.78,10c3.29,10.33,18.57,8.46,18.91-2.56c0.15-4.92-0.94-9.71-1.75-14.55
			c-0.71-4.28-1.03-8.8-3.86-12.3c-5.4-6.71-15.89-5.93-23.3-3.73c-6.16,1.84-11.19,10.42-6.66,16.34
			c8.84,11.53,16.88,23.74,23.4,36.73c6.13,12.19,13.03,27.06,14.5,40.78c0.71,6.63,6.1,11.98,13.19,10.05
			c5.74-1.56,12.08-3.92,17.08-7.15c4.9-3.16,6.32-7.95,5.47-13.45c-3.2-20.59-9.62-39.91-17.52-59.13
			c-3.81-9.27-7.92-18.51-12.88-27.24c-3.5-6.17-9.15-12.9-16.86-8.55c-5.5,3.1-5.29,11.2,0,14.35c0.33,0.2,0.68,0.4,1.01,0.6
			c-1.39-2.43-2.8-4.87-4.19-7.3c3.27-3.98,3.63-5.2,1.11-3.66c-1.25,0.62-2.5,1.22-3.77,1.82c-2.34,1.03-4.76,1.88-7.2,2.61
			c-4.91,1.49-9.92,2.11-14.92,3.21c-5.4,1.2-7,10.03-1.63,12.45c4.86,2.19,9.31,4.47,14.76,4.02
			C417.29,140.84,418.87,131.36,411.94,129.03L411.94,129.03z"/>
		<path class="st2" d="M58.15,213.85c-9.58,4.83-18.51,11.21-27.67,16.81c-5.41,3.31-5.21,10.86,0,14.21
			c6.49,4.17,15.34,11.25,23.33,11.35c10.12,0.12,12.53-10.08,16.03-17.57c8.66-18.49,19.2-36.09,29.49-53.7
			c7.03-12.04-11.3-22.66-18.63-10.89c-12.82,20.58-27.99,37.78-45.59,54.36c5.8,2.41,11.6,4.81,17.41,7.22
			c-0.91-8.66,6.24-20.38,9.85-28.12c4.31-9.27,9.11-18.31,14.35-27.08c5.02-8.39,10.28-16.67,15.96-24.62
			c5.81-8.13,14.03-15.68,18.35-24.69c-5.42,0.7-10.84,1.39-16.26,2.09c0.65,0.66,7.22,9.83,6.66,10.27
			c0.75-4.55,0.37-5.09-1.11-1.6c-0.43,0.75-0.85,1.48-1.29,2.23c-3.27,5.58-6.9,10.93-10.47,16.31
			c-6.98,10.51-13.27,21.06-17.71,32.92c-4.34,11.6,14.33,19.37,19.99,8.43c8.8-17,18.35-33.3,30.46-48.2
			c8.53-10.51-6.26-25.64-15.05-15.05c-13.27,16.01-25.43,33.34-34.3,52.21c6.67,2.81,13.33,5.62,19.99,8.43
			c4.58-13.84,13.06-25.82,20.39-38.3c2.98-5.08,7.03-10.82,8.05-16.7c1.49-8.64-5.88-13.49-8.31-21.01
			c-2.3-7.09-11.78-10.55-17.3-4.56c-15.11,16.35-28.44,34.62-39.03,54.23c-5.3,9.82-9.99,19.93-14.23,30.25
			c-4.17,10.16-9.54,21.4-9.39,32.57c0.13,9.38,10.81,12.74,17.41,7.22c19.34-16.2,36.18-36.72,49.79-57.89
			c-6.21-3.63-12.42-7.26-18.63-10.89c-6.7,11.32-13.38,22.63-19.41,34.32c-2.9,5.63-5.68,11.31-8.29,17.07
			c-2.25,4.99-4.02,11.52-6.87,15.87c1.97-1.52,3.96-3.04,5.93-4.56c2.29,0.44,1.96,0.21-0.99-0.69c-1.28-0.47-2.53-0.97-3.79-1.5
			c-2.89-1.2-5.71-2.53-8.52-3.91c0,4.74,0,9.47,0,14.21c9.2-6.71,19-12.89,27.6-20.34C72.51,219.24,64.73,210.53,58.15,213.85
			L58.15,213.85z"/>
		<path class="st3" d="M443.64,226.37c2.93-1.16,4.98-3.03,7.67-4.57c2.78-1.59,5.72-2.54,8.66-3.79c6.15-2.6,12.93-6.6,15.93-12.78
			c-5.51-2.33-11.01-4.64-16.52-6.97c-0.14,0.48-0.27,0.96-0.41,1.45c0.74-1.27,1.47-2.53,2.21-3.8c-2.76,3.48-7.27,5.39-11.35,6.95
			c-4.48,1.72-9.11,1.48-13.4,3.82c-3.81,2.06-4.87,7.18-2.84,10.82c4.34,7.77,11.27,9.49,19.33,6.29
			c7.6-3.01,14.67-7.53,17.66-15.41c2.73-7.19-5.99-11.17-11.49-8.83c-2.99,1.28-5.11,3.42-7.71,5.28
			c-1.16,0.83-2.41,1.62-3.61,2.37c-0.49,0.29-0.98,0.59-1.48,0.88c-2.31,0.81-1.99,1.29,0.94,1.43c-0.94,3.6-1.89,7.21-2.84,10.82
			c2.04-1.29,4.71-1.18,7.05-1.65c3-0.61,5.88-1.67,8.74-2.77c5.69-2.21,9.78-4.83,14.3-8.85c8.78-7.8-3.97-20.16-12.78-12.78
			c-4.41,3.69-8.88,6.82-13.58,10.16c-4.82,3.44-11.44,7.44-12.76,13.65C434.4,222.59,438.51,228.4,443.64,226.37L443.64,226.37z"/>
		<path class="st3" d="M35.4,230.03c3.62,3.11,7.08,6.22,11.03,8.91c1.71,1.16,3.43,2.3,5.14,3.45c1.14,0.77,2.29,1.53,3.43,2.3
			c2.31,1.65,2.31,1.5,0-0.46c-0.27-2.06-0.54-4.13-0.81-6.19c-0.33,1.42-1.04,2.73-1.64,4.06c-0.27,0.61-2.07,3.52-1.24,2.86
			c2.49-0.66,4.99-1.32,7.48-1.97c-3.14-0.58-6.17-3.21-8.77-4.98c-2.39-1.62-6.01-3.45-7.74-5.85c-2.65-3.67-7.22-5.36-11.4-2.98
			c-3.66,2.08-5.58,7.74-2.98,11.4c4.48,6.35,11.55,11.07,18.56,14.24c6.96,3.15,13.84,5.36,18.4-2.45c3.51-6.04,8-13.48,1.66-19.24
			c-6.4-5.82-15.4-9.79-23.13-13.45C37.12,216.67,29.31,224.8,35.4,230.03L35.4,230.03z"/>
		<path class="st4" d="M281.87,141.35c-10.67-1.49-22.7,4.45-31.99,9.19c-11.68,5.96-22.62,13.39-33.69,20.39
			c-12.18,7.7-24.35,15.41-36.5,23.14c-6.06,3.85-12.39,7.44-18.24,11.59c-3.19,2.27-5.63,4.39-5.84,8.51
			c-0.44,8.89,7.6,19.34,15.51,22.62c9.63,4.01,20.61,0.54,29.71-3.25c11.75-4.9,22.74-11.6,33.79-17.86
			c6-3.4,11.99-6.82,17.98-10.23c6.12-3.48,13.13-6.45,18.11-11.5c2.12-2.14-0.04-5.61-2.87-4.93c-9.49,2.24-18.55,9.13-27.03,13.83
			c-9.38,5.2-18.71,10.53-28.12,15.72c-9.2,5.09-19.56,11.09-30.27,11.92c-6.58,0.51-11.89-1.76-15.57-7.38
			c-1.04-1.59-3.09-4.66-3.08-6.66c0.03-3.94,4.25-5.48,6.95-7.16c19.21-11.97,38.41-23.95,57.59-35.99
			c8.13-5.1,16.18-10.41,24.55-15.1c4.59-2.57,9.32-4.96,14.25-6.78c4.82-1.78,10.06-2.39,14.74-4.35
			C284.16,146.13,285.18,141.81,281.87,141.35L281.87,141.35z"/>
		<path class="st4" d="M273.27,147.37c4.67,1.19,9.47,0.64,14.26,1.03c5.52,0.45,11.03,1.27,16.52,1.96
			c11.4,1.44,22.85,2.41,34.35,2.59c18.43,0.27,44.29,0,59.26-12.43c1.76-1.46,0.37-4.88-1.93-4.66
			c-10.05,0.95-19.87,4.71-29.93,6.14c-10.88,1.54-21.95,1.68-32.92,1.21c-10.56-0.46-21.07-1.63-31.57-2.69
			c-8.81-0.88-20.86-2.64-28.59,2.66C271.16,144.25,271.24,146.86,273.27,147.37L273.27,147.37z"/>
		<path class="st4" d="M434.3,217.17c-6.98,4.03-10.79,15.66-14.85,22.43c-5.35,8.91-10.91,17.73-17.13,26.06
			c-6.16,8.25-12.83,16.1-20.3,23.19c-3.87,3.67-7.92,7.13-12.18,10.34c-3.73,2.81-8.08,5.21-10.32,9.41
			c-0.96,1.8,0.22,4.19,2.39,4.15c9.15-0.17,18.45-9.86,24.86-15.7c7.87-7.18,14.97-15.21,21.38-23.71
			c6.73-8.94,12.78-18.48,18.01-28.38c3.86-7.31,11.62-18.41,10.32-26.92C436.32,217.08,435.05,216.74,434.3,217.17L434.3,217.17z"
			/>
		<path class="st4" d="M388.73,131.29c2.13,7.8,7.88,15.27,11.61,22.45c4.46,8.6,8.84,17.25,13.06,25.97
			c4.11,8.52,8.07,17.12,11.92,25.77c3.94,8.85,6.93,19.55,12.56,27.44c2.82,3.95,8.63,1.56,7.75-3.27
			c-1.66-9.06-7.06-18.09-10.86-26.45c-4.5-9.89-9.14-19.71-13.99-29.44c-4.51-9.04-9.2-17.97-14.32-26.68
			c-3.83-6.5-8.4-15.26-16.25-17.26C389.32,129.59,388.49,130.4,388.73,131.29L388.73,131.29z"/>
		<path class="st4" d="M390.46,132.94c7.28-1.45,13.85-5.58,20.44-8.85c3.45-1.72,6.88-3.47,10.34-5.16
			c2.87-1.41,7.5-4.84,10.64-4.05c5.14,1.29,10.27,13.37,12.96,18.02c3.74,6.47,7.32,13.02,10.48,19.8
			c6.34,13.61,10.98,27.93,13.99,42.63c0.67,3.27,1.86,7.05,1.84,10.39c-0.03,5.29-4.33,7.57-8.27,10.22
			c-6.97,4.68-14.5,8.23-22.43,10.95c-4.9,1.68-2.82,9.46,2.15,7.81c9.02-2.99,17.66-6.97,25.63-12.17
			c6.06-3.95,12.93-7.41,12.43-15.43c-1.14-18.22-8.26-37.53-15.39-54.14c-3.81-8.87-8.14-17.58-13.35-25.72
			c-2.61-4.07-5.37-8.06-8.27-11.94c-2.15-2.88-4.72-7.52-8.21-8.96c-5.76-2.39-14.41,4.38-19.28,6.78
			c-9.25,4.58-20.39,9.1-27.48,16.8C387.42,131.27,388.68,133.29,390.46,132.94L390.46,132.94z"/>
		<path class="st4" d="M121.68,147.35c-12.85,15.93-22.48,35.61-32.54,53.37c-10.65,18.81-21.12,37.73-31.48,56.69
			c-2.58,4.72,4.62,8.93,7.21,4.21c10.39-18.96,20.91-37.83,31.54-56.66c10.08-17.85,22.19-35.95,29.74-55.02
			C127.1,147.51,123.32,145.32,121.68,147.35L121.68,147.35z"/>
		<path class="st4" d="M62.36,258.45c-6.79-2.96-13.77-5.63-20.32-9.11c-3.38-1.79-7.31-3.64-10.2-6.17
			c-3.83-3.38-2.41-5.5-0.27-9.74c7.3-14.53,14.03-29.03,20.16-44.08c11.67-28.61,29.27-53.41,52.4-73.9
			c4.75-4.2-2.17-10.98-6.92-6.92c-27.51,23.48-44.54,53.12-57.44,86.46c-3.66,9.47-7.88,18.64-12.37,27.75
			c-2.59,5.25-10.01,14.63-7.62,20.76c2.25,5.75,11.79,9.84,16.9,12.41c7.81,3.95,15.64,6.66,24.38,7.41
			C63.55,263.52,64.72,259.48,62.36,258.45L62.36,258.45z"/>
		<path class="st4" d="M101.05,114.89c7.59,9.11,18.03,19.14,19.64,31.43c0.67,5.08,7.17,6.34,9.05,1.23
			c2.63-7.17-2.75-15.21-6.73-20.86c-4.84-6.86-10.44-12.98-17.66-17.37C101.72,107.12,98.6,111.93,101.05,114.89L101.05,114.89z"/>
		<path class="st4" d="M122.81,150.44c14.47,12.51,31.56,23.85,51.39,22.85c22.5-1.14,43.28-13.32,65.87-13.2
			c3.82,0.02,3.78-5.72,0-5.9c-21.11-0.98-39.8,7.85-60.52,9.87c-10.8,1.05-21.17-0.29-30.77-5.53
			c-7.77-4.22-14.55-10.28-22.79-13.56C122.96,143.79,120.43,148.38,122.81,150.44L122.81,150.44z"/>
		<path class="st4" d="M245.11,207.02c3.85,6.12,10.18,10.65,15.47,15.5c5.2,4.77,10.45,9.48,15.76,14.16
			c11.41,10.05,22.82,20.08,34.25,30.1c10.46,9.18,20.78,18.55,30.46,28.58c7.42,7.7,15.73,21.41,26.97,23.53
			c2.8,0.53,4.85-2.62,2.81-4.83c-4.4-4.75-9.3-8.82-13.54-13.79c-4.14-4.86-8.44-9.58-12.88-14.17
			c-9.36-9.68-19.29-18.78-29.32-27.75c-10.64-9.51-21.49-18.8-32.26-28.16c-5.34-4.64-10.71-9.23-16.14-13.76
			c-5.52-4.6-10.94-10.47-17.49-13.48C246.68,201.78,243.38,204.27,245.11,207.02L245.11,207.02z"/>
		<path class="st4" d="M292.71,302.86c3.38,6.35,9.82,11.07,15.04,15.93c6,5.58,12.13,10.99,18.24,16.43
			c8.73,7.78,17.25,18.53,30.11,16.63c6.09-0.9,11.89-3.57,17.14-6.7c4.08-2.43,10.41-5.76,12.74-10.16
			c2.42-4.56,1.06-11.15,0.42-15.98c-0.85-6.45-2.33-12.82-5.07-18.73c-1.58-3.41-6.93-0.97-5.97,2.51
			c2.41,8.75,9.12,24.66-0.06,31.03c-8.3,5.76-21.03,13.69-30.43,6.49c-8.92-6.84-17.25-14.71-25.85-21.96
			c-7.33-6.19-15.27-14.68-24.38-18.01C293.16,299.78,292.06,301.63,292.71,302.86L292.71,302.86z"/>
		<path class="st4" d="M265.1,327.18c0.06,4.83,3.77,7.1,7.14,10.35c4.93,4.76,9.91,9.51,14.96,14.14
			c8.17,7.47,16.39,16.11,25.74,22.12c6.16,3.96,16.49,7.59,23.24,2.78c7.76-5.53,8.32-20.66,7.41-28.98c-0.38-3.46-4.9-3.4-5.34,0
			c-0.63,4.86-1.55,9.75-3.04,14.42c-2.26,7.08-6.43,10-13.73,6.7c-7.54-3.41-13.59-9.57-19.68-15.01
			c-6.23-5.57-12.53-11.03-18.93-16.41c-4.45-3.74-10.66-11.54-16.92-10.95C265.49,326.38,265.09,326.68,265.1,327.18L265.1,327.18z
			"/>
		<path class="st4" d="M298.58,362.37c-2.49,6.8-3,18.91-10.21,22.46c-6.64,3.27-17.43-1.02-23.6-3.9
			c-6.18-2.88-12.04-6.75-16.99-11.44c-4.52-4.26-7.81-10.05-12.9-13.57c-1.55-1.07-4.18,0.33-3.97,2.28
			c0.98,8.86,9.4,16.51,16.05,21.75c7.14,5.63,15.43,9.77,24.25,12.02c7.5,1.91,16.66,3.12,23.28-1.84
			c7.73-5.79,8.62-18.28,9.52-27.04C304.36,359.81,299.58,359.64,298.58,362.37L298.58,362.37z"/>
		<path class="st4" d="M261.83,387.25c-8.32,10.88-23.44,3.9-33.44-0.07c-10.61-4.2-21-9.29-29.94-16.47
			c-16.48-13.24-29.82-31.13-43.41-47.2c-24.38-28.83-47.94-62.37-83.62-78c-4.89-2.14-9.24,4.85-4.28,7.32
			c41.28,20.54,68.02,62.24,97.54,96.09c15.93,18.27,31.32,34.22,54.02,43.77c13.22,5.57,41.91,18.01,47.64-3.53
			C267.13,386.25,263.45,385.13,261.83,387.25L261.83,387.25z"/>
		<g>
			<path class="st0" d="M134.66,319.76c-6.9,2.5-15,3.08-21.26-0.75c-9.11-5.58-10.8-19.48-4.66-28.21
				c2.8-3.99,6.79-6.97,10.87-9.64c11.4-7.46,24.05-13,37.26-16.31c2.18-0.55,4.54-1.02,6.61-0.18c2.01,0.82,3.38,2.75,4.18,4.77
				c2.21,5.55,0.87,12.01-2.09,17.19c-2.97,5.18-7.4,9.34-11.77,13.41"/>
			<path class="st4" d="M134.19,318.04c-11.3,1.6-24.87,0.5-25.67-13.81c-0.64-11.33,8.81-17.76,17.48-22.92
				c8.08-4.8,19.58-11.65,29.17-12.37c2.38-1.33,4.49-0.8,6.32,1.56c4.11,1.08,5.35,3.78,3.7,8.09c-0.55,3.05-2.02,6.06-3.71,8.63
				c-2.8,4.25-6.88,7.44-9.84,11.58c-1.47,2.06,1.37,4.64,3.4,3.4c10.62-6.56,25.15-27.25,12.64-38.76
				c-5.41-4.98-13.65-1.64-19.6,0.3c-9.34,3.05-18.38,7.15-26.78,12.24c-12.26,7.43-23.22,18.18-18.5,33.74
				c4.35,14.35,20.35,18.19,32.76,11.6C137.51,320.27,136.05,317.77,134.19,318.04L134.19,318.04z"/>
		</g>
		<g>
			<path class="st0" d="M156.85,351.34c-9.1,4.34-21.11,1.19-26.91-7.06c-1.81-2.57-3.05-5.65-2.83-8.79
				c0.17-2.38,1.17-4.61,2.32-6.7c3.4-6.19,8.13-11.53,12.82-16.82c10.1-11.37,20.42-22.92,33.45-30.77
				c5.6-3.37,13.46-5.75,18.13-1.19c4.09,4.01,3,10.8,1.05,16.19c-3.43,9.45-8.61,18.26-15.21,25.85"/>
			<path class="st4" d="M156.3,349.35c-13.59,4.34-31.86-5.62-22.74-21.2c6.17-10.55,15.92-20.25,24.53-28.85
				c4.82-4.81,34.53-31.57,35.74-11.69c0.75,12.1-10.18,23.71-15.58,33.63c-0.93,1.72,1.16,3.09,2.56,1.98
				c7.41-5.88,12.16-14.95,15.64-23.61c2.45-6.12,4.82-13.97,0.62-19.91c-10.7-15.1-33.28,5.67-41.33,13.45
				c-7.97,7.7-15.71,16.01-22.65,24.65c-4.56,5.68-10.48,13.12-9.1,20.93c2.68,15.13,21.57,20.78,33.89,14.42
				C159.97,352.06,158.54,348.63,156.3,349.35L156.3,349.35z"/>
		</g>
		<g>
			<path class="st0" d="M191.35,371.21c-3.06,4.72-8.38,7.65-13.9,8.79c-6.93,1.43-15.07-0.21-19.14-6
				c-2.84-4.02-3.24-9.33-2.4-14.18c1.92-10.97,9.43-20,16.67-28.46c2.91-3.4,5.8-6.78,8.71-10.18c3.39-3.97,6.87-8,11.39-10.6
				c4.53-2.6,10.37-3.51,14.93-0.99c5.21,2.89,7.4,9.52,6.76,15.44c-0.64,5.93-3.53,11.34-6.38,16.57
				c-5.3,9.77-10.61,19.53-15.91,29.29"/>
			<path class="st4" d="M189.67,369.52c-11.49,12.07-34.91,9.37-29.87-11.28c3.29-13.49,15.08-24.48,23.85-34.7
				c4.39-5.11,10.04-12.98,17.59-12.77c11.25,0.32,11.36,13.19,8.47,20.85c-5.05,13.42-15.62,24.92-19.17,38.85
				c-0.38,1.49,1.56,2.77,2.68,1.56c8.3-9,14.21-22.58,19.63-33.52c3.67-7.4,6.51-16.05,2.78-24.02c-3.07-6.58-9.46-9.85-16.62-8.79
				c-10.05,1.49-16.44,8.88-22.71,16.18c-10.94,12.74-31.67,32.96-22.21,51.75c7.55,14.99,31.7,12.16,39.31-1.22
				C194.73,370.1,191.57,367.52,189.67,369.52L189.67,369.52z"/>
		</g>
		<g>
			<path class="st0" d="M219.78,390.66c-2.2,4.87-6.88,8.44-12.08,9.68c-5.2,1.24-10.82,0.22-15.48-2.4
				c-1.84-1.03-3.57-2.34-4.69-4.11c-2.89-4.57-0.91-10.57,1.35-15.49c2.67-5.78,5.65-11.41,8.95-16.86
				c2.96-4.91,6.37-9.84,11.38-12.63c5.01-2.79,12.03-2.77,15.83,1.52c2.93,3.29,3.29,8.09,3.05,12.48
				c-0.54,10.31-3.55,20.48-8.73,29.4"/>
			<path class="st4" d="M217.29,389.2c-5.86,10.23-27.28,12.11-27.1-3.12c0.05-4.08,3.68-9.55,5.53-13.19
				c2-3.97,4.11-7.94,6.52-11.68c2.86-4.44,6.47-9.37,11.93-10.64c7.55-1.77,11.16,4.71,11.13,11.18
				c-0.05,10.64-3.97,19.69-8.11,29.23c-1.29,2.96,2.5,5.32,4.39,2.56c7.03-10.27,14.88-33.41,5.96-44.62
				c-9.95-12.52-25.07-0.93-31.5,8.66c-6.86,10.25-21.64,31.21-8.32,41.97c11.02,8.9,28.25,4.88,34.56-7.43
				C223.97,388.82,219.16,385.96,217.29,389.2L217.29,389.2z"/>
		</g>
		<path class="st1" d="M110.56,318.03c5.5,3.48,12.93,4.91,19.28,3.11c7.97-2.26,12.8-9.56,17.74-15.64
			c5.86-7.2,12.28-14.2,17.64-21.79c3.56-5.05,6.6-11.59,1.29-16.42c-2.48-2.26-5.71-1.06-6.89,1.82
			c-2.44,5.97-4.56,9.68-8.77,14.77c-4.05,4.93-8.12,9.86-12.17,14.78c-3.17,3.85-6.41,9.2-10.92,11.56
			c-4.9,2.57-11.17,1.29-16.45,2.18C108.53,312.87,108.52,316.73,110.56,318.03L110.56,318.03z"/>
		<path class="st1" d="M129.52,346.57c6.38,6.2,14.91,8.67,23.24,4.61c8.84-4.3,13.58-12.58,17.84-21.02
			c2.69-5.34,5.4-10.27,9.57-14.65c3.07-3.22,6.62-5.96,9.54-9.33c6.28-7.23,11.11-16,6.11-25.11c-2.77,1.62-5.54,3.24-8.31,4.85
			c2.88,6.77-3.55,16.34-8.12,21.46c-5.33,5.98-11.85,10.82-17.32,16.67c-3.69,3.95,1.8,9.17,5.83,5.83
			c12.45-10.28,35.75-28.94,28.38-47.67c-2.3-5.83-10.12-3.55-9.27,2.55c1.12,8.08-6.5,14.56-11.7,19.53
			c-4.56,4.36-8.51,8.96-11.63,14.48c-3.42,6.04-5.73,12.91-10.3,18.23c-6.17,7.19-12.45,6.13-20.81,4.28
			C129.62,340.66,127.16,344.29,129.52,346.57L129.52,346.57z"/>
		<path class="st1" d="M160.49,373.66c3.59,6.47,12.22,6.19,18.58,4.43c8.18-2.27,14.01-9.6,18.01-16.67
			c5.09-8.98,9.96-18.42,14.67-27.6c3.22-6.29,7.69-16.12,1.42-21.76c-1.93-1.75-4.64-1.35-6.09,0.79
			c-1.86,2.75-1.55,4.29-2.14,7.57c-0.65,3.58-2.39,6.8-4.13,9.94c-3.17,5.67-6.5,11.14-9.33,17.02c-2.8,5.81-5.58,11.98-10.1,16.69
			c-2.52,2.63-5.74,5.29-9.33,6.28c-3.25,0.9-6.67,0.18-9.97,0.55C160.72,371.04,159.75,372.33,160.49,373.66L160.49,373.66z"/>
		<path class="st1" d="M191.13,399.92c2.12,4.21,8.49,3.24,12.35,2.31c6.98-1.7,12.93-5.87,17.5-11.33
			c7.76-9.25,15.18-28.89,6.84-39.84c-1.56-2.04-5.26-2.9-6.63,0c-2.52,5.35-1.02,10.49-1.51,16.22
			c-0.62,7.29-3.91,14.35-9.03,19.56c-4.97,5.06-10.49,6.73-16.5,9.96C193.35,397.25,190.35,398.37,191.13,399.92L191.13,399.92z"/>
		<path class="st4" d="M134.19,318.04c-11.3,1.6-24.87,0.5-25.67-13.81c-0.64-11.33,8.81-17.76,17.48-22.92
			c8.08-4.8,19.58-11.65,29.17-12.37c2.38-1.33,4.49-0.8,6.32,1.56c4.11,1.08,5.35,3.78,3.7,8.09c-0.55,3.05-2.02,6.06-3.71,8.63
			c-2.8,4.25-6.88,7.44-9.84,11.58c-1.47,2.06,1.37,4.64,3.4,3.4c10.62-6.56,25.15-27.25,12.64-38.76
			c-5.41-4.98-13.65-1.64-19.6,0.3c-9.34,3.05-18.38,7.15-26.78,12.24c-12.26,7.43-23.22,18.18-18.5,33.74
			c4.35,14.35,20.35,18.19,32.76,11.6C137.51,320.27,136.05,317.77,134.19,318.04L134.19,318.04z"/>
		<path class="st4" d="M156.3,349.35c-13.59,4.34-31.86-5.62-22.74-21.2c6.17-10.55,15.92-20.25,24.53-28.85
			c4.82-4.81,34.53-31.57,35.74-11.69c0.75,12.1-10.18,23.71-15.58,33.63c-0.93,1.72,1.16,3.09,2.56,1.98
			c7.41-5.88,12.16-14.95,15.64-23.61c2.45-6.12,4.82-13.97,0.62-19.91c-10.7-15.1-33.28,5.67-41.33,13.45
			c-7.97,7.7-15.71,16.01-22.65,24.65c-4.56,5.68-10.48,13.12-9.1,20.93c2.68,15.13,21.57,20.78,33.89,14.42
			C159.97,352.06,158.54,348.63,156.3,349.35L156.3,349.35z"/>
		<path class="st4" d="M189.67,369.52c-11.49,12.07-34.91,9.37-29.87-11.28c3.29-13.49,15.08-24.48,23.85-34.7
			c4.39-5.11,10.04-12.98,17.59-12.77c11.25,0.32,11.36,13.19,8.47,20.85c-5.05,13.42-15.62,24.92-19.17,38.85
			c-0.38,1.49,1.56,2.77,2.68,1.56c8.3-9,14.21-22.58,19.63-33.52c3.67-7.4,6.51-16.05,2.78-24.02c-3.07-6.58-9.46-9.85-16.62-8.79
			c-10.05,1.49-16.44,8.88-22.71,16.18c-10.94,12.74-31.67,32.96-22.21,51.75c7.55,14.99,31.7,12.16,39.31-1.22
			C194.73,370.1,191.57,367.52,189.67,369.52L189.67,369.52z"/>
		<path class="st4" d="M217.29,389.2c-5.86,10.23-27.28,12.11-27.1-3.12c0.05-4.08,3.68-9.55,5.53-13.19
			c2-3.97,4.11-7.94,6.52-11.68c2.86-4.44,6.47-9.37,11.93-10.64c7.55-1.77,11.16,4.71,11.13,11.18
			c-0.05,10.64-3.97,19.69-8.11,29.23c-1.29,2.96,2.5,5.32,4.39,2.56c7.03-10.27,14.88-33.41,5.96-44.62
			c-9.95-12.52-25.07-0.93-31.5,8.66c-6.86,10.25-21.64,31.21-8.32,41.97c11.02,8.9,28.25,4.88,34.56-7.43
			C223.97,388.82,219.16,385.96,217.29,389.2L217.29,389.2z"/>
		<path class="st4" d="M168.34,208.69c0.05,3.84,3.41,9.09,7.6,8.5c3.32-0.46,7.02-2.97,9.92-4.56c3.91-2.14,7.7-4.51,11.46-6.89
			c0.96-0.61,1.34-1.87,0.76-2.89c-1.74-3-3.71-5.97-6.39-8.2c-1.6-1.34-4.32,0.36-3.06,2.37c1.74,2.79,3.89,5.3,5.81,7.97
			c0.26-0.96,0.5-1.92,0.76-2.89c-4.71,3.31-9.69,6.12-14.86,8.63c-1.1,0.53-2.3,1.28-3.46,1.63c-2.12,0.64-2.15,0.17-3.61-0.87
			c-1.75-1.26-2.15-2.58-4.21-3.32C168.71,208.02,168.33,208.34,168.34,208.69L168.34,208.69z"/>
		<path class="st4" d="M228.62,171.12c0.72,1.26,1.71,2.34,2.48,3.56c0.8,1.27,1.62,2.76,2.98,3.48c1.37,0.72,2.9-0.18,2.98-1.72
			c0.1-1.78-1.1-3.39-2.23-4.64c-1.07-1.19-2.28-2.46-3.72-3.18C229.52,167.82,227.68,169.46,228.62,171.12L228.62,171.12z"/>
		<path class="st4" d="M236.47,166.6c0.68,1.44,1.64,2.7,2.39,4.11c0.77,1.43,1.39,2.9,2.35,4.22c0.91,1.29,2.98,0.87,3.03-0.82
			c0.11-3.78-2.98-7.94-6.63-8.98C236.71,164.86,236.12,165.84,236.47,166.6L236.47,166.6z"/>
		<path class="st4" d="M150.19,269.24c4.63,0.7,7.22,4.2,4.51,8.5c-1.8,2.84-4.43,5.42-6.9,7.67c-0.91,0.83-3.22,3.29-4.1,3.43
			c-1.29,0.21-3.27-1.62-4.12-2.31c-3.79-3.05-4.21-5.88-4.8-10.49c-0.19-1.48-2.02-2.21-2.93-0.8c-3.17,5.01,0.68,11.44,4.77,14.64
			c1.71,1.34,4.58,3.56,6.96,3.38c2.56-0.2,5.25-3.5,6.96-5.12c3.88-3.7,10.28-9.02,9.44-15.1c-0.66-4.78-5.1-8.01-9.77-6.9
			C148.73,266.48,148.59,268.99,150.19,269.24L150.19,269.24z"/>
		<path class="st4" d="M176.27,284.15c1.61-0.08,3.44-0.08,4.98,0.47c3.15,1.11,3.78,4.41,3.11,7.35c-0.75,3.26-3.38,6.31-5.63,8.61
			c-5.65,5.8-12.15-2.79-16.18-6.43c-1.23-1.11-3.63-0.05-2.99,1.74c1.83,5.08,7.16,8.7,12.1,10.41c5.59,1.93,9.4-1.28,12.8-5.77
			c2.77-3.66,5.92-9.91,3.63-14.5c-2.38-4.79-7.77-3.41-11.9-2.34C175.94,283.74,175.99,284.16,176.27,284.15L176.27,284.15z"/>
		<path class="st4" d="M185.47,320.8c2.84-1.33,6.87-4.12,10.21-3.47c5.98,1.19,0.57,8.69-1.11,11.3c-2.42,3.77-4.55,6.91-9.59,4.88
			c-3.1-1.25-5.13-3.65-7.9-5.36c-0.98-0.61-2.45,0.41-2.04,1.57c1.78,4.94,8.4,8.36,13.57,8.22c5.48-0.15,9.84-7.8,11.96-12.05
			c1.96-3.93,3.42-9.85-1.89-11.84c-5.07-1.89-11.72,1.1-14.81,5.11C183.05,320.22,184.54,321.25,185.47,320.8L185.47,320.8z"/>
		<path class="st4" d="M201.24,361.22c2.51-2.13,4.95-4.71,8.11-5.87c5.11-1.88,5.38,2.67,4.18,6.24c-1.12,3.33-2.1,8.26-6.59,7.64
			c-3.32-0.45-5.36-3.02-7.75-4.91c-1.03-0.81-2.53-0.32-2.61,1.08c-0.27,4.86,8.27,8.24,12.23,7.95c5.55-0.4,7.8-7.62,8.95-12.08
			c1.15-4.47-0.12-10.01-5.65-10.14c-5.33-0.13-10.46,4.64-11.8,9.57C200.18,361.25,200.84,361.55,201.24,361.22L201.24,361.22z"/>
		<path class="st4" d="M260.94,220.34c8.88,7.36,21.96,11.1,33.12,13.24c11.51,2.22,24.86,4.1,36.21,0.59
			c2.31-0.72,1.63-3.67-0.53-3.95c-11.81-1.53-23.56-0.48-35.38-2.78c-11.06-2.15-21.34-6.7-32.25-9.12
			C261.03,218.09,259.94,219.52,260.94,220.34L260.94,220.34z"/>
	</g>
</g>
</svg>
