<?xml version="1.0" encoding="utf-8"?>
<!-- Generator: Adobe Illustrator 23.0.3, SVG Export Plug-In . SVG Version: 6.00 Build 0)  -->
<svg version="1.1" xmlns="http://www.w3.org/2000/svg" xmlns:xlink="http://www.w3.org/1999/xlink" x="0px" y="0px"
	 viewBox="0 0 1080 1080" style="enable-background:new 0 0 1080 1080;" xml:space="preserve">
<style type="text/css">
	.st0{fill:#FFFFFF;}
	.st1{fill:#39404A;}
	.st2{fill:#DBD9D7;}
	.st3{fill:#E3116D;}
	.st4{fill:#9FC519;}
	.st5{fill:#B01757;}
	.st6{fill:#4C8B32;}
	.st7{fill:#D2D1CE;}
</style>
<g id="objectives-target">
	<g>
		<g>
			<path class="st0" d="M822.57,848.9c-31.34-72.72-53.85-148.62-76.29-224.34c-27.95-94.28-55.9-188.56-83.84-282.84
				c-16.9-57-30.97-104.47-47.87-161.47l-2.82-9.53C455.33,208.21,247.51,264.8,93.01,309.27l1.74,5.56
				c23.04,70.11,46.08,140.21,69.12,210.32c7.64,23.25,15.28,46.5,22.92,69.75c43.03,130.93,86.06,261.87,129.09,392.8
				c169.14-39.19,336.78-84.68,502.39-136.33"/>
			<g>
				<path class="st1" d="M827.91,847.43c-34.4-87.91-60.11-178.53-86.37-269.11c-27.04-93.24-54.93-186.24-82.41-279.36
					c-12.85-43.56-25.71-87.11-38.56-130.67c-1.44-4.87-6.37-7.56-11.26-6.4c-67.06,15.99-133.87,33.03-200.55,50.54
					c-70.2,18.43-140.25,37.41-210.17,56.85c-36.1,10.04-72.17,20.19-108.17,30.57c-4.94,1.42-8.41,6.91-6.82,12.01
					c12.88,41.18,26.92,82.03,40.41,123.02c14.74,44.77,29.48,89.53,44.22,134.3c29.55,89.74,59.1,179.49,88.65,269.23
					c16.66,50.59,33.28,101.2,49.91,151.8c1.64,4.99,6.43,7.79,11.61,6.59c65.8-15.26,131.39-31.45,196.72-48.6
					c65.63-17.23,131.01-35.41,196.11-54.55c18.15-5.33,36.27-10.74,54.38-16.22c18.44-5.58,36.54-12.15,54.92-17.88
					c10.39-3.24,5.95-19.62-4.51-16.36c-16.16,5.04-32.66,9.14-48.87,14.04c-16.23,4.9-32.47,9.8-48.73,14.61
					c-32.22,9.53-64.5,18.83-96.85,27.9c-65.35,18.31-130.96,35.68-196.81,52.08c-37.05,9.23-74.18,18.15-111.37,26.77
					c3.87,2.2,7.74,4.4,11.61,6.59c-29.52-89.82-59-179.65-88.47-269.48c-29.41-89.64-58.81-179.29-88.22-268.93
					c-15.31-46.68-31.26-93.21-45.87-140.11c-2.27,4-4.55,8.01-6.82,12.01c66.25-19.02,132.59-37.73,199.06-55.96
					c69.99-19.2,140.11-37.94,210.42-55.97c36.3-9.31,72.66-18.42,109.1-27.2c-3.75-2.13-7.51-4.26-11.26-6.4
					c25.03,84.04,50.06,168.08,75.07,252.13c27.62,92.83,54.55,185.92,83.9,278.22c15.97,50.24,33.49,100.42,55.9,148.18
					C820.42,857.31,830.21,853.3,827.91,847.43L827.91,847.43z"/>
			</g>
		</g>
		<g>
			<g>
				<path class="st2" d="M307.94,252.37c0.36,5.36,0.72,10.62,1.5,15.94c0.28,1.87,0.54,3.74,0.8,5.62c0.14,1.03,0.29,2.07,0.43,3.1
					c0.06,0.45,0.12,0.89,0.18,1.34c0.48,3.51-0.53-4.03-0.25-1.89c1.15,9.1,2.31,18.19,3.35,27.3c2.36,20.73,4.59,41.48,6.87,62.23
					c5.15,46.8,9.78,93.68,14.43,140.53c4.54,45.76,8.79,91.54,13.02,137.33c3.14,33.93,6.15,67.88,9.76,101.77
					c1.19,11.14,2.41,22.3,4.12,33.38c1.04,6.76,2.75,13.4,4.24,20.08c4.11,18.42,8.28,36.82,12.52,55.21
					c2.08,9.03,4.17,18.06,6.25,27.09c1.97,8.52,10.85,14.82,19.41,14.78c19.75-0.09,39.47,1.05,59.23,0.83
					c19.74-0.21,39.49-0.43,59.23-0.64c19.53-0.21,39.04-0.56,58.5-2.37c20.12-1.88,40.01-5.13,59.92-8.49
					c10.59-1.79,21.23-3.52,31.74-5.77c2.45-0.53,4.9-1.06,7.35-1.55c1.23-0.24,2.46-0.46,3.68-0.71c0.68-0.14,2.81-0.54,0.93-0.26
					c5.61-0.81,11.4-0.97,17.06-1.15c8.81-0.29,17.29-7.55,16.88-16.88c-0.42-9.35-7.41-16.62-16.88-16.88
					c-20.04-0.55-40.12,0.29-59.94,3.38c-9.4,1.47-18.75,3.39-28.12,5.05c-4.37,0.77-8.75,1.53-13.14,2.22
					c-2.5,0.4-5.01,0.77-7.52,1.14c-0.13,0.02-3.23,0.44-1.2,0.17c2.25-0.3-2.66,0.32-3.09,0.37c-19.33,2.27-38.93,2-58.36,1.74
					c-19.71-0.27-39.43-0.6-59.14-0.91c-11.18-0.17-22.38-0.58-33.56-0.3c-11.17,0.27-22.39,0.85-33.56,0.75
					c6.47,4.93,12.94,9.85,19.41,14.78c-6.9-32.89-14.84-65.7-21.02-98.73c-0.25-1.33-0.46-2.68-0.65-4.02
					c-0.12-0.81-0.16-1.68-0.35-2.48c-0.06-0.24,0.9,6.92,0.54,3.99c-0.07-0.55-0.14-1.1-0.21-1.65c-0.61-4.8-1.14-9.62-1.65-14.43
					c-3.38-31.96-6.02-64.01-8.79-96.03c-3.9-45.01-7.78-90.01-11.93-135c-4.36-47.29-9.06-94.51-14.98-141.64
					c-5.14-40.87-11.15-81.54-19.49-121.88c-0.78-3.77-2.07-7.43-3.25-11.1c-2.66-8.32-10.37-13.67-19.13-12.49
					C315,236.32,307.36,243.68,307.94,252.37L307.94,252.37z"/>
			</g>
		</g>
		<g>
			<g>
				<path class="st1" d="M177.36,401.39c9.76-2.13,19.3-5.56,28.9-8.35c9.65-2.81,19.41-5.25,29.2-7.52
					c4.89-1.14,9.81-2.24,14.75-3.15c0.61-0.11,2.09-0.68,2.69-0.46c-1.31-0.48-0.76-0.98-0.17,1.49c0.59,2.5,1.7,4.96,2.52,7.4
					c3.43,10.18,6.75,20.4,9.94,30.66c3.1,9.95,6.16,19.91,9.12,29.9c0.8,2.71-0.01,4.17,2.39,0.29c2.59-4.19,1.74-2.19-0.35-1.94
					c-2.49,0.3-5.23,1.61-7.63,2.34c-5.4,1.66-10.81,3.32-16.21,4.98c-10.17,3.12-20.34,6.25-30.51,9.37
					c-4.03,1.24-8.94,3.63-13.18,3.85c-2.06,0.11-0.2-0.04,0.05,0.49c-0.36-0.78-0.47-1.84-0.66-2.68
					c-0.61-2.67-1.14-5.36-1.76-8.02c-5.03-21.51-12.66-42.77-22.73-62.44c-4.12-8.04-15.65-0.99-11.98,7
					c9.83,21.4,17.56,43.3,22.83,66.27c1.08,4.73,2.79,9.34,7.36,11.72c4.87,2.54,10.2,1.1,15.12-0.42
					c12.07-3.74,24.17-7.36,36.26-11.02c5.73-1.73,11.45-3.47,17.18-5.2c4.85-1.47,12.65-2.3,16.22-6.23
					c3.95-4.35,1.59-10.01,0.17-14.87c-1.84-6.25-3.69-12.49-5.66-18.7c-3.83-12.11-7.88-24.16-12.06-36.16
					c-3.31-9.49-5.55-22.82-18.44-21.02c-13.04,1.82-26.13,5.75-38.66,9.69c-12.81,4.02-26.28,8.28-37.92,15.11
					C169.97,396.22,172.81,402.39,177.36,401.39L177.36,401.39z"/>
			</g>
		</g>
		<g>
			<g>
				<path class="st1" d="M221.76,527.48c9.76-2.13,19.3-5.56,28.9-8.35c9.65-2.81,19.41-5.25,29.2-7.52
					c4.89-1.14,9.81-2.24,14.75-3.15c0.61-0.11,2.09-0.68,2.69-0.46c-1.31-0.48-0.76-0.98-0.17,1.49c0.59,2.5,1.7,4.96,2.52,7.4
					c3.43,10.18,6.75,20.4,9.94,30.66c3.1,9.95,6.16,19.91,9.12,29.9c0.8,2.71-0.01,4.17,2.39,0.29c2.59-4.19,1.74-2.19-0.35-1.94
					c-2.49,0.3-5.23,1.61-7.63,2.34c-5.4,1.66-10.81,3.32-16.21,4.98c-10.17,3.12-20.34,6.25-30.51,9.37
					c-4.03,1.24-8.94,3.63-13.18,3.85c-2.06,0.11-0.2-0.04,0.05,0.49c-0.36-0.78-0.47-1.84-0.66-2.68
					c-0.61-2.67-1.14-5.36-1.76-8.02c-5.03-21.51-12.66-42.77-22.73-62.44c-4.12-8.04-15.65-0.99-11.98,7
					c9.83,21.4,17.56,43.3,22.83,66.27c1.08,4.73,2.79,9.34,7.36,11.72c4.87,2.54,10.2,1.1,15.12-0.42
					c12.07-3.74,24.17-7.36,36.26-11.02c5.73-1.73,11.45-3.47,17.18-5.2c4.85-1.47,12.65-2.3,16.22-6.23
					c3.95-4.35,1.59-10.01,0.17-14.87c-1.84-6.25-3.69-12.49-5.66-18.7c-3.83-12.11-7.88-24.16-12.06-36.16
					c-3.31-9.49-5.55-22.82-18.44-21.02c-13.04,1.82-26.13,5.75-38.66,9.69c-12.81,4.02-26.28,8.28-37.92,15.11
					C214.37,522.3,217.2,528.47,221.76,527.48L221.76,527.48z"/>
			</g>
		</g>
		<g>
			<g>
				<path class="st1" d="M264.98,652.28c9.76-2.13,19.3-5.56,28.9-8.35c9.65-2.81,19.41-5.25,29.2-7.52
					c4.89-1.14,9.81-2.24,14.75-3.15c0.61-0.11,2.09-0.68,2.69-0.46c-1.31-0.48-0.76-0.98-0.17,1.49c0.59,2.5,1.7,4.96,2.52,7.4
					c3.43,10.18,6.75,20.4,9.94,30.66c3.1,9.95,6.16,19.91,9.12,29.9c0.8,2.71-0.01,4.17,2.39,0.29c2.59-4.19,1.74-2.19-0.35-1.94
					c-2.49,0.3-5.23,1.61-7.63,2.34c-5.4,1.66-10.81,3.32-16.21,4.98c-10.17,3.12-20.34,6.25-30.51,9.37
					c-4.03,1.24-8.94,3.63-13.18,3.85c-2.06,0.11-0.2-0.04,0.05,0.49c-0.36-0.78-0.47-1.84-0.66-2.68
					c-0.61-2.67-1.14-5.36-1.76-8.02c-5.03-21.51-12.66-42.77-22.73-62.44c-4.12-8.04-15.65-0.99-11.98,7
					c9.83,21.4,17.56,43.3,22.83,66.27c1.08,4.73,2.79,9.34,7.36,11.72c4.87,2.54,10.2,1.1,15.12-0.42
					c12.07-3.74,24.17-7.36,36.26-11.02c5.73-1.73,11.45-3.47,17.18-5.2c4.85-1.47,12.65-2.3,16.22-6.23
					c3.95-4.35,1.59-10.01,0.17-14.87c-1.84-6.25-3.69-12.49-5.66-18.7c-3.83-12.11-7.88-24.16-12.06-36.16
					c-3.31-9.49-5.55-22.82-18.44-21.02c-13.04,1.82-26.13,5.75-38.66,9.69c-12.81,4.02-26.28,8.28-37.92,15.11
					C257.59,647.11,260.43,653.27,264.98,652.28L264.98,652.28z"/>
			</g>
		</g>
		<g>
			<g>
				<path class="st1" d="M306.57,773.13c9.76-2.13,19.3-5.56,28.9-8.35c9.65-2.81,19.41-5.25,29.2-7.52
					c4.89-1.14,9.81-2.24,14.75-3.15c0.61-0.11,2.09-0.68,2.69-0.46c-1.31-0.48-0.76-0.98-0.17,1.49c0.59,2.5,1.7,4.96,2.52,7.4
					c3.43,10.18,6.75,20.4,9.94,30.66c3.1,9.95,6.16,19.91,9.12,29.9c0.8,2.71-0.01,4.17,2.39,0.29c2.59-4.19,1.74-2.19-0.35-1.94
					c-2.49,0.3-5.23,1.61-7.63,2.34c-5.4,1.66-10.81,3.32-16.21,4.98c-10.17,3.12-20.34,6.25-30.51,9.37
					c-4.03,1.24-8.94,3.63-13.18,3.85c-2.06,0.11-0.2-0.04,0.05,0.49c-0.36-0.78-0.47-1.84-0.66-2.68
					c-0.61-2.67-1.14-5.36-1.76-8.02c-5.03-21.51-12.66-42.77-22.73-62.44c-4.12-8.04-15.65-0.99-11.98,7
					c9.83,21.4,17.56,43.3,22.83,66.27c1.08,4.73,2.79,9.34,7.36,11.72c4.87,2.54,10.2,1.1,15.12-0.42
					c12.07-3.74,24.17-7.36,36.26-11.02c5.73-1.73,11.45-3.47,17.18-5.2c4.85-1.47,12.65-2.3,16.22-6.23
					c3.95-4.35,1.59-10.01,0.17-14.87c-1.84-6.25-3.69-12.49-5.66-18.7c-3.83-12.11-7.88-24.16-12.06-36.16
					c-3.31-9.49-5.55-22.82-18.44-21.02c-13.04,1.82-26.13,5.75-38.66,9.69c-12.81,4.02-26.28,8.28-37.92,15.11
					C299.18,767.96,302.02,774.13,306.57,773.13L306.57,773.13z"/>
			</g>
		</g>
		<g>
			<g>
				<path class="st1" d="M301.62,376.12c-0.11,9.41,11.12,25.35,21.87,23.73c6.34-0.96,7.76-7.24,9.08-12.53
					c2.03-8.13,4.07-16.26,6.1-24.39c-2.4,0.63-4.81,1.27-7.21,1.9c6.77,6.36,13.45,12.81,20.09,19.31
					c4.88,4.78,11.35,10.71,18.67,7.18c6.55-3.16,6.9-11.17,7.6-17.47c0.49-4.35,0.97-8.7,1.46-13.04c0.19-1.72,0.38-8.64,2.55-9.39
					c1.6-0.55,7.37,4.86,8.83,5.93c3.81,2.8,7.62,5.6,11.43,8.4c6,4.41,12.68,9.71,20.65,8.05c9.75-2.04,13.08-12.07,15.57-20.48
					c2.33-7.89,5.33-19.82,15.97-14.16c8.64,4.59,16.63,15.46,27.67,12.18c5.5-1.64,8.76-6.3,10.93-11.3
					c1.39-3.2,2.93-11.11,7.44-11.15c4.08-0.04,8.32,5.54,11.13,7.91c3.96,3.33,8.42,6.4,13.82,6.35
					c7.31-0.07,11.79-5.6,15.01-11.46c3.43-6.23,6.17-9.68,13.44-10.97c11.63-2.08,27.07,0.22,33.62-12.17
					c2.22-4.2-3.59-9.38-6.92-5.34c-6.69,8.14-20.25,5.39-29.59,7.02c-5.27,0.92-10.49,3.03-14.25,6.95
					c-3.81,3.98-5.15,10.75-9.41,14.1c-3.49,2.75-7.73-1.48-10.36-3.68c-3.68-3.08-7.38-6.5-12.02-8.04
					c-4.83-1.6-10.15-0.57-13.89,2.94c-3.91,3.67-5.19,8.89-7.33,13.61c-1.95,4.3-4.5,6.82-9.22,4.74
					c-4.68-2.06-8.57-5.79-12.92-8.44c-8.37-5.09-18.59-5.87-25,2.62c-5.4,7.15-6.2,16.3-10.42,24c-2.33,4.27-5.39,5.88-10.22,3.83
					c-3.66-1.56-7.02-4.45-10.26-6.71c-3.61-2.52-7.23-5.04-10.84-7.55c-5.44-3.79-11.79-9.83-18.44-4.81
					c-5.98,4.52-6.18,13.09-7.02,19.82c-0.58,4.62-0.97,9.3-1.74,13.9c-0.18,1.09-0.33,3.92-1.4,4.63
					c-1.88,1.26-4.54-1.55-5.82-2.62c-7.84-6.58-15.24-13.77-22.7-20.77c-2.3-2.16-6.4-1.34-7.21,1.9c-1.25,5-2.5,10-3.75,15.01
					c-0.63,2.5-1.25,5-1.88,7.5c-0.48,1.94-0.69,5.88-1.87,7.44c-3.88,5.13-16.99-12.28-20.03-14.97
					C302.37,375.23,301.62,375.49,301.62,376.12L301.62,376.12z"/>
			</g>
		</g>
		<g>
			<g>
				<path class="st1" d="M323.5,426.56c-3.28,4.09,2.14,9.53,5.59,11.54c4.79,2.8,11.22,2.96,15.9-0.12
					c2.78-1.83,4.74-4.73,6.48-7.49c1.55-2.47,3.1-6.4,6.03-7.53c3.37-1.3,7.57,1.79,10.41,3.13c3.58,1.68,7.21,3.02,11.23,3.04
					c7.27,0.03,14.2-3.59,18.26-9.6c1.77-2.62,2.73-6.92,5.2-8.94c2.87-2.36,7.58,0.35,10.58,1.32c7.52,2.43,14.56,1.87,21.96-0.76
					c3.8-1.35,7.47-3.07,11.26-4.44c3.77-1.36,7.1-2.08,10.26-4.7c2.35-1.96,1.39-5.79-0.93-7.21c-6.24-3.83-13.88-0.21-19.92,2.4
					c-6.62,2.86-12.24,5.26-19.46,3.22c-6.75-1.9-13.51-4.15-19.9,0.14c-5.71,3.83-6.24,11.52-11.64,15.36
					c-6.62,4.72-12.85,0.17-19.39-2.04c-6.27-2.11-12.47-0.98-17.01,3.95c-3.59,3.89-5.27,11.48-10.46,13.58
					c-2.46,0.99-5.44,0.47-7.67-0.88c-2.05-1.24-2.97-3.62-5.32-4.34C324.49,426.04,323.82,426.17,323.5,426.56L323.5,426.56z"/>
			</g>
		</g>
		<g>
			<g>
				<path class="st1" d="M348.82,516.59c-0.36,0.29-0.73,0.55-1.12,0.78c-2.16,1.38-2.85,3.56-2.43,5.98
					c2.16,12.72,16.9,18.42,26.94,10.2c2.22-1.82,3.93-4.11,4.99-6.78c0.73-1.84,0.61-7.42,1.96-8.59c1.47-1.28,6.12,2.15,7.93,3.09
					c9.42,4.88,19.99,5.49,25.2-5.49c1.17-2.47,2.35-8.56,5.37-8.95c2.83-0.36,6.94,3.39,9.14,4.95
					c6.91,4.91,15.55,11.05,24.24,6.43c4.65-2.47,7.18-7.04,8.57-11.95c0.61-2.14,0.86-9.34,2.87-10.61
					c2.09-1.32,7.57,4.21,9.28,5.34c4.41,2.89,9.53,4.4,14.63,2.44c5.78-2.22,8.62-7.77,10.26-13.41c0.72-2.47,1.12-4.96,2.47-7.19
					c0.22-0.36,1.34-1.41,0.95-1.38c-0.15,0.01,1.51,1.47,1.97,1.91c4.49,4.33,10.1,8.16,16.43,4.71c2.38-1.3,4.13-3.33,5.46-5.67
					c0.89-1.55,1.64-5.35,3.11-6.36c1.61-1.1,6.92,1.66,9.09,2.07c4.09,0.77,8.24,1.01,12.39,0.67c7.41-0.61,18.67-1.85,23.74-7.83
					c2.12-2.5,1.43-6.39-1.94-7.36c-6.76-1.96-14.08,1.81-20.89,2.59c-3.6,0.41-7.31,0.52-10.88-0.17
					c-3.98-0.76-7.68-2.88-11.83-2.74c-5.03,0.16-8.74,3.34-11.16,7.5c-0.89,1.54-2.53,3.9-2.93,5.61
					c-0.27,1.16-1.01-1.47,0.91,0.05c-0.85-0.67-1.61-1.42-2.41-2.16c-3.94-3.61-8.59-6.54-14.19-5.09
					c-5.58,1.45-9.16,6.58-11.12,11.68c-0.89,2.32-1.69,9.75-4.62,10.1c-1.55,0.18-4.04-2.12-5.2-2.9
					c-2.35-1.58-4.63-3.13-7.29-4.15c-10.38-3.99-17.69,3.5-20.14,12.98c-0.69,2.68-0.94,8.3-3.8,9.7
					c-1.54,0.76-4.93-1.43-6.76-2.56c-6.99-4.32-14.7-11.33-23.61-9.3c-4.28,0.98-7.63,3.9-9.83,7.61
					c-1.56,2.62-2.73,9.76-6.02,10.08c-3.98,0.38-9.36-4.16-12.99-5.53c-4.33-1.64-9-1.97-12.98,0.78c-2.67,1.85-4.37,4.69-5.18,7.8
					c-0.75,2.89-0.18,6.56-2.51,8.8c-2.23,2.14-5.62,2.07-7.72-0.17c-1.08-1.15-1.07-2.26-1.68-3.59c-0.81-1.76-1.64-2.21-2.97-3.47
					C351.62,516.22,349.91,515.78,348.82,516.59L348.82,516.59z"/>
			</g>
		</g>
		<g>
			<g>
				<path class="st1" d="M593.25,457.68c-0.68-0.14-1.38-0.29-2.07-0.29c-1.23,0-2.52,0.34-3.56,1c-1.07,0.69-2.04,1.56-2.69,2.67
					c-1.33,2.27-1.33,5.16,0,7.43c1.26,2.16,3.8,3.76,6.35,3.64c1.95-0.09,3.8-0.75,5.2-2.16c1.86-1.86,2.59-4.63,1.89-7.16
					C597.75,460.47,595.72,458.19,593.25,457.68L593.25,457.68z"/>
			</g>
		</g>
		<g>
			<g>
				<path class="st1" d="M381.73,631.95c-0.64,7.84,7.16,14.11,14.73,12.42c4.03-0.9,7.31-3.66,9.19-7.29
					c0.92-1.78,1.46-3.75,1.61-5.74c0.08-1.04,0.27-2.4-0.09-3.43c-0.04-0.5-0.09-1.01-0.13-1.51c-1.43,0.94-1.6,1.48-0.5,1.63
					c0.99,1.4,6.05,2.66,7.59,3.32c2.63,1.13,5.28,2.21,7.93,3.28c5.1,2.07,10.36,2.88,14.99-0.72c3.71-2.88,5.3-7.5,7.22-11.62
					c2.62-5.61,5.24-11.23,7.85-16.84c-3.19,0.41-6.38,0.82-9.57,1.23c6.19,5.36,12.71,11.19,20.92,13.1
					c7.39,1.72,15.8,0.23,21.27-5.32c2.88-2.92,3.7-6.48,5.43-10.03c0.99-2.04,1.04-2.24,3.02-1.41c6.04,2.52,10.01,7.74,16.97,8.38
					c7.2,0.66,12.32-3.77,16.31-9.23c1.56-2.12,2.89-4.6,4.85-6.4c3.05-2.81,6.8-2.52,10.71-2.22c8.41,0.64,15.98,0.54,23.55-3.7
					c6.97-3.91,11.77-10.1,14.74-17.4c-3.68,0.48-7.37,0.96-11.05,1.44c4.14,5.58,10.48,7,17.02,4.83c3.36-1.11,6.3-3.92,9.7-4.72
					c3.26-0.77,6.39,1.26,9.54,1.9c8.03,1.64,12.05-2.91,17.61-7.67c6.4-5.48,13.87-5.61,21.68-7.18c4.18-0.84,3.38-6.46,0-7.68
					c-5.94-2.16-12.6-0.91-18.42,1.26c-5.89,2.2-9.96,6.09-15.27,9.13c-2.65,1.52-4.93-0.07-7.62-0.93
					c-3.03-0.97-6.1-1.44-9.26-0.86c-3.11,0.57-5.93,2.09-8.7,3.56c-1.09,0.58-2.11,1.28-3.29,1.65c-0.64,0.2-2.8,0.28-2.56,0.59
					c-3.32-4.37-8.97-3.56-11.05,1.44c-2.48,5.95-8.22,10.53-14.41,12.09c-7.16,1.8-14.58-1.1-21.82,0.43
					c-6.2,1.31-10.27,5.29-13.94,10.18c-2.35,3.13-4.75,8.32-9.31,6.47c-4.84-1.96-8.48-6.08-13.61-7.56
					c-5.7-1.64-11.41,0.32-14.82,5.21c-3.7,5.3-3.55,11.69-11.51,11.88c-7.06,0.17-13.17-5.47-18.07-9.87
					c-2.71-2.44-7.75-2.48-9.57,1.23c-3.71,7.56-7.01,15.56-11.23,22.85c-0.98,1.68-0.67,1.56-2.41,1.48
					c-1.69-0.08-3.78-1.39-5.4-2.01c-4.04-1.53-8.2-3.33-12.41-4.36c-5.65-1.39-12.09-0.2-13.72,6.24c-0.8,3.14,1.16,6.5-0.38,9.46
					c-1.66,3.19-6.7,3.3-7.01-1.01C388.71,627.23,382.11,627.25,381.73,631.95L381.73,631.95z"/>
			</g>
		</g>
		<g>
			<g>
				<path class="st1" d="M403.09,676.56c4.61,5.18,10.42,9.38,17.71,8.44c6.24-0.8,10.81-5.23,13.94-10.43
					c1.5-2.48,2.63-5.19,3.67-7.88c0.8-2.09,1.67-7.85,3.8-8.25c2.73-0.51,6.67,4.27,8.42,5.71c2.99,2.46,6.19,4.59,10.07,5.24
					c5.94,0.99,11.32-1.86,14.49-6.83c2.74-4.29,3.38-9.46,5.67-13.94c2.51-4.9,6.07-2.78,9.93-0.4c4.76,2.93,9.6,6.39,15.4,6.64
					c6.4,0.28,11.45-3.38,14.69-8.66c2.2-3.59,3.69-10.68,8.49-11.56c4.38-0.8,9.66,2.68,13.48,4.38
					c5.13,2.27,10.54,4.52,16.27,4.01c6.19-0.55,10.76-4.21,14.24-9.13c2.19-3.09,4.31-10.15,7.95-11.78c2.22-1,5.43,0.89,7.69,1.23
					c3.1,0.48,6.07,0.07,8.91-1.24c4.64-2.14,7.87-6.01,11.12-9.8c1.31-1.53,2.99-4.17,4.92-4.97c1.83-0.76,2.44,0.52,4.19,1.89
					c5.92,4.67,12.98,4.21,17.74-1.77c1.36-1.71,2.56-5.31,4.4-6.44c1.08-0.66-0.14-0.09-0.18-0.09c0.67-0.03,2.11,0.94,2.79,1.19
					c1.85,0.68,3.73,1.11,5.7,1.21c8.18,0.45,15.84-3.88,18.55-11.68c2-5.75-5.86-9.69-9.87-5.75c-1.82,1.79-3.9,3.75-6.46,4.31
					c-3.22,0.7-5.99-1.43-9.1-1.89c-6.4-0.94-10.67,3.16-13.84,8.17c-0.64,1.02-2.8,3.34-1.52,3.37c-1.97-0.06-5.03-3.49-7.13-4.17
					c-4.57-1.48-9.18-0.27-12.94,2.53c-3.7,2.76-6.39,6.5-9.59,9.77c-1.15,1.18-2.62,2.9-4.26,3.41c-2.71,0.85-5.94-1.07-8.7-1.33
					c-12.67-1.2-14.73,11.34-21.76,18.45c-6.44,6.52-19.26-3.44-26.26-5.07c-5.11-1.19-10.34-1.05-14.89,1.8
					c-5.09,3.19-7.2,8.69-10.14,13.6c-2.73,4.57-5.39,3.82-9.7,1.44c-4.58-2.52-9.04-5.67-14.32-6.47
					c-12.83-1.95-16.48,9.81-20.47,19.18c-0.58,1.36-1.46,3.91-3.06,4.41c-2.58,0.81-6.69-3.61-8.5-5.04
					c-5.63-4.44-13.64-7.93-20.18-3.2c-8.21,5.93-8.97,35.21-23.99,19.99C405.71,664.4,398.67,671.59,403.09,676.56L403.09,676.56z"
					/>
			</g>
		</g>
		<g>
			<g>
				<path class="st1" d="M434.34,769.81c5.52,7.03,12.69,12.63,19.49,18.38c3.12,2.64,8.15,1.85,9.32-2.46
					c2.51-9.21,4.98-18.43,7.55-27.62c0.32-1.13,0.64-3.77,1.68-4.63c-1.74,0.53-1.59,1.2,0.45,2c1.02,0.83,2.05,1.66,3.07,2.49
					c3.59,2.9,7.17,5.81,10.76,8.71c5.84,4.73,12.74,10.8,20.68,6.76c7.07-3.6,9.04-11.44,9.14-18.75c0.04-2.97-1-8.37,1.19-10.84
					c2.54-2.87,6.65,1.63,8.36,3.57c4.76,5.4,8.67,11.42,16.35,12.71c7.4,1.24,14.52-2.98,18.63-8.97
					c4.66-6.77,4.96-15.19,5.19-23.11c-3.39,1.41-6.79,2.81-10.18,4.22c6.42,6.89,12.77,13.85,19.4,20.54
					c3.42,3.45,8.75,1.54,10.24-2.7c4.26-12.15,7.12-24.58,9.18-37.27c-3.5,0.46-7,0.91-10.5,1.37c2.72,4.86,5.45,9.72,8.18,14.57
					c2.47,4.41,4.64,9.68,7.96,13.54c6.42,7.46,15.38,2.45,18.03-5.5c1.49-4.46,1.51-9.59,2.04-14.22c0.29-2.55,0.59-5.1,0.88-7.65
					c0.13-1.15,0.59-2.68,0.44-3.83c0.83-1.72,0.46-2.31-1.11-1.76c-1.41-0.27-1.71-0.07-0.91,0.61c0.13,1.48,2.56,4.43,3.31,5.81
					c1.34,2.47,2.72,4.93,4.12,7.36c2.78,4.8,5.45,9.44,9.43,13.35c3.37,3.31,10.54,0,8.54-4.97c-1.97-4.89-4.68-8.96-7.5-13.41
					c-2.62-4.14-4.9-8.53-7.6-12.62c-4.27-6.47-13.85-10.16-17.76-1.04c-1.78,4.16-1.85,9.35-2.53,13.79
					c-0.39,2.54-0.77,5.08-1.16,7.62c-0.29,1.92-1.52,5.26-1.34,7.22c-0.16,0.32-0.31,0.64-0.47,0.96c0.83-0.1,1.65-0.2,2.48-0.3
					c0.15-0.26-1.8-3.02-2.01-3.38c-1.34-2.25-2.69-4.5-4.03-6.75c-3.02-5.06-6.05-10.13-9.07-15.19c-2.28-3.81-9.8-3.78-10.5,1.37
					c-1.73,12.73-5.24,25.12-9.92,37.07c3.41-0.9,6.83-1.8,10.24-2.7c-6.38-6.93-13.04-13.58-19.62-20.31
					c-3.68-3.76-10.08-0.87-10.18,4.22c-0.13,6.38-0.13,17.45-7.9,19.76c-5.96,1.77-10.46-7.39-14.16-10.63
					c-5.24-4.59-12.92-7.6-19.45-3.76c-6.55,3.85-7.53,11.81-7.52,18.68c0,2.75,0.79,9.52-2.53,11.05c-2.95,1.36-7.58-4.05-9.61-5.7
					c-3.58-2.91-7.16-5.82-10.74-8.73c-3.09-2.51-6.17-5.71-10.36-6.07c-7.5-0.65-10.57,6.44-12.22,12.45
					c-2.52,9.2-4.93,18.44-7.4,27.66c2.73-1.11,5.46-2.22,8.19-3.33c-7.59-5.17-15.1-10.61-23.61-14.16
					C434.15,764.08,432.91,767.99,434.34,769.81L434.34,769.81z"/>
			</g>
		</g>
		<g>
			<g>
				<path class="st1" d="M658.71,730.4c2.13,0,4.36-0.93,5.87-2.43c0.81-0.75,1.38-1.64,1.72-2.67c0.52-0.99,0.76-2.05,0.71-3.2
					c-0.1-2.15-0.8-4.37-2.43-5.87c-1.62-1.49-3.62-2.43-5.87-2.43c-2.13,0-4.36,0.93-5.87,2.43c-0.81,0.75-1.38,1.64-1.72,2.67
					c-0.52,0.99-0.76,2.05-0.71,3.2c0.1,2.15,0.8,4.37,2.43,5.87C654.46,729.46,656.46,730.4,658.71,730.4L658.71,730.4z"/>
			</g>
		</g>
		<g>
			<g>
				<path class="st3" d="M209.18,414.05c3.67,6.67,9.67,12.31,15.16,17.49c5.74,5.42,11.88,10.37,18.25,15.03
					c2.74,2,8.02,0.71,9.38-2.46c7.27-16.99,6.49-36.29,9.53-54.29c2.99-17.66,7.85-35.04,16.94-50.59
					c4.3-7.36-7.18-14.06-11.41-6.67c-9.06,15.82-14.72,33.24-18.11,51.1c-3.45,18.19-2.78,37.79-9.48,55.17
					c3.36-1.37,6.71-2.73,10.07-4.1c-6.31-3.85-12.41-8.02-18.15-12.69c-5.51-4.49-10.46-9.79-16.28-13.88
					C211.37,405.55,207.23,410.52,209.18,414.05L209.18,414.05z"/>
			</g>
		</g>
		<g>
			<g>
				<path class="st2" d="M739.97,663.62c-5.12,6.98-6.78,16.39-8.27,24.79c-1.43,8.06-2.87,16.12-4.34,24.17
					c-3.21,17.63-5.8,35.54-7.61,53.35c-1.67,16.49-3.33,32.99-4.93,49.49c-0.83,8.57-1.69,17.14-2.57,25.71
					c-0.98,9.58-2.78,19.31-1.16,28.84c1.25,7.39,9.2,12.88,16.02,13.8c6.81,0.92,16.25-2.25,19.2-9.2
					c1.89-4.44,2.91-7.87,3.56-12.69c0.31-2.31,0.61-4.61,0.92-6.92c0.52-3.95,1.04-7.91,1.54-11.86c1.07-8.57,2.1-17.14,3.12-25.71
					c1.99-16.81,3.79-33.62,5.37-50.47c1.57-16.74,2.21-33.71,2.11-50.52c-0.05-8.59-0.12-17.18-0.22-25.78
					c-0.1-9.03-0.78-18.92-4.99-27C753.81,656.16,744.21,657.84,739.97,663.62L739.97,663.62z"/>
			</g>
		</g>
		<g>
			<g>
				<path class="st1" d="M827.91,847.43c-34.4-87.91-60.11-178.53-86.37-269.11c-27.04-93.24-54.93-186.24-82.41-279.36
					c-12.85-43.56-25.71-87.11-38.56-130.67c-1.44-4.87-6.37-7.56-11.26-6.4c-67.06,15.99-133.87,33.03-200.55,50.54
					c-70.2,18.43-140.25,37.41-210.17,56.85c-36.1,10.04-72.17,20.19-108.17,30.57c-4.94,1.42-8.41,6.91-6.82,12.01
					c12.88,41.18,26.92,82.03,40.41,123.02c14.74,44.77,29.48,89.53,44.22,134.3c29.55,89.74,59.1,179.49,88.65,269.23
					c16.66,50.59,33.28,101.2,49.91,151.8c1.64,4.99,6.43,7.79,11.61,6.59c65.8-15.26,131.39-31.45,196.72-48.6
					c65.63-17.23,131.01-35.41,196.11-54.55c18.15-5.33,36.27-10.74,54.38-16.22c18.44-5.58,36.54-12.15,54.92-17.88
					c10.39-3.24,5.95-19.62-4.51-16.36c-16.16,5.04-32.66,9.14-48.87,14.04c-16.23,4.9-32.47,9.8-48.73,14.61
					c-32.22,9.53-64.5,18.83-96.85,27.9c-65.35,18.31-130.96,35.68-196.81,52.08c-37.05,9.23-74.18,18.15-111.37,26.77
					c3.87,2.2,7.74,4.4,11.61,6.59c-29.52-89.82-59-179.65-88.47-269.48c-29.41-89.64-58.81-179.29-88.22-268.93
					c-15.31-46.68-31.26-93.21-45.87-140.11c-2.27,4-4.55,8.01-6.82,12.01c66.25-19.02,132.59-37.73,199.06-55.96
					c69.99-19.2,140.11-37.94,210.42-55.97c36.3-9.31,72.66-18.42,109.1-27.2c-3.75-2.13-7.51-4.26-11.26-6.4
					c25.03,84.04,50.06,168.08,75.07,252.13c27.62,92.83,54.55,185.92,83.9,278.22c15.97,50.24,33.49,100.42,55.9,148.18
					C820.42,857.31,830.21,853.3,827.91,847.43L827.91,847.43z"/>
			</g>
		</g>
	</g>
	<g>
		<g>
			<path class="st0" d="M939.51,817.85c-16.07-77.54-22.85-156.41-29.61-235.1c-8.41-97.97-16.83-195.95-25.24-293.92
				c-5.09-59.23-9.32-108.56-14.41-167.8l-0.85-9.9c-160.76,5.25-375.71,18.89-536,31.37l0.58,5.8
				c8.47,73.31,16.93,146.61,25.4,219.92c2.81,24.31,5.62,48.63,8.42,72.94c15.81,136.91,31.63,273.83,47.44,410.74
				c173.56-4.37,346.93-15.21,519.54-32.49"/>
			<g>
				<path class="st1" d="M944.85,816.37c-16.25-94.44-23.13-189.83-30.75-285.26c-7.62-95.4-16.14-190.73-24.21-286.09
					c-3.78-44.63-7.55-89.26-11.33-133.89c-0.41-4.81-3.87-9.32-9.16-9.16c-68.9,2.17-137.77,5.43-206.6,9.16
					c-72.46,3.93-144.9,8.43-217.29,13.41c-37.38,2.57-74.75,5.26-112.1,8.19c-4.85,0.38-10.33,4.18-9.76,9.76
					c4.33,42.93,9.87,85.77,14.84,128.64c5.43,46.82,10.87,93.63,16.3,140.45c10.89,93.86,21.79,187.71,32.68,281.57
					c6.14,52.91,12.24,105.83,18.35,158.74c0.57,4.97,3.86,9.58,9.44,9.44c67.56-1.71,135.1-4.38,202.59-8.04
					c67.8-3.68,135.54-8.34,203.2-14c18.81-1.57,37.61-3.22,56.4-4.94c19.17-1.76,38.21-4.55,57.34-6.46
					c4.56-0.46,8.48-3.57,8.48-8.48c0-4.23-3.9-8.94-8.48-8.48c-16.75,1.67-33.64,2.38-50.42,3.9c-16.82,1.53-33.63,3.06-50.46,4.5
					c-33.66,2.88-67.33,5.51-101.03,7.89c-67.74,4.8-135.54,8.61-203.39,11.42c-38.07,1.58-76.15,2.85-114.24,3.81
					c3.15,3.15,6.29,6.29,9.44,9.44c-10.85-93.92-21.66-187.84-32.46-281.77c-10.77-93.72-21.55-187.44-32.32-281.17
					c-5.61-48.8-11.87-97.58-16.75-146.47c-3.25,3.25-6.51,6.51-9.76,9.76c68.73-5.31,137.48-10.29,206.26-14.78
					c72.43-4.72,144.89-8.98,217.39-12.5c37.44-1.81,74.89-3.42,112.35-4.7c-3.05-3.05-6.1-6.1-9.16-9.16
					c7.55,86.7,15.11,173.41,22.65,260.11c8.36,96.21,16.04,192.52,26.09,288.57c5.59,53.45,12.58,107.22,25.18,159.51
					C935.86,826.35,946.04,823.28,944.85,816.37L944.85,816.37z"/>
			</g>
		</g>
		<g>
			<g>
				<path class="st1" d="M397.23,249.71c10.2-0.13,20.45-1.62,30.62-2.42c9.94-0.79,19.91-1.21,29.88-1.45
					c4.83-0.12,9.66-0.18,14.49-0.11c0.78,0.01,2.56-0.25,3.23,0.07c-1.09-0.52-0.54-1.44-0.5,0.99c0.04,2.55,0.67,5.22,0.98,7.75
					c1.27,10.34,2.43,20.69,3.47,31.05c1.01,10.04,1.97,20.09,2.85,30.15c0.09,1.08-0.21,3.01,0.33,3.89
					c0.03,0.32,0.05,0.65,0.08,0.97c0.85-1.23,1.71-2.45,2.56-3.68c-0.07-0.23-7.35,0.7-7.94,0.76c-5.3,0.51-10.59,1.02-15.89,1.52
					c-10.59,1.02-21.19,2.03-31.78,3.05c-4.41,0.42-8.85,1.03-13.28,1.18c0.04,0-1.95,0.17-2.28-0.02c0.54,0.31,0.58,0.59,0.3-0.37
					c-0.65-2.24-0.04-5.75-0.09-8.1c-0.5-22.57-3.6-45.54-9.64-67.31c-2.39-8.63-15.39-5-13.38,3.69
					c2.75,11.86,5.26,23.78,6.78,35.87c1.5,11.95,1.65,23.87,2.41,35.86c0.3,4.69,1.74,9.31,5.94,11.95
					c4.64,2.93,10.15,2.13,15.3,1.62c12.57-1.25,25.16-2.33,37.74-3.48c5.96-0.55,11.92-1.09,17.87-1.64c4.85-0.45,12,0.26,16-3.01
					c4.7-3.85,3.06-10.42,2.62-15.67c-0.52-6.17-1.06-12.33-1.72-18.48c-1.28-11.99-2.72-23.96-4.31-35.92
					c-1.3-9.8-0.38-24.23-13.11-25.66c-12.71-1.43-26.6,0.28-39.28,1.55c-13.75,1.37-28.21,2.74-41.35,7.22
					C391.82,242.98,392.33,249.77,397.23,249.71L397.23,249.71z"/>
			</g>
		</g>
		<g>
			<g>
				<path class="st1" d="M415.36,382.15c10.2-0.13,20.45-1.62,30.62-2.42c9.94-0.79,19.91-1.21,29.88-1.45
					c4.83-0.12,9.66-0.18,14.49-0.11c0.78,0.01,2.56-0.25,3.23,0.07c-1.09-0.52-0.54-1.44-0.5,0.99c0.04,2.55,0.67,5.22,0.98,7.75
					c1.27,10.34,2.43,20.69,3.47,31.05c1.01,10.04,1.97,20.09,2.85,30.15c0.09,1.08-0.21,3.01,0.33,3.89
					c0.03,0.32,0.05,0.65,0.08,0.97c0.85-1.23,1.71-2.45,2.56-3.68c-0.07-0.23-7.35,0.7-7.94,0.76c-5.3,0.51-10.59,1.02-15.89,1.52
					c-10.59,1.02-21.19,2.03-31.78,3.05c-4.41,0.42-8.85,1.03-13.28,1.18c0.04,0-1.95,0.17-2.28-0.02c0.54,0.31,0.58,0.59,0.3-0.37
					c-0.65-2.24-0.04-5.75-0.09-8.1c-0.5-22.57-3.6-45.54-9.64-67.31c-2.39-8.63-15.39-5-13.38,3.69
					c2.75,11.86,5.26,23.78,6.78,35.87c1.5,11.95,1.65,23.87,2.41,35.86c0.3,4.69,1.74,9.31,5.94,11.95
					c4.64,2.93,10.15,2.13,15.3,1.62c12.57-1.25,25.16-2.33,37.74-3.48c5.96-0.55,11.92-1.09,17.87-1.64c4.85-0.45,12,0.26,16-3.01
					c4.7-3.85,3.06-10.42,2.62-15.67c-0.52-6.17-1.06-12.33-1.72-18.48c-1.28-11.99-2.72-23.96-4.31-35.92
					c-1.3-9.8-0.38-24.23-13.11-25.66c-12.71-1.43-26.6,0.28-39.28,1.55c-13.75,1.37-28.21,2.74-41.35,7.22
					C409.94,375.42,410.45,382.21,415.36,382.15L415.36,382.15z"/>
			</g>
		</g>
		<g>
			<g>
				<path class="st1" d="M432.59,513.09c10.2-0.13,20.45-1.62,30.62-2.42c9.94-0.79,19.91-1.21,29.88-1.45
					c4.83-0.12,9.66-0.18,14.49-0.11c0.78,0.01,2.56-0.25,3.23,0.07c-1.09-0.52-0.54-1.44-0.5,0.99c0.04,2.55,0.67,5.22,0.98,7.75
					c1.27,10.34,2.43,20.69,3.47,31.05c1.01,10.04,1.97,20.09,2.85,30.15c0.09,1.08-0.21,3.01,0.33,3.89
					c0.03,0.32,0.05,0.65,0.08,0.97c0.85-1.23,1.71-2.45,2.56-3.68c-0.07-0.23-7.35,0.7-7.94,0.76c-5.3,0.51-10.59,1.02-15.89,1.52
					c-10.59,1.02-21.19,2.03-31.78,3.05c-4.41,0.42-8.85,1.03-13.28,1.18c0.04,0-1.95,0.17-2.28-0.02c0.54,0.31,0.58,0.59,0.3-0.37
					c-0.65-2.24-0.04-5.75-0.09-8.1c-0.5-22.57-3.6-45.54-9.64-67.31c-2.39-8.63-15.39-5-13.38,3.69
					c2.75,11.86,5.26,23.78,6.78,35.87c1.5,11.95,1.65,23.87,2.41,35.86c0.3,4.69,1.74,9.31,5.94,11.95
					c4.64,2.93,10.15,2.13,15.3,1.62c12.57-1.25,25.16-2.33,37.74-3.48c5.96-0.55,11.92-1.09,17.87-1.64c4.85-0.45,12,0.26,16-3.01
					c4.7-3.85,3.06-10.42,2.62-15.67c-0.52-6.17-1.06-12.33-1.72-18.48c-1.28-11.99-2.72-23.96-4.31-35.92
					c-1.3-9.8-0.38-24.23-13.11-25.66c-12.71-1.43-26.6,0.28-39.28,1.55c-13.75,1.37-28.21,2.74-41.35,7.22
					C427.18,506.36,427.69,513.15,432.59,513.09L432.59,513.09z"/>
			</g>
		</g>
		<g>
			<g>
				<path class="st1" d="M449.03,639.84c10.2-0.13,20.45-1.62,30.62-2.42c9.94-0.79,19.91-1.21,29.88-1.45
					c4.83-0.12,9.66-0.18,14.49-0.11c0.78,0.01,2.56-0.25,3.23,0.07c-1.09-0.52-0.54-1.44-0.5,0.99c0.04,2.55,0.67,5.22,0.98,7.75
					c1.27,10.34,2.43,20.69,3.47,31.05c1.01,10.04,1.97,20.09,2.85,30.15c0.09,1.08-0.21,3.01,0.33,3.89
					c0.03,0.32,0.05,0.65,0.08,0.97c0.85-1.23,1.71-2.45,2.56-3.68c-0.07-0.23-7.35,0.7-7.94,0.76c-5.3,0.51-10.59,1.02-15.89,1.52
					c-10.59,1.02-21.19,2.03-31.78,3.05c-4.41,0.42-8.85,1.03-13.28,1.18c0.04,0-1.95,0.17-2.28-0.02c0.54,0.31,0.58,0.59,0.3-0.37
					c-0.65-2.24-0.04-5.75-0.09-8.1c-0.5-22.57-3.6-45.54-9.64-67.31c-2.39-8.63-15.39-5-13.38,3.69
					c2.75,11.86,5.26,23.78,6.78,35.87c1.5,11.95,1.65,23.87,2.41,35.86c0.3,4.69,1.74,9.31,5.94,11.95
					c4.64,2.93,10.15,2.13,15.3,1.62c12.57-1.25,25.16-2.33,37.74-3.48c5.96-0.55,11.92-1.09,17.87-1.64c4.85-0.45,12,0.26,16-3.01
					c4.7-3.85,3.06-10.42,2.62-15.67c-0.52-6.17-1.06-12.33-1.72-18.48c-1.28-11.99-2.72-23.96-4.31-35.92
					c-1.3-9.8-0.38-24.23-13.11-25.66c-12.71-1.43-26.6,0.28-39.28,1.55c-13.75,1.37-28.21,2.74-41.35,7.22
					C443.61,633.11,444.12,639.9,449.03,639.84L449.03,639.84z"/>
			</g>
		</g>
		<g>
			<g>
				<path class="st1" d="M524.32,249.89c-1.27,5.87,0.77,11.44,3.65,16.62c2.65,4.77,7.06,10.83,13.05,11.09
					c6.3,0.27,8.9-5.4,11.23-10.25c3.63-7.55,7.25-15.11,10.88-22.66c-2.48,0-4.96,0-7.45,0c5.54,7.85,10.93,15.78,16.32,23.73
					c3.59,5.29,8.25,11.54,15.5,10.38c7.22-1.16,9.57-8.52,11.52-14.54c1.35-4.16,2.7-8.33,4.05-12.49
					c0.53-1.65,2.35-9.89,4.99-9.99c0.78-0.03,2.76,2.79,3.23,3.3c1.49,1.62,2.96,3.27,4.44,4.91c3.38,3.74,6.75,7.49,10.14,11.22
					c4.58,5.06,9.83,10.7,17.18,10.83c10.05,0.17,15.44-8.93,19.6-16.72c3.64-6.81,8.85-18.31,17.99-11.44
					c7.56,5.69,12.06,16.84,22.51,17.97c5.5,0.59,10.39-2.12,13.85-6.26c2.61-3.13,5.55-11.07,9.94-11.97
					c3.75-0.77,6.83,4.64,8.66,7.11c3.01,4.06,6.08,8.37,10.76,10.63c6.35,3.07,13.12,0.88,17.93-3.9
					c4.98-4.96,7.68-10.66,15.4-11.07c12.43-0.65,28.37,6.5,37.9-5.02c3.65-4.41-1.81-9.79-6.23-6.23
					c-4.19,3.38-9.79,2.72-14.75,2.05c-5.77-0.78-11.67-2-17.52-1.68c-6.18,0.34-11.63,2.39-16.11,6.73
					c-2.81,2.72-6.95,10.69-11.62,9.5c-3.69-0.94-6.61-6.2-8.83-8.97c-2.86-3.56-6.16-7.22-10.65-8.67
					c-4.91-1.59-10.03-0.2-13.82,3.2c-4.03,3.61-5.77,9.13-9.73,12.71c-6.82,6.16-15.19-7.76-19.66-11.61
					c-7.17-6.19-16.61-8.25-24.21-1.51c-6.66,5.9-9.24,14.68-14.87,21.33c-2.96,3.49-6.23,4.76-10.37,1.98
					c-6.6-4.44-11.95-11.9-17.4-17.64c-4.64-4.89-9.78-12.76-17.55-9.43c-7.2,3.08-9.22,12.08-11.47,18.73
					c-1.53,4.51-2.82,9.22-4.64,13.63c-0.42,1.02-1.28,3.51-2.64,3.63c-1.47,0.12-3.61-2.93-4.34-3.84
					c-6.4-7.99-12.17-16.57-18.07-24.93c-1.7-2.41-5.93-3.17-7.45,0c-2.23,4.65-4.46,9.3-6.7,13.95c-1.12,2.32-2.23,4.65-3.35,6.97
					c-0.86,1.8-1.68,4.92-3.04,6.36c-0.41,1.58-1.55,1.95-3.43,1.12c-1.03-0.81-1.96-1.71-2.81-2.71c-1.58-1.73-3.01-3.66-4.3-5.61
					c-2.34-3.54-3.92-7.29-6.47-10.7C525.27,249.28,524.46,249.24,524.32,249.89L524.32,249.89z"/>
			</g>
		</g>
		<g>
			<g>
				<path class="st1" d="M535.36,303.94c-3.94,3.27,0.8,10.03,3.63,12.45c4.34,3.73,10.99,5.07,16.21,2.48
					c3.03-1.51,5.42-3.97,7.71-6.4c1.76-1.88,3.81-4.8,6.51-5.35c3.61-0.74,7.16,3.05,9.74,5.03c2.88,2.2,5.84,4.14,9.39,5.05
					c7.07,1.81,14.65,0.07,20.11-4.78c2.51-2.23,4.1-5.32,6.6-7.53c2.95-2.61,5.89-0.53,8.82,1.18c7.27,4.26,14.01,6.2,22.49,5.18
					c4.12-0.49,8.17-1.34,12.26-2.04c4.2-0.72,8.04-0.7,11.94-2.61c2.54-1.24,3.08-5.37,0.93-7.21c-6.02-5.16-14.03-3.12-21.17-1.64
					c-3.64,0.76-7.36,1.71-11.12,1.47c-3.85-0.24-6.71-1.99-10.04-3.74c-6.19-3.24-12.81-5.4-19.25-1.42
					c-5.21,3.21-7.32,9.88-13.28,11.96c-6.98,2.45-11.74-2.84-17.27-6.09c-5.45-3.2-11.68-3.84-17.11-0.24
					c-4.64,3.08-7.53,10-13.03,11.57c-2.78,0.79-5.93-0.36-8.02-2.27c-1.74-1.59-2.11-4.13-4.23-5.28
					C536.54,303.37,535.89,303.5,535.36,303.94L535.36,303.94z"/>
			</g>
		</g>
		<g>
			<g>
				<path class="st1" d="M541.73,397.29c-5.83,2.66-4.8,9.78-2.25,14.56c2.88,5.39,8.54,8.82,14.69,8.58
					c5.84-0.23,11.53-3.46,14.45-8.56c1.28-2.24,1.62-5.92,3.48-7.7c-0.3,0.29-0.88-0.38,0.25,0.22c0.74,0.39,1.45,0.85,2.13,1.34
					c7.96,5.66,16.58,14.72,26.62,6.93c2.17-1.68,3.76-3.88,5.29-6.14c1.04-1.54,2.24-4.29,4.07-5.08c2.03-0.88,4.87,2.14,6.56,3.83
					c6.07,6.08,12.17,14.87,21.81,14.46c5.46-0.23,9.83-3.66,12.7-8.11c2.2-3.42,3.02-8.93,5.96-11.76
					c1.08-1.04,0.96-0.76,1.82-0.14c1.8,1.3,3.21,3.19,4.69,4.82c3.58,3.93,7.9,7.54,13.52,7.51c6.66-0.03,11.42-4.9,14.43-10.37
					c1.38-2.51,2.3-5.65,4.49-7.61c1.73-1.54,1.69-0.08,3.07,1.92c3.67,5.3,8.75,9.46,15.55,6.92c2.86-1.07,4.89-3.19,6.72-5.56
					c0.78-1.02,2.87-4.53,3.79-4.59c0.59-0.04,2.78,1.67,3.58,2.12c1.89,1.07,3.87,2,5.9,2.78c3.85,1.49,7.88,2.23,11.96,2.69
					c7.65,0.85,17.75,1.27,24.01-3.61c2.21-1.73,1.4-5.72-0.89-6.92c-5.99-3.15-13.23-1.35-19.81-1.74
					c-3.56-0.21-7.05-0.68-10.44-1.82c-3.24-1.09-5.96-3.1-9.07-4.46c-5.44-2.39-10.85-1.25-15.04,2.91
					c-1.5,1.49-2.67,3.3-4.01,4.92c-0.36,0.43-1.44,2.12-0.9,1.16c0.54-0.94,1.3,1.44,0.23-0.67c-2.3-4.51-6.74-8.79-11.86-9.54
					c-6.44-0.94-11.84,3.48-15.25,8.51c-1.54,2.27-2.51,4.85-4.02,7.13c-1.16,1.75-1.86,2.8-3.15,2.23
					c-3.83-1.69-6.5-6.56-10.01-8.96c-9.24-6.32-18.31-0.89-22.69,8.06c-1.3,2.66-2.68,8.01-5.83,9.01
					c-0.28,0.09-0.93-0.04-1.87-0.5c-1.57-0.77-2.87-2.07-4.13-3.26c-5.86-5.55-11.83-13.72-20.7-13.95
					c-4.92-0.12-9.26,2.41-12.33,6.13c-1.77,2.15-4.17,8.19-7.33,8.01c-3.88-0.23-8.56-6.09-11.68-8.06
					c-4.23-2.67-9.43-3.9-14.02-1.3c-2.86,1.62-4.69,4.25-5.95,7.21c-1.19,2.8-1.57,6.18-4.71,7.42c-6.95,2.74-7.1-6.16-9.65-9.87
					C544.89,396.92,543.33,396.56,541.73,397.29L541.73,397.29z"/>
			</g>
		</g>
		<g>
			<g>
				<path class="st1" d="M793.94,388.7c-0.61-0.27-1.33-0.65-1.89-0.8c-1.83-0.51-3.72-0.19-5.37,0.73
					c-2.94,1.65-4.46,5.1-3.55,8.39c0.66,2.39,2.67,4.58,5.14,5.14c1.93,0.44,3.93,0.28,5.67-0.74c2.24-1.31,3.64-3.76,3.64-6.35
					c0-1.33-0.34-2.57-1-3.71C795.93,390.23,795.05,389.35,793.94,388.7L793.94,388.7z"/>
			</g>
		</g>
		<g>
			<g>
				<path class="st1" d="M551.37,516.41c-2.29,7.84,4.19,15.72,12.31,15.38c4.62-0.19,8.79-3.03,11.16-6.9
					c1.11-1.81,1.76-3.84,2.07-5.93c0.05-0.31,0.57-2.72,0.34-2.88c-0.68,0.4-1.37,0.79-2.05,1.19c0.67,0.23,1.29,0.55,1.86,0.97
					c7.96,4.79,18.02,16.89,28.33,11.37c4.34-2.33,7.02-7.02,9.88-10.86c3.69-4.96,7.37-9.93,11.06-14.89c-3.51,0-7.02,0-10.53,0
					c5.02,6.53,10.09,13.48,17.72,17.14c6.87,3.3,15.37,3.63,21.93-0.58c3.18-2.04,5.1-5.05,7.15-8.12
					c0.91-1.36,1.38-2.49,2.84-2.19c2.03,0.41,4.44,4.13,5.84,5.52c2.15,2.15,4.49,4.26,7.22,5.65c6.66,3.38,13.46,1.37,18.94-3.19
					c2.26-1.88,4.2-4.16,6.53-5.95c3.52-2.72,6.93-2.26,11.05-1.13c8.35,2.28,15.97,4.22,24.53,1.5
					c7.58-2.41,13.72-7.31,18.11-13.87c-3.48,0-6.96,0-10.44,0c2.58,5.68,9.09,7.66,14.9,7.04c3.77-0.4,7.95-3.09,11.65-2.71
					c2.92,0.3,5.52,2.72,8.18,3.86c7.26,3.12,12.24-0.35,18.42-3.85c7.4-4.19,14.63-2.85,22.66-2.82c4.02,0.01,5.33-5.38,2.01-7.42
					c-5.36-3.3-11.75-3.47-17.88-2.63c-3.23,0.44-6.43,1.17-9.49,2.3c-2.8,1.03-5.99,3.59-8.91,3.94c-2.48,0.3-4.89-2.07-6.99-3.16
					c-2.83-1.48-5.65-2.34-8.87-2.29c-3.67,0.06-6.88,1.47-10.39,2.29c-1.07,0.25-2,0.58-3.14,0.43c-1.67-0.22-1.12,0.18-1.71-1.08
					c-2.07-4.43-8.12-3.41-10.44,0c-3.65,5.36-9.84,8.81-16.31,9.23c-7.81,0.51-14.88-4.27-22.75-3.95
					c-6.46,0.26-11.25,3.92-15.85,8.05c-3.7,3.32-6.25,6.23-10.64,2.56c-3.89-3.25-6.85-7.49-11.61-9.6
					c-5.22-2.32-10.96-1.07-14.95,3c-4.24,4.33-5.48,10.15-12.82,9.01c-7.01-1.09-12.03-7.81-15.94-13.12
					c-2.03-2.76-6.93-4.65-9.57-1.23c-5.16,6.67-10.05,13.76-15.59,20.11c-0.4,0.45-1.69,1.77-1.83,1.77
					c-1.44,0.06-4.49-2.72-5.64-3.45c-3.55-2.25-7.12-4.61-10.86-6.54c-5.59-2.87-13.12-3.29-15.71,3.72
					c-1.04,2.82,0,6.37-2.23,8.69c-2.95,3.06-6.88,0.67-6.34-3.4C559.11,513.2,552.49,512.59,551.37,516.41L551.37,516.41z"/>
			</g>
		</g>
		<g>
			<g>
				<path class="st1" d="M563.12,564.41c3.49,6.03,8.35,11.57,15.77,12.07c6.73,0.46,12.43-3.41,16.61-8.39
					c2.01-2.4,3.8-4.99,5.4-7.68c0.81-1.37,1.45-3.14,2.44-4.4c1.35-1.72,2.14-1.37,3.91-0.09c5.78,4.2,7.51,11.61,15.16,13.73
					c12.61,3.5,16.54-8.96,22.6-16.7c3.02-3.86,5.77-2.2,8.91,0.67c3.88,3.55,7.45,7.64,12.41,9.7c5.76,2.39,11.92,1.18,16.58-2.91
					c3.49-3.07,6.27-10.05,10.99-11.26c4.04-1.04,8.49,2.97,11.48,5.13c4.45,3.21,8.88,6.7,14.23,8.27
					c5.72,1.68,11.47,0.46,16.21-3.07c4.29-3.2,6.96-8.2,11.25-11.29c2.3-1.65,3.38-0.94,5.83,0.29c3.04,1.53,6.03,2.65,9.48,2.44
					c5.74-0.35,10.38-3.81,14.74-7.2c1.81-1.41,3.95-3.59,6.17-4.3c2.2-0.71,2.37,0.47,4.03,2.39c4.98,5.76,11.83,7.01,17.87,1.98
					c1.38-1.15,3.87-5.09,5.57-5.44c0.18-0.04,1.19,0.91,2.03,1.43c1.64,1.01,3.38,1.89,5.25,2.41c7.76,2.2,16.57-0.24,20.78-7.32
					c2.94-4.95-3.04-11.34-8.08-8.08c-2.09,1.36-4.49,2.92-7.03,3.08c-3.41,0.22-5.61-2.37-8.6-3.53
					c-6.05-2.35-11.16,0.5-15.33,4.83c-0.72,0.75-1.43,1.51-2.14,2.26c-0.98,1.03-1.48,0.66-0.62,0.95c0.77,0.26-1.1-1.47-1.41-1.78
					c-1.25-1.28-2.53-2.58-4.08-3.52c-4.38-2.66-9.5-2.24-13.96-0.09c-4.3,2.08-7.77,5.51-11.79,8.04c-1.3,0.82-3.03,2.06-4.68,1.98
					c-3.42-0.15-6.63-3.27-10.2-3.69c-5.4-0.65-9.95,2.04-13.76,5.62c-3.2,3.02-6.2,8.3-10.59,9.69c-4.15,1.31-8.6-2.26-11.79-4.43
					c-4.28-2.92-8.36-5.97-13.23-7.84c-4.81-1.85-10.19-1.81-14.78,0.71c-5.16,2.84-7.49,8.12-11.89,11.7
					c-3.45,2.81-6.38-0.12-9.18-2.58c-3.78-3.33-7.56-7.11-12.43-8.79c-11.45-3.93-17.81,6.15-23.11,14.31
					c-0.79,1.22-2.18,3.87-3.81,4.17c-2.29,0.43-4.43-2.61-5.71-4.11c-4.64-5.43-10.3-11.98-18.32-10.51
					c-7.91,1.45-10.13,9.69-14.3,15.4c-1.77,2.43-4.44,5.74-7.59,6.32c-3.86,0.71-6.46-3.04-8.29-5.86
					C568.48,553.58,559.74,558.57,563.12,564.41L563.12,564.41z"/>
			</g>
		</g>
		<g>
			<g>
				<path class="st1" d="M575.05,662.16c4.16,8.35,10.44,15.61,16.19,22.92c2.17,2.76,7.27,1.82,8.76-1.13
					c4.31-8.51,8.57-17.05,12.95-25.53c0.48-0.98,0.98-1.95,1.52-2.9c1.13-0.94,1.03-1.39-0.3-1.35c0.9,0.3,2.98,3.56,3.53,4.23
					c3.35,4.08,6.7,8.15,10.04,12.23c4.57,5.56,9.8,11.85,17.86,9.99c7.66-1.77,11.41-9.26,12.95-16.26
					c0.64-2.9,0.73-8.36,3.23-10.53c3.41-2.97,6.84,3.44,8.17,5.94c3.16,5.92,6.22,12.11,12.85,14.7
					c6.92,2.71,14.69,0.19,19.95-4.75c5.98-5.61,8.05-13.76,9.87-21.45c-3.63,0.48-7.27,0.95-10.9,1.42
					c4.9,8.04,9.72,16.13,14.86,24.02c2.5,3.83,8.13,4.08,10.58,0c6.87-11.48,12.33-23.57,17.07-36.05c-3.69,0-7.38,0-11.07,0
					c3.15,9.88,5.5,20.63,9.76,30.09c4.12,9.14,14.21,7.29,18.9-0.15c2.41-3.82,3.44-8.59,4.83-12.84c0.8-2.44,1.6-4.89,2.4-7.33
					c0.45-1.39,1.4-3.11,1.5-4.58c0.2-0.61,0.4-1.22,0.6-1.83c-0.68,0.09-1.37,0.19-2.05,0.28c-0.42,0.64,1.76,5.72,2.03,6.61
					c0.73,2.39,1.5,4.77,2.29,7.14c1.76,5.26,3.4,10.44,6.5,15.05c3.31,4.91,10.38,1.78,9.34-3.94c-0.91-4.98-2.94-9.46-4.71-14.19
					c-1.77-4.72-3.11-9.67-5.09-14.31c-3.04-7.13-11.95-11.14-17.01-3.31c-2.42,3.75-3.55,8.69-5.08,12.85
					c-1.63,4.4-4.35,9.31-5.34,13.83c-0.28,0.36-0.55,0.71-0.83,1.07c0.92,0.12,1.84,0.24,2.75,0.36c0.21-0.24-1.15-3.31-1.29-3.72
					c-0.97-2.79-1.94-5.57-2.92-8.36c-1.84-5.26-3.67-10.52-5.51-15.79c-1.9-5.44-9.17-5.44-11.07,0
					c-4.09,11.65-9.87,22.59-16.58,32.92c3.53,0,7.05,0,10.58,0c-4.86-8.07-10.04-15.94-15.14-23.85c-2.63-4.09-9.72-3.82-10.9,1.42
					c-1.4,6.19-3.59,17.41-11.69,18.18c-6.14,0.58-8.88-9.28-11.85-13.23c-4.14-5.51-10.87-9.94-17.99-7.74
					c-7.25,2.24-9.98,9.82-11.34,16.52c-0.59,2.87-1.07,9.31-4.53,10.52c-3.1,1.08-6.32-4.67-7.99-6.71
					c-2.92-3.57-5.85-7.15-8.77-10.72c-2.46-3-4.77-6.7-8.45-8.27c-7.28-3.1-12.36,3.2-15.32,9.05
					c-4.31,8.51-8.54,17.07-12.81,25.61c2.92-0.38,5.84-0.75,8.76-1.13c-6.41-6.61-12.71-13.56-20.36-18.75
					C576.35,656.79,573.93,659.91,575.05,662.16L575.05,662.16z"/>
			</g>
		</g>
		<g>
			<g>
				<path class="st1" d="M804.5,668.98c2.13,0,4.36-0.93,5.87-2.43c0.81-0.75,1.38-1.64,1.72-2.67c0.52-0.99,0.76-2.05,0.71-3.2
					c-0.1-2.15-0.8-4.37-2.43-5.87c-1.62-1.49-3.62-2.43-5.87-2.43c-2.13,0-4.36,0.93-5.87,2.43c-0.81,0.75-1.38,1.64-1.72,2.67
					c-0.52,0.99-0.76,2.05-0.71,3.2c0.1,2.15,0.8,4.37,2.43,5.87C800.26,668.04,802.25,668.98,804.5,668.98L804.5,668.98z"/>
			</g>
		</g>
		<g>
			<g>
				<path class="st3" d="M426.05,268.27c2.26,7.3,6.89,13.95,11.24,20.14c4.52,6.44,9.47,12.58,14.76,18.41
					c3.18,3.5,8.38,2.04,10.77-1.39c10.2-14.61,13.18-33.73,19.46-50.17c6.32-16.55,14.63-32.64,26.53-45.89
					c5.68-6.32-3.72-15.73-9.35-9.35c-12.25,13.9-21.25,29.84-28.33,46.89c-7.03,16.9-10.21,36.1-20.15,51.6
					c3.59-0.46,7.18-0.93,10.77-1.39c-5.36-5-10.43-10.28-15.13-15.91c-4.62-5.54-8.41-11.89-13.36-17.14
					C430.33,260.96,424.78,264.17,426.05,268.27L426.05,268.27z"/>
			</g>
		</g>
		<g>
			<g>
				<path class="st3" d="M463.55,537.83c8.06,12.23,19.5,22.93,30.17,32.87c3.09,2.88,9.22,2.92,11.25-1.45
					c7.97-17.15,15.47-34.4,24.57-51.02c4.46-8.16,9.16-16.18,14.09-24.06c5.08-8.12,10.92-15.82,15.76-24.06
					c3.91-6.66-5.68-14.62-10.97-8.46c-12.52,14.57-22.41,32.36-31.7,49.1c-9.4,16.95-18.41,34.67-24.85,52.99
					c3.51-1.43,7.02-2.85,10.53-4.28c-11.09-8.48-20.69-18.51-31.42-27.35C467.14,528.92,460.37,533,463.55,537.83L463.55,537.83z"
					/>
			</g>
		</g>
		<g>
			<g>
				<path class="st2" d="M896.25,619.32c-6.85,6.24-10.45,15.46-13.8,23.93c-3.16,7.98-6.35,15.96-9.55,23.93
					c-6.25,15.54-12.1,31.39-17.11,47.38c-5.01,15.98-9.99,31.96-14.93,47.96c-2.52,8.15-5.06,16.3-7.61,24.44
					c-2.8,8.92-6.9,18.43-7.22,27.82c-0.27,8.1,6.14,16.76,14.14,18.58c8.81,2.01,16.69-1.53,21.76-8.85
					c3.1-4.48,4.55-10.48,6.34-15.64c1.29-3.73,2.57-7.45,3.84-11.19c2.73-8.09,5.44-16.19,8.13-24.3
					c5.28-15.9,10.34-31.85,15.23-47.88c4.87-15.97,8.81-32.39,12.08-48.77c1.67-8.39,3.33-16.79,4.96-25.2
					c1.74-8.98,3.41-18.75,0.91-27.68C911.26,616.15,901.9,614.17,896.25,619.32L896.25,619.32z"/>
			</g>
		</g>
		<g>
			<g>
				<path class="st1" d="M944.85,816.37c-16.25-94.44-23.13-189.83-30.75-285.26c-7.62-95.4-16.14-190.73-24.21-286.09
					c-3.78-44.63-7.55-89.26-11.33-133.89c-0.41-4.81-3.87-9.32-9.16-9.16c-68.9,2.17-137.77,5.43-206.6,9.16
					c-72.46,3.93-144.9,8.43-217.29,13.41c-37.38,2.57-74.75,5.26-112.1,8.19c-4.85,0.38-10.33,4.18-9.76,9.76
					c4.33,42.93,9.87,85.77,14.84,128.64c5.43,46.82,10.87,93.63,16.3,140.45c10.89,93.86,21.79,187.71,32.68,281.57
					c6.14,52.91,12.24,105.83,18.35,158.74c0.57,4.97,3.86,9.58,9.44,9.44c67.56-1.71,135.1-4.38,202.59-8.04
					c67.8-3.68,135.54-8.34,203.2-14c18.81-1.57,37.61-3.22,56.4-4.94c19.17-1.76,38.21-4.55,57.34-6.46
					c4.56-0.46,8.48-3.57,8.48-8.48c0-4.23-3.9-8.94-8.48-8.48c-16.75,1.67-33.64,2.38-50.42,3.9c-16.82,1.53-33.63,3.06-50.46,4.5
					c-33.66,2.88-67.33,5.51-101.03,7.89c-67.74,4.8-135.54,8.61-203.39,11.42c-38.07,1.58-76.15,2.85-114.24,3.81
					c3.15,3.15,6.29,6.29,9.44,9.44c-10.85-93.92-21.66-187.84-32.46-281.77c-10.77-93.72-21.55-187.44-32.32-281.17
					c-5.61-48.8-11.87-97.58-16.75-146.47c-3.25,3.25-6.51,6.51-9.76,9.76c68.73-5.31,137.48-10.29,206.26-14.78
					c72.43-4.72,144.89-8.98,217.39-12.5c37.44-1.81,74.89-3.42,112.35-4.7c-3.05-3.05-6.1-6.1-9.16-9.16
					c7.55,86.7,15.11,173.41,22.65,260.11c8.36,96.21,16.04,192.52,26.09,288.57c5.59,53.45,12.58,107.22,25.18,159.51
					C935.86,826.35,946.04,823.28,944.85,816.37L944.85,816.37z"/>
			</g>
		</g>
	</g>
	<g>
		<g>
			<g>
				<path class="st0" d="M728.57,803.2c1.5-3.14,3.03-6.27,4.49-9.43c-2.33-0.63-4.66-1.26-6.99-1.89
					c-0.24,12.96-0.48,25.91-0.72,38.87c-0.1,5.12,7.69,6.23,8.96,1.21c2.64-10.45,4.85-21.02,7.23-31.54
					c-2.96-0.4-5.91-0.8-8.87-1.2c-0.45,12.79-1.3,25.56-1.67,38.35c-0.15,5.38,7.61,6.15,9.15,1.24
					c4.03-12.84,8.04-25.67,12.08-38.5c-2.76-0.37-5.53-0.75-8.29-1.12c-1.9,14.93-3.69,29.83-5.26,44.79
					c-0.46,4.4,6.34,6.01,8.26,2.24c6.8-13.34,7.08-30.34,17.05-41.94c-2.27-0.6-4.53-1.2-6.8-1.8c2.56,6.12-1.16,14.24-2.74,20.32
					c-1.83,7.05-3.66,14.1-5.49,21.15c2.79,0.77,5.58,1.54,8.37,2.31c2.14-11.06,5.71-21.19,11.63-30.82
					c-2.4-1.01-4.8-2.02-7.2-3.03c-2.47,12.99-4.99,25.93-7.16,38.97c-0.67,4.01,4.41,8.38,7.68,4.47
					c9.75-11.68,11.89-28.2,22.91-38.86c-2.23-1.3-4.46-2.6-6.69-3.9c-5.54,13.91-10.5,27.89-14.26,42.4
					c-1.06,4.08,4.39,7.79,7.42,4.32c11.55-13.2,13.96-31.99,26.18-44.56c-2.62-1.53-5.24-3.05-7.86-4.58
					c-5.12,15.59-10.91,30.96-17.42,46.03c-2.42,5.6,5.25,10.54,8.43,4.92c8.74-15.44,18.6-30.21,29.79-43.98
					c-2.44-1.88-4.88-3.77-7.32-5.65c-7.49,14.65-15.31,29.02-21.44,44.32c-1.72,4.29,4.02,8.1,7.62,5.86
					c6.66-4.16,10.28-11.05,14.35-17.52c5.14-8.18,10.27-16.36,15.41-24.54c-3.02-1.77-6.05-3.53-9.07-5.3
					c-7.33,12.88-14.27,25.87-20.64,39.26c-3.19,6.7,5.96,12.25,10.04,5.87c6.43-10.06,12.82-20.15,19.23-30.22
					c-3.28-1.92-6.56-3.83-9.84-5.75c-3.64,7.5-7.32,14.99-10.99,22.47c3.29,1.92,6.57,3.84,9.86,5.76
					c5.41-12.09,7.8-24.99,6.71-38.22c-0.37-4.48-4.33-6.44-8.29-4.76c-6.93,2.94-11.69,8.95-15.52,15.22
					c-4.62,7.57-8.67,15.56-12.39,23.6c-2.91,6.27,5.87,11.73,9.44,5.52c4.39-7.65,8.03-15.75,10.69-24.17
					c1.79-5.66,5.93-15.61,0.6-20.7c-6.74-6.45-13.63,2.78-17.73,7.31c-6.44,7.11-12.83,14.23-19.05,21.53
					c3.24,1.34,6.47,2.68,9.71,4.02c1.08-10.01,3.84-20,8.38-29.01c-3.08-1.8-6.17-3.6-9.25-5.41c-3.43,6.8-6.92,13.58-10.23,20.43
					c3.39,0.92,6.77,1.83,10.16,2.75c0.6-5.09,2.5-9.72,5.24-14.01c-3.27-0.89-6.54-1.77-9.81-2.66c-0.26,3.6-0.52,7.19-0.77,10.79
					c-0.48,6.66,9.71,6.53,10.31,0c0.33-3.6,0.66-7.19,0.99-10.79c0.52-5.6-7.17-6.61-9.81-2.66c-3.61,5.42-5.95,11.42-6.85,17.88
					c-0.77,5.54,6.89,10.25,9.96,4.2c3.45-6.79,6.73-13.68,10.06-20.53c3.01-6.17-6.22-11.61-9.25-5.41
					c-5.38,11.03-8.92,22.23-10.5,34.41c-0.64,4.91,6.63,7.47,9.71,4.02c4.26-4.77,8.48-9.56,12.59-14.46
					c2.06-2.45,4.12-4.9,6.18-7.35c1.23-1.47,2.46-2.95,3.71-4.41c1.49-1.75,3.08-2.01,0.25-3.23c-2.55-1.1-1.79-0.61-2.35,1.85
					c-0.33,1.46-0.74,2.9-1.15,4.33c-0.82,2.87-1.76,5.71-2.81,8.51c-2.25,6.01-5.15,11.72-8.41,17.24
					c3.15,1.84,6.29,3.68,9.44,5.52c3.28-6.84,6.68-13.61,10.4-20.22c2.98-5.29,6.37-11.62,12.31-14.05
					c-2.32-1.77-4.65-3.54-6.97-5.31c0.77,11.2-0.99,22.16-5.55,32.46c-2.92,6.59,6.61,12.45,9.86,5.76
					c3.65-7.5,7.29-15,10.98-22.48c3.23-6.56-5.83-11.96-9.84-5.75c-6.48,10.04-12.97,20.06-19.43,30.11
					c3.35,1.96,6.69,3.91,10.04,5.87c5.8-13.59,12.32-27,19.68-39.83c3.38-5.89-5.47-11.01-9.07-5.3
					c-4.44,7.04-8.89,14.08-13.33,21.12c-3.52,5.58-6.92,13.54-12.59,17.28c2.54,1.95,5.08,3.91,7.62,5.86
					c5.42-14.56,12.23-28.64,19.48-42.37c2.35-4.45-3.77-9.9-7.32-5.65c-11.91,14.25-22.57,29.42-31.63,45.65
					c2.81,1.64,5.62,3.28,8.43,4.92c6.75-15.88,12.8-32.02,18.07-48.45c1.44-4.49-4.67-7.91-7.86-4.58
					c-12.32,12.86-14.54,31.49-25.81,44.94c2.47,1.44,4.95,2.88,7.42,4.32c3.43-14.48,7.71-28.88,13.42-42.63
					c1.65-3.97-4.03-6.32-6.69-3.9c-11.43,10.44-14.03,26.4-23.74,38.03c2.56,1.49,5.12,2.98,7.68,4.47
					c2.18-13.09,4.01-26.19,5.89-39.32c0.62-4.28-4.59-6.98-7.2-3.03c-6.46,9.76-11.24,20.92-13.2,32.49
					c-0.91,5.4,7.02,7.83,8.37,2.31c2.02-8.31,4.04-16.62,6.07-24.93c1.64-6.75,4.37-14.2,1.64-21.01c-1.05-2.61-4.56-4.31-6.8-1.8
					c-10.95,12.34-11.49,29.12-18.96,43.21c2.75,0.75,5.51,1.49,8.26,2.24c1.8-14.92,3.36-29.83,4.83-44.79
					c0.49-4.96-6.85-5.4-8.29-1.12c-4.29,12.76-8.62,25.51-12.93,38.27c3.05,0.41,6.1,0.83,9.15,1.24
					c0.65-12.77,0.82-25.57,1.38-38.35c0.22-5.07-7.7-6.16-8.87-1.2c-2.47,10.49-5.11,20.96-7.32,31.51
					c2.99,0.4,5.97,0.81,8.96,1.21c-0.3-12.96-0.59-25.91-0.89-38.87c-0.11-4.84-7.31-4.82-7.51,0c-0.14,3.52-0.2,7.04-0.29,10.57
					C725.74,803.87,727.92,804.57,728.57,803.2L728.57,803.2z"/>
			</g>
		</g>
		<g>
			<g>
				<g>
					<path class="st4" d="M813.19,783.04c-3.27,5.42-7.25,9.93-12.07,14.02c-4.3,3.65-3.52,12.68,1.93,15
						c5.76,2.45,11.16,3.3,17.27,1.6c7.65-2.12,9.56-11.4,4.49-17c0.1,0.03,0.21,0.06,0.31,0.08c0.47,1.74,0.94,3.47,1.41,5.21
						c-0.04-1.34,0.02-1.58,0.16-0.7c-0.91,1.56-1.82,3.12-2.73,4.68c0.25-0.31,0.49-0.63,0.74-0.94c3.26-4.17,4.39-9.47,0.83-13.94
						c-3.3-4.14-8.98-5.39-13.7-2.73c-8.83,4.97-20.12,6.25-29.6,2.14c-0.88,6.73-1.76,13.47-2.64,20.2
						c10.83-4.48,22.17-7.56,33.84-8.73c-1.01-7.47-2.02-14.94-3.03-22.41c-13.37,3.01-27.31,4.24-40.98,2.95
						c0.06,0.01-1.88-0.12-1.84-0.3c0.93-4.22,4.1,6.92,3.54,6.02c-0.36-0.58,0.46-1.33,0.79-1.66c-0.32,0.31-1.38,1.15-0.05,0.32
						c4.84-3.02,10.58-4.13,15.17-7.66c-4.66-6.04-9.32-12.08-13.98-18.12c-7.5,6.63-16.46,10.58-26.23,12.48
						c4.34,5.65,8.68,11.3,13.03,16.94c6.2-10.04,13.87-18.72,22.88-26.35c-5.44-5.44-10.87-10.87-16.31-16.31
						c-5.07,4.42-10.97,7.38-17.42,9.19c4.34,5.65,8.68,11.3,13.03,16.94c9.96-22.3,21.45-43.85,34.42-64.54
						c-6.54-3.82-13.09-7.65-19.63-11.47c-7.44,16.11-17.56,30.41-30.22,42.84c5.78,4.46,11.56,8.92,17.34,13.38
						c25.93-53.3,57.24-105.06,74.51-162.12c1.89-6.23-2.26-13.14-8.42-14.83c-6.78-1.86-12.52,2.31-14.83,8.42
						c-20.31,53.72-44.3,105.91-71.8,156.33c7.04,2.97,14.07,5.93,21.11,8.9c10.66-41.1,25.68-80.86,45.05-118.65
						c-7.1-1.92-14.21-3.85-21.31-5.77c-2.35,23.79-8.82,46.98-15.52,69.86c-6.98,23.81-14.09,47.59-21.13,71.39
						c-3.63,12.27,14.34,19.9,20.67,8.71c23.27-41.14,44.67-83.31,64.01-126.44c-6.94-2.93-13.88-5.85-20.82-8.78
						c-10.61,41.45-22.23,82.82-37.19,122.94c-4.06,10.9,14.05,18.67,18.94,7.98c18.68-40.82,36-82.22,52.58-123.93
						c-7.04-1.94-14.08-3.88-21.11-5.82c-8.28,40.88-18.56,81.27-31.7,120.87c-1.73,5.21,1.57,11.18,6.45,13.14
						c4.62,1.86,11.7,0.6,13.91-4.56c14.9-34.68,31-68.82,48.39-102.31c-6.83-2.88-13.66-5.76-20.49-8.64
						c-6.16,35.7-16.57,70.7-31.35,103.79c6.94,2.93,13.88,5.85,20.83,8.78c12.68-35.81,26.32-71.26,40.9-106.34
						c-7.3-2.01-14.6-4.02-21.9-6.04c-9.43,35.97-19.42,74.44-46.5,101.57c5.91,4.56,11.82,9.12,17.73,13.68
						c32.24-59.87,65.04-121.06,79.27-188.15c2.97-14.01-17.74-19.96-21.6-5.96c-10.08,36.6-23.38,72.19-39.97,106.34
						c6.73,2.84,13.45,5.67,20.18,8.51c10.84-26.89,21.63-53.8,32.58-80.65c10.34-25.37,22.39-50.79,27.48-77.87
						c2.66-14.13-16.87-19.69-21.61-5.96c-9.23,26.74-19.93,52.95-32.04,78.52c-6.14,12.96,11.38,23.54,19.37,11.32
						c19.09-29.23,30.16-63.04,32.7-97.81c0.8-11.02-15.75-15.15-20.75-5.62c-17.6,33.57-35.2,67.13-52.8,100.7
						c6.85,2.89,13.7,5.78,20.55,8.67c6.82-20.93,13.63-41.86,20.45-62.79c6.04-18.54,17.61-41.16,7.36-60.12
						c-3.9-7.21-15.81-7.59-19.6,0c-16.77,33.55-36.55,65.49-59,95.54c6.55,3.83,13.09,7.65,19.64,11.48
						c18.67-39.01,37.43-78.39,48.29-120.43c1.38-5.36-1.31-11.13-6.48-13.21c-4.73-1.9-11.63-0.56-13.98,4.58
						c-17.64,38.62-39.57,74.65-64.45,109.01c6.23,3.64,12.46,7.28,18.69,10.93c9.84-22.57,19.98-45,30.06-67.47
						c9.5-21.16,21.17-42.98,20.58-66.82c-0.12-4.73-3.25-9.08-7.88-10.35c-4.22-1.16-10.22,0.66-12.12,4.93
						c-14.66,32.95-31.17,65.08-49.52,96.12c-7.21,12.2,11.53,23.08,18.95,11.08c15.28-24.72,26.62-51.88,33.42-80.14
						c1.28-5.3-1.23-10.92-6.37-12.99c-4.62-1.86-11.48-0.57-13.75,4.5c-21.17,47.36-39.82,95.82-55.61,145.24
						c-4.35,13.61,17.03,19.44,21.36,5.89c15.22-47.6,32.92-94.37,53.27-140.01c-6.71-2.83-13.42-5.66-20.12-8.48
						c-6.37,26.57-16.79,51.66-31.14,74.91c6.32,3.69,12.63,7.38,18.95,11.08c18.35-31.1,34.77-63.23,49.11-96.36
						c-6.67-1.81-13.34-3.61-20-5.42c0.73,21.13-10.48,41.06-18.8,59.84c-9.44,21.3-19.03,42.49-29.07,63.52
						c-2.32,4.86-1.75,10.57,2.79,13.96c3.88,2.9,10.86,3.46,14.21-0.85c26.53-34.12,48.73-71.58,66.79-110.82
						c-6.82-2.88-13.64-5.75-20.46-8.63c-10.5,40.18-28.37,77.64-46.34,114.91c-2.67,5.53-1.52,12.29,4.08,15.56
						c5.82,3.4,11.86,0.85,15.56-4.08c22.54-29.99,42.24-61.99,58.97-95.56c-6.53,0-13.07,0-19.6,0c3.1,5.71-0.18,13.53-1.99,19.2
						c-3.09,9.7-6.27,19.38-9.4,29.07c-6.17,19.06-12.34,38.13-18.51,57.19c-3.9,12.04,14.64,20,20.55,8.67
						c17.54-33.6,35.07-67.21,52.61-100.81c-6.92-1.87-13.83-3.75-20.75-5.62c-2.2,30.99-12.66,60.63-29.8,86.49
						c6.46,3.77,12.91,7.55,19.37,11.32c13.13-27.25,24.57-55.24,34.29-83.88c-7.2-1.99-14.41-3.97-21.61-5.96
						c-4.95,27.1-16.87,52.57-27.07,77.98c-10.81,26.91-21.76,53.76-32.67,80.63c-4.68,11.53,14.7,19.7,20.18,8.51
						c17.51-35.8,31.81-73.13,42.5-111.53c-7.2-1.98-14.4-3.97-21.6-5.96c-14.04,65.34-45.66,124.4-77.16,182.71
						c-6.01,11.12,8.45,22.95,17.73,13.68c30-29.97,41.95-71.62,52.43-111.5c1.56-5.93-1.97-12.33-7.93-13.97
						c-6.54-1.8-11.6,2.25-13.97,7.93c-14.61,35.07-28.27,70.52-40.97,106.31c-4.27,12.02,15.53,20.61,20.83,8.78
						c15.65-34.97,26.95-71.54,33.29-109.33c0.92-5.5-0.98-11-6.49-13.22c-4.91-1.98-11.4-0.46-14,4.59
						c-17.24,33.57-33.38,67.7-48.28,102.38c6.79,2.86,13.58,5.72,20.36,8.59c13.13-39.55,23.9-79.95,31.33-120.97
						c2.52-13.91-16.16-19.06-21.11-5.82c-15.07,40.31-31.72,80.04-49.36,119.3c6.31,2.66,12.62,5.32,18.94,7.98
						c14.75-40.27,28.63-80.79,39.18-122.39c1.38-5.46-1.32-11.31-6.59-13.44c-4.78-1.92-11.88-0.59-14.22,4.66
						c-19.25,43.18-40.52,85.41-63.87,126.52c6.89,2.9,13.78,5.81,20.67,8.71c7.27-24.4,14.62-48.77,21.8-73.2
						c7.14-24.31,13.38-48.79,15.92-74.06c1.14-11.35-16.31-15.49-21.31-5.77c-20.32,39.47-36.36,81.1-47.57,124.05
						c-3.25,12.44,14.69,20.62,21.11,8.9c28.55-52.13,53.64-106.15,75.11-161.57c-7.75-2.14-15.5-4.27-23.26-6.41
						c-16.67,54.99-43.68,106.66-70.33,157.38c-5.84,11.12,8,22.01,17.34,13.38c14.34-13.24,25.97-29.31,34.23-46.99
						c2.6-5.56,1.56-12.25-4.08-15.55c-5.47-3.2-12.26-1.12-15.55,4.08c-13.06,20.63-24.65,42.13-34.71,64.37
						c-3.95,8.74,2.59,19.87,13.03,16.94c10.37-2.91,19.5-8.06,27.6-15.12c4.7-4.1,4.19-12.12,0-16.31
						c-4.71-4.71-11.54-4.04-16.31,0c-10.44,8.84-19.3,19.38-26.49,31.02c-5.64,9.14,3.64,18.77,13.03,16.94
						c13.68-2.66,26.01-9.22,36.41-18.41c4.26-3.77,4.27-10.91,0.9-15.15c-3.22-4.04-10.26-6.52-14.88-2.97
						c-6.97,5.35-15.99,6.18-21.73,13.47c-6.09,7.73-7.88,19.75-0.04,27.1c7.57,7.11,20.29,6.17,29.93,5.93
						c11.06-0.28,22.13-1.79,32.92-4.25c12.29-2.81,9.92-23.77-3.03-22.41c-14.85,1.55-28.7,5.37-42.36,11.35
						c-3.92,1.72-5.86,7.15-5.28,11.01c0.71,4.7,3.65,7.44,7.92,9.19c15.8,6.48,34.22,4.63,48.83-4
						c-4.29-5.56-8.58-11.12-12.87-16.68c-5.1,6.52-6.1,15.17,0.74,21.06c1.5-5.67,2.99-11.33,4.49-17
						c-2.01,0.84-2.37,1.17-4.51,0.56c1.4,5.32,2.81,10.64,4.21,15.96c5.27-5.73,9.65-12.07,12.82-19.19
						C831.69,781.87,818.81,773.72,813.19,783.04L813.19,783.04z"/>
				</g>
			</g>
			<g>
				<g>
					<path class="st0" d="M930.34,465.68c-2.82,4.36-6.86,8.79-8.63,13.59c-1.93,5.23-4.57,10.42-6.02,15.79
						c5.74,1.58,11.49,3.17,17.23,4.75c7.34-29.18,10.99-59.12,10.83-89.21c-0.03-5.12-3.92-9.59-9-10.2
						c-4.61-0.55-10.61,2.27-11.39,7.44c-3.64,24.13-6.45,48.5-9.21,72.75c-1.27,11.15,17.88,13.84,19.73,2.67
						c5.44-32.83,7.12-65.67,2.95-98.76c-0.68-5.38-4.13-10.04-10.04-10.04c-5.69,0-9.72,4.6-10.04,10.04
						c-1.96,33.96-8.63,66.63-17.03,99.5c6.16,0.83,12.32,1.67,18.48,2.5c2.53-34.34,6.55-68.55,8.66-102.94
						c0.63-10.2-16.55-12.8-18.1-2.45c-4.57,30.35-9.05,61.09-20.74,89.67c6.1,0.83,12.2,1.65,18.3,2.48
						c2.5-26.22,7.49-52.1,14.65-77.44c2.87-10.14-12.3-17-17.31-7.3c-11.8,22.83-23.75,45.68-39.45,66.12
						c5.54,3.24,11.07,6.47,16.61,9.71c11.9-19.94,23.8-39.88,35.7-59.82c2.7-4.52,1.02-10.7-3.5-13.34
						c-5.01-2.93-10.15-0.71-13.34,3.5c-14.04,18.5-29.71,35.81-46.45,51.9c5.52,2.29,11.04,4.57,16.56,6.86
						c0.22-1.69,2-3.63,2.9-4.97c1.76-2.61,3.63-5.15,5.44-7.72c3.6-5.1,7.21-10.2,10.82-15.28c7.42-10.45,14.84-20.9,22.26-31.34
						c6.35-8.94-7.47-19-14.92-11.51c-13.22,13.27-25.58,27.34-36.7,42.42c-6.26,8.48,7.45,18.81,14.53,11.21
						c12.93-13.89,24.77-28.85,35.69-44.36c-4.9-2.87-9.81-5.73-14.71-8.6c-18.27,28.43-44.36,52.29-47.76,87.77
						c-0.74,7.76,10.14,11.55,15.14,6.27c5.42-5.73,10.64-11.66,15.48-17.9c4.63-5.97,7.22-13.91,0.79-19.75
						c-5.06-4.59-13.17-4.37-18.27-0.01c-2.27,1.95-3.87,4.31-5.09,7.03c-0.7,1.56-1.33,3.17-1.93,4.76
						c-1.07,2.82-0.84,0.43,0.4,0.54c1.45,0.39,2.91,0.79,4.36,1.18c-0.08-0.09-0.16-0.17-0.25-0.26c0.75,1.28,1.49,2.56,2.24,3.84
						c-1.03-2.87-0.52-0.6-0.37-0.81c0.36-0.52,0.74-0.98,1.31-1.32c1.52-0.9,3.82-0.24,5.35,0.28c4.71,1.59,8.53,4.86,10.76,9.23
						c2.33,4.58,3.09,8.28,2.05,13.31c-1.19,5.76-2.49,11.63-0.99,17.46c2.93,11.39,13.79,20.81,25.77,20.43
						c12.4-0.39,22.18-9.26,29.82-18.18c3.12-3.64,3.89-8.73,0.75-12.67c-2.83-3.55-8.38-5.21-12.44-2.48
						c-5.19,3.48-10.76,5.82-17.05,6.32c3.11,2.36,6.21,4.73,9.32,7.09c-0.97-5.24-0.23-10.82,2.06-15.64
						c-5.89-2.49-11.79-4.97-17.68-7.46c-2.26,6-3.46,12.02-4.28,18.37c-0.53,4.14,3.39,8.32,7.11,9.34
						c4.37,1.2,8.45-0.91,10.94-4.45c2.63-3.75,5.27-7.5,7.9-11.25c2.16-3.08,4.1-6.85,6.85-9.38c-1.43,0.84-2.87,1.67-4.3,2.51
						c-0.17-0.01-0.34-0.01-0.51-0.02c-1.65-0.44-3.29-0.89-4.93-1.33c-1.62-2.65-2.2-3.21-1.75-1.7c0.21,0.84,0.37,1.69,0.49,2.55
						c0.37,1.96,0.71,3.94,1.07,5.9c0.71,3.93,1.4,7.87,2.16,11.8c2.23,11.54,19.17,8.15,19.69-2.66
						c0.65-13.55,2.05-27.01,4.33-40.38c0.9-5.3-1.41-10.73-6.96-12.25c-4.8-1.32-11.33,1.63-12.25,6.96
						c-2.62,15.11-4.38,30.36-5.16,45.68c6.56-0.89,13.13-1.78,19.69-2.66c-1.23-6.49-2.24-13.19-3.94-19.57
						c-1.65-6.2-5.99-11.85-12.95-11.89c-7.25-0.05-10.65,5.82-14.31,11.05c-3.94,5.64-7.89,11.26-11.83,16.9
						c6.02,1.63,12.03,3.26,18.05,4.89c0.58-4.53,1.97-8.97,3.57-13.22c3.82-10.19-12.99-17.36-17.68-7.46
						c-4.66,9.84-5.97,19.84-3.98,30.55c0.72,3.86,5.39,7.41,9.32,7.09c9.65-0.78,18.71-3.54,26.79-8.98
						c-3.9-5.05-7.79-10.1-11.69-15.15c-3.83,4.48-9.21,11.5-15.47,12.6c-5.08,0.9-8.79-4.54-8.22-9.1
						c1.07-8.59,3.36-15.81,0.31-24.36c-3.1-8.67-7.8-15.58-15.52-20.72c-7.46-4.97-17.11-7.84-25.79-4.51
						c-7.7,2.96-13.64,10.47-13.27,18.95c0.43,9.8,10.59,16.48,19.41,10.93c3.1-1.95,5.44-4.97,7.04-8.21
						c0.52-1.05,2.2-3.64,2.15-4.89c0.89-1.18,0.95-1.46,0.18-0.82c-2.26,1.11-4.17,0.2-5.74-2.74c0-1.57,0-3.15,0-4.72
						c-0.46,2.91-4.76,6.71-6.68,9c-2.82,3.36-5.74,6.63-8.72,9.84c5.05,2.09,10.09,4.18,15.14,6.27
						c2.67-31.07,28.78-54.34,44.74-79.16c6-9.34-8.49-17.45-14.71-8.6c-10.11,14.37-21.58,27.52-34.06,39.88
						c4.36,4.36,8.72,8.72,13.08,13.08c11.22-13.99,22.91-27.52,35.61-40.19c-4.97-3.84-9.95-7.68-14.92-11.51
						c-8.03,11.23-16.05,22.46-24.07,33.7c-3.82,5.35-7.66,10.69-11.5,16.03c-3.66,5.09-7.62,10.21-8.49,16.61
						c-0.59,4.35,0.4,8.58,4.46,10.95c3.78,2.21,8.62,1.45,11.75-1.52c18.16-17.15,34.56-35.82,49.58-55.77
						c-5.61-3.28-11.23-6.56-16.84-9.84c-11.82,19.98-23.65,39.97-35.47,59.95c-2.65,4.47-1.01,10.55,3.45,13.16
						c4.95,2.89,10,0.69,13.16-3.45c15.63-20.5,27.48-43.4,39.2-66.27c-5.77-2.43-11.54-4.87-17.31-7.3
						c-7.52,26.98-12.46,54.58-15.02,82.47c-0.42,4.55,3.86,8.65,8.08,9.15c4.94,0.59,8.43-2.25,10.22-6.67
						c11.61-28.7,16.33-59.24,20.55-89.72c-6.03-0.82-12.07-1.63-18.1-2.45c-1.65,33.43-3.41,67.35-8.71,100.44
						c-1.9,11.83,14.09,16.62,18.15,5c11.64-33.32,17.05-69.36,18.96-104.51c-6.69,0-13.38,0-20.07,0c4,30.89,3.9,62.81-2.25,93.41
						c6.46,1.78,12.92,3.56,19.38,5.34c3.58-24.14,7.17-48.41,9.87-72.66c-6.92,0-13.84,0-20.76,0c0.88,28.34-1.49,56.7-7.3,84.46
						c-2.34,11.18,14.47,16,17.23,4.75c1.33-5.44,1.49-11.24,2.38-16.78c0.82-5.17-0.56-10.99-0.93-16.27
						C934.22,464.64,931.55,463.83,930.34,465.68L930.34,465.68z"/>
				</g>
			</g>
			<g>
				<g>
					<path class="st4" d="M845.46,646.18c1,6.1,1.99,12.2,2.76,18.34c0.7,5.56,7.11,7.67,10.52,2.85
						c18.36-26.02,27.63-58.52,31.79-89.73c1.35-10.11-14.68-13.77-19-5.15c-7.43,14.87-14.53,29.74-22.93,44.11
						c-8.38,14.33-17.64,28.11-27.66,41.35c6.7,1.82,13.4,3.63,20.1,5.45c-0.33-16.69,7.57-31.9,14.37-46.75
						c7.51-16.39,14.66-33.68,13-52.11c-0.71-7.88-8.77-13.94-16.34-9.38c-17.91,10.82-21.5,33.99-28.93,51.91
						c-8.33,20.11-18.95,39.29-31.12,57.32c6.3,3.68,12.59,7.36,18.89,11.04c16.88-32.45,34.16-65.79,40.43-102.19
						c1.01-5.85-1.56-11.85-7.69-13.54c-5.86-1.61-11.83,1.97-13.54,7.69c-15.59,52.04-34.54,103.04-56.92,152.55
						c-2.34,5.18-1.49,11.32,3.78,14.4c4.81,2.81,11.67,1.23,14.4-3.78c9.59-17.55,19.12-35.14,28.77-52.65
						c6.44-11.68-11.32-22.09-17.89-10.45c-7.26,12.87-13.46,26.31-18.6,40.16c-4.57,12.33-9.8,26.11-10.51,39.36
						c-0.64,11.92,5.09,25.66,18.74,26.22c13.47,0.55,27.33-12.28,35.09-22.13c3.6-4.57,4.46-10.79,0-15.24
						c-4.27-4.27-10.94-3.95-15.24,0c-10.93,10.02-20.31,21.63-27.96,34.33c-5.21,8.64,3.36,17.91,12.36,16.08
						c11.28-2.3,20.9-9.56,26.73-19.4c-6.71-2.83-13.42-5.66-20.13-8.49c-3.38,9.36-10.62,16.13-19.51,20.24
						c-5.46,2.53-6.83,10.41-4,15.25c3.34,5.71,9.7,6.39,15.25,4c16.64-7.17,33.08-14.82,49.2-23.1
						c-5.59-4.29-11.17-8.59-16.76-12.88c-2,6.29-7.69,11.88-13.7,14.39c-4.53,1.88-7.23,2.18-11.47,2.07
						c-1.98-0.05-1.94-0.03-4.54-0.79c-2.2-0.64-4.09-1.62-6.15-2.83c-9.56-5.62-17.63-13.61-28.74-16.24
						c-10.92-2.59-23.97-1-31.37,8.32c6.43,3.75,12.87,7.49,19.3,11.24c9.87-23.7,23.05-45.43,37.44-66.6
						c3.56-5.24,1-13.01-4.21-16.05c-5.98-3.5-12.26-0.89-16.05,4.21c-16.38,22.06-28.98,46.97-39.46,72.3
						c-4.33,10.47,12.32,20.07,19.3,11.24c-0.04,0.06,2.35-2.66,1.21-1.61c0.35-0.21,0.69-0.42,1.04-0.63
						c-0.73,0.23-0.72,0.22,0.05-0.03c0.59-0.2,1.18-0.37,1.79-0.49c-0.78,0.06-0.76,0.06,0.07,0c1.07-0.09,2.17-0.08,3.24,0.02
						c-1.3-0.12,2.13,0.45,2.15,0.46c0.42,0.11,2.74,0.83,2.37,0.69c1.71,0.66,4.62,2.47,6.65,3.8
						c10.52,6.88,19.75,14.21,32.69,15.66c22.02,2.46,43.76-12.11,50.38-33.06c3.16-9.99-8.34-17.24-16.76-12.88
						c-16.09,8.32-32.37,16.22-48.93,23.56c3.75,6.42,7.5,12.83,11.25,19.25c14.11-6.7,24.32-19.05,29.49-33.63
						c4.24-11.95-13.95-19.05-20.13-8.49c-3.09,5.28-7.6,8.17-13.54,9.41c4.12,5.36,8.24,10.72,12.36,16.08
						c6.68-11.22,14.78-21.19,24.3-30.13c-5.64-4.35-11.29-8.71-16.93-13.06c-2.48,3.23-5.65,6.31-8.86,8.81
						c-1.93,1.5-4.04,2.82-6.16,4.02c-2.19,1.24-3.42,0.88-0.87,1.76c0.44,0.15,0.53,0.87,0.87,1.02c-0.18-0.3-0.36-0.61-0.53-0.91
						c0.26,0.67,0.27,0.64,0.04-0.07c-0.63-1.62-0.49-1.83-0.5-3.79c-0.01-4.01,0.99-7.01,2.16-11.54
						c5.39-20.81,13.45-40.66,23.95-59.41c-5.96-3.48-11.92-6.97-17.89-10.45c-9.62,17.53-19.37,34.99-29.06,52.48
						c6.06,3.54,12.12,7.08,18.18,10.62c23.44-51.05,43.54-103.6,59.97-157.32c-7.07-1.95-14.15-3.9-21.22-5.85
						c-6.18,34.72-22.02,65.98-38.1,97c-6.52,12.57,11.04,22.71,18.89,11.04c11.67-17.35,21.77-35.72,30.03-54.94
						c4.09-9.52,7.7-19.17,11.13-28.94c2.27-6.45,4.84-13.94,10.95-17.64c-5.45-3.13-10.89-6.25-16.34-9.38
						c1.51,16.62-5.64,31.76-12.48,46.62c-7.63,16.58-15.15,33.6-14.75,52.23c0.24,11.5,13.94,13.62,20.1,5.45
						c20.32-26.92,38.79-56.76,50.59-88.49c-6.67-0.9-13.35-1.81-20.02-2.71c-0.55,29.79-9.19,57.04-21.15,84.03
						c3.44,0.45,6.88,0.9,10.32,1.35c-2.11-6.3-4.01-12.66-5.89-19.03C851.89,638.78,844.62,641.03,845.46,646.18L845.46,646.18z"/>
				</g>
			</g>
			<g>
				<g>
					<path class="st3" d="M777.44,879.67c-0.59,1.49-1.31,3.15-2.34,4.4c-6.46,7.81,1.42,17.92,10.62,13.76
						c6.09-2.75,10.96-7.94,13.88-13.9c3.6-7.35-4.32-17.99-12.35-12.35c-5.84,4.1-11.98,7.62-18.72,10
						c3.53,4.59,7.06,9.18,10.59,13.78c4.77-6.28,9.51-12.56,14.09-18.98c2.51-3.51,1.34-9.05-1.54-11.94
						c-3.28-3.28-7.93-3.41-11.94-1.54c-10.05,4.68-20.09,9.37-30.14,14.05c4.01,5.19,8.01,10.38,12.02,15.58
						c4.45-5.23,8.91-10.46,13.36-15.69c7.28-8.56-1.71-20.94-12.07-15.64c-9.25,4.73-18.5,9.47-27.75,14.2
						c4.57,4.57,9.14,9.14,13.71,13.71c3.21-6.7,7.28-12.86,12.22-18.41c3.1-3.48,4.06-8.47,1.63-12.64
						c-2.12-3.63-7.59-6.55-11.78-4.79c-10.51,4.42-20.94,9.02-31.38,13.6c5.19,3.99,10.38,7.98,15.57,11.97
						c1.97-6.5,4.62-12.49,8.05-18.35c5.66-9.67-5.34-18.99-14.53-14.53c-6.77,3.29-13.55,6.58-20.32,9.86
						c5.33,3.06,10.65,6.11,15.98,9.17c0.21-3.6,1.55-6.48,3.55-9.44c4.85-7.17-3.4-19.21-11.99-15.6
						c-5.09,2.14-9.38,4.62-13.44,8.41c5.51,0.71,11.01,1.42,16.52,2.13c-0.63-1.27,0.47-2.34,1.19-3.34
						c3.33-4.58,0.78-11.69-3.76-14.35c-5.25-3.07-11.07-0.88-14.35,3.76c-5.27,7.47-4.93,16.53-1.25,24.54
						c3.02,6.57,11.9,6.16,16.52,2.13c1.21-1.05,2.73-2.19,4.21-2.81c-4-5.2-7.99-10.4-11.99-15.6c-4.09,6.06-6.03,12.9-6.45,20.15
						c-0.5,8.63,9.24,12.44,15.98,9.17c6.77-3.29,13.55-6.58,20.32-9.86c-4.84-4.84-9.68-9.68-14.53-14.53
						c-4.31,7.37-7.7,15.25-10.15,23.44c-2.9,9.68,7.65,15.47,15.57,11.97c9.59-4.25,19.2-8.44,28.72-12.84
						c-4.21-5.46-8.42-10.92-12.64-16.38c-5.93,7.15-10.8,14.65-14.78,23.04c-4.27,9.01,4.45,18.5,13.71,13.71
						c9.23-4.77,18.46-9.54,27.69-14.31c-4.02-5.21-8.05-10.43-12.07-15.64c-4.43,5.25-8.87,10.5-13.3,15.75
						c-7.36,8.72,1.67,20.45,12.02,15.58c10.02-4.72,20.05-9.45,30.07-14.17c-4.49-4.49-8.98-8.98-13.48-13.48
						c-4.55,6.41-8.92,12.91-13.28,19.45c-2.29,3.43-1.35,8.55,1.47,11.37c3.19,3.19,7.48,3.12,11.37,1.47
						c7.3-3.11,14.19-6.89,20.6-11.56c-4.12-4.12-8.23-8.23-12.35-12.35c-1.69,3.62-3.72,5.83-7.13,7.88c4,4,7.99,7.99,11.99,11.99
						c2.58-3.98,3.98-8.18,3.9-12.94C792.59,872.46,780.56,871.77,777.44,879.67L777.44,879.67z"/>
				</g>
			</g>
			<g>
				<g>
					<path class="st5" d="M748.13,885.45c-6.96-8.05-16.51-13.94-22.83-22.52c-2.41-3.27-4.08-7.02-4.61-10.5
						c-0.6-3.95-0.09-5.98,2.63-9.7c-7.65-1-15.3-2-22.95-3c1.51,9.75,4.45,19.21,8.27,28.29c2.16,5.13,5.98,9.09,11.94,9.09
						c5.27,0,10.74-3.82,11.94-9.09c1.68-7.33,2.4-14.78,1.71-22.27c-0.6-6.59-5.2-12.25-12.25-12.25c-6.84,0-12,5.61-12.25,12.25
						c-0.29,7.7,1.04,15.37,4,22.48c2.32,5.59,6.86,9.67,13.32,8.7c6.23-0.94,10.07-5.74,10.53-11.93
						c0.44-5.82,0.87-11.64,1.31-17.47c-8.03,1.09-16.06,2.17-24.09,3.26c2.15,5.24,4.31,10.48,6.46,15.71
						c2.63,6.4,4.36,13.18,10.6,16.95c6.1,3.68,14.97,0.31,16.66-6.78c1.72-7.25-1.85-13.23-4.62-19.72
						c-2.23-5.21-4.45-10.41-6.68-15.62c-2.09-4.9-9.1-6.94-13.85-5.64c-5.41,1.49-8.68,6.41-9.01,11.83
						c-0.35,5.82-0.71,11.64-1.06,17.47c7.54-2.04,15.09-4.09,22.63-6.13c-1.78-4.11-1.93-8.73-1.7-13.12c-8.16,0-16.33,0-24.49,0
						c0.41,5.4,0.18,10.44-1.1,15.69c7.96,0,15.92,0,23.89,0c-3.72-9.21-6.18-18.62-7.94-28.38c-0.86-4.77-5.96-8.46-10.44-8.99
						c-5.25-0.62-9.53,1.71-12.51,5.99c-8.71,12.55-7.1,30.87,1.57,43.04c9.09,12.75,22.94,20.76,38.08,24.1
						C748.34,898.75,752.73,890.77,748.13,885.45L748.13,885.45z"/>
				</g>
			</g>
			<g>
				<g>
					<path class="st6" d="M762.23,805.19c18.46-38.69,33.04-79.46,46-120.28c12.93-40.74,24.72-81.87,35.8-123.15
						c6.5-24.22,13.22-48.4,19.47-72.69c-7.59-2.09-15.17-4.18-22.76-6.27c-2.27,10.35-7.6,18.52-15.92,25.09
						c6.26,3.64,12.51,7.28,18.77,10.93c1.22-8.47,3.19-16.61,6.02-24.69c4.24-12.08-13.94-19.07-20.24-8.53
						c-2.8,4.69-5.61,9.37-8.41,14.06c6.81,2.87,13.61,5.74,20.42,8.61c1.25-5.02,1.92-10.19,2.91-15.27
						c0.55-2.84,1.14-5.69,1.91-8.48c0.33-1.21,0.69-2.41,1.11-3.58c-0.88,2.44,0.28-0.4,0.66-0.96
						c-6.92-2.92-13.84-5.83-20.76-8.75c-23.62,57.6-40.42,117.7-60.57,176.53c7.72,2.13,15.44,4.26,23.15,6.38
						c12.64-41.73,27.56-82.67,43.73-123.15c-7.67-2.11-15.34-4.23-23.01-6.34c-11.23,61.91-29.89,122.57-53.91,180.69
						c7.34,2.02,14.67,4.05,22.01,6.07c13.92-35.47,27.98-70.87,42.11-106.26c2.33-5.83-2.54-12.75-8.11-14.28
						c-6.65-1.83-11.91,2.28-14.28,8.11c-20.4,50.08-40.54,100.26-60.73,150.43c7.57,2.09,15.14,4.17,22.7,6.26
						c13.36-39.55,26.72-79.1,40.08-118.65c4.21-12.48-15.63-21.09-21.47-9.05c-20.31,41.82-38.41,84.69-54.17,128.43
						c-4.42,12.27,15.6,20.88,21.24,8.95c8.78-18.57,17.56-37.15,26.33-55.72c-7-2.95-14-5.9-21-8.85
						c-9.25,24.39-16.27,49.51-20.82,75.2c-1,5.65,1.04,11.34,6.68,13.61c5.23,2.1,11.5,0.37,14.41-4.72
						c7.98-14,14.23-28.98,18.54-44.51c1.67-6.02-2.07-12.59-8.09-14.25c-6.59-1.81-11.92,2.26-14.25,8.09
						c-4.88,12.22-8.86,24.74-11.94,37.53c-1.35,5.59,1.3,11.52,6.73,13.71c4.86,1.95,12.14,0.61,14.51-4.75
						c3.2-7.24,5.75-14.49,7.14-22.3c-7.48-2.06-14.97-4.13-22.45-6.19c-1.69,9.82-2.34,19.51-1.33,29.44
						c6.64-2.75,13.28-5.5,19.91-8.25c-3.66-3.45-7.31-6.91-10.97-10.36c-8.58-8.1-22.07-0.02-19.45,11.32
						c1.61,6.99,4.28,13.68,7.74,19.96c6.08-4.69,12.15-9.38,18.23-14.06c-3.14-3.74-5.63-8.15-7.3-12.74
						c-2.13-5.89-7.89-9.86-14.27-8.1c-5.68,1.56-10.25,8.35-8.1,14.27c3.13,8.63,7.39,15.93,13.26,22.98
						c3.65,4.39,11.08,4.22,15.24,0.91c4.57-3.64,5.83-9.77,2.99-14.97c-2.52-4.61-4.17-9.3-5.34-14.43
						c-6.48,3.77-12.97,7.55-19.45,11.32c3.64,3.47,7.29,6.93,10.93,10.4c6.68,6.35,21.01,2.36,19.91-8.25
						c-0.8-7.73-0.86-15.57,0.45-23.25c1.05-6.19-1.64-12.54-8.13-14.32c-5.62-1.55-13.22,1.91-14.32,8.13
						c-1.01,5.7-2.42,11.44-4.76,16.76c7.08,2.98,14.16,5.97,21.24,8.95c3.06-12.8,7.02-25.32,11.87-37.55
						c-7.44-2.05-14.89-4.1-22.33-6.16c-3.77,13.71-9.11,26.65-16.13,39.02c7.03,2.96,14.06,5.93,21.08,8.89
						c4.5-25.68,11.39-50.88,20.74-75.22c4.64-12.07-15.4-20.59-21-8.85c-8.85,18.53-17.7,37.06-26.55,55.6
						c7.08,2.98,14.16,5.97,21.24,8.95c15.25-41.78,32.61-82.75,52.05-122.75c-7.16-3.02-14.31-6.03-21.47-9.05
						c-13.37,39.55-26.75,79.09-40.12,118.64c-2.04,6.02,2.34,12.87,8.22,14.48c6.72,1.85,12.1-2.3,14.48-8.22
						c20.2-50.15,40.44-100.28,60.42-150.52c-7.46-2.06-14.93-4.12-22.4-6.17c-13.82,35.49-27.7,70.95-41.72,106.36
						c-2.27,5.73,2.49,12.53,7.97,14.04c6.57,1.81,11.66-2.26,14.04-7.97c24.28-58.25,42.09-118.66,54.91-180.41
						c1.2-5.8-1.2-11.78-6.91-14.08c-4.94-1.99-12.53-0.65-14.9,4.88c-17.59,41.02-32.39,83.18-45.07,125.96
						c-1.84,6.21,2.22,13.07,8.38,14.77c6.56,1.8,12.7-2.22,14.77-8.38c19.79-58.94,36.38-119.03,59.32-176.88
						c2.06-5.19-1.83-11.49-6.58-13.4c-5.39-2.17-11-0.2-14.18,4.65c-6.33,9.66-5.94,22.92-8.52,33.82
						c-2.87,12.12,13.89,19.82,20.42,8.61c2.75-4.72,5.5-9.44,8.25-14.15c-6.75-2.84-13.5-5.69-20.24-8.53
						c-2.72,8.03-4.85,16.26-6.32,24.61c-0.8,4.51,0.16,8.92,4.02,11.81c3.3,2.46,8.86,3.55,12.47,0.88
						c12.35-9.14,21.29-21.44,25.07-36.46c3.72-14.74-18.51-20.88-22.76-6.27c-23.92,82.26-44.12,165.6-71.19,246.92
						c-7.63,22.93-16.08,45.58-24.56,68.2C741.25,807.86,757.63,814.83,762.23,805.19L762.23,805.19z"/>
				</g>
			</g>
			<g>
				<g>
					<path class="st7" d="M776.85,848.16c-5.06-6.27-10.34-10.35-17.64-13.92c-6.54-3.2-13.33-6.05-19.25-10.38
						c-10.73-7.85-14.9-22.13-10.64-34.57c-5.16,0.67-10.33,1.35-15.49,2.02c3.63,8.36,8.74,16.32,14.47,23.4
						c5.87,7.25,15.52,17.63,25.56,17.14c8.32-0.4,16.38-10.4,10.53-18.34c-5.47-7.42-14.4-9.06-22.14-14.44
						c-6.17-4.3-10.3-9.71-13.78-16.31c-3.42-6.49-13.7-4.86-15.49,2.02c-4.34,16.65,0.15,35.51,13.02,47.33
						c6.63,6.09,14.58,9.41,23.1,11.97c4.31,1.3,8.64,2.22,13.01,3.28c4.42,1.07,9.12,1.64,13.41,3.08
						C776.94,850.95,777.63,849.13,776.85,848.16L776.85,848.16z"/>
				</g>
			</g>
			<g>
				<g>
					<path class="st7" d="M851.26,472.11c15.58-11.77,28.23-26.5,37.14-43.91c5.53-10.82-8.8-18.45-15.87-9.28
						c-11.33,14.71-21.42,30.47-31.95,45.76c5.65,3.3,11.29,6.6,16.94,9.9c9.89-16.85,19.79-33.7,29.68-50.56
						c2.76-4.7,1.08-11.06-3.62-13.81c-5.17-3.02-10.52-0.75-13.81,3.62c-10.14,13.47-20.31,26.92-30.39,40.44
						c-6.91,9.28,8.95,21.66,16.15,12.46c10.35-13.19,20.69-26.38,31.04-39.57c-5.37-4.15-10.75-8.29-16.12-12.44
						c-8.98,13.57-17.96,27.14-26.94,40.7c-4.95,7.47,3.25,17.58,11.57,15.05c12.31-3.73,18.38-16,25.06-26
						c7.52-11.25,15.04-22.5,22.56-33.75c6.36-9.51-8.74-21.5-16.06-12.39c-18.06,22.49-35.68,45.09-46.69,71.99
						c-3.99,9.74,10.45,16.87,17.09,9.95c27.22-28.41,45.4-62.23,62.44-97.33c6.16-12.69-11.45-23.34-19.07-11.15
						c-6.63,10.6-14.8,20.3-24.76,27.95c5.04,5.04,10.08,10.08,15.11,15.11c3.36-7.15,7.38-13.86,12.1-20.19
						c7.49-10.03-9-22.59-17.32-13.36c-5.33,5.91-11.46,11.02-16.44,17.24c-3.71,4.64-4.53,11.04,0,15.57
						c3.85,3.85,11.83,4.66,15.57,0c4.99-6.22,11.13-11.32,16.47-17.22c-5.77-4.45-11.55-8.91-17.32-13.36
						c-4.74,6.32-8.77,13.02-12.14,20.17c-2.12,4.5-1.96,9.7,1.73,13.39c3.17,3.17,9.56,4.66,13.39,1.73
						c13.02-9.98,24.22-21.75,32.69-35.88c-6.36-3.72-12.72-7.43-19.07-11.15c-15.61,33.82-31.79,66.86-57.82,94.02
						c5.7,3.32,11.39,6.63,17.09,9.95c9.56-23.37,25.77-43.46,41.43-62.97c-5.35-4.13-10.7-8.26-16.06-12.39
						c-6.42,9.6-12.85,19.2-19.28,28.8c-3.12,4.66-6.24,9.33-9.37,13.99c-1.7,2.53-3.69,6.59-6.77,7.52
						c3.86,5.02,7.72,10.04,11.57,15.05c8.99-13.56,17.98-27.12,26.97-40.69c6.34-9.56-8.87-21.68-16.12-12.44
						c-10.35,13.18-20.71,26.37-31.06,39.55c5.38,4.15,10.77,8.31,16.15,12.46c10.07-13.5,20.05-27.08,30.05-40.64
						c-5.81-3.4-11.62-6.79-17.43-10.19c-9.73,16.95-19.46,33.9-29.19,50.84c-6.35,11.06,9.93,20.28,16.94,9.9
						c10.37-15.37,21.35-30.49,30.88-46.39c-5.6-2.36-11.2-4.72-16.8-7.08c-6.34,15.34-16.62,28.82-29,39.77
						C836.63,466.18,844.74,477.04,851.26,472.11L851.26,472.11z"/>
				</g>
			</g>
		</g>
		<g>
			<g>
				<path class="st1" d="M833.46,448.01c-3.35,4.86-5.4,10.46-7.8,15.84c-2.7,6.05-5.23,12.17-7.8,18.28
					c-4.78,11.35-9.02,22.94-13.44,34.43c-8.84,22.95-17.13,46.11-25.54,69.22c-16.92,46.5-33.42,93.15-49.93,139.79
					c-4.65,13.14-9.14,26.34-13.69,39.51c-2.17,6.27-4.47,12.51-6.51,18.82c-2.3,7.11-3.35,14.18-4.12,21.59
					c-0.84,8.1,10.51,9.68,14.29,3.87c7.09-10.9,11.22-22.67,15.61-34.84c4.17-11.56,8.34-23.12,12.51-34.68
					c8.33-23.11,16.34-46.34,24.48-69.52c16.38-46.62,33.15-93.2,48.3-140.25c4.26-13.24,8.78-26.44,12.75-39.77
					c1.89-6.34,3.73-12.72,5.45-19.11c1.83-6.84,4.08-13.62,4.62-20.69C843.03,445.23,835.99,444.35,833.46,448.01L833.46,448.01z"
					/>
			</g>
		</g>
		<g>
			<g>
				<path class="st1" d="M942.48,494.32c0.21-0.08,0.42-0.16,0.63-0.23c-1.18-0.15-2.35-0.31-3.53-0.46
					c-0.24-0.21-0.47-0.42-0.71-0.63c-0.17-1.28-0.34-2.57-0.5-3.85c-1.11,3.56-5.05,7.11-7.52,9.8c-2.54,2.77-5.28,5.37-8.3,7.62
					c-6.12,4.57-14.7,9.65-22.57,6.85c-7.67-2.72-8.07-12.78-8.89-19.65c-1.15-9.71-1.03-19.49,0.07-29.2
					c0.62-5.46-7.06-7.92-10.52-4.36c-5.84,6.01-15.66,15.34-24.81,14.8c-10.92-0.65-7.61-15.42-10.18-22.02
					c-1.9-4.89-8.42-5.16-10.24,0c-2.13,6.05-0.22,14.77,2.38,20.46c2.58,5.68,7.32,10.56,13.47,12.22
					c13.71,3.71,28.53-8.37,38.1-16.74c-3.51-1.45-7.01-2.9-10.52-4.36c-2.59,21.31-3.61,65.45,28.82,61.57
					c12.66-1.51,24.6-10.49,32.59-20.05c3.1-3.71,8.52-9.97,8.1-15.13c-0.4-4.89-6.62-8.28-10.16-3.98
					C935.73,490,937.95,496,942.48,494.32L942.48,494.32z"/>
			</g>
		</g>
		<g>
			<g>
				<path class="st1" d="M946.2,494.29c3.93-26.91,3.61-54.51,2.84-81.65c-0.78-27.47-2.87-54.95-5.46-82.3
					c-0.85-8.94-11.47-12.09-16.71-4.53c-8.56,12.36-16.78,24.92-25.97,36.84c-8.89,11.53-18.68,22.17-28.68,32.73
					c-10.02,10.58-19.44,21.57-27.42,33.79c-4,6.13-7.71,12.45-11.28,18.83c-3.69,6.59-7.36,12.63-8.28,20.24
					c-0.76,6.31,7.45,7.89,11.3,4.68c5.68-4.73,8.62-11.82,12.26-18.11c3.51-6.07,7.17-12.06,11.08-17.88
					c8.06-11.97,17.64-22.43,27.6-32.83c20.42-21.33,38.13-44.93,54.88-69.22c-5.57-1.51-11.14-3.02-16.71-4.53
					c2.92,27.05,4.96,54.15,6.58,81.31c1.62,27.13,2.17,54.55,5.61,81.52C938.38,497.39,945.44,499.52,946.2,494.29L946.2,494.29z"
					/>
			</g>
		</g>
		<g>
			<g>
				<path class="st1" d="M933.24,384.99c-4.66,2.16-9.28,5.33-14.36,6.38c-2.09,0.43-4.4,0.47-6.31-0.62
					c1.24,0.71-1.18,1.95,0.63-0.01c2-2.15,3.48-4.59,5.68-6.7c2.68-2.57,4.1-5.32,2.42-8.92c-0.94-2.01-3.25-2.88-5.29-3.03
					c-9.95-0.74-19.89,16.4-15.11,24.88c3.2,5.69,10.64,7.67,16.73,7.13c8.15-0.72,14.26-5.8,20.96-9.94
					C944.51,390.51,939.36,382.15,933.24,384.99L933.24,384.99z"/>
			</g>
		</g>
		<g>
			<g>
				<path class="st1" d="M924.18,381.85c-0.67,0.2-1.35,0.4-2.02,0.6c-7.94,2.37-0.82,14.02,4.8,8.25
					c6.55-6.71,8.67-16.47,10.71-25.28c2.47-10.72-12.33-14.39-16.18-4.46c-3.77,9.71-7.54,19.42-11.31,29.14
					c5.55,1.53,11.09,3.06,16.64,4.59c1.74-7.67,4-15.27,7.1-22.51c-5.38-2.27-10.75-4.53-16.13-6.8
					c-2.17,6.43-5.22,12.75-9.45,18.11c4.94,2.87,9.88,5.75,14.82,8.62c1.42-4.58,2.45-7.84-0.03-12.36
					c-2.07-3.77-7.13-4.86-10.76-2.82c-4.37,2.45-5.13,5.99-6.3,10.47c-1.11,4.24,1.05,8.81,5.13,10.46c4.41,1.78,8.32,0,11.07-3.63
					c5.55-7.34,9.73-15.39,12.54-24.16c1.45-4.54-1.7-9.63-6.16-10.85c-5.06-1.39-9.04,1.73-10.85,6.16
					c-3.29,8.02-5.82,16.24-7.61,24.72c-2.32,10.97,12.8,14.94,16.64,4.59c3.62-9.75,7.24-19.51,10.85-29.26
					c-5.49-0.74-10.99-1.49-16.48-2.23c0.76,8.29-1.92,15.89-2.65,24.02c3.07-0.83,6.13-1.66,9.2-2.49
					c-0.39-0.64-0.79-1.27-1.18-1.91C926.06,382.04,925.08,381.58,924.18,381.85L924.18,381.85z"/>
			</g>
		</g>
		<g>
			<g>
				<path class="st1" d="M878.75,480.1c-9.53,17.18-16.79,35.86-23.53,54.29c-3.4,9.27-6.79,18.55-10.19,27.82
					c-3.54,9.67-6.02,19.34-8.27,29.37c-1.05,4.69,5.8,8.18,8.15,3.43c4.32-8.75,8.34-17.37,11.61-26.58
					c3.4-9.6,6.57-19.29,9.85-28.93c6.43-18.87,12.65-38.18,16.09-57.84C882.84,479.53,879.94,477.95,878.75,480.1L878.75,480.1z"/>
			</g>
		</g>
		<g>
			<g>
				<path class="st1" d="M807.57,852.47c-0.05-2.16,2.14-2.61-1.07-1.23c-0.92,0.4-1.88,0.7-2.83,0.98
					c-2.19,0.65-4.32,1.03-6.59,1.13c-5.03,0.21-9.95-0.56-14.85-1.6c-10.14-2.16-20.32-4.68-29.66-9.3
					c-8.42-4.17-16.28-9.76-21.88-17.4c-2.75-3.75-5.14-7.94-6.61-12.36c-1.54-4.62-1.72-9.34-2.84-14.03
					c-1.63-6.84-11.91-6.65-13.65,0c-3.34,12.74,3.9,27.43,11.61,37.22c8.68,11.02,20.65,18.48,33.56,23.62
					c12.73,5.07,27.33,8.85,41.12,8.55c8.83-0.19,33.85-6.41,23.52-19.64C814.24,844.36,807.46,847.84,807.57,852.47L807.57,852.47z
					"/>
			</g>
		</g>
		<g>
			<g>
				<path class="st1" d="M823.92,835.15c-2.07-9.63-16.3-4.85-22.53-3.96c-10.61,1.5-21.46,0.49-31.67-2.71
					c-8.85-2.78-17.2-7.48-24.15-13.64c-3.52-3.11-6.82-6.54-9.65-10.29c-3-3.98-5.21-8.44-8.5-12.2
					c-4.9-5.61-13.79,0.38-12.05,7.01c2.41,9.19,10.47,17.77,17.35,24c7.41,6.71,15.84,12.01,25.09,15.77
					c9.94,4.04,20.72,6.01,31.45,5.85c5.45-0.08,11.02-0.67,16.34-1.86c4.45-0.99,8.08-3.26,12.6-2.24
					C821.76,841.68,824.68,838.69,823.92,835.15L823.92,835.15z"/>
			</g>
		</g>
		<g>
			<g>
				<path class="st1" d="M827.88,808.76c-20.17,0.12-41.83-0.05-60.67-8.13c-7.42-3.19-14.34-7.52-20.02-13.3
					c-2.75-2.8-5.11-5.84-7.06-9.25c-2.5-4.37-3.67-8.72-8.95-10.38c-2.93-0.92-6.23,0.62-7.77,3.16
					c-5.32,8.77,5.94,21.46,11.84,27.38c6.99,7,15.48,12.3,24.57,16.1c22.03,9.22,46.32,6.99,69.28,3.43
					C834.29,816.97,832.94,808.73,827.88,808.76L827.88,808.76z"/>
			</g>
		</g>
		<g>
			<g>
				<path class="st1" d="M807.91,866.67c0.93-1.02,1.49-2.02,2.18-3.18c1.17-1.95,1.18-4.55,0-6.5c-0.17-0.29-0.34-0.57-0.52-0.86
					c-3.16-5.24-10.87-3.99-12.67,1.66c-3.68,11.51-4.94,28.31-18.39,33.07c-7,2.48-15.29-0.16-22.14-1.97
					c-6.65-1.76-13.29-3.83-19.57-6.66c-6.2-2.79-12.3-6.17-17.62-10.44c-4.49-3.6-9.98-8.43-9.56-14.73
					c0.47-7.17,3.8-14.72,6.04-21.5c2.17-6.57,7.57-15.77,3.6-22.4c-1.28-2.14-4.07-3.4-6.51-2.65c-5.09,1.57-6.86,5.73-8.67,10.38
					c-1.78,4.59-3.39,9.26-4.97,13.93c-3.04,8.99-7.3,18.92-5.12,28.57c3.85,17.06,23.31,27.71,38.09,33.89
					c8.1,3.38,16.5,5.93,25.05,7.86c9.54,2.15,19.5,3.4,28.71-0.68c16.86-7.46,23.72-27.69,24.68-44.82
					c-2.31,2.31-4.62,4.62-6.93,6.93c0.49,0.08,0.98,0.14,1.47,0.15c-1.57-0.9-3.15-1.81-4.72-2.71c0.17,0.29,0.33,0.59,0.5,0.88
					c-0.17-1.27-0.33-2.55-0.5-3.82c-0.07,0.36-0.13,0.72-0.2,1.09C799.35,866.36,804.53,870.4,807.91,866.67L807.91,866.67z"/>
			</g>
		</g>
		<g>
			<g>
				<path class="st1" d="M816.78,859.68c8.51-9.66,12.52-22.38,17.35-34.14c4.73-11.51,8.89-23.26,13.22-34.92
					c8.78-23.65,17.73-47.24,26.2-70.99c16.87-47.26,33.71-94.53,50.37-141.86c4.76-13.53,9.53-27.06,14.3-40.59
					c4.84-13.73,7.98-27.84,11.22-42c1.83-8-9.94-13.95-13.9-5.86c-5.87,12.02-11.67,23.97-16.54,36.45
					c-4.51,11.55-8.31,23.42-12.43,35.12c-8.36,23.76-16.78,47.5-25.02,71.3c-16.4,47.39-32.73,94.79-48.58,142.38
					c-4.53,13.59-9.32,27.13-13.57,40.81c-4.11,13.23-9.83,27.58-9.22,41.58C810.31,860.08,814.44,862.33,816.78,859.68
					L816.78,859.68z"/>
			</g>
		</g>
		<g>
			<g>
				<path class="st1" d="M805.82,671.7c-11.97,19.83-19.63,42.02-27.46,63.76c-3.93,10.9-7.85,21.81-11.78,32.71
					c-4.01,11.15-8.4,21.7-9.58,33.56c-0.48,4.86,6.28,5.78,8.55,2.32c6.36-9.69,9.44-20.6,13.21-31.49
					c3.79-10.94,7.58-21.88,11.38-32.82c7.57-21.84,15.49-43.83,18.68-66.77C809.06,671.23,806.86,669.99,805.82,671.7L805.82,671.7
					z"/>
			</g>
		</g>
	</g>
</g>
<g id="objectives-arrow3">
</g>
<g id="objectives-arrow2">
</g>
<g id="objectives-arrow1">
</g>
</svg>
