<?xml version="1.0" encoding="utf-8"?>
<!-- Generator: Adobe Illustrator 24.2.3, SVG Export Plug-In . SVG Version: 6.00 Build 0)  -->
<svg version="1.1" id="Layer_1" xmlns="http://www.w3.org/2000/svg" xmlns:xlink="http://www.w3.org/1999/xlink" x="0px" y="0px"
	 viewBox="0 0 500 500" style="enable-background:new 0 0 500 500;" xml:space="preserve">
<style type="text/css">
	.st0{fill:#FFFFFF;}
	.st1{fill:#D3D0CD;}
	.st2{fill:#427B21;}
	.st3{fill:#262F38;}
	.st4{fill:#96C11E;}
	.st5{clip-path:url(#SVGID_2_);}
	.st6{fill:#40505E;}
	.st7{fill:#DA0064;}
	.st8{clip-path:url(#SVGID_4_);}
</style>
<g>
	
		<ellipse transform="matrix(0.6687 -0.7435 0.7435 0.6687 -106.8097 214.5088)" class="st0" cx="187.3" cy="227.1" rx="3" ry="2.5"/>
	<path class="st0" d="M467,271.3c0.4-5.5,0.8-11,1.1-17.4c1.3-24.4,1.1-49.6-0.6-77.1c-0.3-4.8-4.3-8.7-9-8.7c0,0,0,0,0,0
		c-3.9-1.5-7.9-3-11.8-4.5l-40.2-15.1c0-17.4-0.8-35.4-2.6-54.7c-0.3-3.8-3.1-6.9-6.6-7.7c-1.4-0.5-2.9-1-4.3-1.5l-53-18.1
		c-1.2-0.6-2.5-1-3.9-1c-1,0-2,0.2-2.9,0.5c-4.7,1.8-8.6,3.3-12.3,4.8c-9.5,3.8-17.1,7.1-24.1,10.6c-4.3,2.2-8.2,4.2-11.8,6.3
		c-1.8,1-3.7,2.1-5.6,3.3c-0.4,0.2-0.7,0.4-1.1,0.7c-0.2,0-0.4,0-0.6,0c-2.3,0-4.6,1-6.2,2.7c-1.6,1.7-2.4,3.9-2.2,6.2
		c0.2,3,0.4,6.1,0.5,9.1c-5.1,2.1-9.8,4-14.2,5.9c-6.1,2.7-11.3,5.1-16.4,7.8c-2.3,0-4.6,1-6.3,2.7c-1.7,1.7-2.6,4-2.5,6.4
		c0.2,7,0.4,14,0.5,20.9c0.1,4.4,0.1,8.9,0.1,13.7c-1.5-1.1-3.3-1.8-5.1-1.8c-0.2,0-0.3,0-0.5,0c-48.8,3.2-98.1,9.6-145.7,15.9
		c-12.1,1.6-24.6,3.2-36.8,4.8c-4.8,0.6-8.2,4.4-8,9c0.8,21.2,3.8,44.3,9.2,72.6c4.8,25.3,10.3,47.2,16.7,66.9c-0.1,1.5,0.3,3,1,4.3
		c0.1,2.1,0.2,4.4,0.6,6.9c-2.7,1.3-5.3,2.6-7.9,4l-1.3,0.7c-3,1.6-4.9,4.6-5.2,7.9c-0.2,3.6,1.5,7.2,4.5,9.3
		c7.7,5.4,15.9,11.2,24.8,16.3c1.9,1.6,3.7,3.1,5.6,4.5c6.7,5.1,13.9,9.2,20.9,13.1c2.2,1.2,4.3,2.4,6.5,3.6
		c7.5,4.3,14.3,9.4,21.6,14.7c8.7,6.4,17.7,13,27.7,18.2c1.1,0.5,2.2,0.9,3.3,1.1c2.1,0.8,4.4,1.2,6.9,1.2c9,0,18.7-5.3,25.7-9.2
		c1.3-0.7,2.5-1.4,3.5-1.9c13.1-6.8,26.4-12,42.4-18.1c5.9-2.3,12-4.5,17.9-6.7c8.6-3.2,17.4-6.4,26.1-9.8c7.9-3.1,15.1-6.1,22-9.1
		c6.8-2.9,14.5-6.5,21.3-12.5c1.6-1.4,2.5-3.1,2.8-5c0.1-0.1,0.2-0.2,0.2-0.3c1.5-2.1,2-4.7,2.4-6.7c0.1-0.5,0.2-0.9,0.2-1.3
		c0.6-2.2,1.1-4.4,1.6-6.5c0.7-1.5,0.9-3.2,0.5-4.9c-0.8-3.7-4.1-6.3-7.8-6.3c-0.4,0-0.8,0-1.2,0.1c-5-1.8-9.9-4.1-14.8-6.3
		c-1-0.5-2-0.9-3-1.4l43.6-19.2l19.5,10.8c1.3,0.7,3.2,1.8,5.9,1.9l0.4,0c0.6,0,1.9,0,3.3-0.8c1.7-0.7,3.4-1.4,5-2.2
		c0.8-0.4,1.6-0.7,2.4-1.1l78.3-34.5c3.8-1.7,6.1-5,6.1-9C474,276.3,471.1,272.5,467,271.3z"/>
	<path class="st0" d="M187.3,230.3c-1.7,0.4-3.2-0.7-3.2-2.5c0-1.7,1.4-3.5,3.2-3.8c1.7-0.4,3.2,0.7,3.2,2.5
		C190.5,228.2,189,229.9,187.3,230.3z M187.3,224.8c-1.3,0.3-2.3,1.5-2.3,2.8c0,1.3,1,2.1,2.3,1.8c1.3-0.3,2.3-1.5,2.3-2.8
		C189.6,225.3,188.6,224.5,187.3,224.8z"/>
</g>
<g>
	<g>
		<g>
			<path class="st1" d="M260.3,206.3c-2.2,1.3-30.1,15.4-32.4,16.7c-1.5,0.9-3.2,2.3-2.7,3.9c0.2,0.7,0.7,1.2,1.3,1.7
				c5.8,5.2,12.7,9,19.5,12.7c16.2,8.9,32.4,17.9,48.6,26.8l85.9-37.8l-64.2-16.3L260.3,206.3z"/>
			<path class="st1" d="M262.3,209.4c-3.5,2.1-7.3,3.8-10.9,5.6c-5.4,2.7-10.7,5.5-16.1,8.2c-1.6,0.8-3.3,1.7-4.9,2.5
				c-0.2,0.1-0.3,0.2-0.5,0.3c-0.4,0.2-0.7,0.4-1,0.7c0.7-0.5-0.1,0.1-0.2,0.2c-0.5,0.4,0.2-0.5-0.1,0.2c0.2-0.4,0.3-0.8,0.1-1.2
				c0,0-0.3-0.6-0.4-0.5c0,0,1.4,1.3,1.5,1.4c1,0.9,2.1,1.7,3.1,2.5c1,0.7-0.5-0.4,0.4,0.3c0.2,0.1,0.4,0.3,0.6,0.4
				c0.5,0.4,1.1,0.8,1.7,1.1c1.2,0.8,2.4,1.5,3.5,2.2c2.3,1.4,4.6,2.7,7,4c5.1,2.8,10.2,5.6,15.3,8.4c11.7,6.4,23.3,12.8,35,19.3
				c-0.9-0.1-1.9-0.2-2.8-0.3c2.8-1.3,5.7-2.5,8.5-3.8c6.8-3,13.7-6,20.5-9c8.3-3.6,16.6-7.3,24.8-10.9c7.2-3.2,14.3-6.3,21.5-9.5
				c3.5-1.5,6.9-3.2,10.4-4.6c0.1,0,0.1,0,0.2-0.1c0.1,2.3,0.1,4.7,0.2,7c-6.4-1.6-12.8-3.3-19.2-4.9c-11-2.8-22.1-5.6-33.1-8.4
				c-3.4-0.9-6.9-1.7-10.3-2.6c-1.1-0.3-2.1-0.5-3.2-0.6c-9.5-1.3-19-2.6-28.4-3.9c-8.5-1.2-17-2.3-25.6-3.5c-0.1,0-0.3,0-0.4-0.1
				c-1.9-0.3-3.2-2.6-2.7-4.4c0.6-2,2.4-2.9,4.4-2.7c7.2,1,14.5,2,21.7,3c10.3,1.4,20.6,2.8,30.9,4.2c1.3,0.2,2.6,0.3,3.9,0.6
				c2.8,0.7,5.5,1.4,8.3,2.1c10.7,2.7,21.5,5.5,32.2,8.2c7.6,1.9,15.2,3.8,22.8,5.8c0.1,0,0.3,0.1,0.4,0.1c1.5,0.4,2.8,1.8,2.8,3.4
				c0,1.7-1,2.9-2.6,3.6c-2,0.9-4.1,1.8-6.1,2.7c-5.1,2.3-10.3,4.5-15.4,6.8c-6.7,3-13.5,5.9-20.2,8.9c-6.8,3-13.6,6-20.4,9
				c-5.4,2.4-10.8,4.7-16.1,7.1c-2.5,1.1-4.9,2.4-7.5,3.3c-0.4,0.1,0,0.2-1.1,0.2c-1.3,0-2.3-0.7-3.4-1.3c-0.9-0.5-1.8-1-2.7-1.5
				c-3.4-1.9-6.7-3.7-10.1-5.6c-6.7-3.7-13.4-7.4-20.1-11c-6.5-3.6-13.1-7.1-19.6-10.8c-3-1.7-5.9-3.5-8.7-5.4
				c-1.5-1.1-3.1-2.2-4.5-3.4c-1.5-1.3-3.2-2.6-3.9-4.6c-1.6-4.8,3-7.6,6.6-9.5c3-1.5,5.9-3,8.9-4.6c6.4-3.3,12.9-6.5,19.3-9.9
				c0.6-0.3,1.2-0.6,1.9-1c1.6-1,4-0.6,5,1.2C264.4,206.1,264,208.4,262.3,209.4z"/>
		</g>
		<g>
			<g>
				<g>
					<path class="st2" d="M362.1,164.1l17.8-34.2l-69.8-26.3c0,0-48.9,16.7-70.3,29l1.3,47.7L362.1,164.1z"/>
					<path class="st3" d="M359.9,162.9c2-3.8,4-7.7,6-11.5c3.2-6.2,6.4-12.3,9.6-18.5c0.7-1.4,1.5-2.8,2.2-4.2
						c0.5,1.2,1,2.4,1.6,3.5c-2.3-0.9-4.6-1.7-6.9-2.6c-5.5-2.1-11.1-4.2-16.6-6.3c-6.7-2.5-13.4-5.1-20.1-7.6
						c-5.8-2.2-11.6-4.4-17.4-6.6c-1.9-0.7-3.8-1.4-5.8-2.2c-0.9-0.3-1.9-0.6-2.7-1c0,0-0.1,0-0.1,0c0.4,0,0.9,0,1.3,0
						c-6,2-11.9,4.2-17.8,6.4c-11.8,4.4-23.5,8.9-35,14c-1.8,0.8-2.8,1.2-4.5,2c-1.5,0.7-3,1.4-4.5,2.2c-2.7,1.3-5.4,2.7-8,4.2
						c0.4-0.7,0.8-1.4,1.1-2.1c0.1,5.4,0.3,10.8,0.4,16.2c0.2,8.5,0.5,17.1,0.7,25.6c0.1,2,0.1,3.9,0.2,5.9
						c-0.8-0.8-1.7-1.6-2.5-2.4c4-0.5,8.1-1.1,12.1-1.6c9.6-1.3,19.3-2.6,28.9-3.9c11.6-1.6,23.3-3.1,34.9-4.7
						c10.1-1.4,20.1-2.7,30.2-4.1c3.3-0.4,6.6-0.9,10-1.3c1.6-0.2,3.2-0.5,4.7-0.6c0.1,0,0.1,0,0.2,0c1.3-0.2,2.5,1.2,2.5,2.4
						c0,1.4-1.1,2.3-2.4,2.5c-4,0.5-8.1,1.1-12.1,1.6c-9.6,1.3-19.3,2.6-28.9,3.9c-11.6,1.6-23.3,3.1-34.9,4.7
						c-10.1,1.4-20.1,2.7-30.2,4.1c-3.3,0.4-6.6,0.9-10,1.3c-1.6,0.2-3.2,0.5-4.7,0.6c-0.1,0-0.1,0-0.2,0c-1.3,0.2-2.5-1.2-2.5-2.4
						c-0.1-5.4-0.3-10.8-0.4-16.2c-0.2-8.5-0.5-17.1-0.7-25.6c-0.1-2-0.1-3.9-0.2-5.9c0-0.8,0.4-1.7,1.1-2.1
						c6.3-3.6,12.9-6.6,19.5-9.5c7.3-3.2,14.7-6.2,22.1-9.1c6.3-2.5,12.7-4.8,19.1-7.1c3.3-1.2,6.6-2.5,9.9-3.5
						c1.6-0.5,3.3,0.5,4.8,1.1c3.8,1.4,7.6,2.9,11.4,4.3c11.1,4.2,22.2,8.4,33.3,12.5c7.2,2.7,14.3,5.4,21.5,8.1
						c0.1,0,0.2,0.1,0.3,0.1c1.5,0.6,2.3,2,1.6,3.5c-2,3.8-4,7.7-6,11.5c-3.2,6.2-6.4,12.3-9.6,18.5c-0.7,1.4-1.5,2.8-2.2,4.2
						C362.7,168,358.5,165.7,359.9,162.9z"/>
				</g>
				<g>
					<path class="st4" d="M380.1,227.7c1.9-32.5,1.8-65.2-0.3-97.7l-83.3,34.2c0.2,32.9,0.9,65.7,2.1,98.6L380.1,227.7z"/>
					<path class="st3" d="M378.2,227.8c0.3-12.7,0.6-25.5,0.6-38.2c0-12.7-0.4-25.5-0.9-38.2c-0.3-7.1-0.7-14.2-1.2-21.3
						c1.3,1,2.7,1.9,4,2.9c-2.8,1.1-5.5,2.3-8.3,3.4c-6.6,2.7-13.2,5.5-19.9,8.2c-8,3.3-16,6.6-24.1,9.9c-6.9,2.9-13.9,5.7-20.8,8.6
						c-3.4,1.4-6.7,2.9-10.1,4.2c0,0-0.1,0-0.1,0.1c0.8-1.1,1.5-2.1,2.3-3.2c0.2,25.7,0.6,51.4,1.3,77.1c0.2,7.2,0.5,14.3,0.7,21.5
						c-1.4-1-2.7-2-4.1-2.9c2.7-1.2,5.4-2.3,8.1-3.5c6.5-2.8,13-5.5,19.5-8.3c7.8-3.3,15.7-6.7,23.5-10c6.8-2.9,13.6-5.8,20.4-8.7
						c3.3-1.4,6.6-3,9.9-4.2c0,0,0.1,0,0.1-0.1c1.4-0.6,3.2,0.5,3.6,1.9c0.5,1.6-0.5,3-1.9,3.6c0,0-0.1,0-0.1,0.1
						c-0.3,0.1-0.6,0.1,0.5-0.2c-0.3,0.1-0.6,0.3-0.9,0.4c-0.5,0.2-1.1,0.5-1.6,0.7c-2,0.9-3.9,1.7-5.9,2.6
						c-6.5,2.8-13,5.6-19.4,8.4c-7.8,3.4-15.7,6.8-23.5,10.2c-6.8,2.9-13.6,5.9-20.3,8.8c-3.3,1.4-6.5,3-9.9,4.3c0,0-0.1,0-0.1,0.1
						c-1.9,0.8-4-1.1-4.1-2.9c-1-25.7-1.7-51.4-2.1-77.1c-0.1-7.2-0.2-14.3-0.2-21.5c0-1.5,0.9-2.6,2.3-3.2c2.8-1.1,5.5-2.3,8.3-3.4
						c6.6-2.7,13.3-5.4,19.9-8.1c8-3.3,16-6.6,24.1-9.8c6.9-2.8,13.9-5.7,20.8-8.5c3.4-1.4,6.7-2.9,10.1-4.1c0,0,0.1,0,0.1-0.1
						c1.9-0.8,3.9,1,4,2.9c1.5,25.4,1.9,51,0.6,76.5c-0.4,7.1-0.8,14.2-1.5,21.3c-0.1,1-0.7,1.9-1.8,1.9
						C379.1,229.6,378.1,228.8,378.2,227.8z"/>
				</g>
				<g>
					<path class="st2" d="M238.1,227.4c1.7-31.7,2.2-63.5,1.3-95.3l57.1,32c0.2,32.9,0.9,65.7,2.1,98.6L238.1,227.4z"/>
					<path class="st3" d="M236.1,227.5c0.2-12.4,0.7-24.7,0.9-37.1c0.1-12.4,0.2-24.8,0-37.1c-0.1-7-0.3-14-0.5-21
						c-0.1-2.2,2.3-3.6,4.2-2.6c6.5,3.6,12.9,7.2,19.4,10.8c10.3,5.7,20.5,11.5,30.8,17.2c2.3,1.3,4.7,2.6,7,3.9
						c0.9,0.5,1.5,1.5,1.5,2.5c0.1,25.7,0.6,51.4,1.4,77.1c0.2,7.2,0.5,14.3,0.7,21.5c0.1,2.2-2.4,3.8-4.3,2.6c-2-1.2-4-2.3-6-3.5
						c-4.8-2.8-9.6-5.6-14.4-8.4c-5.8-3.4-11.6-6.8-17.5-10.2c-5.1-3-10.1-5.9-15.2-8.9c-2.4-1.4-4.9-2.8-7.3-4.3c0,0-0.1,0-0.1-0.1
						c-1.4-0.8-1.9-2.6-1.2-4c0.7-1.4,2.6-2,4-1.2c2,1.2,4,2.3,6,3.5c4.8,2.8,9.6,5.6,14.4,8.4c5.8,3.4,11.6,6.8,17.5,10.2
						c5.1,3,10.1,5.9,15.2,8.9c2.4,1.4,5,2.7,7.3,4.3c0,0,0.1,0,0.1,0.1c-1.4,0.9-2.9,1.8-4.3,2.6c-1-25.7-1.6-51.4-2-77.1
						c-0.1-7.2-0.2-14.3-0.2-21.5c0.5,0.8,1,1.7,1.5,2.5c-6.4-3.6-12.9-7.2-19.3-10.8c-10.3-5.8-20.5-11.5-30.7-17.3
						c-2.3-1.3-4.7-2.6-7-4c1.4-0.9,2.8-1.7,4.2-2.6c0.6,24.8,0.4,49.5-0.7,74.3c-0.3,7-0.7,14-1.4,21c-0.1,1.1-0.8,2-1.9,2.1
						C237.1,229.4,236,228.5,236.1,227.5z"/>
				</g>
				<path class="st3" d="M342.7,233.9l-0.3-12.2c0-0.9,0.7-1.6,1.6-1.7c0.9,0,1.6,0.7,1.7,1.6l0.3,12.2c0,0.9-0.7,1.6-1.6,1.7
					S342.7,234.8,342.7,233.9z M342.1,209.6l-0.3-12.2c0-0.9,0.7-1.6,1.6-1.7c0.9,0,1.6,0.7,1.7,1.6l0.3,12.2c0,0.9-0.7,1.6-1.6,1.7
					C342.8,211.2,342.1,210.5,342.1,209.6z M341.4,185.2l-0.3-12.2c0-0.9,0.7-1.6,1.6-1.7c0.9,0,1.6,0.7,1.7,1.6l0.3,12.2
					c0,0.9-0.7,1.6-1.6,1.7C342.2,186.8,341.4,186.1,341.4,185.2z M340.7,160.9l-0.3-12.2c0-0.9,0.7-1.6,1.6-1.7s1.6,0.7,1.7,1.6
					l0.3,12.2c0,0.9-0.7,1.6-1.6,1.7S340.8,161.8,340.7,160.9z"/>
			</g>
		</g>
	</g>
	<g>
		<g>
			<path class="st1" d="M344,256.6c-2.2,1.3-30.1,15.4-32.4,16.7c-1.5,0.9-3.2,2.3-2.7,3.9c0.2,0.7,0.7,1.2,1.3,1.7
				c5.8,5.2,12.7,9,19.5,12.7c16.2,8.9,32.4,17.9,48.6,26.8l85.9-37.8l-64.2-16.3L344,256.6z"/>
			<path class="st1" d="M345.9,259.7c-3.5,2.1-7.3,3.8-10.9,5.6c-5.4,2.7-10.7,5.5-16.1,8.2c-1.6,0.8-3.3,1.7-4.9,2.5
				c-0.2,0.1-0.3,0.2-0.5,0.3c-0.4,0.2-0.7,0.4-1,0.7c0.7-0.5-0.1,0.1-0.2,0.2c-0.5,0.4,0.2-0.5-0.1,0.2c0.2-0.4,0.3-0.8,0.1-1.2
				c0,0-0.3-0.6-0.4-0.5c0,0,1.4,1.3,1.5,1.4c1,0.9,2.1,1.7,3.1,2.5c1,0.7-0.5-0.4,0.4,0.3c0.2,0.1,0.4,0.3,0.6,0.4
				c0.5,0.4,1.1,0.8,1.7,1.1c1.2,0.8,2.4,1.5,3.5,2.2c2.3,1.4,4.6,2.7,7,4c5.1,2.8,10.2,5.6,15.3,8.4c11.7,6.4,23.3,12.8,35,19.3
				c-0.9-0.1-1.9-0.2-2.8-0.3c2.8-1.3,5.7-2.5,8.5-3.8c6.8-3,13.7-6,20.5-9c8.3-3.6,16.6-7.3,24.8-10.9c7.2-3.2,14.3-6.3,21.5-9.5
				c3.5-1.5,6.9-3.2,10.4-4.6c0.1,0,0.1,0,0.2-0.1c0.1,2.3,0.1,4.7,0.2,7c-6.4-1.6-12.8-3.3-19.2-4.9c-11-2.8-22.1-5.6-33.1-8.4
				c-3.4-0.9-6.9-1.7-10.3-2.6c-1.1-0.3-2.1-0.5-3.2-0.6c-9.5-1.3-19-2.6-28.4-3.9c-8.5-1.2-17-2.3-25.6-3.5c-0.1,0-0.3,0-0.4-0.1
				c-1.9-0.3-3.2-2.6-2.7-4.4c0.6-2,2.4-2.9,4.4-2.7c7.2,1,14.5,2,21.7,3c10.3,1.4,20.6,2.8,30.9,4.2c1.3,0.2,2.6,0.3,3.9,0.6
				c2.8,0.7,5.5,1.4,8.3,2.1c10.7,2.7,21.5,5.5,32.2,8.2c7.6,1.9,15.2,3.8,22.8,5.8c0.1,0,0.3,0.1,0.4,0.1c1.5,0.4,2.8,1.8,2.8,3.4
				c0,1.7-1,2.9-2.6,3.6c-2,0.9-4.1,1.8-6.1,2.7c-5.1,2.3-10.3,4.5-15.4,6.8c-6.7,3-13.5,5.9-20.2,8.9c-6.8,3-13.6,6-20.4,9
				c-5.4,2.4-10.8,4.7-16.1,7.1c-2.5,1.1-4.9,2.4-7.5,3.3c-0.4,0.1,0,0.2-1.1,0.2c-1.3,0-2.3-0.7-3.4-1.3c-0.9-0.5-1.8-1-2.7-1.5
				c-3.4-1.9-6.7-3.7-10.1-5.6c-6.7-3.7-13.4-7.4-20.1-11c-6.5-3.6-13.1-7.1-19.6-10.8c-3-1.7-5.9-3.5-8.7-5.4
				c-1.5-1.1-3.1-2.2-4.5-3.4c-1.5-1.3-3.2-2.6-3.9-4.6c-1.6-4.8,3-7.6,6.6-9.5c3-1.5,5.9-3,8.9-4.6c6.4-3.3,12.9-6.5,19.3-9.9
				c0.6-0.3,1.2-0.6,1.9-1c1.6-1,4-0.6,5,1.2C348.1,256.3,347.7,258.6,345.9,259.7z"/>
		</g>
		<g>
			<g>
				<g>
					<path class="st2" d="M440.7,211.3l17.8-34.2l-69.8-26.3c0,0-48.9,16.7-70.3,29l1.3,47.7L440.7,211.3z"/>
					<path class="st3" d="M438.6,210.2c2-3.8,4-7.7,6-11.5c3.2-6.2,6.4-12.3,9.6-18.5c0.7-1.4,1.5-2.8,2.2-4.2
						c0.5,1.2,1,2.4,1.6,3.5c-2.3-0.9-4.6-1.7-6.9-2.6c-5.5-2.1-11.1-4.2-16.6-6.3c-6.7-2.5-13.4-5.1-20.1-7.6
						c-5.8-2.2-11.6-4.4-17.4-6.6c-1.9-0.7-3.8-1.4-5.8-2.2c-0.9-0.3-1.9-0.6-2.7-1c0,0-0.1,0-0.1,0c0.4,0,0.9,0,1.3,0
						c-6,2-11.9,4.2-17.8,6.4c-11.8,4.4-23.5,8.9-35,14c-1.8,0.8-2.8,1.2-4.5,2c-1.5,0.7-3,1.4-4.5,2.2c-2.7,1.3-5.4,2.7-8,4.2
						c0.4-0.7,0.8-1.4,1.1-2.1c0.1,5.4,0.3,10.8,0.4,16.2c0.2,8.5,0.5,17.1,0.7,25.6c0.1,2,0.1,3.9,0.2,5.9
						c-0.8-0.8-1.7-1.6-2.5-2.4c4-0.5,8.1-1.1,12.1-1.6c9.6-1.3,19.3-2.6,28.9-3.9c11.6-1.6,23.3-3.1,34.9-4.7
						c10.1-1.4,20.1-2.7,30.2-4.1c3.3-0.4,6.6-0.9,10-1.3c1.6-0.2,3.2-0.5,4.7-0.6c0.1,0,0.1,0,0.2,0c1.3-0.2,2.5,1.2,2.5,2.4
						c0,1.4-1.1,2.3-2.4,2.5c-4,0.5-8.1,1.1-12.1,1.6c-9.6,1.3-19.3,2.6-28.9,3.9c-11.6,1.6-23.3,3.1-34.9,4.7
						c-10.1,1.4-20.1,2.7-30.2,4.1c-3.3,0.4-6.6,0.9-10,1.3c-1.6,0.2-3.2,0.5-4.7,0.6c-0.1,0-0.1,0-0.2,0c-1.3,0.2-2.5-1.2-2.5-2.4
						c-0.1-5.4-0.3-10.8-0.4-16.2c-0.2-8.5-0.5-17.1-0.7-25.6c-0.1-2-0.1-3.9-0.2-5.9c0-0.8,0.4-1.7,1.1-2.1
						c6.3-3.6,12.9-6.6,19.5-9.5c7.3-3.2,14.7-6.2,22.1-9.1c6.3-2.5,12.7-4.8,19.1-7.1c3.3-1.2,6.6-2.5,9.9-3.5
						c1.6-0.5,3.3,0.5,4.8,1.1c3.8,1.4,7.6,2.9,11.4,4.3c11.1,4.2,22.2,8.4,33.3,12.5c7.2,2.7,14.3,5.4,21.5,8.1
						c0.1,0,0.2,0.1,0.3,0.1c1.5,0.6,2.3,2,1.6,3.5c-2,3.8-4,7.7-6,11.5c-3.2,6.2-6.4,12.3-9.6,18.5c-0.7,1.4-1.5,2.8-2.2,4.2
						C441.4,215.3,437.2,213,438.6,210.2z"/>
				</g>
				<g>
					<path class="st4" d="M458.7,275c1.9-32.5,1.8-65.2-0.3-97.7l-83.3,34.2c0.2,32.9,0.9,65.7,2.1,98.6L458.7,275z"/>
					<path class="st3" d="M456.9,275.1c0.3-12.7,0.6-25.5,0.6-38.2c0-12.7-0.4-25.5-0.9-38.2c-0.3-7.1-0.7-14.2-1.2-21.3
						c1.3,1,2.7,1.9,4,2.9c-2.8,1.1-5.5,2.3-8.3,3.4c-6.6,2.7-13.2,5.5-19.9,8.2c-8,3.3-16,6.6-24.1,9.9c-6.9,2.9-13.9,5.7-20.8,8.6
						c-3.4,1.4-6.7,2.9-10.1,4.2c0,0-0.1,0-0.1,0.1c0.8-1.1,1.5-2.1,2.3-3.2c0.2,25.7,0.6,51.4,1.3,77.1c0.2,7.2,0.5,14.3,0.7,21.5
						c-1.4-1-2.7-2-4.1-2.9c2.7-1.2,5.4-2.3,8.1-3.5c6.5-2.8,13-5.5,19.5-8.3c7.8-3.3,15.7-6.7,23.5-10c6.8-2.9,13.6-5.8,20.4-8.7
						c3.3-1.4,6.6-3,9.9-4.2c0,0,0.1,0,0.1-0.1c1.4-0.6,3.2,0.5,3.6,1.9c0.5,1.6-0.5,3-1.9,3.6c0,0-0.1,0-0.1,0.1
						c-0.3,0.1-0.6,0.1,0.5-0.2c-0.3,0.1-0.6,0.3-0.9,0.4c-0.5,0.2-1.1,0.5-1.6,0.7c-2,0.9-3.9,1.7-5.9,2.6
						c-6.5,2.8-13,5.6-19.4,8.4c-7.8,3.4-15.7,6.8-23.5,10.2c-6.8,2.9-13.6,5.9-20.3,8.8c-3.3,1.4-6.5,3-9.9,4.3c0,0-0.1,0-0.1,0.1
						c-1.9,0.8-4-1.1-4.1-2.9c-1-25.7-1.7-51.4-2.1-77.1c-0.1-7.2-0.2-14.3-0.2-21.5c0-1.5,0.9-2.6,2.3-3.2c2.8-1.1,5.5-2.3,8.3-3.4
						c6.6-2.7,13.3-5.4,19.9-8.1c8-3.3,16-6.6,24.1-9.8c6.9-2.8,13.9-5.7,20.8-8.5c3.4-1.4,6.7-2.9,10.1-4.1c0,0,0.1,0,0.1-0.1
						c1.9-0.8,3.9,1,4,2.9c1.5,25.4,1.9,51,0.6,76.5c-0.4,7.1-0.8,14.2-1.5,21.3c-0.1,1-0.7,1.9-1.8,1.9
						C457.8,276.9,456.8,276.1,456.9,275.1z"/>
				</g>
				<g>
					<path class="st2" d="M316.8,274.7c1.7-31.7,2.2-63.5,1.3-95.3l57.1,32c0.2,32.9,0.9,65.7,2.1,98.6L316.8,274.7z"/>
					<path class="st3" d="M314.8,274.7c0.2-12.4,0.7-24.7,0.9-37.1c0.1-12.4,0.2-24.8,0-37.1c-0.1-7-0.3-14-0.5-21
						c-0.1-2.2,2.3-3.6,4.2-2.6c6.5,3.6,12.9,7.2,19.4,10.8c10.3,5.7,20.5,11.5,30.8,17.2c2.3,1.3,4.7,2.6,7,3.9
						c0.9,0.5,1.5,1.5,1.5,2.5c0.1,25.7,0.6,51.4,1.4,77.1c0.2,7.2,0.5,14.3,0.7,21.5c0.1,2.2-2.4,3.8-4.3,2.6c-2-1.2-4-2.3-6-3.5
						c-4.8-2.8-9.6-5.6-14.4-8.4c-5.8-3.4-11.6-6.8-17.5-10.2c-5.1-3-10.1-5.9-15.2-8.9c-2.4-1.4-4.9-2.8-7.3-4.3c0,0-0.1,0-0.1-0.1
						c-1.4-0.8-1.9-2.6-1.2-4c0.7-1.4,2.6-2,4-1.2c2,1.2,4,2.3,6,3.5c4.8,2.8,9.6,5.6,14.4,8.4c5.8,3.4,11.6,6.8,17.5,10.2
						c5.1,3,10.1,5.9,15.2,8.9c2.4,1.4,5,2.7,7.3,4.3c0,0,0.1,0,0.1,0.1c-1.4,0.9-2.9,1.8-4.3,2.6c-1-25.7-1.6-51.4-2-77.1
						c-0.1-7.2-0.2-14.3-0.2-21.5c0.5,0.8,1,1.7,1.5,2.5c-6.4-3.6-12.9-7.2-19.3-10.8c-10.3-5.8-20.5-11.5-30.7-17.3
						c-2.3-1.3-4.7-2.6-7-4c1.4-0.9,2.8-1.7,4.2-2.6c0.6,24.8,0.4,49.5-0.7,74.3c-0.3,7-0.7,14-1.4,21c-0.1,1.1-0.8,2-1.9,2.1
						C315.8,276.7,314.7,275.8,314.8,274.7z"/>
				</g>
				<path class="st3" d="M421.4,281.2l-0.3-12.2c0-0.9,0.7-1.6,1.6-1.7c0.9,0,1.6,0.7,1.7,1.6l0.3,12.2c0,0.9-0.7,1.6-1.6,1.7
					S421.4,282.1,421.4,281.2z M420.7,256.9l-0.3-12.2c0-0.9,0.7-1.6,1.6-1.7c0.9,0,1.6,0.7,1.7,1.6l0.3,12.2c0,0.9-0.7,1.6-1.6,1.7
					C421.5,258.5,420.8,257.8,420.7,256.9z M420.1,232.5l-0.3-12.2c0-0.9,0.7-1.6,1.6-1.7s1.6,0.7,1.7,1.6l0.3,12.2
					c0,0.9-0.7,1.6-1.6,1.7C420.9,234.1,420.1,233.4,420.1,232.5z M419.4,208.2l-0.3-12.2c0-0.9,0.7-1.6,1.6-1.7s1.6,0.7,1.7,1.6
					l0.3,12.2c0,0.9-0.7,1.6-1.6,1.7S419.5,209.1,419.4,208.2z"/>
			</g>
		</g>
	</g>
	<g>
		<g>
			<path class="st1" d="M232.5,281c-2.2,1.3-30.1,15.4-32.4,16.7c-1.5,0.9-3.2,2.3-2.7,3.9c0.2,0.7,0.7,1.2,1.3,1.7
				c5.8,5.2,12.7,9,19.5,12.7c16.2,8.9,32.4,17.9,48.6,26.8l85.9-37.8l-64.2-16.3L232.5,281z"/>
			<path class="st1" d="M234.4,284.1c-3.5,2.1-7.3,3.8-10.9,5.6c-5.4,2.7-10.7,5.5-16.1,8.2c-1.6,0.8-3.3,1.7-4.9,2.5
				c-0.2,0.1-0.3,0.2-0.5,0.3c-0.4,0.2-0.7,0.4-1,0.7c0.7-0.5-0.1,0.1-0.2,0.2c-0.5,0.4,0.2-0.5-0.1,0.2c0.2-0.4,0.3-0.8,0.1-1.2
				c0,0-0.3-0.6-0.4-0.5c0,0,1.4,1.3,1.5,1.4c1,0.9,2.1,1.7,3.1,2.5c1,0.7-0.5-0.4,0.4,0.3c0.2,0.1,0.4,0.3,0.6,0.4
				c0.5,0.4,1.1,0.8,1.7,1.1c1.2,0.8,2.4,1.5,3.5,2.2c2.3,1.4,4.6,2.7,7,4c5.1,2.8,10.2,5.6,15.3,8.4c11.7,6.4,23.3,12.8,35,19.3
				c-0.9-0.1-1.9-0.2-2.8-0.3c2.8-1.3,5.7-2.5,8.5-3.8c6.8-3,13.7-6,20.5-9c8.3-3.6,16.6-7.3,24.8-10.9c7.2-3.2,14.3-6.3,21.5-9.5
				c3.5-1.5,6.9-3.2,10.4-4.6c0.1,0,0.1,0,0.2-0.1c0.1,2.3,0.1,4.7,0.2,7c-6.4-1.6-12.8-3.3-19.2-4.9c-11-2.8-22.1-5.6-33.1-8.4
				c-3.4-0.9-6.9-1.7-10.3-2.6c-1.1-0.3-2.1-0.5-3.2-0.6c-9.5-1.3-19-2.6-28.4-3.9c-8.5-1.2-17-2.3-25.6-3.5c-0.1,0-0.3,0-0.4-0.1
				c-1.9-0.3-3.2-2.6-2.7-4.4c0.6-2,2.4-2.9,4.4-2.7c7.2,1,14.5,2,21.7,3c10.3,1.4,20.6,2.8,30.9,4.2c1.3,0.2,2.6,0.3,3.9,0.6
				c2.8,0.7,5.5,1.4,8.3,2.1c10.7,2.7,21.5,5.5,32.2,8.2c7.6,1.9,15.2,3.8,22.8,5.8c0.1,0,0.3,0.1,0.4,0.1c1.5,0.4,2.8,1.8,2.8,3.4
				c0,1.7-1,2.9-2.6,3.6c-2,0.9-4.1,1.8-6.1,2.7c-5.1,2.3-10.3,4.5-15.4,6.8c-6.7,3-13.5,5.9-20.2,8.9c-6.8,3-13.6,6-20.4,9
				c-5.4,2.4-10.8,4.7-16.1,7.1c-2.5,1.1-4.9,2.4-7.5,3.3c-0.4,0.1,0,0.2-1.1,0.2c-1.3,0-2.3-0.7-3.4-1.3c-0.9-0.5-1.8-1-2.7-1.5
				c-3.4-1.9-6.7-3.7-10.1-5.6c-6.7-3.7-13.4-7.4-20.1-11c-6.5-3.6-13.1-7.1-19.6-10.8c-3-1.7-5.9-3.5-8.7-5.4
				c-1.5-1.1-3.1-2.2-4.5-3.4c-1.5-1.3-3.2-2.6-3.9-4.6c-1.6-4.8,3-7.6,6.6-9.5c3-1.5,5.9-3,8.9-4.6c6.4-3.3,12.9-6.5,19.3-9.9
				c0.6-0.3,1.2-0.6,1.9-1c1.6-1,4-0.6,5,1.2C236.6,280.8,236.2,283.1,234.4,284.1z"/>
		</g>
		<g>
			<g>
				<g>
					<path class="st2" d="M329.2,234.8l17.8-34.2l-69.8-26.3c0,0-48.9,16.7-70.3,29l1.3,47.7L329.2,234.8z"/>
					<path class="st3" d="M327.1,233.6c2-3.8,4-7.7,6-11.5c3.2-6.2,6.4-12.3,9.6-18.5c0.7-1.4,1.5-2.8,2.2-4.2
						c0.5,1.2,1,2.4,1.6,3.5c-2.3-0.9-4.6-1.7-6.9-2.6c-5.5-2.1-11.1-4.2-16.6-6.3c-6.7-2.5-13.4-5.1-20.1-7.6
						c-5.8-2.2-11.6-4.4-17.4-6.6c-1.9-0.7-3.8-1.4-5.8-2.2c-0.9-0.3-1.9-0.6-2.7-1c0,0-0.1,0-0.1,0c0.4,0,0.9,0,1.3,0
						c-6,2-11.9,4.2-17.8,6.4c-11.8,4.4-23.5,8.9-35,14c-1.8,0.8-2.8,1.2-4.5,2c-1.5,0.7-3,1.4-4.5,2.2c-2.7,1.3-5.4,2.7-8,4.2
						c0.4-0.7,0.8-1.4,1.1-2.1c0.1,5.4,0.3,10.8,0.4,16.2c0.2,8.5,0.5,17.1,0.7,25.6c0.1,2,0.1,3.9,0.2,5.9
						c-0.8-0.8-1.7-1.6-2.5-2.4c4-0.5,8.1-1.1,12.1-1.6c9.6-1.3,19.3-2.6,28.9-3.9c11.6-1.6,23.3-3.1,34.9-4.7
						c10.1-1.4,20.1-2.7,30.2-4.1c3.3-0.4,6.6-0.9,10-1.3c1.6-0.2,3.2-0.5,4.7-0.6c0.1,0,0.1,0,0.2,0c1.3-0.2,2.5,1.2,2.5,2.4
						c0,1.4-1.1,2.3-2.4,2.5c-4,0.5-8.1,1.1-12.1,1.6c-9.6,1.3-19.3,2.6-28.9,3.9c-11.6,1.6-23.3,3.1-34.9,4.7
						c-10.1,1.4-20.1,2.7-30.2,4.1c-3.3,0.4-6.6,0.9-10,1.3c-1.6,0.2-3.2,0.5-4.7,0.6c-0.1,0-0.1,0-0.2,0c-1.3,0.2-2.5-1.2-2.5-2.4
						c-0.1-5.4-0.3-10.8-0.4-16.2c-0.2-8.5-0.5-17.1-0.7-25.6c-0.1-2-0.1-3.9-0.2-5.9c0-0.8,0.4-1.7,1.1-2.1
						c6.3-3.6,12.9-6.6,19.5-9.5c7.3-3.2,14.7-6.2,22.1-9.1c6.3-2.5,12.7-4.8,19.1-7.1c3.3-1.2,6.6-2.5,9.9-3.5
						c1.6-0.5,3.3,0.5,4.8,1.1c3.8,1.4,7.6,2.9,11.4,4.3c11.1,4.2,22.2,8.4,33.3,12.5c7.2,2.7,14.3,5.4,21.5,8.1
						c0.1,0,0.2,0.1,0.3,0.1c1.5,0.6,2.3,2,1.6,3.5c-2,3.8-4,7.7-6,11.5c-3.2,6.2-6.4,12.3-9.6,18.5c-0.7,1.4-1.5,2.8-2.2,4.2
						C329.9,238.7,325.7,236.4,327.1,233.6z"/>
				</g>
				<g>
					<path class="st4" d="M347.2,298.4c1.9-32.5,1.8-65.2-0.3-97.7l-83.3,34.2c0.2,32.9,0.9,65.7,2.1,98.6L347.2,298.4z"/>
					<path class="st3" d="M345.4,298.5c0.3-12.7,0.6-25.5,0.6-38.2c0-12.7-0.4-25.5-0.9-38.2c-0.3-7.1-0.7-14.2-1.2-21.3
						c1.3,1,2.7,1.9,4,2.9c-2.8,1.1-5.5,2.3-8.3,3.4c-6.6,2.7-13.2,5.5-19.9,8.2c-8,3.3-16,6.6-24.1,9.9c-6.9,2.9-13.9,5.7-20.8,8.6
						c-3.4,1.4-6.7,2.9-10.1,4.2c0,0-0.1,0-0.1,0.1c0.8-1.1,1.5-2.1,2.3-3.2c0.2,25.7,0.6,51.4,1.3,77.1c0.2,7.2,0.5,14.3,0.7,21.5
						c-1.4-1-2.7-2-4.1-2.9c2.7-1.2,5.4-2.3,8.1-3.5c6.5-2.8,13-5.5,19.5-8.3c7.8-3.3,15.7-6.7,23.5-10c6.8-2.9,13.6-5.8,20.4-8.7
						c3.3-1.4,6.6-3,9.9-4.2c0,0,0.1,0,0.1-0.1c1.4-0.6,3.2,0.5,3.6,1.9c0.5,1.6-0.5,3-1.9,3.6c0,0-0.1,0-0.1,0.1
						c-0.3,0.1-0.6,0.1,0.5-0.2c-0.3,0.1-0.6,0.3-0.9,0.4c-0.5,0.2-1.1,0.5-1.6,0.7c-2,0.9-3.9,1.7-5.9,2.6
						c-6.5,2.8-13,5.6-19.4,8.4c-7.8,3.4-15.7,6.8-23.5,10.2c-6.8,2.9-13.6,5.9-20.3,8.8c-3.3,1.4-6.5,3-9.9,4.3c0,0-0.1,0-0.1,0.1
						c-1.9,0.8-4-1.1-4.1-2.9c-1-25.7-1.7-51.4-2.1-77.1c-0.1-7.2-0.2-14.3-0.2-21.5c0-1.5,0.9-2.6,2.3-3.2c2.8-1.1,5.5-2.3,8.3-3.4
						c6.6-2.7,13.3-5.4,19.9-8.1c8-3.3,16-6.6,24.1-9.8c6.9-2.8,13.9-5.7,20.8-8.5c3.4-1.4,6.7-2.9,10.1-4.1c0,0,0.1,0,0.1-0.1
						c1.9-0.8,3.9,1,4,2.9c1.5,25.4,1.9,51,0.6,76.5c-0.4,7.1-0.8,14.2-1.5,21.3c-0.1,1-0.7,1.9-1.8,1.9
						C346.3,300.3,345.3,299.5,345.4,298.5z"/>
				</g>
				<g>
					<path class="st2" d="M205.3,298.1c1.7-31.7,2.2-63.5,1.3-95.3l57.1,32c0.2,32.9,0.9,65.7,2.1,98.6L205.3,298.1z"/>
					<path class="st3" d="M203.3,298.2c0.2-12.4,0.7-24.7,0.9-37.1c0.1-12.4,0.2-24.8,0-37.1c-0.1-7-0.3-14-0.5-21
						c-0.1-2.2,2.3-3.6,4.2-2.6c6.5,3.6,12.9,7.2,19.4,10.8c10.3,5.7,20.5,11.5,30.8,17.2c2.3,1.3,4.7,2.6,7,3.9
						c0.9,0.5,1.5,1.5,1.5,2.5c0.1,25.7,0.6,51.4,1.4,77.1c0.2,7.2,0.5,14.3,0.7,21.5c0.1,2.2-2.4,3.8-4.3,2.6c-2-1.2-4-2.3-6-3.5
						c-4.8-2.8-9.6-5.6-14.4-8.4c-5.8-3.4-11.6-6.8-17.5-10.2c-5.1-3-10.1-5.9-15.2-8.9c-2.4-1.4-4.9-2.8-7.3-4.3c0,0-0.1,0-0.1-0.1
						c-1.4-0.8-1.9-2.6-1.2-4c0.7-1.4,2.6-2,4-1.2c2,1.2,4,2.3,6,3.5c4.8,2.8,9.6,5.6,14.4,8.4c5.8,3.4,11.6,6.8,17.5,10.2
						c5.1,3,10.1,5.9,15.2,8.9c2.4,1.4,5,2.7,7.3,4.3c0,0,0.1,0,0.1,0.1c-1.4,0.9-2.9,1.8-4.3,2.6c-1-25.7-1.6-51.4-2-77.1
						c-0.1-7.2-0.2-14.3-0.2-21.5c0.5,0.8,1,1.7,1.5,2.5c-6.4-3.6-12.9-7.2-19.3-10.8c-10.3-5.8-20.5-11.5-30.7-17.3
						c-2.3-1.3-4.7-2.6-7-4c1.4-0.9,2.8-1.7,4.2-2.6c0.6,24.8,0.4,49.5-0.7,74.3c-0.3,7-0.7,14-1.4,21c-0.1,1.1-0.8,2-1.9,2.1
						C204.3,300.1,203.2,299.2,203.3,298.2z"/>
				</g>
				<path class="st3" d="M309.9,304.6l-0.3-12.2c0-0.9,0.7-1.6,1.6-1.7s1.6,0.7,1.7,1.6l0.3,12.2c0,0.9-0.7,1.6-1.6,1.7
					C310.7,306.2,309.9,305.5,309.9,304.6z M309.3,280.3l-0.3-12.2c0-0.9,0.7-1.6,1.6-1.7s1.6,0.7,1.7,1.6l0.3,12.2
					c0,0.9-0.7,1.6-1.6,1.7S309.3,281.2,309.3,280.3z M308.6,255.9l-0.3-12.2c0-0.9,0.7-1.6,1.6-1.7c0.9,0,1.6,0.7,1.7,1.6l0.3,12.2
					c0,0.9-0.7,1.6-1.6,1.7C309.4,257.5,308.6,256.8,308.6,255.9z M307.9,231.6l-0.3-12.2c0-0.9,0.7-1.6,1.6-1.7
					c0.9,0,1.6,0.7,1.7,1.6l0.3,12.2c0,0.9-0.7,1.6-1.6,1.7S308,232.5,307.9,231.6z"/>
			</g>
		</g>
	</g>
	<g>
		<g>
			<g>
				<g>
					<path class="st4" d="M339.7,135.3c-1.2-20.3-2.4-40.7-3.6-61l59.2,20.2l-14,29.1L339.7,135.3z"/>
					<path class="st3" d="M337.2,135.4c-0.9-15.8-1.8-31.6-2.8-47.5c-0.3-4.5-0.5-9-0.8-13.6c-0.1-1.5,1.4-3.1,3-2.6
						c2,0.7,3.9,1.3,5.9,2c4.7,1.6,9.4,3.2,14.1,4.8c5.7,1.9,11.4,3.9,17.1,5.8c4.9,1.7,9.9,3.4,14.8,5c2.4,0.8,4.8,1.6,7.2,2.5
						c0,0,0.1,0,0.1,0c1.5,0.5,2.4,2,1.7,3.5c-2,4.3-4.1,8.5-6.1,12.8c-2.5,5.2-5,10.5-7.6,15.7c-0.4,0.8-0.8,1.5-1.7,1.8
						c-0.4,0.1-0.8,0.2-1.2,0.3c-2.1,0.6-4.3,1.2-6.4,1.8c-6.7,1.9-13.5,3.8-20.2,5.7c-4.5,1.3-9,2.6-13.6,3.8c-0.1,0-0.1,0-0.2,0.1
						c-1.3,0.4-2.7-0.2-3.1-1.5c-0.4-1.2,0.3-2.8,1.5-3.1c4.7-1.3,9.4-2.6,14.1-4c7.4-2.1,14.9-4.2,22.3-6.3c1.7-0.5,3.5-1,5.2-1.5
						c-0.5,0.4-0.9,0.8-1.4,1.2c1.6-3.3,3.1-6.5,4.7-9.8c2.5-5.2,5-10.5,7.6-15.7c0.6-1.2,1.1-2.4,1.7-3.6c0.6,1.2,1.1,2.4,1.7,3.5
						c-2-0.7-3.9-1.3-5.9-2c-4.7-1.6-9.4-3.2-14.1-4.8c-5.7-1.9-11.4-3.9-17.1-5.8c-4.9-1.7-9.9-3.4-14.8-5
						c-2.4-0.8-4.9-1.5-7.2-2.5c0,0-0.1,0-0.1,0c1-0.9,2-1.7,3-2.6c0.9,15.8,1.8,31.6,2.8,47.5c0.3,4.5,0.5,9,0.8,13.6
						c0.1,1.3-1,2.5-2.3,2.6C338.5,137.8,337.3,136.8,337.2,135.4z"/>
				</g>
				<g>
					<path class="st2" d="M278,100.4c17.6-10.9,40.9-20,58-26.4l2.2,41c-1.3,0.8-57.9,25.3-57.9,25.3L278,100.4z"/>
					<path class="st3" d="M277.4,99.9c0.7-0.7,1.5-1.3,2.3-1.9c0.9-0.7,1.8-1.2,2.8-1.8c1.8-1.1,3.6-2.1,5.4-3.2
						c3.8-2.2,7.6-4.2,11.5-6.1c7.7-3.9,15.6-7.2,23.6-10.4c4.1-1.6,8.1-3.2,12.2-4.7c1.5-0.6,3.1,0.6,3.2,2.2
						c0.3,4.6,0.5,9.3,0.8,13.9c0.4,7.3,0.8,14.7,1.3,22c0.1,1.7,0.2,3.4,0.3,5.1c0,0.9-0.4,1.8-1.1,2.3c-0.7,0.5-1.6,0.8-2.4,1.1
						c-1.4,0.7-2.9,1.3-4.3,2c-4.6,2.1-9.3,4.1-13.9,6.1c-5.5,2.4-11,4.8-16.5,7.2c-4.7,2.1-9.5,4.1-14.2,6.2c-2.3,1-4.6,2.1-6.9,3
						c0,0-0.1,0-0.1,0c-1.6,0.7-3.5-0.8-3.6-2.4c-0.3-4.5-0.5-9-0.8-13.5c-0.4-7.2-0.7-14.3-1.1-21.5c-0.1-1.6-0.2-3.3-0.3-4.9
						c-0.1-1.3,1-2.6,2.3-2.6c1.4-0.1,2.6,1,2.6,2.3c0.3,4.5,0.6,9,0.9,13.5c0.5,7.1,0.9,14.3,1.3,21.5c0.1,1.6,0.2,3.3,0.3,4.9
						c-1.2-0.8-2.4-1.6-3.6-2.4c1.9-0.8,3.8-1.6,5.6-2.4c4.5-1.9,9-3.9,13.5-5.8c5.5-2.4,11-4.8,16.5-7.1c4.8-2.1,9.6-4.2,14.5-6.3
						c1.7-0.7,3.3-1.5,5-2.2c0.5-0.2,1.1-0.5,1.6-0.7c0.2-0.1,0.4-0.2,0.6-0.3c0.1,0,0.1-0.1,0.2-0.1c0.4-0.2-0.3,0.1-0.4,0.2
						c0.1,0,0.1-0.1,0.2-0.1c-0.4,0.8-0.8,1.5-1.1,2.3c-0.2-4.6-0.5-9.3-0.7-13.9c-0.4-7.3-0.8-14.7-1.1-22
						c-0.1-1.7-0.2-3.4-0.3-5.1c1.1,0.7,2.1,1.4,3.2,2.2c-7.4,2.7-14.8,5.6-22.1,8.5c-8,3.2-16,6.5-23.8,10.2c-2.1,1-4.2,2-6.3,3.1
						c-1,0.5-2,1.1-3,1.6c-1.1,0.5-2.1,0.9-3.2,1.4C277.5,101.5,276.8,100.4,277.4,99.9z"/>
				</g>
				<g>
					<path class="st2" d="M305.7,125.7c4.9-1.9,24-10.2,28.9-12.1c0.7-0.3,1.3-0.5,2-0.5c0.8,0,1.4,0.4,2.1,0.7
						c2.6,1.4,5.2,2.8,7.8,4.1l20,12.5l-38.1,27.1l-26-27.6L305.7,125.7z"/>
					<path class="st3" d="M305.3,124.6c9.2-3.8,18.2-8.2,27.4-12c1.2-0.5,2.5-1.2,3.8-1.1c1.1,0,2,0.4,2.9,0.9
						c1.1,0.6,2.2,1.2,3.3,1.7c1.8,1,3.7,1.8,5.4,2.9c3.4,2.1,6.8,4.2,10.2,6.4c3,1.8,5.9,3.7,8.9,5.5c1.1,0.7,1.3,2.2,0.2,3
						c-4.3,3.1-8.6,6.1-12.9,9.2c-6.8,4.9-13.7,9.7-20.5,14.6c-1.6,1.1-3.2,2.3-4.7,3.4c-0.6,0.4-1.7,0.4-2.2-0.2
						c-2.9-3.1-5.9-6.2-8.8-9.4c-4.7-4.9-9.3-9.9-14-14.8c-1.1-1.1-2.1-2.3-3.2-3.4c-0.7-0.8-0.8-1.8-0.2-2.6
						c0.6-0.7,1.1-1.4,1.7-2.1c0.4-0.5,0.8-1,1.2-1.4c0.1-0.1,0.3-0.3,0.4-0.4c0.1-0.1,0.6-0.6,0.3-0.3c-0.2,0.2-0.1,0.1-0.1,0.1
						c1.3-1.7,3.8,0.5,2.5,2.2c0,0,0,0.1-0.1,0.1c0.1-0.3,0.3-0.5,0.4-0.8c-0.6,1.9-2.3,3.5-3.5,5.1c-0.1-0.9-0.1-1.7-0.2-2.6
						c2.9,3.1,5.9,6.3,8.8,9.4c4.7,5,9.3,9.9,14,14.9c1.1,1.1,2.1,2.3,3.2,3.4c-0.7-0.1-1.5-0.1-2.2-0.2c4.3-3,8.6-6.1,12.9-9.1
						c6.9-4.9,13.7-9.7,20.6-14.6c1.6-1.1,3.2-2.2,4.7-3.4c0.1,1,0.1,2,0.2,3c-6-3.8-12-7.6-18-11.4c-0.8-0.5-1.7-1.1-2.5-1.5
						c-2.1-1.1-4.2-2.2-6.3-3.4c-0.7-0.4-1.6-1.1-2.5-1.1c-0.6,0-1.3,0.4-1.8,0.6c-4.5,1.8-9,3.7-13.6,5.6c-5,2-9.9,4-14.9,5.9
						C304.7,127.2,304,125.2,305.3,124.6z"/>
				</g>
				<g>
					<path class="st4" d="M398.1,176.5c0.7-27.3-0.2-54.7-2.8-81.9l-68.9,30.8c1,27.5,2.5,55.1,4.4,82.6L398.1,176.5z"/>
					<path class="st3" d="M396.5,176.5c-0.1-10.7-0.2-21.4-0.5-32c-0.3-10.7-1-21.4-1.8-32c-0.4-5.9-0.9-11.9-1.5-17.8
						c1.1,0.8,2.3,1.5,3.4,2.3c-2.3,1-4.6,2.1-6.8,3.1c-5.5,2.5-11,4.9-16.4,7.4c-6.6,3-13.3,6-19.9,8.9c-5.7,2.6-11.5,5.1-17.2,7.7
						c-2.8,1.2-5.5,2.6-8.4,3.8c0,0-0.1,0-0.1,0.1c0.6-0.9,1.2-1.8,1.8-2.7c0.8,21.5,1.8,43.1,3.2,64.6c0.4,6,0.8,12,1.2,18
						c-1.2-0.8-2.3-1.6-3.5-2.4c2.2-1,4.5-2.1,6.7-3.1c5.4-2.5,10.7-5,16.1-7.5c6.5-3,13-6,19.5-9c5.6-2.6,11.2-5.2,16.8-7.8
						c2.7-1.3,5.4-2.7,8.2-3.8c0,0,0.1,0,0.1-0.1c1.2-0.6,2.7,0.4,3.1,1.5c0.5,1.4-0.3,2.5-1.5,3.1c0,0-0.1,0-0.1,0.1
						c-0.2,0.1-0.5,0.1,0.4-0.2c-0.3,0.1-0.5,0.2-0.7,0.4c-0.4,0.2-0.9,0.4-1.3,0.6c-1.6,0.8-3.3,1.5-4.9,2.3
						c-5.4,2.5-10.7,5-16.1,7.5c-6.5,3-13,6.1-19.4,9.1c-5.6,2.6-11.2,5.3-16.8,7.9c-2.7,1.3-5.4,2.7-8.2,3.8c0,0-0.1,0-0.1,0.1
						c-1.6,0.8-3.4-0.8-3.5-2.4c-1.5-21.5-2.8-43-3.7-64.5c-0.3-6-0.5-12-0.7-18c0-1.3,0.7-2.2,1.8-2.7c2.3-1,4.6-2,6.9-3.1
						c5.5-2.4,11-4.9,16.5-7.3c6.6-3,13.3-5.9,19.9-8.9c5.7-2.6,11.5-5.1,17.2-7.7c2.8-1.2,5.5-2.6,8.4-3.7c0,0,0.1,0,0.1-0.1
						c1.6-0.7,3.3,0.8,3.4,2.3c1.9,21.3,2.9,42.7,2.5,64.1c-0.1,6-0.3,11.9-0.7,17.9c-0.1,0.9-0.6,1.6-1.5,1.7
						C397.4,178.1,396.5,177.4,396.5,176.5z"/>
				</g>
				<g>
					<path class="st2" d="M279.1,179.9c0.6-26.6,0.1-53.3-1.4-79.9l48.7,25.3c1,27.5,2.5,55.1,4.4,82.6L279.1,179.9z"/>
					<path class="st3" d="M277.4,180c-0.1-10.4-0.1-20.8-0.3-31.1c-0.2-10.4-0.5-20.8-0.9-31.1c-0.3-5.9-0.6-11.7-0.9-17.6
						c-0.1-1.8,1.9-3.1,3.5-2.3c5.5,2.8,11,5.7,16.5,8.5c8.8,4.5,17.5,9.1,26.2,13.6c2,1,4,2.1,6,3.1c0.8,0.4,1.3,1.2,1.3,2
						c0.8,21.5,1.9,43.1,3.2,64.6c0.4,6,0.8,12,1.2,18c0.1,1.8-1.9,3.2-3.6,2.3c-1.7-0.9-3.4-1.9-5.1-2.8c-4.1-2.2-8.2-4.5-12.3-6.7
						c-5-2.7-9.9-5.4-14.9-8.1c-4.3-2.3-8.6-4.7-13-7c-2.1-1.1-4.2-2.2-6.3-3.4c0,0-0.1,0-0.1,0c-1.2-0.6-1.7-2.1-1.1-3.3
						c0.6-1.2,2.1-1.7,3.3-1.1c1.7,0.9,3.4,1.9,5.1,2.8c4.1,2.2,8.2,4.5,12.3,6.7c5,2.7,9.9,5.4,14.9,8.1c4.3,2.3,8.6,4.7,13,7
						c2.1,1.1,4.3,2.1,6.3,3.4c0,0,0.1,0,0.1,0c-1.2,0.8-2.4,1.6-3.6,2.3c-1.5-21.5-2.7-43-3.7-64.5c-0.3-6-0.5-12-0.7-18
						c0.4,0.7,0.9,1.4,1.3,2c-5.5-2.9-11-5.7-16.5-8.6c-8.7-4.6-17.5-9.1-26.2-13.7c-2-1-4-2.1-6-3.1c1.2-0.8,2.3-1.5,3.5-2.3
						c1.2,20.7,1.7,41.5,1.3,62.3c-0.1,5.9-0.3,11.8-0.6,17.6c-0.1,0.9-0.6,1.7-1.6,1.8C278.3,181.6,277.4,180.9,277.4,180z"/>
				</g>
				<path class="st3" d="M367,182.6l-0.6-10.2c0-0.8,0.5-1.4,1.3-1.4s1.4,0.5,1.4,1.3l0.6,10.2c0,0.8-0.5,1.4-1.3,1.4
					C367.6,183.9,367,183.4,367,182.6z M365.8,162.2l-0.6-10.2c0-0.8,0.5-1.4,1.3-1.4c0.8,0,1.4,0.5,1.4,1.3l0.6,10.2
					c0,0.8-0.5,1.4-1.3,1.4C366.5,163.6,365.8,163,365.8,162.2z M364.6,141.8l-0.6-10.2c0-0.8,0.5-1.4,1.3-1.4s1.4,0.5,1.4,1.3
					l0.6,10.2c0,0.8-0.5,1.4-1.3,1.4C365.3,143.2,364.6,142.6,364.6,141.8z M363.4,121.4l-0.6-10.2c0-0.8,0.5-1.4,1.3-1.4
					c0.8,0,1.4,0.5,1.4,1.3l0.6,10.2c0,0.8-0.5,1.4-1.3,1.4C364.1,122.8,363.4,122.2,363.4,121.4z"/>
			</g>
		</g>
	</g>
	<g>
		<g>
			<g>
				<path class="st1" d="M73,348.1c-6.3,1.6-11.5,4.5-17.2,7.5c-2.9,1.6-2.4,5.4,0,7.1c8.5,6,17,11.9,26.1,17
					c9.3,5.2,19.1,9.5,28.2,15.1c18.2,11.2,34.8,25.1,51.9,37.8c1.9-3.2,3.7-6.4,5.6-9.5c-17.1-8.8-31.3-22.1-47.7-32.1
					c-8.5-5.2-17.4-9.7-25.4-15.6c-8.2-6.1-15.4-13.1-23.1-19.8c0.3,2.2,0.6,4.3,0.8,6.5c-0.3,0.3-0.6,0.7-0.9,1
					c-1.3,0.2-2.7,0.3-4,0.5c0.2,0,0.5,0.1,0.7,0.1c6.5,1.2,8.9-7.5,2.7-9.9c-2.5-1-5.1-0.1-6.9,1.8c-2,2.1-2,5.4,0,7.5
					c7,7.3,14.5,14.4,22.5,20.5c8.3,6.4,17.6,11.1,26.7,16.3c17,9.9,31.4,23.7,49,32.7c6.5,3.3,11.2-5.4,5.6-9.5
					c-17.1-12.8-33.7-26.7-51.9-37.9c-8.9-5.5-18.6-9.5-27.8-14.4c-9.4-5-18.7-10.2-28.1-15.2c0,2.4,0,4.7,0,7.1
					c5.4-3.6,10.4-6.8,14.8-11.6C75.9,349.8,74.7,347.7,73,348.1L73,348.1z"/>
				<path class="st1" d="M321.9,364.1c-7.3,1.3-14.1,4.1-21,6.9c-6.4,2.6-12.9,5.1-19.4,7.5c-13.5,5-27.1,9.7-40.6,14.5
					c-13.6,4.8-27.3,9.4-40.5,15.5c-6.2,2.9-12.2,6.1-18.3,9.1c-2.6,1.3-11.9,6.7-14.5,4.4c-4.5-4-11.9,1.1-8.6,6.6
					c8,13.3,27.6,0.1,36.9-4.7c13.9-7.2,28.4-12.8,43-18.4c14.6-5.6,29.4-10.7,43.9-16.5c7.3-2.9,14.6-5.9,21.8-9
					c7.1-3.1,13.9-6.4,19.8-11.5C326.7,366.7,324.3,363.7,321.9,364.1L321.9,364.1z"/>
				<g>
					<path class="st1" d="M68.3,334.2c0.6,7,1.6,13.9,2.9,20.8c1.6,8.3,12.2,11.5,19.1,16.4l76.5,54.1c2,1.4,4.6,1.7,6.9,0.7
						c50-22.1,100.2-43,151.1-62.9c1.1-3.9,2.1-8.4,3.2-12.3"/>
					<path class="st3" d="M67.7,334.2c-0.2,4.1,0.1,8.1,0.6,12.1c0.5,3.6,0.7,7.5,1.9,11c1.7,4.8,6.2,7.8,10.4,10.3
						c4.4,2.6,8.7,5.2,12.8,8.2c12.1,8.7,24.3,17.4,36.5,26c11.3,8.1,22.7,16.1,34,24.2c0.6,0.5,1.3,1,2,1.4
						c6.2,3.9,13.1-1.1,18.9-3.6c16.3-7.1,32.7-14.2,49.1-21.1c18-7.6,36.1-15,54.2-22.4c9.3-3.8,18.6-7.5,28-11.2
						c2.2-0.9,4.3-1.7,6.5-2.6c1.3-0.5,3.2-0.9,4.1-2.1c1-1.4,1.2-4.3,1.6-6c0.6-2.3,1.1-4.6,1.7-6.9c0.6-2.5-3-3.5-3.8-1
						c-1.2,4.1-2.2,8.2-3.3,12.3c0.5-0.5,1-1,1.4-1.4c-30.2,11.8-60.3,24-90.1,36.6c-14.9,6.3-29.7,12.6-44.5,19.1
						c-3.5,1.5-7.1,3.1-10.6,4.7c-3.5,1.5-7.5,4.3-11.2,2.1c-0.7-0.4-1.4-1-2.1-1.5c-22.4-15.8-44.8-31.6-67.2-47.3
						c-2.7-1.9-5.4-3.9-8.2-5.7c-5.2-3.4-12.2-5.6-16-10.9c-2.1-3-2.4-7-3-10.5c-0.8-4.7-1.4-9.3-2.6-13.9
						C68.7,333.3,67.7,333.5,67.7,334.2L67.7,334.2z"/>
				</g>
				<g>
					<path class="st0" d="M328.4,350c-6-1.4-11.6-3.8-17.2-6.2c-29.8-12.9-58.7-25.1-88.5-38c-51,10.6-102.3,20.3-153.7,29
						c30.6,26.4,63.5,51.9,98.1,73.5C219.4,389.2,276.1,369.1,328.4,350z"/>
					<path class="st3" d="M328.7,349.1c-8.4-2.8-16.4-6.7-24.5-10.3c-8-3.6-16.1-7-24.2-10.5c-16.3-7.1-32.7-14.1-49-21.2
						c-2.7-1.2-5.9-3.3-8.8-3.3c-2.1,0-4.8,1-6.9,1.4c-2.3,0.5-4.6,0.9-6.9,1.4c-8.9,1.8-17.9,3.6-26.8,5.4
						c-17.7,3.5-35.3,6.8-53,10c-20,3.6-40.1,7.1-60.1,10.5c-1.8,0.3-2.4,2.9-1.1,4.1c29.2,25.2,59.7,49.1,92.3,70
						c1.9,1.2,4.1,3.2,6.2,3.9c1.7,0.6,3-0.1,4.7-0.7c4.6-1.7,9.2-3.3,13.8-5c9.3-3.4,18.7-6.8,28-10.1
						c18.4-6.6,36.9-13.3,55.3-19.9c10.3-3.7,20.7-7.5,31-11.2c10.3-3.7,20.9-7,30.7-11.8c2-1,0.6-4-1.5-3.5
						c-9,2.3-17.7,5.8-26.4,8.9c-9.1,3.3-18.3,6.6-27.4,9.9c-18,6.5-36,12.9-54,19.4c-8.9,3.2-17.8,6.4-26.7,9.6
						c-4.4,1.6-8.8,3.2-13.2,4.8c-1.8,0.7-3.7,1.3-5.5,2c-1.9,0.7-5.5,2.7-7.5,2.5c-1.5-0.2-3.7-2.3-5-3.1c-2.1-1.3-4.1-2.7-6.2-4
						c-4.1-2.7-8.2-5.5-12.3-8.2c-7.7-5.3-15.4-10.8-22.9-16.4C103.6,360.6,87,347,70.7,333.1c-0.4,1.4-0.7,2.7-1.1,4.1
						c35-5.9,69.8-12.3,104.6-19.2c8.7-1.7,17.4-3.5,26.1-5.2c4.3-0.9,8.7-1.8,13-2.7c2-0.4,4.1-0.9,6.1-1.3
						c2.8-0.6,3.9-0.3,6.5,0.8c16.4,7,32.8,14,49.2,20.9c8.9,3.8,17.8,7.5,26.7,11.3c8.6,3.6,17,7.7,26.3,9.2
						C329.4,351.2,329.9,349.5,328.7,349.1z"/>
				</g>
				<g>
					<path class="st1" d="M230.3,311.6c-28.5,26.6-56.8,53.4-84.9,80.4c-27-17-53.6-36.2-76.6-58.2c13.4-4.3,26.9-8.2,40.4-11.9
						c34.7-9.5,70.1-17.1,106-19.9C220.5,304.7,225.1,308.4,230.3,311.6z"/>
				</g>
				<path class="st3" d="M166.4,408.9c-0.3,3.5,0.9,7.3,2.4,10.4c0.6,1.3,3,0.4,2.4-1c-1.3-3.2-1.8-6.4-2.5-9.7
					C168.5,407.2,166.5,407.7,166.4,408.9L166.4,408.9z"/>
				<path class="st3" d="M75,353.7c1.1,2.3,3.1,3.5,5.1,5c2.7,2.1,5.5,4.1,8.3,6c5.4,3.7,10.9,7.4,16.6,10.6
					c1.1,0.6,2.4-0.9,1.4-1.8c-4.7-4.3-9.8-8.2-14.9-12c-2.4-1.8-4.8-3.6-7.2-5.3c-2.4-1.7-4.9-4-7.9-4.4
					C75.3,351.6,74.4,352.6,75,353.7L75,353.7z"/>
				<path class="st3" d="M111.7,380.3c2,1.5,4,2.9,6,4.4c1.7,1.2,3.4,2.6,5.5,2.8c0.8,0.1,1.1-0.9,0.8-1.5c-0.9-1.9-3-3-4.7-4.1
					c-2-1.4-4.1-2.7-6.2-4.1C111.6,376.8,110.3,379.2,111.7,380.3L111.7,380.3z"/>
				<path class="st3" d="M126.8,390.5c1.8,2,3.7,3.8,5.8,5.4c2,1.5,4.3,3.7,6.7,4.2c0.9,0.2,2.1-0.9,1.4-1.8c-1.5-1.9-4-3-5.9-4.4
					c-2.3-1.6-4.6-3.2-7-4.7C127,388.7,126.2,389.8,126.8,390.5L126.8,390.5z"/>
				<path class="st3" d="M146.2,404.3c0.1,0,0.2,0.1,0.3,0.1c0.4,0.1,0.8,0,1.1-0.3c0.1-0.1,0.2-0.3,0.3-0.5c0.1-0.2,0-0.5-0.1-0.7
					c0-0.1-0.1-0.2-0.1-0.2c-0.1-0.1-0.2-0.2-0.3-0.3c-0.1-0.1-0.2-0.1-0.3-0.2c-0.2-0.2-0.6-0.2-0.9-0.1c-0.3,0.1-0.6,0.4-0.8,0.7
					C145.2,403.4,145.6,404.1,146.2,404.3L146.2,404.3z"/>
				<path class="st3" d="M259.6,329c12.6,6.8,25,13.9,36.7,22.2c0-1,0-1.9,0-2.9c-2.2,1-4.3,2-6.5,2.9c-2,0.9-5.1,3-7.3,2.4
					c-1.8-0.5-3.8-2.6-5.3-3.6c-2-1.3-4-2.6-6.1-3.8c-8-4.8-16.2-9.1-24.8-12.9c0,0.8,0,1.7,0,2.5c4.7-2.2,9.5-4.1,14.2-6.3
					c1.3-0.6,0.4-2.8-1-2.3c-5,1.7-9.9,4-14.7,6.1c-1,0.4-1,2.1,0,2.5c9.7,4.6,19.2,9.7,28.2,15.5c2.2,1.4,4.4,2.9,6.6,4.4
					c1.7,1.2,2.4,2,4.3,1.6c4.8-1.2,9.5-4,14-6.1c1.2-0.6,0.9-2.2,0-2.9c-11.9-8.2-24.4-15.4-37.9-20.5
					C259.4,327.6,259,328.7,259.6,329z"/>
				<path class="st3" d="M143.1,366.1c12.1,7.4,24.1,14.9,35.3,23.7c0.2-0.9,0.5-1.8,0.7-2.8c-2.2,0.9-4.4,1.7-6.6,2.6
					c-1.7,0.7-4.8,2.5-6.6,2.4c-2-0.1-4.2-2.5-5.8-3.7c-1.9-1.4-3.9-2.8-5.9-4.1c-7.9-5.4-16.1-10.2-24.7-14.5
					c-0.1,0.9-0.2,1.8-0.4,2.7c4.9-2,9.9-3.7,14.8-5.8c1.4-0.6,0.4-2.8-1-2.3c-4.9,1.4-9.8,3.4-14.6,5.3c-1.1,0.4-1.6,2-0.4,2.7
					c9.3,4.9,18.3,10.4,26.8,16.4c2,1.4,3.9,2.8,5.8,4.2c1.5,1.1,2.8,2.7,4.7,2.8c1.9,0.1,4.9-1.6,6.7-2.3c2.6-1,5.2-2.1,7.8-3.2
					c1.4-0.6,1.6-2.1,0.4-3c-11.4-8.7-23.5-16.5-36.7-22.2C143,364.7,142.4,365.7,143.1,366.1z"/>
				<path class="st3" d="M153.3,356.6c-6.8,0.4-13.9,3-20.4,4.9c-2.2,0.6-5.9,2.6-8,2.2c-1.2-0.2-3.1-1.8-4.1-2.5
					c-1.8-1.2-3.4-2.6-5-4.1c-0.2,0.8-0.4,1.6-0.6,2.3c7.1-2.2,14.2-4.4,21.4-6.3c1.6-0.4,4.2-1.6,5.8-1.5c1.5,0.2,2.2,0.9,3.4,1.9
					c2.3,1.8,4.6,3.6,7.4,4.6c0.8,0.3,1.5-0.9,0.8-1.5c-2.7-2.4-5.8-4.4-8.6-6.7c-2.4-2-4.3-0.7-7.3,0c-7.9,1.9-15.8,4.1-23.6,6.7
					c-1,0.3-1.4,1.6-0.6,2.3c1.4,1.3,2.9,2.6,4.5,3.7c1.7,1.2,4,2,5.5,3.5c0.3,0.3,0.8,0.5,1.3,0.3c4.9-1.7,9.9-3.2,14.9-4.6
					c4.5-1.3,9.4-2.2,13.7-4C154.2,357.6,153.9,356.5,153.3,356.6z"/>
				<path class="st3" d="M137.5,346.5c-6.8,0.4-13.9,3-20.4,4.9c-2.2,0.6-5.9,2.6-8,2.2c-1.2-0.2-3.1-1.8-4.1-2.5
					c-1.8-1.2-3.4-2.6-5-4.1c-0.2,0.8-0.4,1.6-0.6,2.3c7.1-2.2,14.2-4.4,21.4-6.3c1.6-0.4,4.2-1.6,5.8-1.5c1.5,0.2,2.2,0.9,3.4,1.9
					c2.3,1.8,4.6,3.6,7.4,4.6c0.8,0.3,1.5-0.9,0.8-1.5c-2.7-2.4-5.8-4.4-8.6-6.7c-2.4-2-4.3-0.7-7.3,0c-7.9,1.9-15.8,4.1-23.6,6.7
					c-1,0.3-1.4,1.6-0.6,2.3c1.4,1.3,2.9,2.6,4.5,3.7c1.7,1.2,4,2,5.5,3.5c0.3,0.3,0.8,0.5,1.3,0.3c4.9-1.7,9.9-3.2,14.9-4.6
					c4.5-1.3,9.4-2.2,13.7-4C138.5,347.5,138.1,346.5,137.5,346.5z"/>
				<path class="st3" d="M251.1,325.9c-9.1,1.4-18.2,5.2-26.9,8.1c-2,0.7-4,1.4-6,2.1c-1,0.3-2,0.9-3,1.1c-1,0.2,0.2,0.4-1.1,0.1
					c-3.1-0.8-7-3.8-9.5-5.7c-0.1,0.8-0.2,1.7-0.3,2.5c7.7-2.9,15.5-5.6,23.3-8.1c3.7-1.2,7.4-2.4,11.1-3.6c2.5-0.8,3.9,0.7,6,2
					c2.1,1.3,4,2.3,6.3,3c1,0.3,1.4-1,0.7-1.6c-2.3-1.5-4.6-2.8-6.9-4.3c-1.3-0.8-2.7-2.3-4.3-2.4c-1.6,0-3.8,1.1-5.2,1.6
					c-2.2,0.7-4.5,1.4-6.7,2.1c-8.4,2.6-16.8,5.3-25,8.6c-1.1,0.5-1.3,1.8-0.3,2.5c2.8,2.1,6.7,4.7,10,5.9c2.9,1,7.2-1.8,10-2.8
					c9.3-3.3,19.3-5.7,28.3-9.8C252.3,326.8,251.8,325.8,251.1,325.9z"/>
				<path class="st3" d="M260.2,348.4c-29.4,7.7-58.4,17.6-86.9,28c-1.2,0.4-1.3,1.8-0.3,2.5c3.2,2.4,6.3,5.1,9.7,7.4
					c1,0.7,2,1.7,3.2,1.7c1.7,0,4.3-1.5,6-2.1c9-3.2,18-6.4,27-9.4c17.9-6,35.8-11.6,53.9-16.8c1.3-0.4,1.4-2,0.4-2.7
					c-4-2.9-7.8-6.2-12.1-8.8c-1.5-0.9-2.8,1.4-1.4,2.3c4.2,2.7,7.9,6.2,11.9,9c0.1-0.9,0.2-1.8,0.4-2.7c-17.1,5-34.1,10.3-51,16
					c-8.3,2.8-16.6,5.7-24.9,8.6c-3.6,1.3-8.7,4.5-12.2,2.6c-3.5-2-6.5-5-9.7-7.4c-0.1,0.8-0.2,1.7-0.3,2.5
					c28.6-10.5,57.6-19.6,86.7-28.9C261.7,349.7,261.3,348.1,260.2,348.4z"/>
				<path class="st3" d="M254,346c-2.3-2.3-4.8-4.2-7.3-6.2c-1.4-1.1-4.9-4.8-6.7-5.2c-1.7-0.4-3.4,0.8-5,1.4
					c-3.1,1.1-6.3,2.1-9.5,2.9c-1.2,0.3-1.2,1.8-0.3,2.5c2.8,2,5.6,4.1,8.3,6.1c1.8,1.3,4.5,4.3,6.7,4.5c2.1,0.2,6-2,8-2.7
					c2-0.7,4.1-1.1,5.8-2.5c0.6-0.5-0.1-1.4-0.7-1.3c-2.1,0.4-4.2,1.1-6.2,1.7c-2,0.6-4.9,2.1-6.9,1.7c-2.2-0.4-4.8-3.3-6.6-4.6
					c-2.4-1.8-4.7-3.6-7.1-5.3c-0.1,0.8-0.2,1.6-0.3,2.5c2.3-0.6,4.6-1.2,6.8-2c2.5-0.8,4.9-2.6,7.4-1.4c4.5,2.3,8.3,6.2,12.8,8.6
					C253.9,347.1,254.4,346.5,254,346z"/>
				<path class="st3" d="M181.3,368.9c-2-1.9-4.3-3.5-6.5-5.1c-1.4-1-2.8-2.1-4.2-3.1c-1-0.7-2.5-2.3-3.6-2.5
					c-1.7-0.3-3.3,0.9-4.9,1.5c-3.1,1.2-6.2,2.3-9.3,3.3c-1.1,0.4-1.3,1.8-0.3,2.5c2.9,1.9,5.7,3.8,8.6,5.8c1.8,1.2,4.7,4.1,6.9,4.3
					c2.1,0.2,5.9-2.3,7.9-3c2-0.8,4.1-1.2,5.7-2.7c0.6-0.5,0-1.4-0.7-1.3c-2.1,0.5-4.1,1.3-6.1,2c-1.9,0.7-4.8,2.3-6.8,2
					c-2.2-0.3-4.9-3.1-6.8-4.3c-2.4-1.7-4.9-3.4-7.3-5c-0.1,0.8-0.2,1.6-0.3,2.5c2.5-0.8,4.9-1.6,7.4-2.5c1.8-0.7,4.1-2.3,6.1-1.9
					c1.9,0.5,4.5,2.9,6.2,4c2.5,1.6,5,3.2,7.6,4.5C181.2,369.9,181.8,369.3,181.3,368.9z"/>
				<path class="st3" d="M174.2,352.1c-2-1.9-4.3-3.5-6.5-5.1c-1.4-1-2.8-2.1-4.2-3.1c-1-0.7-2.5-2.3-3.6-2.5
					c-1.7-0.3-3.3,0.9-4.9,1.5c-3.1,1.2-6.2,2.3-9.3,3.3c-1.1,0.4-1.3,1.8-0.3,2.5c2.9,1.9,5.7,3.8,8.6,5.8c1.8,1.2,4.7,4.1,6.9,4.3
					c2.1,0.2,5.9-2.3,7.9-3c2-0.8,4.1-1.2,5.7-2.7c0.6-0.5,0-1.4-0.7-1.3c-2.1,0.5-4.1,1.3-6.1,2c-1.9,0.7-4.8,2.3-6.8,2
					c-2.2-0.3-4.9-3.1-6.8-4.3c-2.4-1.7-4.9-3.4-7.3-5c-0.1,0.8-0.2,1.6-0.3,2.5c2.5-0.8,4.9-1.6,7.4-2.5c1.8-0.7,4.1-2.3,6.1-1.9
					c1.9,0.5,4.5,2.9,6.2,4c2.5,1.6,5,3.2,7.6,4.5C174.1,353.1,174.6,352.5,174.2,352.1z"/>
				<path class="st3" d="M150.9,341.8c-1.5-1.6-3.2-3-4.9-4.4c-1.1-1-2.8-3-4.3-3.5c-0.9-0.3-1.8,0.3-2.6,0.6
					c-2.4,0.8-4.8,1.5-7.2,2c-0.6,0.1-0.9,1.1-0.4,1.5c2.1,1.6,4.2,3.3,6.3,4.9c1,0.7,2.4,2.5,3.6,2.7c1.4,0.2,3.6-1,5-1.4
					c1.6-0.5,3.2-0.7,4.5-1.7c0.5-0.3,0.2-1.1-0.4-0.9c-2.6,0.5-6.3,2.5-8.8,2c-1.6-0.3-3.1-2.1-4.3-3c-1.6-1.2-3.1-2.5-4.7-3.7
					c-0.1,0.5-0.3,1-0.4,1.5c2.9-0.7,7.3-3.1,10-1.7c2.9,1.5,5.3,4.1,8.1,5.7C150.8,342.5,151.2,342,150.9,341.8z"/>
				<path class="st3" d="M164.7,337.4c-1.5-1.6-3.2-3-4.9-4.4c-1.1-1-2.8-3-4.3-3.5c-0.9-0.3-1.8,0.3-2.6,0.6
					c-2.4,0.8-4.8,1.5-7.2,2c-0.6,0.1-0.9,1.1-0.4,1.5c2.1,1.6,4.2,3.3,6.3,4.9c1,0.7,2.4,2.5,3.6,2.7c1.4,0.2,3.6-1,5-1.4
					c1.6-0.5,3.2-0.7,4.5-1.7c0.5-0.3,0.2-1.1-0.4-0.9c-2.6,0.5-6.3,2.5-8.8,2c-1.6-0.3-3.1-2.1-4.3-3c-1.6-1.2-3.1-2.5-4.7-3.7
					c-0.1,0.5-0.3,1-0.4,1.5c2.9-0.7,7.3-3.1,10-1.7c2.9,1.5,5.3,4.1,8.1,5.7C164.7,338.2,165,337.7,164.7,337.4z"/>
				<path class="st3" d="M179.6,333.6c-1.5-1.6-3.2-3-4.9-4.4c-1.1-1-2.8-3-4.3-3.5c-0.9-0.3-1.8,0.3-2.6,0.6
					c-2.4,0.8-4.8,1.5-7.2,2c-0.6,0.1-0.9,1.1-0.4,1.5c2.1,1.6,4.2,3.3,6.3,4.9c1,0.7,2.4,2.5,3.6,2.7c1.4,0.2,3.6-1,5-1.4
					c1.6-0.5,3.2-0.7,4.5-1.7c0.5-0.3,0.2-1.1-0.4-0.9c-2.6,0.5-6.3,2.5-8.8,2c-1.6-0.3-3.1-2.1-4.3-3c-1.6-1.2-3.1-2.5-4.7-3.7
					c-0.1,0.5-0.3,1-0.4,1.5c2.9-0.7,7.3-3.1,10-1.7c2.9,1.5,5.3,4.1,8.1,5.7C179.6,334.3,179.9,333.9,179.6,333.6z"/>
				<path class="st3" d="M195,330.1c-1.5-1.6-3.2-3-4.9-4.4c-1.1-1-2.8-3-4.3-3.5c-0.9-0.3-1.8,0.3-2.6,0.6c-2.4,0.8-4.8,1.5-7.2,2
					c-0.6,0.1-0.9,1.1-0.4,1.5c2.1,1.6,4.2,3.3,6.3,4.9c1,0.7,2.4,2.5,3.6,2.7c1.4,0.2,3.6-1,5-1.4c1.6-0.5,3.2-0.7,4.5-1.7
					c0.5-0.3,0.2-1.1-0.4-0.9c-2.6,0.5-6.3,2.5-8.8,2c-1.6-0.3-3.1-2.1-4.3-3c-1.6-1.2-3.1-2.5-4.7-3.7c-0.1,0.5-0.3,1-0.4,1.5
					c2.9-0.7,7.3-3.1,10-1.7c2.9,1.5,5.3,4.1,8.1,5.7C194.9,330.8,195.3,330.4,195,330.1z"/>
				<path class="st3" d="M209.1,326.3c-1.5-1.6-3.2-3-4.9-4.4c-1.1-1-2.8-3-4.3-3.5c-0.9-0.3-1.8,0.3-2.6,0.6
					c-2.4,0.8-4.8,1.5-7.2,2c-0.6,0.1-0.9,1.1-0.4,1.5c2.1,1.6,4.2,3.3,6.3,4.9c1,0.7,2.4,2.5,3.6,2.7c1.4,0.2,3.6-1,5-1.4
					c1.6-0.5,3.2-0.7,4.5-1.7c0.5-0.3,0.2-1.1-0.4-0.9c-2.6,0.5-6.3,2.5-8.8,2c-1.6-0.3-3.1-2.1-4.3-3c-1.6-1.2-3.1-2.5-4.7-3.7
					c-0.1,0.5-0.3,1-0.4,1.5c2.9-0.7,7.3-3.1,10-1.7c2.9,1.5,5.3,4.1,8.1,5.7C209,327,209.3,326.6,209.1,326.3z"/>
				<path class="st3" d="M221.3,322.3c-1.5-1.6-3.2-3-4.9-4.4c-1.1-1-2.8-3-4.3-3.5c-0.9-0.3-1.8,0.3-2.6,0.6
					c-2.4,0.8-4.8,1.5-7.2,2c-0.6,0.1-0.9,1.1-0.4,1.5c2.1,1.6,4.2,3.3,6.3,4.9c1,0.7,2.4,2.5,3.6,2.7c1.4,0.2,3.6-1,5-1.4
					c1.6-0.5,3.2-0.7,4.5-1.7c0.5-0.3,0.2-1.1-0.4-0.9c-2.6,0.5-6.3,2.5-8.8,2c-1.6-0.3-3.1-2.1-4.3-3c-1.6-1.2-3.1-2.5-4.7-3.7
					c-0.1,0.5-0.3,1-0.4,1.5c2.9-0.7,7.3-3.1,10-1.7c2.9,1.5,5.3,4.1,8.1,5.7C221.2,323,221.6,322.6,221.3,322.3z"/>
				<path class="st3" d="M234.2,318.5c-1.5-1.6-3.2-3-4.9-4.4c-1.1-1-2.8-3-4.3-3.5c-0.9-0.3-1.8,0.3-2.6,0.6
					c-2.4,0.8-4.8,1.5-7.2,2c-0.6,0.1-0.9,1.1-0.4,1.5c2.1,1.6,4.2,3.3,6.3,4.9c1,0.7,2.4,2.5,3.6,2.7c1.4,0.2,3.6-1,5-1.4
					c1.6-0.5,3.2-0.7,4.5-1.7c0.5-0.3,0.2-1.1-0.4-0.9c-2.6,0.5-6.3,2.5-8.8,2c-1.6-0.3-3.1-2.1-4.3-3c-1.6-1.2-3.1-2.5-4.7-3.7
					c-0.1,0.5-0.3,1-0.4,1.5c2.9-0.7,7.3-3.1,10-1.7c2.9,1.5,5.3,4.1,8.1,5.7C234.1,319.2,234.4,318.7,234.2,318.5z"/>
				<path class="st3" d="M191.1,346.1c-1.8-1.7-3.8-3.1-5.8-4.6c-2-1.5-4.7-4.3-7.1-5c-1.6-0.5-3.3,0.9-4.8,1.5c-2.6,1-5.3,2-8,2.8
					c-1,0.3-1.2,1.6-0.3,2.2c2.8,1.9,5.6,3.7,8.4,5.6c1.5,1,3.7,3.2,5.5,3.3c1.9,0.2,5.8-2.2,7.6-2.9c1.6-0.6,3.3-1,4.6-2.2
					c0.5-0.5,0-1.3-0.7-1.2c-3.5,0.8-8.2,4-11.6,3.5c-2.1-0.3-4.4-2.6-6.2-3.8c-2.2-1.5-4.4-3-6.6-4.5c-0.1,0.7-0.2,1.5-0.3,2.2
					c2.3-0.7,4.5-1.4,6.7-2.3c1.7-0.7,3.7-2.1,5.5-1.6c1.8,0.5,3.9,2.5,5.5,3.5c2.3,1.4,4.5,2.8,6.9,4
					C191,347,191.5,346.5,191.1,346.1z"/>
				<path class="st3" d="M209.7,340.9c-2.1-1.7-4.3-3.1-6.5-4.6c-1.8-1.2-4.6-3.8-6.7-4.3c-1.4-0.3-3.4,1-4.7,1.4
					c-2.7,1-5.4,1.8-8.1,2.6c-1,0.3-1.1,1.6-0.3,2.1c2.9,1.7,5.8,3.5,8.7,5.2c1.6,0.9,3.6,3,5.5,2.9c2.3,0,5.4-1.9,7.6-2.7
					c1.6-0.6,3.3-0.9,4.6-2c0.5-0.5-0.1-1.2-0.6-1.1c-3.6,0.7-7.3,3.1-10.9,3.3c-2.3,0.1-4.6-2.1-6.4-3.2c-2.4-1.5-4.9-3-7.3-4.5
					c-0.1,0.7-0.2,1.4-0.3,2.1c2.1-0.6,4.1-1.2,6.1-1.9c1.9-0.7,4.4-2.2,6.4-1.6c1.8,0.5,3.8,2.2,5.4,3.1c2.3,1.3,4.5,2.6,6.9,3.6
					C209.6,341.8,210.1,341.3,209.7,340.9z"/>
				<path class="st3" d="M199.3,362.6c-2-1.9-4.3-3.5-6.5-5.1c-1.4-1-2.8-2.1-4.2-3.1c-1-0.7-2.5-2.3-3.6-2.5
					c-1.7-0.3-3.3,0.9-4.9,1.5c-3.1,1.2-6.2,2.3-9.3,3.3c-1.1,0.4-1.3,1.8-0.3,2.5c2.9,1.9,5.7,3.8,8.6,5.8c1.8,1.2,4.7,4.1,6.9,4.3
					c2.1,0.2,5.9-2.3,7.9-3c2-0.8,4.1-1.2,5.7-2.7c0.6-0.5,0-1.4-0.7-1.3c-2.1,0.5-4.1,1.3-6.1,2c-1.9,0.7-4.8,2.3-6.8,2
					c-2.2-0.3-4.9-3.1-6.8-4.3c-2.4-1.7-4.9-3.4-7.3-5c-0.1,0.8-0.2,1.6-0.3,2.5c2.5-0.8,4.9-1.6,7.4-2.5c1.8-0.7,4.1-2.3,6.1-1.9
					c1.9,0.5,4.5,2.9,6.2,4c2.5,1.6,5,3.2,7.6,4.5C199.2,363.6,199.7,363,199.3,362.6z"/>
				<path class="st3" d="M217.5,356.9c-2-1.9-4.3-3.5-6.5-5.1c-1.4-1-2.8-2.1-4.2-3.1c-1-0.7-2.5-2.3-3.6-2.5
					c-1.7-0.3-3.3,0.9-4.9,1.5c-3.1,1.2-6.2,2.3-9.3,3.3c-1.1,0.4-1.3,1.8-0.3,2.5c2.9,1.9,5.7,3.8,8.6,5.8c1.8,1.2,4.7,4.1,6.9,4.3
					c2.1,0.2,5.9-2.3,7.9-3c2-0.8,4.1-1.2,5.7-2.7c0.6-0.5,0-1.4-0.7-1.3c-2.1,0.5-4.1,1.3-6.1,2c-1.9,0.7-4.8,2.3-6.8,2
					c-2.2-0.3-4.9-3.1-6.8-4.3c-2.4-1.7-4.9-3.4-7.3-5c-0.1,0.8-0.2,1.6-0.3,2.5c2.5-0.8,4.9-1.6,7.4-2.5c1.8-0.7,4.1-2.3,6.1-1.9
					c1.9,0.5,4.5,2.9,6.2,4c2.5,1.6,5,3.2,7.6,4.5C217.4,357.9,217.9,357.3,217.5,356.9z"/>
				<path class="st3" d="M234.8,351.1c-2.3-2.2-4.8-4.2-7.3-6.1c-1.4-1.1-4.9-4.8-6.7-5.1c-1.7-0.4-3.4,0.8-5,1.4
					c-3.1,1.1-6.3,2.1-9.4,3c-1.2,0.3-1.2,1.8-0.3,2.5c2.8,2,5.6,4,8.4,6.1c1.8,1.3,4.5,4.3,6.8,4.5c2.1,0.2,6-2,8-2.7
					c2-0.7,4.1-1.1,5.8-2.5c0.6-0.5-0.1-1.4-0.7-1.3c-2.1,0.4-4.2,1.1-6.2,1.8c-1.9,0.6-4.9,2.1-6.8,1.8c-2.2-0.4-4.8-3.3-6.6-4.6
					c-2.4-1.8-4.7-3.5-7.1-5.3c-0.1,0.8-0.2,1.6-0.3,2.5c2.5-0.7,5-1.4,7.5-2.3c2-0.7,4-2.2,6.1-1.6c1.9,0.5,4.4,3.1,6.1,4.2
					c2.4,1.7,4.8,3.4,7.4,4.7C234.7,352.1,235.2,351.5,234.8,351.1z"/>
				<g>
					<g>
						<path class="st3" d="M253.8,346C253.8,346,253.8,345.9,253.8,346C253.7,345.9,253.7,346,253.8,346L253.8,346z"/>
					</g>
				</g>
				<g>
					<path class="st3" d="M222.6,304.7c0.8-43.5,1.8-87.2,3.3-130.7c-41.1,2.8-82.1,8-123,13.2c-8,1-16.1,2-24.1,3.1
						c-11.7,1.5-23.4,3-35.1,4.5c1.5,41.1,13.8,102.6,26.9,141.6C119.2,326.2,173.9,314.8,222.6,304.7z"/>
					<path class="st3" d="M224,304.7c2.7-43.5,2.9-87.2,4.6-130.7c0.1-1.4-1.3-2.8-2.7-2.7c-61,4-121.6,12.9-182.2,20.6
						c-1.5,0.2-2.9,1.1-2.8,2.8c0.9,24.1,4.5,48.1,9.1,71.7c4.6,23.8,10.2,47.6,17.9,70.6c0.5,1.5,1.9,2.3,3.5,2
						c50.7-10.5,101.3-21.1,152-31.7c3.4-0.7,2-6-1.4-5.3c-50.7,10.5-101.4,21-152.1,31.5c1.2,0.7,2.3,1.3,3.5,2
						c-7.6-22.6-13.1-46-17.7-69.4c-4.6-23.6-8.2-47.5-9.1-71.5c-0.9,0.9-1.9,1.9-2.8,2.8c60.6-7.7,121.2-16.4,182.2-20.8
						c-0.9-0.9-1.8-1.8-2.7-2.7c-1.3,43.5-3.1,87.2-1.9,130.7C221.2,306.5,223.8,306.5,224,304.7z"/>
				</g>
				<g>
					<defs>
						<path id="SVGID_1_" d="M219.8,303.2c0.7-42.1,1.7-84.5,3.2-126.6c-39.8,2.7-79.5,7.7-119.1,12.8c-7.8,1-15.6,2-23.4,3
							c-11.3,1.4-22.7,2.9-34,4.3C48,236.5,59.8,296,72.5,333.8C119.7,324,172.7,312.9,219.8,303.2z"/>
					</defs>
					<clipPath id="SVGID_2_">
						<use xlink:href="#SVGID_1_"  style="overflow:visible;"/>
					</clipPath>
					<g class="st5">
						
							<rect x="110.7" y="127" transform="matrix(0.5381 0.8429 -0.8429 0.5381 267.732 -0.1544)" class="st6" width="46.6" height="234.5"/>
						<path class="st6" d="M47.7,327.2l-0.1-0.2l-25.2-39.4l0.2-0.1l197.8-126.3l0.1,0.2l25.2,39.4l-0.2,0.1L47.7,327.2z M23,287.7
							l24.8,38.9l197.3-126l-24.8-38.9L23,287.7z"/>
					</g>
					<g class="st5">
						
							<rect x="156.6" y="172.7" transform="matrix(0.5381 0.8429 -0.8429 0.5381 320.983 -5.959)" class="st6" width="18.7" height="234.5"/>
						<path class="st6" d="M72.1,361l-0.1-0.1l-10.1-15.9L62,345l197.7-126.3l0.1,0.1l10.1,15.9l-0.1,0.1L72.1,361z M62.3,345.2
							l9.9,15.5l197.4-126l-9.9-15.5L62.3,345.2z"/>
					</g>
				</g>
				<g>
					<g>
						<g>
							<g>
								<path class="st1" d="M90.4,291.5c37-7.9,74-15.7,111-23.6l-15.6-13.9c-31.1,6.6-46.7,9.9-77.8,16.5L90.4,291.5z"/>
								<path class="st3" d="M90.4,292.4c28.9-5.8,57.8-12,86.7-18.1c8.1-1.7,16.2-3.4,24.3-5.2c1.1-0.2,1.6-1.6,0.9-2.3
									c-3.9-3.5-7.9-7-11.8-10.5c-0.9-0.8-1.9-1.7-2.8-2.5c-0.4-0.4-0.8-0.9-1.4-1c-0.6-0.2-1.6,0.2-2.3,0.4
									c-1,0.2-1.9,0.4-2.9,0.6c-1.9,0.4-3.8,0.8-5.8,1.2c-3.3,0.7-6.6,1.4-9.9,2.1c-12.2,2.6-24.5,5.1-36.7,7.7
									c-3.4,0.7-6.7,1.4-10.1,2.1c-1.6,0.3-3.3,0.7-4.9,1c-0.9,0.2-1.9,0.4-2.8,0.6c-1,0.2-2.4,0.3-3.3,0.7
									c-0.6,0.3-1.1,1.1-1.6,1.6c-1,1.1-1.9,2.3-2.9,3.4c-3,3.6-6,7.1-8.9,10.7c-1.2,1.4-2.4,2.9-3.4,4.4
									c-0.3,0.4-0.6,0.9-0.9,1.3c-0.2,0.3-0.7,1.2-0.1,0.1c0,0-0.1,0.1-0.1,0.1c-0.8,1,0.4,1.9,1.2,1c0.4-0.5-0.8,0.6-0.2,0.1
									c0.3-0.2,0.5-0.4,0.8-0.6c0.8-0.7,1.5-1.5,2.3-2.3c2.1-2.3,4.1-4.7,6.2-7.1c3-3.6,6-7.1,9-10.7c-0.3,0.2-0.7,0.4-1,0.6
									c19.7-4.2,39.3-8.5,59-12.7c6.3-1.3,12.6-2.7,18.8-4c-0.3-0.1-0.6-0.1-0.9-0.2c5.2,4.6,10.4,9.2,15.7,13.8
									c0.3-0.8,0.6-1.5,0.9-2.3c-28.9,6.2-57.8,12.1-86.7,18.5c-8.1,1.8-16.2,3.6-24.3,5.4C89.3,290.9,89.3,292.6,90.4,292.4z"/>
							</g>
							<g>
								<path class="st0" d="M90.4,312.6c37-7.9,74-15.7,111-23.6v-20.6c-37,7.9-74,15.7-111,23.6V312.6z"/>
								<path class="st3" d="M90.4,313.4c28.9-5.9,57.8-12,86.7-18.1c8.1-1.7,16.2-3.4,24.3-5.2c0.6-0.1,1.1-0.8,1.1-1.4
									c0-6.9,0-13.7,0-20.6c0-0.6-0.5-1.1-1.2-0.9c-28.9,6.1-57.8,12.2-86.7,18.3c-8.1,1.7-16.2,3.4-24.3,5.1
									c-0.8,0.2-1.4,0.9-1.4,1.7c0,3.5,0,7,0,10.5c0,2.3,0.1,4.7,0.2,7c0,0.8,0.2,1.5,0.3,2.2c0,0.3,0.1,0.6,0.2,0.9
									c-0.1-0.6-0.1-0.2-0.1-0.1c0,1.1,1.7,0.7,1.7-0.4c0-0.1,0-0.5-0.1,0.1c0-0.3,0.1-0.6,0.2-0.9c0.1-0.8,0.2-1.6,0.3-2.4
									c0.1-2.4,0.2-4.7,0.2-7c0.1-3.5,0-7,0-10.5c-0.5,0.6-0.9,1.1-1.4,1.7c28.9-6.2,57.8-12.4,86.7-18.6
									c8.1-1.7,16.2-3.5,24.3-5.2c-0.4-0.3-0.8-0.6-1.2-0.9c0,6.9,0,13.7,0,20.6c0.4-0.5,0.8-0.9,1.1-1.4
									c-28.9,6.2-57.8,12.1-86.7,18.5c-8.1,1.8-16.2,3.6-24.3,5.4C89.4,312,89.4,313.6,90.4,313.4z"/>
							</g>
							<path class="st3" d="M99.6,301.6c4.3-0.5,8.6-1.6,12.9-2.5c4.3-0.9,8.6-1.9,12.9-2.8c4.3-0.9,8.6-1.9,12.9-2.8
								c4.3-0.9,8.7-1.6,12.9-2.9c1.4-0.4,1.4-2.3,0-2.2c-4.3,0.5-8.6,1.6-12.9,2.6c-4.3,0.9-8.6,1.8-12.9,2.7
								c-4.3,0.9-8.6,1.8-12.9,2.7c-4.3,0.9-8.6,1.6-12.9,3C98.1,299.8,98.1,301.8,99.6,301.6L99.6,301.6z"/>
							<g>
								
									<ellipse transform="matrix(0.6687 -0.7435 0.7435 0.6687 -160.3467 215.1156)" class="st7" cx="161.2" cy="287.5" rx="3" ry="2.5"/>
								<path class="st3" d="M161.2,290.6c-1.7,0.4-3.2-0.7-3.2-2.5c0-1.7,1.4-3.5,3.2-3.8c1.7-0.4,3.2,0.7,3.2,2.5
									C164.4,288.6,163,290.3,161.2,290.6z M161.2,285.2c-1.3,0.3-2.3,1.5-2.3,2.8s1,2.1,2.3,1.8c1.3-0.3,2.3-1.5,2.3-2.8
									S162.5,284.9,161.2,285.2z"/>
							</g>
							<path class="st3" d="M170.5,288.7c-1.7,0.4-3.2-0.7-3.2-2.5s1.4-3.5,3.2-3.8s3.2,0.7,3.2,2.5
								C173.6,286.6,172.2,288.3,170.5,288.7z M170.5,283.2c-1.3,0.3-2.3,1.5-2.3,2.8c0,1.3,1,2.1,2.3,1.8c1.3-0.3,2.3-1.5,2.3-2.8
								S171.7,282.9,170.5,283.2z"/>
							<path class="st3" d="M178.9,286.9c-1.7,0.4-3.2-0.7-3.2-2.5c0-1.7,1.4-3.5,3.2-3.8c1.7-0.4,3.2,0.7,3.2,2.5
								S180.6,286.5,178.9,286.9z M178.9,281.4c-1.3,0.3-2.3,1.5-2.3,2.8s1,2.1,2.3,1.8c1.3-0.3,2.3-1.5,2.3-2.8
								C181.2,282,180.2,281.1,178.9,281.4z"/>
							<path class="st3" d="M187.3,285.1c-1.7,0.4-3.2-0.7-3.2-2.5c0-1.7,1.4-3.5,3.2-3.8c1.7-0.4,3.2,0.7,3.2,2.5
								C190.5,283,189,284.7,187.3,285.1z M187.3,279.6c-1.3,0.3-2.3,1.5-2.3,2.8c0,1.3,1,2.1,2.3,1.8c1.3-0.3,2.3-1.5,2.3-2.8
								C189.6,280.2,188.6,279.4,187.3,279.6z"/>
						</g>
						<g>
							<g>
								<path class="st1" d="M90.4,264.1c37-7.9,74-15.7,111-23.6l-15.6-13.9c-31.1,6.6-46.7,9.9-77.8,16.5L90.4,264.1z"/>
								<path class="st3" d="M90.4,265c28.9-5.8,57.8-12,86.7-18.1c8.1-1.7,16.2-3.4,24.3-5.2c1.1-0.2,1.6-1.6,0.9-2.3
									c-3.9-3.5-7.9-7-11.8-10.5c-0.9-0.8-1.9-1.7-2.8-2.5c-0.4-0.4-0.8-0.9-1.4-1c-0.6-0.2-1.6,0.2-2.3,0.4
									c-1,0.2-1.9,0.4-2.9,0.6c-1.9,0.4-3.8,0.8-5.8,1.2c-3.3,0.7-6.6,1.4-9.9,2.1c-12.2,2.6-24.5,5.1-36.7,7.7
									c-3.4,0.7-6.7,1.4-10.1,2.1c-1.6,0.3-3.3,0.7-4.9,1c-0.9,0.2-1.9,0.4-2.8,0.6c-1,0.2-2.4,0.3-3.3,0.7
									c-0.6,0.3-1.1,1.1-1.6,1.6c-1,1.1-1.9,2.3-2.9,3.4c-3,3.6-6,7.1-8.9,10.7c-1.2,1.4-2.4,2.9-3.4,4.4
									c-0.3,0.4-0.6,0.9-0.9,1.3c-0.2,0.3-0.7,1.2-0.1,0.1c0,0-0.1,0.1-0.1,0.1c-0.8,1,0.4,1.9,1.2,1c0.4-0.5-0.8,0.6-0.2,0.1
									c0.3-0.2,0.5-0.4,0.8-0.6c0.8-0.7,1.5-1.5,2.3-2.3c2.1-2.3,4.1-4.7,6.2-7.1c3-3.6,6-7.1,9-10.7c-0.3,0.2-0.7,0.4-1,0.6
									c19.7-4.2,39.3-8.5,59-12.7c6.3-1.3,12.6-2.7,18.8-4c-0.3-0.1-0.6-0.1-0.9-0.2c5.2,4.6,10.4,9.2,15.7,13.8
									c0.3-0.8,0.6-1.5,0.9-2.3c-28.9,6.2-57.8,12.1-86.7,18.5c-8.1,1.8-16.2,3.6-24.3,5.4C89.3,263.5,89.3,265.2,90.4,265z"/>
							</g>
							<g>
								<path class="st0" d="M90.4,285.2c37-7.9,74-15.7,111-23.6v-20.6c-37,7.9-74,15.7-111,23.6V285.2z"/>
								<path class="st3" d="M90.4,286c28.9-5.9,57.8-12,86.7-18.1c8.1-1.7,16.2-3.4,24.3-5.2c0.6-0.1,1.1-0.8,1.1-1.4
									c0-6.9,0-13.7,0-20.6c0-0.6-0.5-1.1-1.2-0.9c-28.9,6.1-57.8,12.2-86.7,18.3c-8.1,1.7-16.2,3.4-24.3,5.1
									c-0.8,0.2-1.4,0.9-1.4,1.7c0,3.5,0,7,0,10.5c0,2.3,0.1,4.7,0.2,7c0,0.8,0.2,1.5,0.3,2.2c0,0.3,0.1,0.6,0.2,0.9
									c-0.1-0.6-0.1-0.2-0.1-0.1c0,1.1,1.7,0.7,1.7-0.4c0-0.1,0-0.5-0.1,0.1c0-0.3,0.1-0.6,0.2-0.9c0.1-0.8,0.2-1.6,0.3-2.4
									c0.1-2.4,0.2-4.7,0.2-7c0.1-3.5,0-7,0-10.5c-0.5,0.6-0.9,1.1-1.4,1.7c28.9-6.2,57.8-12.4,86.7-18.6
									c8.1-1.7,16.2-3.5,24.3-5.2c-0.4-0.3-0.8-0.6-1.2-0.9c0,6.9,0,13.7,0,20.6c0.4-0.5,0.8-0.9,1.1-1.4
									c-28.9,6.2-57.8,12.1-86.7,18.5c-8.1,1.8-16.2,3.6-24.3,5.4C89.4,284.6,89.4,286.2,90.4,286z"/>
							</g>
							<path class="st3" d="M99.6,274.2c4.3-0.5,8.6-1.6,12.9-2.5c4.3-0.9,8.6-1.9,12.9-2.8c4.3-0.9,8.6-1.9,12.9-2.8
								c4.3-0.9,8.7-1.6,12.9-2.9c1.4-0.4,1.4-2.3,0-2.2c-4.3,0.5-8.6,1.6-12.9,2.6c-4.3,0.9-8.6,1.8-12.9,2.7
								c-4.3,0.9-8.6,1.8-12.9,2.7c-4.3,0.9-8.6,1.6-12.9,3C98.1,272.4,98.1,274.4,99.6,274.2L99.6,274.2z"/>
							<path class="st3" d="M161.2,263.2c-1.7,0.4-3.2-0.7-3.2-2.5c0-1.7,1.4-3.5,3.2-3.8c1.7-0.4,3.2,0.7,3.2,2.5
								C164.4,261.1,163,262.9,161.2,263.2z M161.2,257.8c-1.3,0.3-2.3,1.5-2.3,2.8c0,1.3,1,2.1,2.3,1.8c1.3-0.3,2.3-1.5,2.3-2.8
								S162.5,257.5,161.2,257.8z"/>
							<g>
								
									<ellipse transform="matrix(0.6687 -0.7435 0.7435 0.6687 -135.4312 212.2632)" class="st7" cx="170.5" cy="258.1" rx="3" ry="2.5"/>
								<path class="st3" d="M170.5,261.3c-1.7,0.4-3.2-0.7-3.2-2.5c0-1.7,1.4-3.5,3.2-3.8c1.7-0.4,3.2,0.7,3.2,2.5
									C173.6,259.2,172.2,260.9,170.5,261.3z M170.5,255.8c-1.3,0.3-2.3,1.5-2.3,2.8c0,1.3,1,2.1,2.3,1.8c1.3-0.3,2.3-1.5,2.3-2.8
									S171.7,255.5,170.5,255.8z"/>
							</g>
							<g>
								
									<ellipse transform="matrix(0.6687 -0.7435 0.7435 0.6687 -131.3132 217.9277)" class="st7" cx="178.9" cy="256.3" rx="3" ry="2.5"/>
								<path class="st3" d="M178.9,259.5c-1.7,0.4-3.2-0.7-3.2-2.5c0-1.7,1.4-3.5,3.2-3.8s3.2,0.7,3.2,2.5
									C182,257.4,180.6,259.1,178.9,259.5z M178.9,254c-1.3,0.3-2.3,1.5-2.3,2.8c0,1.3,1,2.1,2.3,1.8c1.3-0.3,2.3-1.5,2.3-2.8
									S180.2,253.7,178.9,254z"/>
							</g>
							<path class="st3" d="M187.3,257.7c-1.7,0.4-3.2-0.7-3.2-2.5s1.4-3.5,3.2-3.8c1.7-0.4,3.2,0.7,3.2,2.5S189,257.3,187.3,257.7z
								 M187.3,252.2c-1.3,0.3-2.3,1.5-2.3,2.8s1,2.1,2.3,1.8c1.3-0.3,2.3-1.5,2.3-2.8S188.6,251.9,187.3,252.2z"/>
						</g>
						<g>
							<g>
								<path class="st1" d="M90.4,236.7c37-7.9,74-15.7,111-23.6l-15.6-13.9c-31.1,6.6-46.7,9.9-77.8,16.5L90.4,236.7z"/>
								<path class="st3" d="M90.4,237.6c28.9-5.8,57.8-12,86.7-18.1c8.1-1.7,16.2-3.4,24.3-5.2c1.1-0.2,1.6-1.6,0.9-2.3
									c-3.9-3.5-7.9-7-11.8-10.5c-0.9-0.8-1.9-1.7-2.8-2.5c-0.4-0.4-0.8-0.9-1.4-1c-0.6-0.2-1.6,0.2-2.3,0.4
									c-1,0.2-1.9,0.4-2.9,0.6c-1.9,0.4-3.8,0.8-5.8,1.2c-3.3,0.7-6.6,1.4-9.9,2.1c-12.2,2.6-24.5,5.1-36.7,7.7
									c-3.4,0.7-6.7,1.4-10.1,2.1c-1.6,0.3-3.3,0.7-4.9,1c-0.9,0.2-1.9,0.4-2.8,0.6c-1,0.2-2.4,0.3-3.3,0.7
									c-0.6,0.3-1.1,1.1-1.6,1.6c-1,1.1-1.9,2.3-2.9,3.4c-3,3.6-6,7.1-8.9,10.7c-1.2,1.4-2.4,2.9-3.4,4.4
									c-0.3,0.4-0.6,0.9-0.9,1.3c-0.2,0.3-0.7,1.2-0.1,0.1c0,0-0.1,0.1-0.1,0.1c-0.8,1,0.4,1.9,1.2,1c0.4-0.5-0.8,0.6-0.2,0.1
									c0.3-0.2,0.5-0.4,0.8-0.6c0.8-0.7,1.5-1.5,2.3-2.3c2.1-2.3,4.1-4.7,6.2-7.1c3-3.6,6-7.1,9-10.7c-0.3,0.2-0.7,0.4-1,0.6
									c19.7-4.2,39.3-8.5,59-12.7c6.3-1.3,12.6-2.7,18.8-4c-0.3-0.1-0.6-0.1-0.9-0.2c5.2,4.6,10.4,9.2,15.7,13.8
									c0.3-0.8,0.6-1.5,0.9-2.3c-28.9,6.2-57.8,12.1-86.7,18.5c-8.1,1.8-16.2,3.6-24.3,5.4C89.3,236.1,89.3,237.8,90.4,237.6z"/>
							</g>
							<g>
								<path class="st0" d="M90.4,257.7c37-7.9,74-15.7,111-23.6v-20.6c-37,7.9-74,15.7-111,23.6V257.7z"/>
								<path class="st3" d="M90.4,258.6c28.9-5.9,57.8-12,86.7-18.1c8.1-1.7,16.2-3.4,24.3-5.2c0.6-0.1,1.1-0.8,1.1-1.4
									c0-6.9,0-13.7,0-20.6c0-0.6-0.5-1.1-1.2-0.9c-28.9,6.1-57.8,12.2-86.7,18.3c-8.1,1.7-16.2,3.4-24.3,5.1
									c-0.8,0.2-1.4,0.9-1.4,1.7c0,3.5,0,7,0,10.5c0,2.3,0.1,4.7,0.2,7c0,0.8,0.2,1.5,0.3,2.2c0,0.3,0.1,0.6,0.2,0.9
									c-0.1-0.6-0.1-0.2-0.1-0.1c0,1.1,1.7,0.7,1.7-0.4c0-0.1,0-0.5-0.1,0.1c0-0.3,0.1-0.6,0.2-0.9c0.1-0.8,0.2-1.6,0.3-2.4
									c0.1-2.4,0.2-4.7,0.2-7c0.1-3.5,0-7,0-10.5c-0.5,0.6-0.9,1.1-1.4,1.7c28.9-6.2,57.8-12.4,86.7-18.6
									c8.1-1.7,16.2-3.5,24.3-5.2c-0.4-0.3-0.8-0.6-1.2-0.9c0,6.9,0,13.7,0,20.6c0.4-0.5,0.8-0.9,1.1-1.4
									c-28.9,6.2-57.8,12.1-86.7,18.5c-8.1,1.8-16.2,3.6-24.3,5.4C89.4,257.2,89.4,258.8,90.4,258.6z"/>
							</g>
							<path class="st3" d="M99.6,246.8c4.3-0.5,8.6-1.6,12.9-2.5c4.3-0.9,8.6-1.9,12.9-2.8c4.3-0.9,8.6-1.9,12.9-2.8
								c4.3-0.9,8.7-1.6,12.9-2.9c1.4-0.4,1.4-2.3,0-2.2c-4.3,0.5-8.6,1.6-12.9,2.6c-4.3,0.9-8.6,1.8-12.9,2.7
								c-4.3,0.9-8.6,1.8-12.9,2.7c-4.3,0.9-8.6,1.6-12.9,3C98.1,244.9,98.1,246.9,99.6,246.8L99.6,246.8z"/>
							<path class="st3" d="M161.2,235.8c-1.7,0.4-3.2-0.7-3.2-2.5c0-1.7,1.4-3.5,3.2-3.8c1.7-0.4,3.2,0.7,3.2,2.5
								C164.4,233.7,163,235.4,161.2,235.8z M161.2,230.3c-1.3,0.3-2.3,1.5-2.3,2.8c0,1.3,1,2.1,2.3,1.8c1.3-0.3,2.3-1.5,2.3-2.8
								C163.5,230.9,162.5,230.1,161.2,230.3z"/>
							<path class="st3" d="M170.5,233.8c-1.7,0.4-3.2-0.7-3.2-2.5c0-1.7,1.4-3.5,3.2-3.8c1.7-0.4,3.2,0.7,3.2,2.5
								C173.6,231.8,172.2,233.5,170.5,233.8z M170.5,228.4c-1.3,0.3-2.3,1.5-2.3,2.8c0,1.3,1,2.1,2.3,1.8c1.3-0.3,2.3-1.5,2.3-2.8
								C172.8,228.9,171.7,228.1,170.5,228.4z"/>
							<path class="st3" d="M178.9,232.1c-1.7,0.4-3.2-0.7-3.2-2.5c0-1.7,1.4-3.5,3.2-3.8s3.2,0.7,3.2,2.5
								C182,230,180.6,231.7,178.9,232.1z M178.9,226.6c-1.3,0.3-2.3,1.5-2.3,2.8c0,1.3,1,2.1,2.3,1.8c1.3-0.3,2.3-1.5,2.3-2.8
								S180.2,226.3,178.9,226.6z"/>
							<g>
								
									<ellipse transform="matrix(0.6687 -0.7435 0.7435 0.6687 -106.8096 214.5089)" class="st7" cx="187.3" cy="227.1" rx="3" ry="2.5"/>
								<path class="st3" d="M187.3,230.3c-1.7,0.4-3.2-0.7-3.2-2.5c0-1.7,1.4-3.5,3.2-3.8c1.7-0.4,3.2,0.7,3.2,2.5
									C190.5,228.2,189,229.9,187.3,230.3z M187.3,224.8c-1.3,0.3-2.3,1.5-2.3,2.8c0,1.3,1,2.1,2.3,1.8c1.3-0.3,2.3-1.5,2.3-2.8
									C189.6,225.3,188.6,224.5,187.3,224.8z"/>
							</g>
						</g>
					</g>
				</g>
			</g>
		</g>
	</g>
</g>
</svg>
