<?xml version="1.0" encoding="utf-8"?>
<!-- Generator: Adobe Illustrator 24.2.1, SVG Export Plug-In . SVG Version: 6.00 Build 0)  -->
<svg version="1.1" id="Layer_1" xmlns="http://www.w3.org/2000/svg" xmlns:xlink="http://www.w3.org/1999/xlink" x="0px" y="0px"
	 viewBox="0 0 500 500" style="enable-background:new 0 0 500 500;" xml:space="preserve">
<style type="text/css">
	.st0{fill:#FFFFFF;}
	.st1{fill:#D3D0CD;}
	.st2{fill:#262F38;}
	.st3{fill:#96C11E;}
	.st4{fill:#C7C6C2;}
	.st5{fill:#DA0064;}
</style>
<path class="st0" d="M471.8,213.4c-5.1-17.2-15.6-31.4-30.5-40.9c-1.1-0.7-2.2-1.4-3.3-2c-4.5-5.1-9.6-9.6-15.5-13.3
	c-11.6-7.4-25.3-11.8-39.9-12.8c-1.1-4.3-2.5-8.3-4.2-12.2c-5.4-11.8-14.4-21-26-26.9c-9.7-12.2-24.4-20.1-42-22.2
	c-3.6-0.4-7.3-0.6-11.1-0.6c-19.7,0-39.7,5.6-55,15.3c-4.7,3-8.8,6.3-12.5,9.9c-14.2-8-31.5-12.4-49.7-12.4c-14,0-27.9,2.6-40.2,7.5
	c-28.8,11.5-40.3,42.9-40,72.6c-1.6-0.1-3.2-0.2-4.8-0.2c-10.6,0-20.7,2.3-30.2,6.9c-19,9.3-33.6,27.1-39.1,47.8
	c-5.9,22.1-1.2,45.3,12.1,60.7c4.7,5.5,10.5,9.8,16.9,12.9c0.6,0.8,1.3,1.6,2,2.4c4,4.6,8.8,8.4,13.9,11.4c0.8,8.2,2.6,16.3,5.3,24
	c7,19.9,19.5,35.5,36.2,45.2c5.7,6.3,12.3,11.7,19.7,15.9c9.9,5.6,21.3,8.5,33,8.5c16.4,0,31.3-5.7,42.3-15.6
	c1.6,1.5,3.2,2.9,4.9,4.4c0.1,2.5,0.1,5,0.2,7.5c0.1,3,0.2,6.2,0.3,9.5c0.2,4.7,0.3,9.6,0.4,13.8c-1.1,3.8-0.8,8.1,1,11.7
	c1.8,3.7,4.8,6.4,8.5,7.9c0.1,0.4,0.3,0.7,0.5,1.1c2.7,5.5,8.1,8.9,14.3,9C301.8,461,366,461,422.6,461c0,0,0,0,0,0
	c9.4,0,17.1-7.7,17.1-17.1l0.1-126.1c1.3-7.9,1.4-15.9,0.2-23.8c-0.1-0.4-0.1-0.7-0.2-1.1l0-3.4c6.5-3.4,12.6-8,17.8-13.6
	C473.2,259.3,478.5,235.9,471.8,213.4z"/>
<g>
	<g>
		<g>
			<g>
				<g>
					<path class="st1" d="M239.5,444c61,0,122.1,0,183.1,0V216.1c-61,0-122.1,0-183.1,0V444z"/>
					<path class="st1" d="M239.5,447.2c61,0.8,122.1,0.8,183.1,0.9c2.2,0,4.1-1.9,4.1-4.1c0-25.7,0-51.3,0-77
						c0-40.9,0-81.8,0.1-122.7c0-9.4,0-18.8,0-28.2c0-2.3-1.9-4.2-4.2-4.2c-61,0-122.1,0-183.1,0.1c-2.2,0-4.1,1.9-4.1,4.1
						c0,25.7,0,51.3,0,77c0,40.9-0.3,81.8,0.8,122.7c0.2,9,0.8,20.4,0.8,28.2c0,3.1,4.8,3.1,4.8,0c0-24,1.3-51.8,1.5-77
						c0.3-40.9,0.1-81.8,0.2-122.7c0-9.4,0-18.8,0-28.2c-1.4,1.4-2.7,2.7-4.1,4.1c61,0,122.1,0.1,183.1,0.1
						c-1.4-1.4-2.8-2.8-4.2-4.2c0,25.7,0,51.3,0,77c0,40.9,0,81.8,0.1,122.7c0,9.4,0,18.8,0,28.2c1.4-1.4,2.7-2.7,4.1-4.1
						c-61,0-122.1,0.1-183.1,0.9C235.3,440.8,235.3,447.1,239.5,447.2z"/>
				</g>
				<g>
					<path class="st1" d="M282.2,219.2c0,1,0,2.7,0,3.7c13.7,12.8,32.7,20.4,51.4,20.4c18.7,0,37.4-7.4,51-20.2
						c0.1-0.9-0.4-1.9-0.3-2.8"/>
					<path class="st1" d="M279.5,219.2c0,5.8,2.1,7.1,6.7,10.6c4.6,3.5,9.5,6.5,14.8,8.9c10.2,4.7,21.3,7.3,32.6,7.3
						c10.8,0,21.6-2.4,31.5-6.8c5.4-2.4,10.5-5.4,15.3-9c4.1-3.1,7.2-4.6,6.7-9.9c-0.3-3.4-5.7-3.5-5.4,0c0.4,3.7-6.3,7-9.1,8.8
						c-4.2,2.7-8.6,4.9-13.2,6.7c-8.2,3.1-17,4.9-25.8,4.8c-8.9,0-17.7-1.8-26-4.9c-4.6-1.8-9.1-4.1-13.3-6.8
						c-3.6-2.3-9.4-5-9.4-9.7C284.9,215.7,279.5,215.7,279.5,219.2L279.5,219.2z"/>
				</g>
				<path class="st1" d="M239.5,447.2c61,0.8,122.1,0.8,183.1,0.9c2.2,0,4.1-1.9,4.1-4.1c0-25.7,0-51.3,0-77
					c0-40.9,0-81.8,0.1-122.7c0-9.4,0-18.8,0-28.2c0-2.3-1.9-4.2-4.2-4.2c-61,0-122.1,0-183.1,0.1c-2.2,0-4.1,1.9-4.1,4.1
					c0,25.7,0,51.3,0,77c0,40.9-0.3,81.8,0.8,122.7c0.2,9,0.8,20.4,0.8,28.2c0,3.1,4.8,3.1,4.8,0c0-24,1.3-51.8,1.5-77
					c0.3-40.9,0.1-81.8,0.2-122.7c0-9.4,0-18.8,0-28.2c-1.4,1.4-2.7,2.7-4.1,4.1c61,0,122.1,0.1,183.1,0.1c-1.4-1.4-2.8-2.8-4.2-4.2
					c0,25.7,0,51.3,0,77c0,40.9,0,81.8,0.1,122.7c0,9.4,0,18.8,0,28.2c1.4-1.4,2.7-2.7,4.1-4.1c-61,0-122.1,0.1-183.1,0.9
					C235.3,440.8,235.3,447.1,239.5,447.2z"/>
				<g>
					<path class="st1" d="M382.6,215.8c-3.2-5.9-8.9-10-14.9-13c-25.5-12.7-59.1-8.1-79,12.3c6.9,10.4,19.3,18,31.7,20.3
						C341.8,239.4,366.9,231,382.6,215.8z"/>
					<path class="st1" d="M385.4,214.1c-8.9-16.4-31.5-22.3-48.9-22.1c-18.7,0.2-37,7.4-50.4,20.5c-1.1,1.1-1.5,3.1-0.6,4.4
						c11.5,16.6,31.1,24.5,51,23.1c9.3-0.7,18.5-3,27-6.8c6.8-3,20-8.7,21.9-16.7c0.6-2.3-1.4-4-3.6-3.6c-3.8,0.7-6.5,4-9.6,6.2
						c-3,2.1-6.2,4-9.5,5.6c-7.6,3.8-16.1,6.4-24.5,7.3c-17.7,1.9-35.9-3.9-46.5-18.9c-0.2,1.5-0.4,2.9-0.6,4.4
						c11.6-11.6,27.2-17.8,43.5-18.2c15.3-0.4,36.2,4.1,45,17.9C382,220.9,387.4,217.8,385.4,214.1z"/>
				</g>
			</g>
		</g>
		<g>
			<g>
				<g>
					<path class="st1" d="M306.9,276.4c7.7,1,15.8,0.6,23.6,0.6c7.6,0,15.2,0.1,22.8,0.2c7.6,0.1,15.2,0.4,22.8,0.6
						c6.4,0.2,16.2,1.8,21.5-1.5c1.1-0.7,1.1-2.3,0.1-3.1c-5-3.7-15.1-2.7-21.4-2.8c-7.6-0.2-15.2-0.2-22.8-0.2
						c-7.6,0-15.2,0-22.8,0.2c-7.7,0.1-16.1-0.2-23.6,1.2C304.1,272,303.6,275.9,306.9,276.4L306.9,276.4z"/>
					<g>
						<g>
							<path class="st1" d="M296.1,255.4c-5.4,7.2-10.3,14.8-14.8,22.7c-3.1-2.7-5.8-5.8-8-9.2c-2.2,2.3-4.7,5-7.3,6.9
								c1.8,1.3,3.4,2.9,5.2,4.2c3.7,2.7,7.3,5.5,10.7,8.6c7.2-9.1,14.9-18.1,22.2-27.2C301.7,259.6,298.2,257.4,296.1,255.4z"/>
							<path class="st1" d="M295.9,255.1c-3.1,3.2-5.7,7.1-8.1,10.8c-2.6,3.8-5,7.7-7.2,11.7c0.5-0.1,1.1-0.1,1.6-0.2
								c-3-2.6-5.7-5.6-7.9-9c-0.3-0.5-1.1-0.8-1.6-0.3c-2.2,2.4-4.5,4.8-7.1,6.7c-0.7,0.5-0.7,1.3,0,1.8c2.6,2,5.1,4.2,7.8,6.1
								c2.7,2.1,5.4,4.2,7.9,6.5c0.5,0.5,1.2,0.4,1.7-0.2c7.3-9.1,14.9-18,22.2-27.2c0.4-0.5,0.1-1.2-0.3-1.5
								c-2.7-1.9-5.4-3.8-8-5.8c-0.8-0.7-1.8,0.6-1.1,1.4c2.2,2.6,5.3,4.3,8.1,6.2c-0.1-0.5-0.2-1-0.3-1.5
								c-7.3,9.1-14.9,18-22.1,27.2c0.6-0.1,1.1-0.1,1.7-0.2c-2.6-2.3-5.3-4.5-8-6.5c-2.7-2.1-5.4-4.3-8.1-6.4c0,0.6,0,1.2,0,1.8
								c2.8-2,5.2-4.5,7.5-7c-0.5-0.1-1.1-0.2-1.6-0.3c2.3,3.5,5,6.7,8.2,9.4c0.5,0.4,1.3,0.5,1.6-0.2c2.2-3.9,4.5-7.8,6.9-11.6
								c1.2-1.9,2.4-3.8,3.6-5.6c1.2-1.9,2.6-3.8,3.7-5.8C296.7,255.2,296.2,254.7,295.9,255.1z"/>
						</g>
						<g>
							<path class="st1" d="M295.3,253c-5.4,7.2-10.3,14.8-14.8,22.7c-3.1-2.7-5.8-5.8-8-9.2c-2.2,2.3-4.7,5-7.3,6.9
								c1.8,1.3,3.4,2.9,5.2,4.2c3.7,2.7,7.3,5.5,10.7,8.6c7.2-9.1,14.9-18.1,22.2-27.2C300.8,257.3,297.4,255.1,295.3,253z"/>
							<path class="st1" d="M295,252.7c-3.1,3.2-5.7,7.1-8.1,10.8c-2.6,3.8-5,7.7-7.2,11.7c0.5-0.1,1.1-0.1,1.6-0.2
								c-3-2.6-5.7-5.6-7.9-9c-0.3-0.5-1.1-0.8-1.6-0.3c-2.2,2.4-4.5,4.8-7.1,6.7c-0.7,0.5-0.7,1.3,0,1.8c2.6,2,5.1,4.2,7.8,6.1
								c2.7,2.1,5.4,4.2,7.9,6.5c0.5,0.5,1.2,0.4,1.7-0.2c7.3-9.1,14.9-18,22.2-27.2c0.4-0.5,0.1-1.2-0.3-1.5
								c-2.7-1.9-5.4-3.8-8-5.8c-0.8-0.7-1.8,0.6-1.1,1.4c2.2,2.6,5.3,4.3,8.1,6.2c-0.1-0.5-0.2-1-0.3-1.5
								c-7.3,9.1-14.9,18-22.1,27.2c0.6-0.1,1.1-0.1,1.7-0.2c-2.6-2.3-5.3-4.5-8-6.5c-2.7-2.1-5.4-4.3-8.1-6.4c0,0.6,0,1.2,0,1.8
								c2.8-2,5.2-4.5,7.5-7c-0.5-0.1-1.1-0.2-1.6-0.3c2.3,3.5,5,6.7,8.2,9.4c0.5,0.4,1.3,0.5,1.6-0.2c2.2-3.9,4.5-7.8,6.9-11.6
								c1.2-1.9,2.4-3.8,3.6-5.6c1.2-1.9,2.6-3.8,3.7-5.8C295.9,252.9,295.3,252.4,295,252.7z"/>
						</g>
					</g>
					<path class="st1" d="M305.9,309.8c7.7,1,15.8,0.6,23.6,0.6c7.6,0,15.2,0.1,22.8,0.2c7.6,0.1,15.2,0.4,22.8,0.6
						c6.4,0.2,16.2,1.8,21.5-1.5c1.1-0.7,1.1-2.3,0.1-3.1c-5-3.7-15.1-2.7-21.4-2.8c-7.6-0.2-15.2-0.2-22.8-0.2
						c-7.6,0-15.2,0-22.8,0.2c-7.7,0.1-16.1-0.2-23.6,1.2C303.2,305.4,302.7,309.3,305.9,309.8L305.9,309.8z"/>
					<g>
						<g>
							<path class="st1" d="M295.2,288.8c-5.4,7.2-10.3,14.8-14.8,22.7c-3.1-2.7-5.8-5.8-8-9.2c-2.2,2.3-4.7,5-7.3,6.9
								c1.8,1.3,3.4,2.9,5.2,4.2c3.7,2.7,7.3,5.5,10.7,8.6c7.2-9.1,14.9-18.1,22.2-27.2C300.8,293,297.3,290.8,295.2,288.8z"/>
							<path class="st1" d="M294.9,288.5c-3.1,3.2-5.7,7.1-8.1,10.8c-2.6,3.8-5,7.7-7.2,11.7c0.5-0.1,1.1-0.1,1.6-0.2
								c-3-2.6-5.7-5.6-7.9-9c-0.3-0.5-1.1-0.8-1.6-0.3c-2.2,2.4-4.5,4.8-7.1,6.7c-0.7,0.5-0.7,1.3,0,1.8c2.6,2,5.1,4.2,7.8,6.1
								c2.7,2.1,5.4,4.2,7.9,6.5c0.5,0.5,1.2,0.4,1.7-0.2c7.3-9.1,14.9-18,22.2-27.2c0.4-0.5,0.1-1.2-0.3-1.5
								c-2.7-1.9-5.4-3.8-8-5.8c-0.8-0.7-1.8,0.6-1.1,1.4c2.2,2.6,5.3,4.3,8.1,6.2c-0.1-0.5-0.2-1-0.3-1.5
								c-7.3,9.1-14.9,18-22.1,27.2c0.6-0.1,1.1-0.1,1.7-0.2c-2.6-2.3-5.3-4.5-8-6.5c-2.7-2.1-5.4-4.3-8.1-6.4c0,0.6,0,1.2,0,1.8
								c2.8-2,5.2-4.5,7.5-7c-0.5-0.1-1.1-0.2-1.6-0.3c2.3,3.5,5,6.7,8.2,9.4c0.5,0.4,1.3,0.5,1.6-0.2c2.2-3.9,4.5-7.8,6.9-11.6
								c1.2-1.9,2.4-3.8,3.6-5.6c1.2-1.9,2.6-3.8,3.7-5.8C295.8,288.6,295.3,288.1,294.9,288.5z"/>
						</g>
						<g>
							<path class="st1" d="M294.4,286.4c-5.4,7.2-10.3,14.8-14.8,22.7c-3.1-2.7-5.8-5.8-8-9.2c-2.2,2.3-4.7,5-7.3,6.9
								c1.8,1.3,3.4,2.9,5.2,4.2c3.7,2.7,7.3,5.5,10.7,8.6c7.2-9.1,14.9-18.1,22.2-27.2C299.9,290.7,296.5,288.5,294.4,286.4z"/>
							<path class="st1" d="M294.1,286.2c-3.1,3.2-5.7,7.1-8.1,10.8c-2.6,3.8-5,7.7-7.2,11.7c0.5-0.1,1.1-0.1,1.6-0.2
								c-3-2.6-5.7-5.6-7.9-9c-0.3-0.5-1.1-0.8-1.6-0.3c-2.2,2.4-4.5,4.8-7.1,6.7c-0.7,0.5-0.7,1.3,0,1.8c2.6,2,5.1,4.2,7.8,6.1
								c2.7,2.1,5.4,4.2,7.9,6.5c0.5,0.5,1.2,0.4,1.7-0.2c7.3-9.1,14.9-18,22.2-27.2c0.4-0.5,0.1-1.2-0.3-1.5
								c-2.7-1.9-5.4-3.8-8-5.8c-0.8-0.7-1.8,0.6-1.1,1.4c2.2,2.6,5.3,4.3,8.1,6.2c-0.1-0.5-0.2-1-0.3-1.5
								c-7.3,9.1-14.9,18-22.1,27.2c0.6-0.1,1.1-0.1,1.7-0.2c-2.6-2.3-5.3-4.5-8-6.5c-2.7-2.1-5.4-4.3-8.1-6.4c0,0.6,0,1.2,0,1.8
								c2.8-2,5.2-4.5,7.5-7c-0.5-0.1-1.1-0.2-1.6-0.3c2.3,3.5,5,6.7,8.2,9.4c0.5,0.4,1.3,0.5,1.6-0.2c2.2-3.9,4.5-7.8,6.9-11.6
								c1.2-1.9,2.4-3.8,3.6-5.6c1.2-1.9,2.6-3.8,3.7-5.8C294.9,286.3,294.4,285.8,294.1,286.2z"/>
						</g>
					</g>
					<path class="st1" d="M304.9,346.8c7.7,1,15.8,0.6,23.6,0.6c7.6,0,15.2,0.1,22.8,0.2c7.6,0.1,15.2,0.4,22.8,0.6
						c6.4,0.2,16.2,1.8,21.5-1.5c1.1-0.7,1.1-2.3,0.1-3.1c-5-3.7-15.1-2.7-21.4-2.8c-7.6-0.2-15.2-0.2-22.8-0.2
						c-7.6,0-15.2,0-22.8,0.2c-7.7,0.1-16.1-0.2-23.6,1.2C302.2,342.5,301.7,346.4,304.9,346.8L304.9,346.8z"/>
					<g>
						<g>
							<path class="st1" d="M294.2,325.8c-5.4,7.2-10.3,14.8-14.8,22.7c-3.1-2.7-5.8-5.8-8-9.2c-2.2,2.3-4.7,5-7.3,6.9
								c1.8,1.3,3.4,2.9,5.2,4.2c3.7,2.7,7.3,5.5,10.7,8.6c7.2-9.1,14.9-18.1,22.2-27.2C299.8,330,296.3,327.9,294.2,325.8z"/>
							<path class="st1" d="M293.9,325.5c-3.1,3.2-5.7,7.1-8.1,10.8c-2.6,3.8-5,7.7-7.2,11.7c0.5-0.1,1.1-0.1,1.6-0.2
								c-3-2.6-5.7-5.6-7.9-9c-0.3-0.5-1.1-0.8-1.6-0.3c-2.2,2.4-4.5,4.8-7.1,6.7c-0.7,0.5-0.7,1.3,0,1.8c2.6,2,5.1,4.2,7.8,6.1
								c2.7,2.1,5.4,4.2,7.9,6.5c0.5,0.5,1.2,0.4,1.7-0.2c7.3-9.1,14.9-18,22.2-27.2c0.4-0.5,0.1-1.2-0.3-1.5
								c-2.7-1.9-5.4-3.8-8-5.8c-0.8-0.7-1.8,0.6-1.1,1.4c2.2,2.6,5.3,4.3,8.1,6.2c-0.1-0.5-0.2-1-0.3-1.5
								c-7.3,9.1-14.9,18-22.1,27.2c0.6-0.1,1.1-0.1,1.7-0.2c-2.6-2.3-5.3-4.5-8-6.5c-2.7-2.1-5.4-4.3-8.1-6.4c0,0.6,0,1.2,0,1.8
								c2.8-2,5.2-4.5,7.5-7c-0.5-0.1-1.1-0.2-1.6-0.3c2.3,3.5,5,6.7,8.2,9.4c0.5,0.4,1.3,0.5,1.6-0.2c2.2-3.9,4.5-7.8,6.9-11.6
								c1.2-1.9,2.4-3.8,3.6-5.6c1.2-1.9,2.6-3.8,3.7-5.8C294.8,325.6,294.3,325.1,293.9,325.5z"/>
						</g>
						<g>
							<path class="st1" d="M293.4,323.5c-5.4,7.2-10.3,14.8-14.8,22.7c-3.1-2.7-5.8-5.8-8-9.2c-2.2,2.3-4.7,5-7.3,6.9
								c1.8,1.3,3.4,2.9,5.2,4.2c3.7,2.7,7.3,5.5,10.7,8.6c7.2-9.1,14.9-18.1,22.2-27.2C298.9,327.7,295.5,325.6,293.4,323.5z"/>
							<path class="st1" d="M293.1,323.2c-3.1,3.2-5.7,7.1-8.1,10.8c-2.6,3.8-5,7.7-7.2,11.7c0.5-0.1,1.1-0.1,1.6-0.2
								c-3-2.6-5.7-5.6-7.9-9c-0.3-0.5-1.1-0.8-1.6-0.3c-2.2,2.4-4.5,4.8-7.1,6.7c-0.7,0.5-0.7,1.3,0,1.8c2.6,2,5.1,4.2,7.8,6.1
								c2.7,2.1,5.4,4.2,7.9,6.5c0.5,0.5,1.2,0.4,1.7-0.2c7.3-9.1,14.9-18,22.2-27.2c0.4-0.5,0.1-1.2-0.3-1.5
								c-2.7-1.9-5.4-3.8-8-5.8c-0.8-0.7-1.8,0.6-1.1,1.4c2.2,2.6,5.3,4.3,8.1,6.2c-0.1-0.5-0.2-1-0.3-1.5
								c-7.3,9.1-14.9,18-22.1,27.2c0.6-0.1,1.1-0.1,1.7-0.2c-2.6-2.3-5.3-4.5-8-6.5c-2.7-2.1-5.4-4.3-8.1-6.4c0,0.6,0,1.2,0,1.8
								c2.8-2,5.2-4.5,7.5-7c-0.5-0.1-1.1-0.2-1.6-0.3c2.3,3.5,5,6.7,8.2,9.4c0.5,0.4,1.3,0.5,1.6-0.2c2.2-3.9,4.5-7.8,6.9-11.6
								c1.2-1.9,2.4-3.8,3.6-5.6c1.2-1.9,2.6-3.8,3.7-5.8C293.9,323.3,293.4,322.8,293.1,323.2z"/>
						</g>
					</g>
					<path class="st1" d="M305.5,381c7.7,1,15.8,0.6,23.6,0.6c7.6,0,15.2,0.1,22.8,0.2c7.6,0.1,15.2,0.4,22.8,0.6
						c6.4,0.2,16.2,1.8,21.5-1.5c1.1-0.7,1.1-2.3,0.1-3.1c-5-3.7-15.1-2.7-21.4-2.8c-7.6-0.2-15.2-0.2-22.8-0.2
						c-7.6,0-15.2,0-22.8,0.2c-7.7,0.1-16.1-0.2-23.6,1.2C302.7,376.6,302.2,380.5,305.5,381L305.5,381z"/>
					<g>
						<g>
							<path class="st1" d="M294.7,360c-5.4,7.2-10.3,14.8-14.8,22.7c-3.1-2.7-5.8-5.8-8-9.2c-2.2,2.3-4.7,5-7.3,6.9
								c1.8,1.3,3.4,2.9,5.2,4.2c3.7,2.7,7.3,5.5,10.7,8.6c7.2-9.1,14.9-18.1,22.2-27.2C300.3,364.2,296.8,362,294.7,360z"/>
							<path class="st1" d="M294.5,359.7c-3.1,3.2-5.7,7.1-8.1,10.8c-2.6,3.8-5,7.7-7.2,11.7c0.5-0.1,1.1-0.1,1.6-0.2
								c-3-2.6-5.7-5.6-7.9-9c-0.3-0.5-1.1-0.8-1.6-0.3c-2.2,2.4-4.5,4.8-7.1,6.7c-0.7,0.5-0.7,1.3,0,1.8c2.6,2,5.1,4.2,7.8,6.1
								c2.7,2.1,5.4,4.2,7.9,6.5c0.5,0.5,1.2,0.4,1.7-0.2c7.3-9.1,14.9-18,22.2-27.2c0.4-0.5,0.1-1.2-0.3-1.5
								c-2.7-1.9-5.4-3.8-8-5.8c-0.8-0.7-1.8,0.6-1.1,1.4c2.2,2.6,5.3,4.3,8.1,6.2c-0.1-0.5-0.2-1-0.3-1.5
								c-7.3,9.1-14.9,18-22.1,27.2c0.6-0.1,1.1-0.1,1.7-0.2c-2.6-2.3-5.3-4.5-8-6.5c-2.7-2.1-5.4-4.3-8.1-6.4c0,0.6,0,1.2,0,1.8
								c2.8-2,5.2-4.5,7.5-7c-0.5-0.1-1.1-0.2-1.6-0.3c2.3,3.5,5,6.7,8.2,9.4c0.5,0.4,1.3,0.5,1.6-0.2c2.2-3.9,4.5-7.8,6.9-11.6
								c1.2-1.9,2.4-3.8,3.6-5.6c1.2-1.9,2.6-3.8,3.7-5.8C295.3,359.8,294.8,359.3,294.5,359.7z"/>
						</g>
						<g>
							<path class="st1" d="M293.9,357.6c-5.4,7.2-10.3,14.8-14.8,22.7c-3.1-2.7-5.8-5.8-8-9.2c-2.2,2.3-4.7,5-7.3,6.9
								c1.8,1.3,3.4,2.9,5.2,4.2c3.7,2.7,7.3,5.5,10.7,8.6c7.2-9.1,14.9-18.1,22.2-27.2C299.4,361.9,296,359.7,293.9,357.6z"/>
							<path class="st1" d="M293.6,357.4c-3.1,3.2-5.7,7.1-8.1,10.8c-2.6,3.8-5,7.7-7.2,11.7c0.5-0.1,1.1-0.1,1.6-0.2
								c-3-2.6-5.7-5.6-7.9-9c-0.3-0.5-1.1-0.8-1.6-0.3c-2.2,2.4-4.5,4.8-7.1,6.7c-0.7,0.5-0.7,1.3,0,1.8c2.6,2,5.1,4.2,7.8,6.1
								c2.7,2.1,5.4,4.2,7.9,6.5c0.5,0.5,1.2,0.4,1.7-0.2c7.3-9.1,14.9-18,22.2-27.2c0.4-0.5,0.1-1.2-0.3-1.5
								c-2.7-1.9-5.4-3.8-8-5.8c-0.8-0.7-1.8,0.6-1.1,1.4c2.2,2.6,5.3,4.3,8.1,6.2c-0.1-0.5-0.2-1-0.3-1.5
								c-7.3,9.1-14.9,18-22.1,27.2c0.6-0.1,1.1-0.1,1.7-0.2c-2.6-2.3-5.3-4.5-8-6.5c-2.7-2.1-5.4-4.3-8.1-6.4c0,0.6,0,1.2,0,1.8
								c2.8-2,5.2-4.5,7.5-7c-0.5-0.1-1.1-0.2-1.6-0.3c2.3,3.5,5,6.7,8.2,9.4c0.5,0.4,1.3,0.5,1.6-0.2c2.2-3.9,4.5-7.8,6.9-11.6
								c1.2-1.9,2.4-3.8,3.6-5.6c1.2-1.9,2.6-3.8,3.7-5.8C294.5,357.5,293.9,357,293.6,357.4z"/>
						</g>
					</g>
					<path class="st1" d="M306.8,410.1c7.7,1,15.8,0.6,23.6,0.6c7.6,0,15.2,0.1,22.8,0.2c7.6,0.1,15.2,0.4,22.8,0.6
						c6.4,0.2,16.2,1.8,21.5-1.5c1.1-0.7,1.1-2.3,0.1-3.1c-5-3.7-15.1-2.7-21.4-2.8c-7.6-0.2-15.2-0.2-22.8-0.2
						c-7.6,0-15.2,0-22.8,0.2c-7.7,0.1-16.1-0.2-23.6,1.2C304.1,405.7,303.6,409.6,306.8,410.1L306.8,410.1z"/>
					<g>
						<g>
							<path class="st1" d="M296.1,389.1c-5.4,7.2-10.3,14.8-14.8,22.7c-3.1-2.7-5.8-5.8-8-9.2c-2.2,2.3-4.7,5-7.3,6.9
								c1.8,1.3,3.4,2.9,5.2,4.2c3.7,2.7,7.3,5.5,10.7,8.6c7.2-9.1,14.9-18.1,22.2-27.2C301.7,393.3,298.2,391.1,296.1,389.1z"/>
							<path class="st1" d="M295.8,388.8c-3.1,3.2-5.7,7.1-8.1,10.8c-2.6,3.8-5,7.7-7.2,11.7c0.5-0.1,1.1-0.1,1.6-0.2
								c-3-2.6-5.7-5.6-7.9-9c-0.3-0.5-1.1-0.8-1.6-0.3c-2.2,2.4-4.5,4.8-7.1,6.7c-0.7,0.5-0.7,1.3,0,1.8c2.6,2,5.1,4.2,7.8,6.1
								c2.7,2.1,5.4,4.2,7.9,6.5c0.5,0.5,1.2,0.4,1.7-0.2c7.3-9.1,14.9-18,22.2-27.2c0.4-0.5,0.1-1.2-0.3-1.5
								c-2.7-1.9-5.4-3.8-8-5.8c-0.8-0.7-1.8,0.6-1.1,1.4c2.2,2.6,5.3,4.3,8.1,6.2c-0.1-0.5-0.2-1-0.3-1.5
								c-7.3,9.1-14.9,18-22.1,27.2c0.6-0.1,1.1-0.1,1.7-0.2c-2.6-2.3-5.3-4.5-8-6.5c-2.7-2.1-5.4-4.3-8.1-6.4c0,0.6,0,1.2,0,1.8
								c2.8-2,5.2-4.5,7.5-7c-0.5-0.1-1.1-0.2-1.6-0.3c2.3,3.5,5,6.7,8.2,9.4c0.5,0.4,1.3,0.5,1.6-0.2c2.2-3.9,4.5-7.8,6.9-11.6
								c1.2-1.9,2.4-3.8,3.6-5.6c1.2-1.9,2.6-3.8,3.7-5.8C296.7,388.9,296.2,388.4,295.8,388.8z"/>
						</g>
						<g>
							<path class="st1" d="M295.3,386.8c-5.4,7.2-10.3,14.8-14.8,22.7c-3.1-2.7-5.8-5.8-8-9.2c-2.2,2.3-4.7,5-7.3,6.9
								c1.8,1.3,3.4,2.9,5.2,4.2c3.7,2.7,7.3,5.5,10.7,8.6c7.2-9.1,14.9-18.1,22.2-27.2C300.8,391,297.4,388.8,295.3,386.8z"/>
							<path class="st1" d="M295,386.5c-3.1,3.2-5.7,7.1-8.1,10.8c-2.6,3.8-5,7.7-7.2,11.7c0.5-0.1,1.1-0.1,1.6-0.2
								c-3-2.6-5.7-5.6-7.9-9c-0.3-0.5-1.1-0.8-1.6-0.3c-2.2,2.4-4.5,4.8-7.1,6.7c-0.7,0.5-0.7,1.3,0,1.8c2.6,2,5.1,4.2,7.8,6.1
								c2.7,2.1,5.4,4.2,7.9,6.5c0.5,0.5,1.2,0.4,1.7-0.2c7.3-9.1,14.9-18,22.2-27.2c0.4-0.5,0.1-1.2-0.3-1.5
								c-2.7-1.9-5.4-3.8-8-5.8c-0.8-0.7-1.8,0.6-1.1,1.4c2.2,2.6,5.3,4.3,8.1,6.2c-0.1-0.5-0.2-1-0.3-1.5
								c-7.3,9.1-14.9,18-22.1,27.2c0.6-0.1,1.1-0.1,1.7-0.2c-2.6-2.3-5.3-4.5-8-6.5c-2.7-2.1-5.4-4.3-8.1-6.4c0,0.6,0,1.2,0,1.8
								c2.8-2,5.2-4.5,7.5-7c-0.5-0.1-1.1-0.2-1.6-0.3c2.3,3.5,5,6.7,8.2,9.4c0.5,0.4,1.3,0.5,1.6-0.2c2.2-3.9,4.5-7.8,6.9-11.6
								c1.2-1.9,2.4-3.8,3.6-5.6c1.2-1.9,2.6-3.8,3.7-5.8C295.8,386.6,295.3,386.1,295,386.5z"/>
						</g>
					</g>
				</g>
			</g>
		</g>
	</g>
	<g>
		<g>
			<g>
				<path class="st1" d="M74.5,234.6c-5.8,13.7-3.4,30.5,5.9,42s25.4,17.3,39.9,14.4c-1.9,2.4-4.9,3.7-7.8,4.6
					c-9.1,2.8-19.3,2.8-27.8-1.4c-8.5-4.2-15-13-15.1-22.5"/>
				<path class="st1" d="M71.9,231.5c-12.5,13.1-8.1,36.1,1.6,49.4c11.3,15.5,31.4,22.6,49.1,15c-1.9-3-3.8-6-5.7-9
					c-6.7,6.7-19.5,6.4-27.7,2.7c-8-3.6-12-10.8-13.5-19.1c-1.2-6.7-11.9-6.6-12.3,0.5c-0.7,13.1,8.4,24.6,20.3,29.3
					c11.7,4.7,30.5,4.1,40-5.2c3.1-3.1,2.1-9.1-2.9-9.5c-12.1-0.9-26-4.7-34.2-14.2c-9.5-11-7.9-23.1-8.1-36.5
					C78.6,232,74.7,228.6,71.9,231.5L71.9,231.5z"/>
			</g>
			<g>
				<path class="st1" d="M290.6,124.5c16.7-4.7,35.5-2,50.1,7.4c4,2.6,7.8,5.7,10.6,9.6c8.1,11.2,6.7,26.5,4.8,40.2"/>
				<path class="st1" d="M290.5,125.6c17.6,3.2,34.2,2.2,49,14.1c14.4,11.6,8.7,27.2,10.1,43c0.6,6.7,10.6,7.1,12.8,1.2
					c6.8-18.5,2.8-43.2-13.6-55.2c-15.2-11.2-43-18.3-59-5.1C289,124.3,289.5,125.5,290.5,125.6L290.5,125.6z"/>
			</g>
			<g>
				<path class="st1" d="M319.1,325.9c14.1,12.3,30,25.3,48.7,25.4c-16.3,3.4-34.3-2.6-45.3-15c6,4.2,12.4,7.8,19.2,10.6
					c-8.7-4.4-18.4-9.9-20.5-19.4c10,7,21.1,12.7,33,15.3s24.8,1.9,35.8-3.6c17.2-8.6,27.6-29.1,24.2-48.1"/>
				<path class="st1" d="M314.4,328.1c3.6,9.3,15.3,17.6,23.7,22.4c9.8,5.7,19.6,8.9,31,8.3c-0.9-5.1-1.8-10.1-2.7-15.2
					c-14.9,4.1-29.6-2.1-40.7-12.1c-2.2,3.1-4.4,6.1-6.6,9.2c6.6,4.3,13.3,8.1,20.5,11.3c6.8,3,10.4-7.3,4-10.6
					c-6.6-3.4-14.7-7.5-16.8-15.2c-3,1.9-6.1,3.8-9.1,5.7c21.4,15.8,50.8,26.8,75.7,11.9c18.6-11.1,28.3-32.4,21.4-53.3
					c-0.3-0.8-1.5-0.5-1.5,0.3c-0.3,17.4-10.3,36.7-27.1,43.2c-20.9,8.1-43.7-0.3-61.7-11.5c-3.8-2.4-10.7,0.4-9.1,5.7
					c3.7,12.1,13.5,18.2,24.3,23.7c1.3-3.5,2.7-7.1,4-10.6c-6.3-2.8-12.2-6-17.9-9.9c-5.3-3.7-11.7,3.1-7.7,8.2
					c12.5,15.9,31.7,20.7,51,19c8.9-0.8,7.7-14.2-0.6-15.2c-9.9-1.2-18.2-4.6-26.6-9.9c-7.2-4.5-14-11-22.3-12.9
					C315.4,319.8,313.2,324.9,314.4,328.1L314.4,328.1z"/>
			</g>
			<g>
				<path class="st1" d="M319.8,347.7c16.2,13.2,38.5,20.6,58.5,14.5c9.2-2.8,17.4-8.3,24.4-15c3.8-3.7,7.3-7.7,10.2-12.2
					c10.3-16,11.5-37.4,3.2-54.5"/>
				<path class="st1" d="M317.2,348.9c5.9,12.7,25.5,19.5,38.3,21.5c15.9,2.4,31.7-2.3,44.4-11.9c12.7-9.6,22.6-23,26.2-38.6
					c1.8-7.8,2.1-15.9,0.9-23.8c-1-6.6-2.6-15.2-8.3-19.3c-2.9-2.1-7.2-0.2-7.5,3.4c-0.5,6.1,2.9,11.9,3.6,18.1
					c0.7,6.2,0.3,12.7-1.3,18.7c-3.3,12.9-11.8,23.2-22.4,30.9c-10.9,8-23.5,11.3-36.9,9.3c-6-0.9-12-2.8-17.7-5.1
					c-5.5-2.3-10.7-6-16.6-7.2C317.8,344.4,316.3,347.1,317.2,348.9L317.2,348.9z"/>
			</g>
			<g>
				<path class="st1" d="M407.9,284.4c0.1-1.2,0.2-2.5,0.3-3.7c5.9,9.2,5.3,21.1,3.2,31.9c-1.5,7.5-3.7,15.2-8.8,21
					c-3.6,4.2-8.5,7.1-13.5,9.5c-10.6,5.1-22.2,8.2-34,8.9"/>
				<path class="st1" d="M408,284.4c0.6-3,0.7,0.2,1,1.8c0.4,1.8,0.5,3.5,0.6,5.3c0.2,3.8,0,7.5-0.5,11.3c-1.2,8.3-3.2,17.8-8,24.9
					c-4.7,6.9-12.7,10.5-20.3,13.3c-8.7,3.1-17.8,3.2-26.4,5.8c-5.5,1.7-5.8,9.4,0.4,10.3c10.2,1.5,22.4-3.1,31.7-7.1
					c9-3.9,17.9-9.2,23.1-17.8c8.3-13.6,11.8-39.7-0.8-51.9c-0.4-0.4-1.1-0.1-1.1,0.5c0.1,1.2,0.2,2.4,0.2,3.6
					C407.9,284.4,407.9,284.4,408,284.4L408,284.4z"/>
			</g>
			<g>
				<path class="st1" d="M110.5,302.2c-2,18.9-0.4,38.7,8,55.8c8.4,17.1,24.6,31,43.5,33.4s39.6-8.8,45-27.1
					c11,13.6,23.6,27.2,40.4,32.2c20.6,6.1,43.9-3.1,57.2-19.9s17.2-39.9,13.2-61"/>
				<path class="st1" d="M106.2,301.8c-7.4,32.7,3.6,72,34.1,89.1c25.9,14.5,62.8,5.8,72.4-24.5c-3.4,0.6-6.9,1.1-10.3,1.7
					c10.7,12.9,22.2,26.1,38.1,32.7c14.8,6.1,31.9,4.6,46.2-2.4c29.2-14.2,46.8-53.7,34.6-84.5c-1.4-3.5-7.1-2.5-7.2,1.2
					c-0.4,14.1,0.4,28.1-4.8,41.5c-5.1,13.3-14.7,24.5-27.8,30.6c-28.6,13.4-52.3-5.3-69.8-26.9c-2.8-3.5-8.8-2.6-10.3,1.7
					c-8.7,25-39.7,28.3-59.1,14c-23.7-17.5-26.4-46.4-27.3-73.5C114.7,297,107.4,296.3,106.2,301.8L106.2,301.8z"/>
			</g>
			<g>
				<path class="st1" d="M249.6,164.7c2.1-15.4,12.2-29,25.4-37.2c13.2-8.2,29-11.4,44.6-11c10.1,0.2,20.5,2.1,28.8,7.8
					c18.1,12.5,20.1,38.6,15.6,60.2c20.7-9.1,45.9-9.1,65.1,2.8c19.2,11.9,30.7,36.4,24.6,58.1c-6,21.8-31,37.2-52.5,30.3"/>
				<path class="st1" d="M253.1,166.1c10.4-31.7,39.7-46.8,72.2-43.5c14.6,1.5,26.6,8.6,31.7,22.8c4.4,12.3,3.5,25.9,1,38.5
					c-0.9,4.7,4.7,7.5,8.4,6c29.5-12.3,66.7-4.4,79.2,27.6c5.1,13.2,4.1,28.5-5.1,39.7c-9.5,11.5-24.7,15.7-39.1,14.5
					c-4.8-0.4-5.7,5.8-1.8,7.8c16.7,8.6,36.2,0.5,48.4-12.4c12.7-13.6,16.5-32.3,11.3-50c-12.4-42-60.8-53.5-97.9-38
					c2.8,2,5.6,4,8.4,6c3.1-15.6,3.3-32.7-3.4-47.4c-7.2-15.8-21.9-24.3-38.8-26.3c-33.2-3.9-81.6,13.2-81.8,53
					C245.9,168.3,251.7,170.4,253.1,166.1L253.1,166.1z"/>
			</g>
			<g>
				<path class="st1" d="M110.2,310.1c2.9,15,7.4,29.9,15.7,42.7c8.4,12.7,21.2,23.1,36.2,26c16.5,3.2,34.6-3.7,44.8-17"/>
				<path class="st1" d="M107.5,309.1c-2,5.9-0.1,13.1,1.2,19.1c1.7,7.4,3.9,15,7.3,21.9c6.2,12.5,15.6,23.6,27.9,30.5
					c11.6,6.5,24.7,8.9,37.8,5.8c11.1-2.6,27.9-10.2,31-22.4c1.3-4.9-3.1-10.4-8.4-7.8c-4.7,2.3-7.9,6.3-12.2,9.1
					c-4,2.5-8.5,4.4-13.2,5.4c-10.6,2.3-21.7-0.3-30.7-6.2c-9.6-6.3-16.4-15.1-21.9-25c-2.8-5.1-5.2-10.4-7.2-15.9
					c-1.9-5.1-3-11.2-6.6-15.2C111,306.7,108.2,306.9,107.5,309.1L107.5,309.1z"/>
			</g>
			<g>
				<path class="st1" d="M254.7,145.9c-23.7-16.7-55.5-21.4-83.1-12.2c-5.8,1.9-11.5,4.5-16,8.6c-6,5.4-9.5,13-11.9,20.7
					c-5.2,17-5.4,35.6-0.4,52.7c-14.8-8.8-34.1-9.2-49.5-1.6c-15.4,7.7-26.7,23-30,39.9c-2.7,13.8,0,29.1,9.2,39.6
					c9.3,10.6,25.6,15.1,38.1,8.8"/>
				<path class="st1" d="M257.3,143.8c-23.2-22.2-62.9-25.3-91.7-13.7c-32.3,12.9-37,58.8-27.5,88.1c2.4-2.6,4.9-5.2,7.3-7.8
					c-17.3-7.9-36.3-9.8-53.9-1.2c-15.7,7.7-27.8,22.6-32.2,39.4c-4.4,16.5-2.1,35.6,9.4,48.8c11.1,12.7,29.6,18,44.4,9
					c3.7-2.3,2.5-9.6-2.5-8.1C98.3,302,84,298.3,76,288.1c-8.7-11.1-9.2-27.1-4.6-40c9.3-26.2,43-45.1,68.6-27.7
					c4,2.7,10.2-0.6,9.1-5.7c-3.6-15.8-5.2-31.1-0.9-47.1c4-14.9,11.8-24.6,26.9-29.2c12.5-3.8,26.1-4.7,39-3
					c14.3,1.9,26.6,7.7,39.4,13.6C256.4,150.4,259.7,146.1,257.3,143.8L257.3,143.8z"/>
			</g>
			<g>
				<path class="st0" d="M410.9,173c-18-14.3-42.8-16.3-64.6-12.1c-1,0.2-2,0.4-3,0.6c0.9-4.2,1.3-8.3,1.4-12.4
					c0.4-15.4-5.6-30-18.8-38.6c-11.7-7.5-26-8.1-39.2-4.6c-18.1,4.8-37.8,13.4-48.1,28.8c-6.4-4.8-13.6-8.6-21.2-11.8
					c-17.6-7.4-37.8-11.1-56.2-4.8c-34.6,11.9-40.6,47.8-36.2,79.8c0,0.2,0,0.5,0,0.7c-10.2-4.8-21.5-7.1-33.6-6
					c-27.9,2.6-50.9,28.8-46,57.3c2.5,14.5,12.1,26.1,25.2,32.4c7.9,3.8,16,5.1,24.1,4.6c-0.1,1.4-0.1,2.8,0,4.2
					c1.3,13.1,5.8,25.9,11.4,37.7c5.7,12.1,12.5,24.9,24.2,32.1c17.5,10.7,38.4,5.4,50.6-10.6c2-2.7,3.8-5.6,5.3-8.6
					c1,0.7,2,1.3,3,1.8c6.2,4.3,12.4,8.6,18.7,12.8c9.5,6.3,19.9,15.4,31,18c13.7,3.2,23.7-1.4,32-9.1c4.2-1.5,7.9-4.4,10.7-8.1
					c0.1,0.1,0.2,0.2,0.3,0.3c6.9-8,11.6-17.4,15.2-27.3c0.6-1.5,0.9-3,1.2-4.5c17.4,11.5,37.3,17.8,59.1,11
					c16.3-5.1,30.5-16.7,36.5-33.1c3.3-8.8,3.8-18.7,2.2-27.9c-0.5-2.6-1.2-5.2-2-7.8c2.9-1.2,5.7-2.5,8.5-4
					c11.3-6.4,19.6-16,25.2-27.7C438,214,429.4,187.7,410.9,173z"/>
				<path class="st0" d="M194.1,189.3C194.1,189.3,194.1,189.3,194.1,189.3c0,0,0.1,0,0.1,0C194.2,189.3,194.2,189.3,194.1,189.3z"
					/>
			</g>
			<g>
				<path class="st1" d="M210.2,358.2c4.8,3.3,9.1,7.3,13.7,10.7c10.6,7.9,23.3,13.1,36.4,13.9c13.2,0.9,35.9,0.3,44.2-15.8"/>
				<path class="st1" d="M207.2,360.6c13.8,19.3,36.1,30.4,59.7,30.1c8.8-0.1,17.6-1.2,25.6-5.3c6.6-3.4,14.7-10.1,14.9-18.1
					c0.1-2.5-2.5-3.6-4.5-2.4c-6.5,4.1-10.9,8-18.8,9.4c-6.5,1.2-13.3,1.4-19.9,1c-9.2-0.5-18-2.5-26.4-6.4
					c-8.9-4.1-16.7-11.5-26.2-14.4C207.8,353.4,204.9,357.4,207.2,360.6L207.2,360.6z"/>
			</g>
			<g>
				<path class="st1" d="M301.2,377.8c-9.6,6-20.7,7-31.8,8.7c-8.4,1.3-18.3,1.7-24.2-4.4"/>
				<path class="st1" d="M300.6,376.3c-9.3,3.1-19.8,3.4-29.5,4.3c-4.2,0.4-8.6,1.1-12.9,0.4c-4.5-0.7-7.9-3.6-12.4-3.8
					c-3.1-0.1-5.7,2.4-5.2,5.6c1.9,11.9,18.6,11.1,27.6,9.6c12.6-2.1,24.5-4.8,34.1-13.6C303.6,377.7,302.2,375.8,300.6,376.3
					L300.6,376.3z"/>
			</g>
			<path class="st1" d="M88.7,293.7c-2,5.9-0.1,13.1,1.2,19.1c1.7,7.4,3.9,15,7.3,21.9c6.2,12.5,15.6,23.6,27.9,30.5
				c11.6,6.5,24.7,8.9,37.8,5.8c11.1-2.6,27.9-10.2,31-22.4c1.3-4.9-3.1-10.4-8.4-7.8c-4.7,2.3-7.9,6.3-12.2,9.1
				c-4,2.5-8.5,4.4-13.2,5.4c-10.6,2.3-21.7-0.3-30.7-6.2c-9.6-6.3-16.4-15.1-21.9-25c-2.8-5.1-5.2-10.4-7.2-15.9
				c-1.9-5.1-3-11.2-6.6-15.2C92.2,291.4,89.4,291.6,88.7,293.7L88.7,293.7z"/>
			<path class="st1" d="M188.4,345.3c13.8,19.3,36.1,30.4,59.7,30.1c8.8-0.1,17.6-1.2,25.6-5.3c6.6-3.4,14.7-10.1,14.9-18.1
				c0.1-2.5-2.5-3.6-4.5-2.4c-6.5,4.1-10.9,8-18.8,9.4c-6.5,1.2-13.3,1.4-19.9,1c-9.2-0.5-18-2.5-26.4-6.4
				c-8.9-4.1-16.7-11.5-26.2-14.4C189,338.1,186.1,342.1,188.4,345.3L188.4,345.3z"/>
			<path class="st1" d="M281.8,361c-9.3,3.1-19.8,3.4-29.5,4.3c-4.2,0.4-8.6,1.1-12.9,0.4c-4.5-0.7-7.9-3.6-12.4-3.8
				c-3.1-0.1-5.7,2.4-5.2,5.6c1.9,11.9,18.6,11.1,27.6,9.6c12.6-2.1,24.5-4.8,34.1-13.6C284.8,362.4,283.4,360.5,281.8,361
				L281.8,361z"/>
			<path class="st1" d="M271.6,110.3c17.6,3.2,34.2,2.2,49,14.1c14.4,11.6,8.7,27.2,10.1,43c0.6,6.7,10.6,7.1,12.8,1.2
				c6.8-18.5,2.8-43.2-13.6-55.2c-15.2-11.2-43-18.3-59-5.1C270.2,109,270.7,110.1,271.6,110.3L271.6,110.3z"/>
			<path class="st1" d="M232.4,139.3c-1.1-8.8-14.7-15.1-22-18.2c-10.8-4.6-22.6-6.9-34.4-6.9c-10.7,0-21.9,1.7-31.7,6.4
				c-7.8,3.8-17.4,11.4-17.2,20.9c0.1,3.1,3.1,6.4,6.4,4.5c6.8-3.8,11.9-9.4,19.3-12.5c8.3-3.5,18-4.6,26.9-4.5
				c9.7,0.1,19.3,2,28.4,5.1c6.7,2.2,15.6,8.4,22.7,7.3C231.9,141.3,232.5,140.3,232.4,139.3L232.4,139.3z"/>
			<path class="st1" d="M232.2,131.9c0.9-6.7-8.9-10-13.4-12.4c-6.7-3.6-14.2-8.6-22.1-8.8c-4.3-0.1-6.9,4.5-4.3,8
				C196.5,124,230.5,145.4,232.2,131.9L232.2,131.9z"/>
			<path class="st1" d="M53.1,216.2c-12.5,13.1-8.1,36.1,1.6,49.4c11.3,15.5,31.4,22.6,49.1,15c-1.9-3-3.8-6-5.7-9
				c-6.7,6.7-19.5,6.4-27.7,2.7c-8-3.6-12-10.8-13.5-19.1c-1.2-6.7-11.9-6.6-12.3,0.5C44,268.8,53.1,280.3,65,285
				c11.7,4.7,30.5,4.1,40-5.2c3.1-3.1,2.1-9.1-2.9-9.5c-12.1-0.9-26-4.7-34.2-14.2c-9.5-11-7.9-23.1-8.1-36.5
				C59.8,216.6,55.9,213.3,53.1,216.2L53.1,216.2z"/>
			<path class="st2" d="M238.4,128.5c-23.2-22.2-62.9-25.3-91.7-13.7c-32.3,12.9-37,58.8-27.5,88.1c2.4-2.6,4.9-5.2,7.3-7.8
				c-17.3-7.9-36.3-9.8-53.9-1.2c-15.7,7.7-27.8,22.6-32.2,39.4c-4.4,16.5-2.1,35.6,9.4,48.8c11.1,12.7,29.6,18,44.4,9
				c3.7-2.3,2.5-9.6-2.5-8.1c-12.1,3.8-26.5,0.1-34.4-10.1c-8.7-11.1-9.2-27.1-4.6-40c9.3-26.2,43-45.1,68.6-27.7
				c4,2.7,10.2-0.6,9.1-5.7c-3.6-15.8-5.2-31.1-0.9-47.1c4-14.9,11.8-24.6,26.9-29.2c12.5-3.8,26.1-4.7,39-3
				c14.3,1.9,26.6,7.7,39.4,13.6C237.6,135.1,240.9,130.8,238.4,128.5L238.4,128.5z"/>
			<path class="st2" d="M87.4,286.5c-7.4,32.7,3.6,72,34.1,89.1c25.9,14.5,62.8,5.8,72.4-24.5c-3.4,0.6-6.9,1.1-10.3,1.7
				c10.7,12.9,22.2,26.1,38.1,32.7c14.8,6.1,31.9,4.6,46.2-2.4c29.2-14.2,46.8-53.7,34.6-84.5c-1.4-3.5-7.1-2.5-7.2,1.2
				c-0.4,14.1,0.4,28.1-4.8,41.5c-5.1,13.3-14.7,24.5-27.8,30.6c-28.6,13.4-52.3-5.3-69.8-26.9c-2.8-3.5-8.8-2.6-10.3,1.7
				c-8.7,25-39.7,28.3-59.1,14C99.7,343.4,97,314.4,96,287.3C95.8,281.7,88.6,281,87.4,286.5L87.4,286.5z"/>
			<path class="st2" d="M234.3,150.8c10.4-31.7,39.7-46.8,72.2-43.5c14.6,1.5,26.6,8.6,31.7,22.8c4.4,12.3,3.5,25.9,1,38.5
				c-0.9,4.7,4.7,7.5,8.4,6c29.5-12.3,66.7-4.4,79.2,27.6c5.1,13.2,4.1,28.5-5.1,39.7c-9.5,11.5-24.7,15.7-39.1,14.5
				c-4.8-0.4-5.7,5.8-1.8,7.8c16.7,8.6,36.2,0.5,48.4-12.4c12.7-13.6,16.5-32.3,11.3-50c-12.4-42-60.8-53.5-97.9-38
				c2.8,2,5.6,4,8.4,6c3.1-15.6,3.3-32.7-3.4-47.4c-7.2-15.8-21.9-24.3-38.8-26.3c-33.2-3.9-81.6,13.2-81.8,53
				C227,153,232.9,155.1,234.3,150.8L234.3,150.8z"/>
			<path class="st2" d="M298.4,333.6c5.9,12.7,25.5,19.5,38.3,21.5c15.9,2.4,31.7-2.3,44.4-11.9c12.7-9.6,22.6-23,26.2-38.6
				c1.8-7.8,2.1-15.9,0.9-23.8c-1-6.6-2.6-15.2-8.3-19.3c-2.9-2.1-7.2-0.2-7.5,3.4c-0.5,6.1,2.9,11.9,3.6,18.1
				c0.7,6.2,0.3,12.7-1.3,18.7c-3.3,12.9-11.8,23.2-22.4,30.9c-10.9,8-23.5,11.3-36.9,9.3c-6-0.9-12-2.8-17.7-5.1
				c-5.5-2.3-10.7-6-16.6-7.2C299,329.1,297.5,331.8,298.4,333.6L298.4,333.6z"/>
		</g>
	</g>
	<g>
		<g>
			<g>
				<g>
					<path class="st0" d="M230.5,435c61,0,122.1,0,183.1,0V207.1c-61,0-122.1,0-183.1,0V435z"/>
					<path class="st2" d="M230.5,438.2c61,0.8,122.1,0.8,183.1,0.9c2.2,0,4.1-1.9,4.1-4.1c0-25.7,0-51.3,0-77
						c0-40.9,0-81.8,0.1-122.7c0-9.4,0-18.8,0-28.2c0-2.3-1.9-4.2-4.2-4.2c-61,0-122.1,0-183.1,0.1c-2.2,0-4.1,1.9-4.1,4.1
						c0,25.7,0,51.3,0,77c0,40.9-0.3,81.8,0.8,122.7c0.2,9,0.8,20.4,0.8,28.2c0,3.1,4.8,3.1,4.8,0c0-24,1.3-51.8,1.5-77
						c0.3-40.9,0.1-81.8,0.2-122.7c0-9.4,0-18.8,0-28.2c-1.4,1.4-2.7,2.7-4.1,4.1c61,0,122.1,0.1,183.1,0.1
						c-1.4-1.4-2.8-2.8-4.2-4.2c0,25.7,0,51.3,0,77c0,40.9,0,81.8,0.1,122.7c0,9.4,0,18.8,0,28.2c1.4-1.4,2.7-2.7,4.1-4.1
						c-61,0-122.1,0.1-183.1,0.9C226.3,431.8,226.3,438.1,230.5,438.2z"/>
				</g>
				<g>
					<path class="st1" d="M273.2,210.2c0,1,0,2.7,0,3.7c13.7,12.8,32.7,20.4,51.4,20.4c18.7,0,37.4-7.4,51-20.2
						c0.1-0.9-0.4-1.9-0.3-2.8"/>
					<path class="st1" d="M270.5,210.2c0,5.8,2.1,7.1,6.7,10.6c4.6,3.5,9.5,6.5,14.8,8.9c10.2,4.7,21.3,7.3,32.6,7.3
						c10.8,0,21.6-2.4,31.5-6.8c5.4-2.4,10.5-5.4,15.3-9c4.1-3.1,7.2-4.6,6.7-9.9c-0.3-3.4-5.7-3.5-5.4,0c0.4,3.7-6.3,7-9.1,8.8
						c-4.2,2.7-8.6,4.9-13.2,6.7c-8.2,3.1-17,4.9-25.8,4.8c-8.9,0-17.7-1.8-26-4.9c-4.6-1.8-9.1-4.1-13.3-6.8
						c-3.6-2.3-9.4-5-9.4-9.7C275.9,206.7,270.5,206.7,270.5,210.2L270.5,210.2z"/>
				</g>
				<path class="st2" d="M230.5,438.2c61,0.8,122.1,0.8,183.1,0.9c2.2,0,4.1-1.9,4.1-4.1c0-25.7,0-51.3,0-77
					c0-40.9,0-81.8,0.1-122.7c0-9.4,0-18.8,0-28.2c0-2.3-1.9-4.2-4.2-4.2c-61,0-122.1,0-183.1,0.1c-2.2,0-4.1,1.9-4.1,4.1
					c0,25.7,0,51.3,0,77c0,40.9-0.3,81.8,0.8,122.7c0.2,9,0.8,20.4,0.8,28.2c0,3.1,4.8,3.1,4.8,0c0-24,1.3-51.8,1.5-77
					c0.3-40.9,0.1-81.8,0.2-122.7c0-9.4,0-18.8,0-28.2c-1.4,1.4-2.7,2.7-4.1,4.1c61,0,122.1,0.1,183.1,0.1c-1.4-1.4-2.8-2.8-4.2-4.2
					c0,25.7,0,51.3,0,77c0,40.9,0,81.8,0.1,122.7c0,9.4,0,18.8,0,28.2c1.4-1.4,2.7-2.7,4.1-4.1c-61,0-122.1,0.1-183.1,0.9
					C226.3,431.8,226.3,438.1,230.5,438.2z"/>
				<g>
					<path class="st3" d="M373.6,206.8c-3.2-5.9-8.9-10-14.9-13c-25.5-12.7-59.1-8.1-79,12.3c6.9,10.4,19.3,18,31.7,20.3
						C332.8,230.4,357.9,222,373.6,206.8z"/>
					<path class="st2" d="M376.4,205.1c-8.9-16.4-31.5-22.3-48.9-22.1c-18.7,0.2-37,7.4-50.4,20.5c-1.1,1.1-1.5,3.1-0.6,4.4
						c11.5,16.6,31.1,24.5,51,23.1c9.3-0.7,18.5-3,27-6.8c6.8-3,20-8.7,21.9-16.7c0.6-2.3-1.4-4-3.6-3.6c-3.8,0.7-6.5,4-9.6,6.2
						c-3,2.1-6.2,4-9.5,5.6c-7.6,3.8-16.1,6.4-24.5,7.3c-17.7,1.9-35.9-3.9-46.5-18.9c-0.2,1.5-0.4,2.9-0.6,4.4
						c11.6-11.6,27.2-17.8,43.5-18.2c15.3-0.4,36.2,4.1,45,17.9C373,211.9,378.4,208.8,376.4,205.1z"/>
				</g>
			</g>
		</g>
		<g>
			<g>
				<g>
					<path class="st2" d="M297.9,267.4c7.7,1,15.8,0.6,23.6,0.6c7.6,0,15.2,0.1,22.8,0.2c7.6,0.1,15.2,0.4,22.8,0.6
						c6.4,0.2,16.2,1.8,21.5-1.5c1.1-0.7,1.1-2.3,0.1-3.1c-5-3.7-15.1-2.7-21.4-2.8c-7.6-0.2-15.2-0.2-22.8-0.2
						c-7.6,0-15.2,0-22.8,0.2c-7.7,0.1-16.1-0.2-23.6,1.2C295.1,263,294.6,266.9,297.9,267.4L297.9,267.4z"/>
					<g>
						<g>
							<path class="st4" d="M287.1,246.4c-5.4,7.2-10.3,14.8-14.8,22.7c-3.1-2.7-5.8-5.8-8-9.2c-2.2,2.3-4.7,5-7.3,6.9
								c1.8,1.3,3.4,2.9,5.2,4.2c3.7,2.7,7.3,5.5,10.7,8.6c7.2-9.1,14.9-18.1,22.2-27.2C292.7,250.6,289.2,248.4,287.1,246.4z"/>
							<path class="st4" d="M286.9,246.1c-3.1,3.2-5.7,7.1-8.1,10.8c-2.6,3.8-5,7.7-7.2,11.7c0.5-0.1,1.1-0.1,1.6-0.2
								c-3-2.6-5.7-5.6-7.9-9c-0.3-0.5-1.1-0.8-1.6-0.3c-2.2,2.4-4.5,4.8-7.1,6.7c-0.7,0.5-0.7,1.3,0,1.8c2.6,2,5.1,4.2,7.8,6.1
								c2.7,2.1,5.4,4.2,7.9,6.5c0.5,0.5,1.2,0.4,1.7-0.2c7.3-9.1,14.9-18,22.2-27.2c0.4-0.5,0.1-1.2-0.3-1.5
								c-2.7-1.9-5.4-3.8-8-5.8c-0.8-0.7-1.8,0.6-1.1,1.4c2.2,2.6,5.3,4.3,8.1,6.2c-0.1-0.5-0.2-1-0.3-1.5
								c-7.3,9.1-14.9,18-22.1,27.2c0.6-0.1,1.1-0.1,1.7-0.2c-2.6-2.3-5.3-4.5-8-6.5c-2.7-2.1-5.4-4.3-8.1-6.4c0,0.6,0,1.2,0,1.8
								c2.8-2,5.2-4.5,7.5-7c-0.5-0.1-1.1-0.2-1.6-0.3c2.3,3.5,5,6.7,8.2,9.4c0.5,0.4,1.3,0.5,1.6-0.2c2.2-3.9,4.5-7.8,6.9-11.6
								c1.2-1.9,2.4-3.8,3.6-5.6c1.2-1.9,2.6-3.8,3.7-5.8C287.7,246.2,287.2,245.7,286.9,246.1z"/>
						</g>
						<g>
							<path class="st5" d="M286.3,244c-5.4,7.2-10.3,14.8-14.8,22.7c-3.1-2.7-5.8-5.8-8-9.2c-2.2,2.3-4.7,5-7.3,6.9
								c1.8,1.3,3.4,2.9,5.2,4.2c3.7,2.7,7.3,5.5,10.7,8.6c7.2-9.1,14.9-18.1,22.2-27.2C291.8,248.3,288.4,246.1,286.3,244z"/>
							<path class="st2" d="M286,243.7c-3.1,3.2-5.7,7.1-8.1,10.8c-2.6,3.8-5,7.7-7.2,11.7c0.5-0.1,1.1-0.1,1.6-0.2
								c-3-2.6-5.7-5.6-7.9-9c-0.3-0.5-1.1-0.8-1.6-0.3c-2.2,2.4-4.5,4.8-7.1,6.7c-0.7,0.5-0.7,1.3,0,1.8c2.6,2,5.1,4.2,7.8,6.1
								c2.7,2.1,5.4,4.2,7.9,6.5c0.5,0.5,1.2,0.4,1.7-0.2c7.3-9.1,14.9-18,22.2-27.2c0.4-0.5,0.1-1.2-0.3-1.5
								c-2.7-1.9-5.4-3.8-8-5.8c-0.8-0.7-1.8,0.6-1.1,1.4c2.2,2.6,5.3,4.3,8.1,6.2c-0.1-0.5-0.2-1-0.3-1.5
								c-7.3,9.1-14.9,18-22.1,27.2c0.6-0.1,1.1-0.1,1.7-0.2c-2.6-2.3-5.3-4.5-8-6.5c-2.7-2.1-5.4-4.3-8.1-6.4c0,0.6,0,1.2,0,1.8
								c2.8-2,5.2-4.5,7.5-7c-0.5-0.1-1.1-0.2-1.6-0.3c2.3,3.5,5,6.7,8.2,9.4c0.5,0.4,1.3,0.5,1.6-0.2c2.2-3.9,4.5-7.8,6.9-11.6
								c1.2-1.9,2.4-3.8,3.6-5.6c1.2-1.9,2.6-3.8,3.7-5.8C286.9,243.9,286.3,243.4,286,243.7z"/>
						</g>
					</g>
					<path class="st2" d="M296.9,300.8c7.7,1,15.8,0.6,23.6,0.6c7.6,0,15.2,0.1,22.8,0.2c7.6,0.1,15.2,0.4,22.8,0.6
						c6.4,0.2,16.2,1.8,21.5-1.5c1.1-0.7,1.1-2.3,0.1-3.1c-5-3.7-15.1-2.7-21.4-2.8c-7.6-0.2-15.2-0.2-22.8-0.2
						c-7.6,0-15.2,0-22.8,0.2c-7.7,0.1-16.1-0.2-23.6,1.2C294.2,296.4,293.7,300.3,296.9,300.8L296.9,300.8z"/>
					<g>
						<g>
							<path class="st4" d="M286.2,279.8c-5.4,7.2-10.3,14.8-14.8,22.7c-3.1-2.7-5.8-5.8-8-9.2c-2.2,2.3-4.7,5-7.3,6.9
								c1.8,1.3,3.4,2.9,5.2,4.2c3.7,2.7,7.3,5.5,10.7,8.6c7.2-9.1,14.9-18.1,22.2-27.2C291.8,284,288.3,281.8,286.2,279.8z"/>
							<path class="st4" d="M285.9,279.5c-3.1,3.2-5.7,7.1-8.1,10.8c-2.6,3.8-5,7.7-7.2,11.7c0.5-0.1,1.1-0.1,1.6-0.2
								c-3-2.6-5.7-5.6-7.9-9c-0.3-0.5-1.1-0.8-1.6-0.3c-2.2,2.4-4.5,4.8-7.1,6.7c-0.7,0.5-0.7,1.3,0,1.8c2.6,2,5.1,4.2,7.8,6.1
								c2.7,2.1,5.4,4.2,7.9,6.5c0.5,0.5,1.2,0.4,1.7-0.2c7.3-9.1,14.9-18,22.2-27.2c0.4-0.5,0.1-1.2-0.3-1.5
								c-2.7-1.9-5.4-3.8-8-5.8c-0.8-0.7-1.8,0.6-1.1,1.4c2.2,2.6,5.3,4.3,8.1,6.2c-0.1-0.5-0.2-1-0.3-1.5
								c-7.3,9.1-14.9,18-22.1,27.2c0.6-0.1,1.1-0.1,1.7-0.2c-2.6-2.3-5.3-4.5-8-6.5c-2.7-2.1-5.4-4.3-8.1-6.4c0,0.6,0,1.2,0,1.8
								c2.8-2,5.2-4.5,7.5-7c-0.5-0.1-1.1-0.2-1.6-0.3c2.3,3.5,5,6.7,8.2,9.4c0.5,0.4,1.3,0.5,1.6-0.2c2.2-3.9,4.5-7.8,6.9-11.6
								c1.2-1.9,2.4-3.8,3.6-5.6c1.2-1.9,2.6-3.8,3.7-5.8C286.8,279.6,286.3,279.1,285.9,279.5z"/>
						</g>
						<g>
							<path class="st5" d="M285.4,277.4c-5.4,7.2-10.3,14.8-14.8,22.7c-3.1-2.7-5.8-5.8-8-9.2c-2.2,2.3-4.7,5-7.3,6.9
								c1.8,1.3,3.4,2.9,5.2,4.2c3.7,2.7,7.3,5.5,10.7,8.6c7.2-9.1,14.9-18.1,22.2-27.2C290.9,281.7,287.5,279.5,285.4,277.4z"/>
							<path class="st2" d="M285.1,277.2c-3.1,3.2-5.7,7.1-8.1,10.8c-2.6,3.8-5,7.7-7.2,11.7c0.5-0.1,1.1-0.1,1.6-0.2
								c-3-2.6-5.7-5.6-7.9-9c-0.3-0.5-1.1-0.8-1.6-0.3c-2.2,2.4-4.5,4.8-7.1,6.7c-0.7,0.5-0.7,1.3,0,1.8c2.6,2,5.1,4.2,7.8,6.1
								c2.7,2.1,5.4,4.2,7.9,6.5c0.5,0.5,1.2,0.4,1.7-0.2c7.3-9.1,14.9-18,22.2-27.2c0.4-0.5,0.1-1.2-0.3-1.5
								c-2.7-1.9-5.4-3.8-8-5.8c-0.8-0.7-1.8,0.6-1.1,1.4c2.2,2.6,5.3,4.3,8.1,6.2c-0.1-0.5-0.2-1-0.3-1.5
								c-7.3,9.1-14.9,18-22.1,27.2c0.6-0.1,1.1-0.1,1.7-0.2c-2.6-2.3-5.3-4.5-8-6.5c-2.7-2.1-5.4-4.3-8.1-6.4c0,0.6,0,1.2,0,1.8
								c2.8-2,5.2-4.5,7.5-7c-0.5-0.1-1.1-0.2-1.6-0.3c2.3,3.5,5,6.7,8.2,9.4c0.5,0.4,1.3,0.5,1.6-0.2c2.2-3.9,4.5-7.8,6.9-11.6
								c1.2-1.9,2.4-3.8,3.6-5.6c1.2-1.9,2.6-3.8,3.7-5.8C285.9,277.3,285.4,276.8,285.1,277.2z"/>
						</g>
					</g>
					<path class="st2" d="M295.9,337.8c7.7,1,15.8,0.6,23.6,0.6c7.6,0,15.2,0.1,22.8,0.2c7.6,0.1,15.2,0.4,22.8,0.6
						c6.4,0.2,16.2,1.8,21.5-1.5c1.1-0.7,1.1-2.3,0.1-3.1c-5-3.7-15.1-2.7-21.4-2.8c-7.6-0.2-15.2-0.2-22.8-0.2
						c-7.6,0-15.2,0-22.8,0.2c-7.7,0.1-16.1-0.2-23.6,1.2C293.2,333.5,292.7,337.4,295.9,337.8L295.9,337.8z"/>
					<g>
						<g>
							<path class="st4" d="M285.2,316.8c-5.4,7.2-10.3,14.8-14.8,22.7c-3.1-2.7-5.8-5.8-8-9.2c-2.2,2.3-4.7,5-7.3,6.9
								c1.8,1.3,3.4,2.9,5.2,4.2c3.7,2.7,7.3,5.5,10.7,8.6c7.2-9.1,14.9-18.1,22.2-27.2C290.8,321,287.3,318.9,285.2,316.8z"/>
							<path class="st4" d="M284.9,316.5c-3.1,3.2-5.7,7.1-8.1,10.8c-2.6,3.8-5,7.7-7.2,11.7c0.5-0.1,1.1-0.1,1.6-0.2
								c-3-2.6-5.7-5.6-7.9-9c-0.3-0.5-1.1-0.8-1.6-0.3c-2.2,2.4-4.5,4.8-7.1,6.7c-0.7,0.5-0.7,1.3,0,1.8c2.6,2,5.1,4.2,7.8,6.1
								c2.7,2.1,5.4,4.2,7.9,6.5c0.5,0.5,1.2,0.4,1.7-0.2c7.3-9.1,14.9-18,22.2-27.2c0.4-0.5,0.1-1.2-0.3-1.5
								c-2.7-1.9-5.4-3.8-8-5.8c-0.8-0.7-1.8,0.6-1.1,1.4c2.2,2.6,5.3,4.3,8.1,6.2c-0.1-0.5-0.2-1-0.3-1.5
								c-7.3,9.1-14.9,18-22.1,27.2c0.6-0.1,1.1-0.1,1.7-0.2c-2.6-2.3-5.3-4.5-8-6.5c-2.7-2.1-5.4-4.3-8.1-6.4c0,0.6,0,1.2,0,1.8
								c2.8-2,5.2-4.5,7.5-7c-0.5-0.1-1.1-0.2-1.6-0.3c2.3,3.5,5,6.7,8.2,9.4c0.5,0.4,1.3,0.5,1.6-0.2c2.2-3.9,4.5-7.8,6.9-11.6
								c1.2-1.9,2.4-3.8,3.6-5.6c1.2-1.9,2.6-3.8,3.7-5.8C285.8,316.6,285.3,316.1,284.9,316.5z"/>
						</g>
						<g>
							<path class="st5" d="M284.4,314.5c-5.4,7.2-10.3,14.8-14.8,22.7c-3.1-2.7-5.8-5.8-8-9.2c-2.2,2.3-4.7,5-7.3,6.9
								c1.8,1.3,3.4,2.9,5.2,4.2c3.7,2.7,7.3,5.5,10.7,8.6c7.2-9.1,14.9-18.1,22.2-27.2C289.9,318.7,286.5,316.6,284.4,314.5z"/>
							<path class="st2" d="M284.1,314.2c-3.1,3.2-5.7,7.1-8.1,10.8c-2.6,3.8-5,7.7-7.2,11.7c0.5-0.1,1.1-0.1,1.6-0.2
								c-3-2.6-5.7-5.6-7.9-9c-0.3-0.5-1.1-0.8-1.6-0.3c-2.2,2.4-4.5,4.8-7.1,6.7c-0.7,0.5-0.7,1.3,0,1.8c2.6,2,5.1,4.2,7.8,6.1
								c2.7,2.1,5.4,4.2,7.9,6.5c0.5,0.5,1.2,0.4,1.7-0.2c7.3-9.1,14.9-18,22.2-27.2c0.4-0.5,0.1-1.2-0.3-1.5
								c-2.7-1.9-5.4-3.8-8-5.8c-0.8-0.7-1.8,0.6-1.1,1.4c2.2,2.6,5.3,4.3,8.1,6.2c-0.1-0.5-0.2-1-0.3-1.5
								c-7.3,9.1-14.9,18-22.1,27.2c0.6-0.1,1.1-0.1,1.7-0.2c-2.6-2.3-5.3-4.5-8-6.5c-2.7-2.1-5.4-4.3-8.1-6.4c0,0.6,0,1.2,0,1.8
								c2.8-2,5.2-4.5,7.5-7c-0.5-0.1-1.1-0.2-1.6-0.3c2.3,3.5,5,6.7,8.2,9.4c0.5,0.4,1.3,0.5,1.6-0.2c2.2-3.9,4.5-7.8,6.9-11.6
								c1.2-1.9,2.4-3.8,3.6-5.6c1.2-1.9,2.6-3.8,3.7-5.8C284.9,314.3,284.4,313.8,284.1,314.2z"/>
						</g>
					</g>
					<path class="st2" d="M296.5,372c7.7,1,15.8,0.6,23.6,0.6c7.6,0,15.2,0.1,22.8,0.2c7.6,0.1,15.2,0.4,22.8,0.6
						c6.4,0.2,16.2,1.8,21.5-1.5c1.1-0.7,1.1-2.3,0.1-3.1c-5-3.7-15.1-2.7-21.4-2.8c-7.6-0.2-15.2-0.2-22.8-0.2
						c-7.6,0-15.2,0-22.8,0.2c-7.7,0.1-16.1-0.2-23.6,1.2C293.7,367.6,293.2,371.5,296.5,372L296.5,372z"/>
					<g>
						<g>
							<path class="st4" d="M285.7,351c-5.4,7.2-10.3,14.8-14.8,22.7c-3.1-2.7-5.8-5.8-8-9.2c-2.2,2.3-4.7,5-7.3,6.9
								c1.8,1.3,3.4,2.9,5.2,4.2c3.7,2.7,7.3,5.5,10.7,8.6c7.2-9.1,14.9-18.1,22.2-27.2C291.3,355.2,287.8,353,285.7,351z"/>
							<path class="st4" d="M285.5,350.7c-3.1,3.2-5.7,7.1-8.1,10.8c-2.6,3.8-5,7.7-7.2,11.7c0.5-0.1,1.1-0.1,1.6-0.2
								c-3-2.6-5.7-5.6-7.9-9c-0.3-0.5-1.1-0.8-1.6-0.3c-2.2,2.4-4.5,4.8-7.1,6.7c-0.7,0.5-0.7,1.3,0,1.8c2.6,2,5.1,4.2,7.8,6.1
								c2.7,2.1,5.4,4.2,7.9,6.5c0.5,0.5,1.2,0.4,1.7-0.2c7.3-9.1,14.9-18,22.2-27.2c0.4-0.5,0.1-1.2-0.3-1.5
								c-2.7-1.9-5.4-3.8-8-5.8c-0.8-0.7-1.8,0.6-1.1,1.4c2.2,2.6,5.3,4.3,8.1,6.2c-0.1-0.5-0.2-1-0.3-1.5
								c-7.3,9.1-14.9,18-22.1,27.2c0.6-0.1,1.1-0.1,1.7-0.2c-2.6-2.3-5.3-4.5-8-6.5c-2.7-2.1-5.4-4.3-8.1-6.4c0,0.6,0,1.2,0,1.8
								c2.8-2,5.2-4.5,7.5-7c-0.5-0.1-1.1-0.2-1.6-0.3c2.3,3.5,5,6.7,8.2,9.4c0.5,0.4,1.3,0.5,1.6-0.2c2.2-3.9,4.5-7.8,6.9-11.6
								c1.2-1.9,2.4-3.8,3.6-5.6c1.2-1.9,2.6-3.8,3.7-5.8C286.3,350.8,285.8,350.3,285.5,350.7z"/>
						</g>
						<g>
							<path class="st5" d="M284.9,348.6c-5.4,7.2-10.3,14.8-14.8,22.7c-3.1-2.7-5.8-5.8-8-9.2c-2.2,2.3-4.7,5-7.3,6.9
								c1.8,1.3,3.4,2.9,5.2,4.2c3.7,2.7,7.3,5.5,10.7,8.6c7.2-9.1,14.9-18.1,22.2-27.2C290.4,352.9,287,350.7,284.9,348.6z"/>
							<path class="st2" d="M284.6,348.4c-3.1,3.2-5.7,7.1-8.1,10.8c-2.6,3.8-5,7.7-7.2,11.7c0.5-0.1,1.1-0.1,1.6-0.2
								c-3-2.6-5.7-5.6-7.9-9c-0.3-0.5-1.1-0.8-1.6-0.3c-2.2,2.4-4.5,4.8-7.1,6.7c-0.7,0.5-0.7,1.3,0,1.8c2.6,2,5.1,4.2,7.8,6.1
								c2.7,2.1,5.4,4.2,7.9,6.5c0.5,0.5,1.2,0.4,1.7-0.2c7.3-9.1,14.9-18,22.2-27.2c0.4-0.5,0.1-1.2-0.3-1.5
								c-2.7-1.9-5.4-3.8-8-5.8c-0.8-0.7-1.8,0.6-1.1,1.4c2.2,2.6,5.3,4.3,8.1,6.2c-0.1-0.5-0.2-1-0.3-1.5
								c-7.3,9.1-14.9,18-22.1,27.2c0.6-0.1,1.1-0.1,1.7-0.2c-2.6-2.3-5.3-4.5-8-6.5c-2.7-2.1-5.4-4.3-8.1-6.4c0,0.6,0,1.2,0,1.8
								c2.8-2,5.2-4.5,7.5-7c-0.5-0.1-1.1-0.2-1.6-0.3c2.3,3.5,5,6.7,8.2,9.4c0.5,0.4,1.3,0.5,1.6-0.2c2.2-3.9,4.5-7.8,6.9-11.6
								c1.2-1.9,2.4-3.8,3.6-5.6c1.2-1.9,2.6-3.8,3.7-5.8C285.5,348.5,284.9,348,284.6,348.4z"/>
						</g>
					</g>
					<path class="st2" d="M297.8,401.1c7.7,1,15.8,0.6,23.6,0.6c7.6,0,15.2,0.1,22.8,0.2c7.6,0.1,15.2,0.4,22.8,0.6
						c6.4,0.2,16.2,1.8,21.5-1.5c1.1-0.7,1.1-2.3,0.1-3.1c-5-3.7-15.1-2.7-21.4-2.8c-7.6-0.2-15.2-0.2-22.8-0.2
						c-7.6,0-15.2,0-22.8,0.2c-7.7,0.1-16.1-0.2-23.6,1.2C295.1,396.7,294.6,400.6,297.8,401.1L297.8,401.1z"/>
					<g>
						<g>
							<path class="st4" d="M287.1,380.1c-5.4,7.2-10.3,14.8-14.8,22.7c-3.1-2.7-5.8-5.8-8-9.2c-2.2,2.3-4.7,5-7.3,6.9
								c1.8,1.3,3.4,2.9,5.2,4.2c3.7,2.7,7.3,5.5,10.7,8.6c7.2-9.1,14.9-18.1,22.2-27.2C292.7,384.3,289.2,382.1,287.1,380.1z"/>
							<path class="st4" d="M286.8,379.8c-3.1,3.2-5.7,7.1-8.1,10.8c-2.6,3.8-5,7.7-7.2,11.7c0.5-0.1,1.1-0.1,1.6-0.2
								c-3-2.6-5.7-5.6-7.9-9c-0.3-0.5-1.1-0.8-1.6-0.3c-2.2,2.4-4.5,4.8-7.1,6.7c-0.7,0.5-0.7,1.3,0,1.8c2.6,2,5.1,4.2,7.8,6.1
								c2.7,2.1,5.4,4.2,7.9,6.5c0.5,0.5,1.2,0.4,1.7-0.2c7.3-9.1,14.9-18,22.2-27.2c0.4-0.5,0.1-1.2-0.3-1.5
								c-2.7-1.9-5.4-3.8-8-5.8c-0.8-0.7-1.8,0.6-1.1,1.4c2.2,2.6,5.3,4.3,8.1,6.2c-0.1-0.5-0.2-1-0.3-1.5
								c-7.3,9.1-14.9,18-22.1,27.2c0.6-0.1,1.1-0.1,1.7-0.2c-2.6-2.3-5.3-4.5-8-6.5c-2.7-2.1-5.4-4.3-8.1-6.4c0,0.6,0,1.2,0,1.8
								c2.8-2,5.2-4.5,7.5-7c-0.5-0.1-1.1-0.2-1.6-0.3c2.3,3.5,5,6.7,8.2,9.4c0.5,0.4,1.3,0.5,1.6-0.2c2.2-3.9,4.5-7.8,6.9-11.6
								c1.2-1.9,2.4-3.8,3.6-5.6c1.2-1.9,2.6-3.8,3.7-5.8C287.7,379.9,287.2,379.4,286.8,379.8z"/>
						</g>
						<g>
							<path class="st5" d="M286.3,377.8c-5.4,7.2-10.3,14.8-14.8,22.7c-3.1-2.7-5.8-5.8-8-9.2c-2.2,2.3-4.7,5-7.3,6.9
								c1.8,1.3,3.4,2.9,5.2,4.2c3.7,2.7,7.3,5.5,10.7,8.6c7.2-9.1,14.9-18.1,22.2-27.2C291.8,382,288.4,379.8,286.3,377.8z"/>
							<path class="st2" d="M286,377.5c-3.1,3.2-5.7,7.1-8.1,10.8c-2.6,3.8-5,7.7-7.2,11.7c0.5-0.1,1.1-0.1,1.6-0.2
								c-3-2.6-5.7-5.6-7.9-9c-0.3-0.5-1.1-0.8-1.6-0.3c-2.2,2.4-4.5,4.8-7.1,6.7c-0.7,0.5-0.7,1.3,0,1.8c2.6,2,5.1,4.2,7.8,6.1
								c2.7,2.1,5.4,4.2,7.9,6.5c0.5,0.5,1.2,0.4,1.7-0.2c7.3-9.1,14.9-18,22.2-27.2c0.4-0.5,0.1-1.2-0.3-1.5
								c-2.7-1.9-5.4-3.8-8-5.8c-0.8-0.7-1.8,0.6-1.1,1.4c2.2,2.6,5.3,4.3,8.1,6.2c-0.1-0.5-0.2-1-0.3-1.5
								c-7.3,9.1-14.9,18-22.1,27.2c0.6-0.1,1.1-0.1,1.7-0.2c-2.6-2.3-5.3-4.5-8-6.5c-2.7-2.1-5.4-4.3-8.1-6.4c0,0.6,0,1.2,0,1.8
								c2.8-2,5.2-4.5,7.5-7c-0.5-0.1-1.1-0.2-1.6-0.3c2.3,3.5,5,6.7,8.2,9.4c0.5,0.4,1.3,0.5,1.6-0.2c2.2-3.9,4.5-7.8,6.9-11.6
								c1.2-1.9,2.4-3.8,3.6-5.6c1.2-1.9,2.6-3.8,3.7-5.8C286.8,377.6,286.3,377.1,286,377.5z"/>
						</g>
					</g>
				</g>
			</g>
		</g>
	</g>
</g>
</svg>
